G04 #@! TF.GenerationSoftware,KiCad,Pcbnew,5.1.6-c6e7f7d~86~ubuntu18.04.1*
G04 #@! TF.CreationDate,2020-07-20T00:11:47+01:00*
G04 #@! TF.ProjectId,ServerPSU_Breakout,53657276-6572-4505-9355-5f427265616b,rev?*
G04 #@! TF.SameCoordinates,Original*
G04 #@! TF.FileFunction,Soldermask,Bot*
G04 #@! TF.FilePolarity,Negative*
%FSLAX46Y46*%
G04 Gerber Fmt 4.6, Leading zero omitted, Abs format (unit mm)*
G04 Created by KiCad (PCBNEW 5.1.6-c6e7f7d~86~ubuntu18.04.1) date 2020-07-20 00:11:47*
%MOMM*%
%LPD*%
G01*
G04 APERTURE LIST*
%ADD10C,4.600000*%
%ADD11O,2.100000X2.100000*%
%ADD12R,2.100000X2.100000*%
%ADD13C,13.200000*%
%ADD14C,1.300000*%
%ADD15C,9.000000*%
%ADD16C,1.924000*%
%ADD17C,0.254000*%
G04 APERTURE END LIST*
D10*
X198297800Y-64160400D03*
D11*
X203276200Y-84886800D03*
X203276200Y-102666800D03*
X203276200Y-82346800D03*
X203276200Y-74726800D03*
D10*
X123266200Y-108127800D03*
D11*
X203276200Y-97586800D03*
D10*
X198221600Y-108127800D03*
D11*
X203276200Y-92506800D03*
X203276200Y-87426800D03*
D12*
X203276200Y-69646800D03*
D11*
X203276200Y-100126800D03*
D10*
X123266200Y-64185800D03*
D11*
X203276200Y-72186800D03*
X203276200Y-79806800D03*
X203276200Y-89966800D03*
X203276200Y-95046800D03*
X203276200Y-77266800D03*
D13*
X215646000Y-86233000D03*
D14*
X220446000Y-86233000D03*
X219040113Y-89627113D03*
X215646000Y-91033000D03*
X212251887Y-89627113D03*
X210846000Y-86233000D03*
X212251887Y-82838887D03*
X215646000Y-81433000D03*
X219040113Y-82838887D03*
D13*
X107569000Y-86233000D03*
D14*
X112369000Y-86233000D03*
X110963113Y-89627113D03*
X107569000Y-91033000D03*
X104174887Y-89627113D03*
X102769000Y-86233000D03*
X104174887Y-82838887D03*
X107569000Y-81433000D03*
X110963113Y-82838887D03*
D13*
X122872500Y-134937500D03*
D14*
X127672500Y-134937500D03*
X126266613Y-138331613D03*
X122872500Y-139737500D03*
X119478387Y-138331613D03*
X118072500Y-134937500D03*
X119478387Y-131543387D03*
X122872500Y-130137500D03*
X126266613Y-131543387D03*
D13*
X200152000Y-134937500D03*
D14*
X204952000Y-134937500D03*
X203546113Y-138331613D03*
X200152000Y-139737500D03*
X196757887Y-138331613D03*
X195352000Y-134937500D03*
X196757887Y-131543387D03*
X200152000Y-130137500D03*
X203546113Y-131543387D03*
D13*
X200469500Y-51943000D03*
D14*
X205269500Y-51943000D03*
X203863613Y-55337113D03*
X200469500Y-56743000D03*
X197075387Y-55337113D03*
X195669500Y-51943000D03*
X197075387Y-48548887D03*
X200469500Y-47143000D03*
X203863613Y-48548887D03*
X126457113Y-48548887D03*
X123063000Y-47143000D03*
X119668887Y-48548887D03*
X118263000Y-51943000D03*
X119668887Y-55337113D03*
X123063000Y-56743000D03*
X126457113Y-55337113D03*
X127863000Y-51943000D03*
D13*
X123063000Y-51943000D03*
D14*
X147695419Y-127767581D03*
X145415000Y-126823000D03*
X143134581Y-127767581D03*
X142190000Y-130048000D03*
X143134581Y-132328419D03*
X145415000Y-133273000D03*
X147695419Y-132328419D03*
X148640000Y-130048000D03*
D15*
X145415000Y-130048000D03*
D14*
X178937419Y-127767581D03*
X176657000Y-126823000D03*
X174376581Y-127767581D03*
X173432000Y-130048000D03*
X174376581Y-132328419D03*
X176657000Y-133273000D03*
X178937419Y-132328419D03*
X179882000Y-130048000D03*
D15*
X176657000Y-130048000D03*
G36*
G01*
X124684000Y-74426000D02*
X124684000Y-74926000D01*
G75*
G02*
X124434000Y-75176000I-250000J0D01*
G01*
X122584000Y-75176000D01*
G75*
G02*
X122334000Y-74926000I0J250000D01*
G01*
X122334000Y-74426000D01*
G75*
G02*
X122584000Y-74176000I250000J0D01*
G01*
X124434000Y-74176000D01*
G75*
G02*
X124684000Y-74426000I0J-250000D01*
G01*
G37*
G36*
G01*
X124684000Y-75696000D02*
X124684000Y-76196000D01*
G75*
G02*
X124434000Y-76446000I-250000J0D01*
G01*
X122584000Y-76446000D01*
G75*
G02*
X122334000Y-76196000I0J250000D01*
G01*
X122334000Y-75696000D01*
G75*
G02*
X122584000Y-75446000I250000J0D01*
G01*
X124434000Y-75446000D01*
G75*
G02*
X124684000Y-75696000I0J-250000D01*
G01*
G37*
G36*
G01*
X124684000Y-76966000D02*
X124684000Y-77466000D01*
G75*
G02*
X124434000Y-77716000I-250000J0D01*
G01*
X122584000Y-77716000D01*
G75*
G02*
X122334000Y-77466000I0J250000D01*
G01*
X122334000Y-76966000D01*
G75*
G02*
X122584000Y-76716000I250000J0D01*
G01*
X124434000Y-76716000D01*
G75*
G02*
X124684000Y-76966000I0J-250000D01*
G01*
G37*
G36*
G01*
X124684000Y-78236000D02*
X124684000Y-78736000D01*
G75*
G02*
X124434000Y-78986000I-250000J0D01*
G01*
X122584000Y-78986000D01*
G75*
G02*
X122334000Y-78736000I0J250000D01*
G01*
X122334000Y-78236000D01*
G75*
G02*
X122584000Y-77986000I250000J0D01*
G01*
X124434000Y-77986000D01*
G75*
G02*
X124684000Y-78236000I0J-250000D01*
G01*
G37*
G36*
G01*
X124684000Y-79506000D02*
X124684000Y-80006000D01*
G75*
G02*
X124434000Y-80256000I-250000J0D01*
G01*
X122584000Y-80256000D01*
G75*
G02*
X122334000Y-80006000I0J250000D01*
G01*
X122334000Y-79506000D01*
G75*
G02*
X122584000Y-79256000I250000J0D01*
G01*
X124434000Y-79256000D01*
G75*
G02*
X124684000Y-79506000I0J-250000D01*
G01*
G37*
G36*
G01*
X124684000Y-80776000D02*
X124684000Y-81276000D01*
G75*
G02*
X124434000Y-81526000I-250000J0D01*
G01*
X122584000Y-81526000D01*
G75*
G02*
X122334000Y-81276000I0J250000D01*
G01*
X122334000Y-80776000D01*
G75*
G02*
X122584000Y-80526000I250000J0D01*
G01*
X124434000Y-80526000D01*
G75*
G02*
X124684000Y-80776000I0J-250000D01*
G01*
G37*
G36*
G01*
X124684000Y-82046000D02*
X124684000Y-82546000D01*
G75*
G02*
X124434000Y-82796000I-250000J0D01*
G01*
X122584000Y-82796000D01*
G75*
G02*
X122334000Y-82546000I0J250000D01*
G01*
X122334000Y-82046000D01*
G75*
G02*
X122584000Y-81796000I250000J0D01*
G01*
X124434000Y-81796000D01*
G75*
G02*
X124684000Y-82046000I0J-250000D01*
G01*
G37*
G36*
G01*
X124684000Y-83316000D02*
X124684000Y-83816000D01*
G75*
G02*
X124434000Y-84066000I-250000J0D01*
G01*
X122584000Y-84066000D01*
G75*
G02*
X122334000Y-83816000I0J250000D01*
G01*
X122334000Y-83316000D01*
G75*
G02*
X122584000Y-83066000I250000J0D01*
G01*
X124434000Y-83066000D01*
G75*
G02*
X124684000Y-83316000I0J-250000D01*
G01*
G37*
G36*
G01*
X129634000Y-83316000D02*
X129634000Y-83816000D01*
G75*
G02*
X129384000Y-84066000I-250000J0D01*
G01*
X127534000Y-84066000D01*
G75*
G02*
X127284000Y-83816000I0J250000D01*
G01*
X127284000Y-83316000D01*
G75*
G02*
X127534000Y-83066000I250000J0D01*
G01*
X129384000Y-83066000D01*
G75*
G02*
X129634000Y-83316000I0J-250000D01*
G01*
G37*
G36*
G01*
X129634000Y-82046000D02*
X129634000Y-82546000D01*
G75*
G02*
X129384000Y-82796000I-250000J0D01*
G01*
X127534000Y-82796000D01*
G75*
G02*
X127284000Y-82546000I0J250000D01*
G01*
X127284000Y-82046000D01*
G75*
G02*
X127534000Y-81796000I250000J0D01*
G01*
X129384000Y-81796000D01*
G75*
G02*
X129634000Y-82046000I0J-250000D01*
G01*
G37*
G36*
G01*
X129634000Y-80776000D02*
X129634000Y-81276000D01*
G75*
G02*
X129384000Y-81526000I-250000J0D01*
G01*
X127534000Y-81526000D01*
G75*
G02*
X127284000Y-81276000I0J250000D01*
G01*
X127284000Y-80776000D01*
G75*
G02*
X127534000Y-80526000I250000J0D01*
G01*
X129384000Y-80526000D01*
G75*
G02*
X129634000Y-80776000I0J-250000D01*
G01*
G37*
G36*
G01*
X129634000Y-79506000D02*
X129634000Y-80006000D01*
G75*
G02*
X129384000Y-80256000I-250000J0D01*
G01*
X127534000Y-80256000D01*
G75*
G02*
X127284000Y-80006000I0J250000D01*
G01*
X127284000Y-79506000D01*
G75*
G02*
X127534000Y-79256000I250000J0D01*
G01*
X129384000Y-79256000D01*
G75*
G02*
X129634000Y-79506000I0J-250000D01*
G01*
G37*
G36*
G01*
X129634000Y-78236000D02*
X129634000Y-78736000D01*
G75*
G02*
X129384000Y-78986000I-250000J0D01*
G01*
X127534000Y-78986000D01*
G75*
G02*
X127284000Y-78736000I0J250000D01*
G01*
X127284000Y-78236000D01*
G75*
G02*
X127534000Y-77986000I250000J0D01*
G01*
X129384000Y-77986000D01*
G75*
G02*
X129634000Y-78236000I0J-250000D01*
G01*
G37*
G36*
G01*
X129634000Y-76966000D02*
X129634000Y-77466000D01*
G75*
G02*
X129384000Y-77716000I-250000J0D01*
G01*
X127534000Y-77716000D01*
G75*
G02*
X127284000Y-77466000I0J250000D01*
G01*
X127284000Y-76966000D01*
G75*
G02*
X127534000Y-76716000I250000J0D01*
G01*
X129384000Y-76716000D01*
G75*
G02*
X129634000Y-76966000I0J-250000D01*
G01*
G37*
G36*
G01*
X129634000Y-75696000D02*
X129634000Y-76196000D01*
G75*
G02*
X129384000Y-76446000I-250000J0D01*
G01*
X127534000Y-76446000D01*
G75*
G02*
X127284000Y-76196000I0J250000D01*
G01*
X127284000Y-75696000D01*
G75*
G02*
X127534000Y-75446000I250000J0D01*
G01*
X129384000Y-75446000D01*
G75*
G02*
X129634000Y-75696000I0J-250000D01*
G01*
G37*
G36*
G01*
X129634000Y-74426000D02*
X129634000Y-74926000D01*
G75*
G02*
X129384000Y-75176000I-250000J0D01*
G01*
X127534000Y-75176000D01*
G75*
G02*
X127284000Y-74926000I0J250000D01*
G01*
X127284000Y-74426000D01*
G75*
G02*
X127534000Y-74176000I250000J0D01*
G01*
X129384000Y-74176000D01*
G75*
G02*
X129634000Y-74426000I0J-250000D01*
G01*
G37*
G36*
G01*
X132965000Y-79049044D02*
X132965000Y-77922956D01*
G75*
G02*
X133301956Y-77586000I336956J0D01*
G01*
X134178044Y-77586000D01*
G75*
G02*
X134515000Y-77922956I0J-336956D01*
G01*
X134515000Y-79049044D01*
G75*
G02*
X134178044Y-79386000I-336956J0D01*
G01*
X133301956Y-79386000D01*
G75*
G02*
X132965000Y-79049044I0J336956D01*
G01*
G37*
G36*
G01*
X130915000Y-79049044D02*
X130915000Y-77922956D01*
G75*
G02*
X131251956Y-77586000I336956J0D01*
G01*
X132128044Y-77586000D01*
G75*
G02*
X132465000Y-77922956I0J-336956D01*
G01*
X132465000Y-79049044D01*
G75*
G02*
X132128044Y-79386000I-336956J0D01*
G01*
X131251956Y-79386000D01*
G75*
G02*
X130915000Y-79049044I0J336956D01*
G01*
G37*
G36*
G01*
X132965000Y-76509044D02*
X132965000Y-75382956D01*
G75*
G02*
X133301956Y-75046000I336956J0D01*
G01*
X134178044Y-75046000D01*
G75*
G02*
X134515000Y-75382956I0J-336956D01*
G01*
X134515000Y-76509044D01*
G75*
G02*
X134178044Y-76846000I-336956J0D01*
G01*
X133301956Y-76846000D01*
G75*
G02*
X132965000Y-76509044I0J336956D01*
G01*
G37*
G36*
G01*
X130915000Y-76509044D02*
X130915000Y-75382956D01*
G75*
G02*
X131251956Y-75046000I336956J0D01*
G01*
X132128044Y-75046000D01*
G75*
G02*
X132465000Y-75382956I0J-336956D01*
G01*
X132465000Y-76509044D01*
G75*
G02*
X132128044Y-76846000I-336956J0D01*
G01*
X131251956Y-76846000D01*
G75*
G02*
X130915000Y-76509044I0J336956D01*
G01*
G37*
G36*
G01*
X132965000Y-81589044D02*
X132965000Y-80462956D01*
G75*
G02*
X133301956Y-80126000I336956J0D01*
G01*
X134178044Y-80126000D01*
G75*
G02*
X134515000Y-80462956I0J-336956D01*
G01*
X134515000Y-81589044D01*
G75*
G02*
X134178044Y-81926000I-336956J0D01*
G01*
X133301956Y-81926000D01*
G75*
G02*
X132965000Y-81589044I0J336956D01*
G01*
G37*
G36*
G01*
X130915000Y-81589044D02*
X130915000Y-80462956D01*
G75*
G02*
X131251956Y-80126000I336956J0D01*
G01*
X132128044Y-80126000D01*
G75*
G02*
X132465000Y-80462956I0J-336956D01*
G01*
X132465000Y-81589044D01*
G75*
G02*
X132128044Y-81926000I-336956J0D01*
G01*
X131251956Y-81926000D01*
G75*
G02*
X130915000Y-81589044I0J336956D01*
G01*
G37*
G36*
G01*
X132965000Y-73969044D02*
X132965000Y-72842956D01*
G75*
G02*
X133301956Y-72506000I336956J0D01*
G01*
X134178044Y-72506000D01*
G75*
G02*
X134515000Y-72842956I0J-336956D01*
G01*
X134515000Y-73969044D01*
G75*
G02*
X134178044Y-74306000I-336956J0D01*
G01*
X133301956Y-74306000D01*
G75*
G02*
X132965000Y-73969044I0J336956D01*
G01*
G37*
G36*
G01*
X130915000Y-73969044D02*
X130915000Y-72842956D01*
G75*
G02*
X131251956Y-72506000I336956J0D01*
G01*
X132128044Y-72506000D01*
G75*
G02*
X132465000Y-72842956I0J-336956D01*
G01*
X132465000Y-73969044D01*
G75*
G02*
X132128044Y-74306000I-336956J0D01*
G01*
X131251956Y-74306000D01*
G75*
G02*
X130915000Y-73969044I0J336956D01*
G01*
G37*
G36*
G01*
X118114000Y-80335956D02*
X118114000Y-81462044D01*
G75*
G02*
X117777044Y-81799000I-336956J0D01*
G01*
X116900956Y-81799000D01*
G75*
G02*
X116564000Y-81462044I0J336956D01*
G01*
X116564000Y-80335956D01*
G75*
G02*
X116900956Y-79999000I336956J0D01*
G01*
X117777044Y-79999000D01*
G75*
G02*
X118114000Y-80335956I0J-336956D01*
G01*
G37*
G36*
G01*
X120164000Y-80335956D02*
X120164000Y-81462044D01*
G75*
G02*
X119827044Y-81799000I-336956J0D01*
G01*
X118950956Y-81799000D01*
G75*
G02*
X118614000Y-81462044I0J336956D01*
G01*
X118614000Y-80335956D01*
G75*
G02*
X118950956Y-79999000I336956J0D01*
G01*
X119827044Y-79999000D01*
G75*
G02*
X120164000Y-80335956I0J-336956D01*
G01*
G37*
G36*
G01*
X118114000Y-74239956D02*
X118114000Y-75366044D01*
G75*
G02*
X117777044Y-75703000I-336956J0D01*
G01*
X116900956Y-75703000D01*
G75*
G02*
X116564000Y-75366044I0J336956D01*
G01*
X116564000Y-74239956D01*
G75*
G02*
X116900956Y-73903000I336956J0D01*
G01*
X117777044Y-73903000D01*
G75*
G02*
X118114000Y-74239956I0J-336956D01*
G01*
G37*
G36*
G01*
X120164000Y-74239956D02*
X120164000Y-75366044D01*
G75*
G02*
X119827044Y-75703000I-336956J0D01*
G01*
X118950956Y-75703000D01*
G75*
G02*
X118614000Y-75366044I0J336956D01*
G01*
X118614000Y-74239956D01*
G75*
G02*
X118950956Y-73903000I336956J0D01*
G01*
X119827044Y-73903000D01*
G75*
G02*
X120164000Y-74239956I0J-336956D01*
G01*
G37*
G36*
G01*
X118114000Y-76271956D02*
X118114000Y-77398044D01*
G75*
G02*
X117777044Y-77735000I-336956J0D01*
G01*
X116900956Y-77735000D01*
G75*
G02*
X116564000Y-77398044I0J336956D01*
G01*
X116564000Y-76271956D01*
G75*
G02*
X116900956Y-75935000I336956J0D01*
G01*
X117777044Y-75935000D01*
G75*
G02*
X118114000Y-76271956I0J-336956D01*
G01*
G37*
G36*
G01*
X120164000Y-76271956D02*
X120164000Y-77398044D01*
G75*
G02*
X119827044Y-77735000I-336956J0D01*
G01*
X118950956Y-77735000D01*
G75*
G02*
X118614000Y-77398044I0J336956D01*
G01*
X118614000Y-76271956D01*
G75*
G02*
X118950956Y-75935000I336956J0D01*
G01*
X119827044Y-75935000D01*
G75*
G02*
X120164000Y-76271956I0J-336956D01*
G01*
G37*
G36*
G01*
X118114000Y-78303956D02*
X118114000Y-79430044D01*
G75*
G02*
X117777044Y-79767000I-336956J0D01*
G01*
X116900956Y-79767000D01*
G75*
G02*
X116564000Y-79430044I0J336956D01*
G01*
X116564000Y-78303956D01*
G75*
G02*
X116900956Y-77967000I336956J0D01*
G01*
X117777044Y-77967000D01*
G75*
G02*
X118114000Y-78303956I0J-336956D01*
G01*
G37*
G36*
G01*
X120164000Y-78303956D02*
X120164000Y-79430044D01*
G75*
G02*
X119827044Y-79767000I-336956J0D01*
G01*
X118950956Y-79767000D01*
G75*
G02*
X118614000Y-79430044I0J336956D01*
G01*
X118614000Y-78303956D01*
G75*
G02*
X118950956Y-77967000I336956J0D01*
G01*
X119827044Y-77967000D01*
G75*
G02*
X120164000Y-78303956I0J-336956D01*
G01*
G37*
D11*
X111760000Y-59690000D03*
X111760000Y-57150000D03*
X111760000Y-54610000D03*
X111760000Y-52070000D03*
D12*
X111760000Y-49530000D03*
G36*
G01*
X157355000Y-70195000D02*
X158955000Y-70195000D01*
G75*
G02*
X159130000Y-70370000I0J-175000D01*
G01*
X159130000Y-70720000D01*
G75*
G02*
X158955000Y-70895000I-175000J0D01*
G01*
X157355000Y-70895000D01*
G75*
G02*
X157180000Y-70720000I0J175000D01*
G01*
X157180000Y-70370000D01*
G75*
G02*
X157355000Y-70195000I175000J0D01*
G01*
G37*
G36*
G01*
X157355000Y-70695000D02*
X158955000Y-70695000D01*
G75*
G02*
X159130000Y-70870000I0J-175000D01*
G01*
X159130000Y-71220000D01*
G75*
G02*
X158955000Y-71395000I-175000J0D01*
G01*
X157355000Y-71395000D01*
G75*
G02*
X157180000Y-71220000I0J175000D01*
G01*
X157180000Y-70870000D01*
G75*
G02*
X157355000Y-70695000I175000J0D01*
G01*
G37*
G36*
G01*
X157355000Y-71195000D02*
X158955000Y-71195000D01*
G75*
G02*
X159130000Y-71370000I0J-175000D01*
G01*
X159130000Y-71720000D01*
G75*
G02*
X158955000Y-71895000I-175000J0D01*
G01*
X157355000Y-71895000D01*
G75*
G02*
X157180000Y-71720000I0J175000D01*
G01*
X157180000Y-71370000D01*
G75*
G02*
X157355000Y-71195000I175000J0D01*
G01*
G37*
G36*
G01*
X157355000Y-71695000D02*
X158955000Y-71695000D01*
G75*
G02*
X159130000Y-71870000I0J-175000D01*
G01*
X159130000Y-72220000D01*
G75*
G02*
X158955000Y-72395000I-175000J0D01*
G01*
X157355000Y-72395000D01*
G75*
G02*
X157180000Y-72220000I0J175000D01*
G01*
X157180000Y-71870000D01*
G75*
G02*
X157355000Y-71695000I175000J0D01*
G01*
G37*
G36*
G01*
X157355000Y-72195000D02*
X158955000Y-72195000D01*
G75*
G02*
X159130000Y-72370000I0J-175000D01*
G01*
X159130000Y-72720000D01*
G75*
G02*
X158955000Y-72895000I-175000J0D01*
G01*
X157355000Y-72895000D01*
G75*
G02*
X157180000Y-72720000I0J175000D01*
G01*
X157180000Y-72370000D01*
G75*
G02*
X157355000Y-72195000I175000J0D01*
G01*
G37*
G36*
G01*
X157355000Y-72695000D02*
X158955000Y-72695000D01*
G75*
G02*
X159130000Y-72870000I0J-175000D01*
G01*
X159130000Y-73220000D01*
G75*
G02*
X158955000Y-73395000I-175000J0D01*
G01*
X157355000Y-73395000D01*
G75*
G02*
X157180000Y-73220000I0J175000D01*
G01*
X157180000Y-72870000D01*
G75*
G02*
X157355000Y-72695000I175000J0D01*
G01*
G37*
G36*
G01*
X157355000Y-73195000D02*
X158955000Y-73195000D01*
G75*
G02*
X159130000Y-73370000I0J-175000D01*
G01*
X159130000Y-73720000D01*
G75*
G02*
X158955000Y-73895000I-175000J0D01*
G01*
X157355000Y-73895000D01*
G75*
G02*
X157180000Y-73720000I0J175000D01*
G01*
X157180000Y-73370000D01*
G75*
G02*
X157355000Y-73195000I175000J0D01*
G01*
G37*
G36*
G01*
X157355000Y-73695000D02*
X158955000Y-73695000D01*
G75*
G02*
X159130000Y-73870000I0J-175000D01*
G01*
X159130000Y-74220000D01*
G75*
G02*
X158955000Y-74395000I-175000J0D01*
G01*
X157355000Y-74395000D01*
G75*
G02*
X157180000Y-74220000I0J175000D01*
G01*
X157180000Y-73870000D01*
G75*
G02*
X157355000Y-73695000I175000J0D01*
G01*
G37*
G36*
G01*
X157355000Y-74195000D02*
X158955000Y-74195000D01*
G75*
G02*
X159130000Y-74370000I0J-175000D01*
G01*
X159130000Y-74720000D01*
G75*
G02*
X158955000Y-74895000I-175000J0D01*
G01*
X157355000Y-74895000D01*
G75*
G02*
X157180000Y-74720000I0J175000D01*
G01*
X157180000Y-74370000D01*
G75*
G02*
X157355000Y-74195000I175000J0D01*
G01*
G37*
G36*
G01*
X157355000Y-74695000D02*
X158955000Y-74695000D01*
G75*
G02*
X159130000Y-74870000I0J-175000D01*
G01*
X159130000Y-75220000D01*
G75*
G02*
X158955000Y-75395000I-175000J0D01*
G01*
X157355000Y-75395000D01*
G75*
G02*
X157180000Y-75220000I0J175000D01*
G01*
X157180000Y-74870000D01*
G75*
G02*
X157355000Y-74695000I175000J0D01*
G01*
G37*
G36*
G01*
X157355000Y-75195000D02*
X158955000Y-75195000D01*
G75*
G02*
X159130000Y-75370000I0J-175000D01*
G01*
X159130000Y-75720000D01*
G75*
G02*
X158955000Y-75895000I-175000J0D01*
G01*
X157355000Y-75895000D01*
G75*
G02*
X157180000Y-75720000I0J175000D01*
G01*
X157180000Y-75370000D01*
G75*
G02*
X157355000Y-75195000I175000J0D01*
G01*
G37*
G36*
G01*
X157355000Y-75695000D02*
X158955000Y-75695000D01*
G75*
G02*
X159130000Y-75870000I0J-175000D01*
G01*
X159130000Y-76220000D01*
G75*
G02*
X158955000Y-76395000I-175000J0D01*
G01*
X157355000Y-76395000D01*
G75*
G02*
X157180000Y-76220000I0J175000D01*
G01*
X157180000Y-75870000D01*
G75*
G02*
X157355000Y-75695000I175000J0D01*
G01*
G37*
G36*
G01*
X157355000Y-76195000D02*
X158955000Y-76195000D01*
G75*
G02*
X159130000Y-76370000I0J-175000D01*
G01*
X159130000Y-76720000D01*
G75*
G02*
X158955000Y-76895000I-175000J0D01*
G01*
X157355000Y-76895000D01*
G75*
G02*
X157180000Y-76720000I0J175000D01*
G01*
X157180000Y-76370000D01*
G75*
G02*
X157355000Y-76195000I175000J0D01*
G01*
G37*
G36*
G01*
X157355000Y-76695000D02*
X158955000Y-76695000D01*
G75*
G02*
X159130000Y-76870000I0J-175000D01*
G01*
X159130000Y-77220000D01*
G75*
G02*
X158955000Y-77395000I-175000J0D01*
G01*
X157355000Y-77395000D01*
G75*
G02*
X157180000Y-77220000I0J175000D01*
G01*
X157180000Y-76870000D01*
G75*
G02*
X157355000Y-76695000I175000J0D01*
G01*
G37*
G36*
G01*
X157355000Y-77195000D02*
X158955000Y-77195000D01*
G75*
G02*
X159130000Y-77370000I0J-175000D01*
G01*
X159130000Y-77720000D01*
G75*
G02*
X158955000Y-77895000I-175000J0D01*
G01*
X157355000Y-77895000D01*
G75*
G02*
X157180000Y-77720000I0J175000D01*
G01*
X157180000Y-77370000D01*
G75*
G02*
X157355000Y-77195000I175000J0D01*
G01*
G37*
G36*
G01*
X157355000Y-77695000D02*
X158955000Y-77695000D01*
G75*
G02*
X159130000Y-77870000I0J-175000D01*
G01*
X159130000Y-78220000D01*
G75*
G02*
X158955000Y-78395000I-175000J0D01*
G01*
X157355000Y-78395000D01*
G75*
G02*
X157180000Y-78220000I0J175000D01*
G01*
X157180000Y-77870000D01*
G75*
G02*
X157355000Y-77695000I175000J0D01*
G01*
G37*
G36*
G01*
X159905000Y-78995000D02*
X160255000Y-78995000D01*
G75*
G02*
X160430000Y-79170000I0J-175000D01*
G01*
X160430000Y-80770000D01*
G75*
G02*
X160255000Y-80945000I-175000J0D01*
G01*
X159905000Y-80945000D01*
G75*
G02*
X159730000Y-80770000I0J175000D01*
G01*
X159730000Y-79170000D01*
G75*
G02*
X159905000Y-78995000I175000J0D01*
G01*
G37*
G36*
G01*
X160405000Y-78995000D02*
X160755000Y-78995000D01*
G75*
G02*
X160930000Y-79170000I0J-175000D01*
G01*
X160930000Y-80770000D01*
G75*
G02*
X160755000Y-80945000I-175000J0D01*
G01*
X160405000Y-80945000D01*
G75*
G02*
X160230000Y-80770000I0J175000D01*
G01*
X160230000Y-79170000D01*
G75*
G02*
X160405000Y-78995000I175000J0D01*
G01*
G37*
G36*
G01*
X160905000Y-78995000D02*
X161255000Y-78995000D01*
G75*
G02*
X161430000Y-79170000I0J-175000D01*
G01*
X161430000Y-80770000D01*
G75*
G02*
X161255000Y-80945000I-175000J0D01*
G01*
X160905000Y-80945000D01*
G75*
G02*
X160730000Y-80770000I0J175000D01*
G01*
X160730000Y-79170000D01*
G75*
G02*
X160905000Y-78995000I175000J0D01*
G01*
G37*
G36*
G01*
X161405000Y-78995000D02*
X161755000Y-78995000D01*
G75*
G02*
X161930000Y-79170000I0J-175000D01*
G01*
X161930000Y-80770000D01*
G75*
G02*
X161755000Y-80945000I-175000J0D01*
G01*
X161405000Y-80945000D01*
G75*
G02*
X161230000Y-80770000I0J175000D01*
G01*
X161230000Y-79170000D01*
G75*
G02*
X161405000Y-78995000I175000J0D01*
G01*
G37*
G36*
G01*
X161905000Y-78995000D02*
X162255000Y-78995000D01*
G75*
G02*
X162430000Y-79170000I0J-175000D01*
G01*
X162430000Y-80770000D01*
G75*
G02*
X162255000Y-80945000I-175000J0D01*
G01*
X161905000Y-80945000D01*
G75*
G02*
X161730000Y-80770000I0J175000D01*
G01*
X161730000Y-79170000D01*
G75*
G02*
X161905000Y-78995000I175000J0D01*
G01*
G37*
G36*
G01*
X162405000Y-78995000D02*
X162755000Y-78995000D01*
G75*
G02*
X162930000Y-79170000I0J-175000D01*
G01*
X162930000Y-80770000D01*
G75*
G02*
X162755000Y-80945000I-175000J0D01*
G01*
X162405000Y-80945000D01*
G75*
G02*
X162230000Y-80770000I0J175000D01*
G01*
X162230000Y-79170000D01*
G75*
G02*
X162405000Y-78995000I175000J0D01*
G01*
G37*
G36*
G01*
X162905000Y-78995000D02*
X163255000Y-78995000D01*
G75*
G02*
X163430000Y-79170000I0J-175000D01*
G01*
X163430000Y-80770000D01*
G75*
G02*
X163255000Y-80945000I-175000J0D01*
G01*
X162905000Y-80945000D01*
G75*
G02*
X162730000Y-80770000I0J175000D01*
G01*
X162730000Y-79170000D01*
G75*
G02*
X162905000Y-78995000I175000J0D01*
G01*
G37*
G36*
G01*
X163405000Y-78995000D02*
X163755000Y-78995000D01*
G75*
G02*
X163930000Y-79170000I0J-175000D01*
G01*
X163930000Y-80770000D01*
G75*
G02*
X163755000Y-80945000I-175000J0D01*
G01*
X163405000Y-80945000D01*
G75*
G02*
X163230000Y-80770000I0J175000D01*
G01*
X163230000Y-79170000D01*
G75*
G02*
X163405000Y-78995000I175000J0D01*
G01*
G37*
G36*
G01*
X163905000Y-78995000D02*
X164255000Y-78995000D01*
G75*
G02*
X164430000Y-79170000I0J-175000D01*
G01*
X164430000Y-80770000D01*
G75*
G02*
X164255000Y-80945000I-175000J0D01*
G01*
X163905000Y-80945000D01*
G75*
G02*
X163730000Y-80770000I0J175000D01*
G01*
X163730000Y-79170000D01*
G75*
G02*
X163905000Y-78995000I175000J0D01*
G01*
G37*
G36*
G01*
X164405000Y-78995000D02*
X164755000Y-78995000D01*
G75*
G02*
X164930000Y-79170000I0J-175000D01*
G01*
X164930000Y-80770000D01*
G75*
G02*
X164755000Y-80945000I-175000J0D01*
G01*
X164405000Y-80945000D01*
G75*
G02*
X164230000Y-80770000I0J175000D01*
G01*
X164230000Y-79170000D01*
G75*
G02*
X164405000Y-78995000I175000J0D01*
G01*
G37*
G36*
G01*
X164905000Y-78995000D02*
X165255000Y-78995000D01*
G75*
G02*
X165430000Y-79170000I0J-175000D01*
G01*
X165430000Y-80770000D01*
G75*
G02*
X165255000Y-80945000I-175000J0D01*
G01*
X164905000Y-80945000D01*
G75*
G02*
X164730000Y-80770000I0J175000D01*
G01*
X164730000Y-79170000D01*
G75*
G02*
X164905000Y-78995000I175000J0D01*
G01*
G37*
G36*
G01*
X165405000Y-78995000D02*
X165755000Y-78995000D01*
G75*
G02*
X165930000Y-79170000I0J-175000D01*
G01*
X165930000Y-80770000D01*
G75*
G02*
X165755000Y-80945000I-175000J0D01*
G01*
X165405000Y-80945000D01*
G75*
G02*
X165230000Y-80770000I0J175000D01*
G01*
X165230000Y-79170000D01*
G75*
G02*
X165405000Y-78995000I175000J0D01*
G01*
G37*
G36*
G01*
X165905000Y-78995000D02*
X166255000Y-78995000D01*
G75*
G02*
X166430000Y-79170000I0J-175000D01*
G01*
X166430000Y-80770000D01*
G75*
G02*
X166255000Y-80945000I-175000J0D01*
G01*
X165905000Y-80945000D01*
G75*
G02*
X165730000Y-80770000I0J175000D01*
G01*
X165730000Y-79170000D01*
G75*
G02*
X165905000Y-78995000I175000J0D01*
G01*
G37*
G36*
G01*
X166405000Y-78995000D02*
X166755000Y-78995000D01*
G75*
G02*
X166930000Y-79170000I0J-175000D01*
G01*
X166930000Y-80770000D01*
G75*
G02*
X166755000Y-80945000I-175000J0D01*
G01*
X166405000Y-80945000D01*
G75*
G02*
X166230000Y-80770000I0J175000D01*
G01*
X166230000Y-79170000D01*
G75*
G02*
X166405000Y-78995000I175000J0D01*
G01*
G37*
G36*
G01*
X166905000Y-78995000D02*
X167255000Y-78995000D01*
G75*
G02*
X167430000Y-79170000I0J-175000D01*
G01*
X167430000Y-80770000D01*
G75*
G02*
X167255000Y-80945000I-175000J0D01*
G01*
X166905000Y-80945000D01*
G75*
G02*
X166730000Y-80770000I0J175000D01*
G01*
X166730000Y-79170000D01*
G75*
G02*
X166905000Y-78995000I175000J0D01*
G01*
G37*
G36*
G01*
X167405000Y-78995000D02*
X167755000Y-78995000D01*
G75*
G02*
X167930000Y-79170000I0J-175000D01*
G01*
X167930000Y-80770000D01*
G75*
G02*
X167755000Y-80945000I-175000J0D01*
G01*
X167405000Y-80945000D01*
G75*
G02*
X167230000Y-80770000I0J175000D01*
G01*
X167230000Y-79170000D01*
G75*
G02*
X167405000Y-78995000I175000J0D01*
G01*
G37*
G36*
G01*
X168705000Y-77695000D02*
X170305000Y-77695000D01*
G75*
G02*
X170480000Y-77870000I0J-175000D01*
G01*
X170480000Y-78220000D01*
G75*
G02*
X170305000Y-78395000I-175000J0D01*
G01*
X168705000Y-78395000D01*
G75*
G02*
X168530000Y-78220000I0J175000D01*
G01*
X168530000Y-77870000D01*
G75*
G02*
X168705000Y-77695000I175000J0D01*
G01*
G37*
G36*
G01*
X168705000Y-77195000D02*
X170305000Y-77195000D01*
G75*
G02*
X170480000Y-77370000I0J-175000D01*
G01*
X170480000Y-77720000D01*
G75*
G02*
X170305000Y-77895000I-175000J0D01*
G01*
X168705000Y-77895000D01*
G75*
G02*
X168530000Y-77720000I0J175000D01*
G01*
X168530000Y-77370000D01*
G75*
G02*
X168705000Y-77195000I175000J0D01*
G01*
G37*
G36*
G01*
X168705000Y-76695000D02*
X170305000Y-76695000D01*
G75*
G02*
X170480000Y-76870000I0J-175000D01*
G01*
X170480000Y-77220000D01*
G75*
G02*
X170305000Y-77395000I-175000J0D01*
G01*
X168705000Y-77395000D01*
G75*
G02*
X168530000Y-77220000I0J175000D01*
G01*
X168530000Y-76870000D01*
G75*
G02*
X168705000Y-76695000I175000J0D01*
G01*
G37*
G36*
G01*
X168705000Y-76195000D02*
X170305000Y-76195000D01*
G75*
G02*
X170480000Y-76370000I0J-175000D01*
G01*
X170480000Y-76720000D01*
G75*
G02*
X170305000Y-76895000I-175000J0D01*
G01*
X168705000Y-76895000D01*
G75*
G02*
X168530000Y-76720000I0J175000D01*
G01*
X168530000Y-76370000D01*
G75*
G02*
X168705000Y-76195000I175000J0D01*
G01*
G37*
G36*
G01*
X168705000Y-75695000D02*
X170305000Y-75695000D01*
G75*
G02*
X170480000Y-75870000I0J-175000D01*
G01*
X170480000Y-76220000D01*
G75*
G02*
X170305000Y-76395000I-175000J0D01*
G01*
X168705000Y-76395000D01*
G75*
G02*
X168530000Y-76220000I0J175000D01*
G01*
X168530000Y-75870000D01*
G75*
G02*
X168705000Y-75695000I175000J0D01*
G01*
G37*
G36*
G01*
X168705000Y-75195000D02*
X170305000Y-75195000D01*
G75*
G02*
X170480000Y-75370000I0J-175000D01*
G01*
X170480000Y-75720000D01*
G75*
G02*
X170305000Y-75895000I-175000J0D01*
G01*
X168705000Y-75895000D01*
G75*
G02*
X168530000Y-75720000I0J175000D01*
G01*
X168530000Y-75370000D01*
G75*
G02*
X168705000Y-75195000I175000J0D01*
G01*
G37*
G36*
G01*
X168705000Y-74695000D02*
X170305000Y-74695000D01*
G75*
G02*
X170480000Y-74870000I0J-175000D01*
G01*
X170480000Y-75220000D01*
G75*
G02*
X170305000Y-75395000I-175000J0D01*
G01*
X168705000Y-75395000D01*
G75*
G02*
X168530000Y-75220000I0J175000D01*
G01*
X168530000Y-74870000D01*
G75*
G02*
X168705000Y-74695000I175000J0D01*
G01*
G37*
G36*
G01*
X168705000Y-74195000D02*
X170305000Y-74195000D01*
G75*
G02*
X170480000Y-74370000I0J-175000D01*
G01*
X170480000Y-74720000D01*
G75*
G02*
X170305000Y-74895000I-175000J0D01*
G01*
X168705000Y-74895000D01*
G75*
G02*
X168530000Y-74720000I0J175000D01*
G01*
X168530000Y-74370000D01*
G75*
G02*
X168705000Y-74195000I175000J0D01*
G01*
G37*
G36*
G01*
X168705000Y-73695000D02*
X170305000Y-73695000D01*
G75*
G02*
X170480000Y-73870000I0J-175000D01*
G01*
X170480000Y-74220000D01*
G75*
G02*
X170305000Y-74395000I-175000J0D01*
G01*
X168705000Y-74395000D01*
G75*
G02*
X168530000Y-74220000I0J175000D01*
G01*
X168530000Y-73870000D01*
G75*
G02*
X168705000Y-73695000I175000J0D01*
G01*
G37*
G36*
G01*
X168705000Y-73195000D02*
X170305000Y-73195000D01*
G75*
G02*
X170480000Y-73370000I0J-175000D01*
G01*
X170480000Y-73720000D01*
G75*
G02*
X170305000Y-73895000I-175000J0D01*
G01*
X168705000Y-73895000D01*
G75*
G02*
X168530000Y-73720000I0J175000D01*
G01*
X168530000Y-73370000D01*
G75*
G02*
X168705000Y-73195000I175000J0D01*
G01*
G37*
G36*
G01*
X168705000Y-72695000D02*
X170305000Y-72695000D01*
G75*
G02*
X170480000Y-72870000I0J-175000D01*
G01*
X170480000Y-73220000D01*
G75*
G02*
X170305000Y-73395000I-175000J0D01*
G01*
X168705000Y-73395000D01*
G75*
G02*
X168530000Y-73220000I0J175000D01*
G01*
X168530000Y-72870000D01*
G75*
G02*
X168705000Y-72695000I175000J0D01*
G01*
G37*
G36*
G01*
X168705000Y-72195000D02*
X170305000Y-72195000D01*
G75*
G02*
X170480000Y-72370000I0J-175000D01*
G01*
X170480000Y-72720000D01*
G75*
G02*
X170305000Y-72895000I-175000J0D01*
G01*
X168705000Y-72895000D01*
G75*
G02*
X168530000Y-72720000I0J175000D01*
G01*
X168530000Y-72370000D01*
G75*
G02*
X168705000Y-72195000I175000J0D01*
G01*
G37*
G36*
G01*
X168705000Y-71695000D02*
X170305000Y-71695000D01*
G75*
G02*
X170480000Y-71870000I0J-175000D01*
G01*
X170480000Y-72220000D01*
G75*
G02*
X170305000Y-72395000I-175000J0D01*
G01*
X168705000Y-72395000D01*
G75*
G02*
X168530000Y-72220000I0J175000D01*
G01*
X168530000Y-71870000D01*
G75*
G02*
X168705000Y-71695000I175000J0D01*
G01*
G37*
G36*
G01*
X168705000Y-71195000D02*
X170305000Y-71195000D01*
G75*
G02*
X170480000Y-71370000I0J-175000D01*
G01*
X170480000Y-71720000D01*
G75*
G02*
X170305000Y-71895000I-175000J0D01*
G01*
X168705000Y-71895000D01*
G75*
G02*
X168530000Y-71720000I0J175000D01*
G01*
X168530000Y-71370000D01*
G75*
G02*
X168705000Y-71195000I175000J0D01*
G01*
G37*
G36*
G01*
X168705000Y-70695000D02*
X170305000Y-70695000D01*
G75*
G02*
X170480000Y-70870000I0J-175000D01*
G01*
X170480000Y-71220000D01*
G75*
G02*
X170305000Y-71395000I-175000J0D01*
G01*
X168705000Y-71395000D01*
G75*
G02*
X168530000Y-71220000I0J175000D01*
G01*
X168530000Y-70870000D01*
G75*
G02*
X168705000Y-70695000I175000J0D01*
G01*
G37*
G36*
G01*
X168705000Y-70195000D02*
X170305000Y-70195000D01*
G75*
G02*
X170480000Y-70370000I0J-175000D01*
G01*
X170480000Y-70720000D01*
G75*
G02*
X170305000Y-70895000I-175000J0D01*
G01*
X168705000Y-70895000D01*
G75*
G02*
X168530000Y-70720000I0J175000D01*
G01*
X168530000Y-70370000D01*
G75*
G02*
X168705000Y-70195000I175000J0D01*
G01*
G37*
G36*
G01*
X167405000Y-67645000D02*
X167755000Y-67645000D01*
G75*
G02*
X167930000Y-67820000I0J-175000D01*
G01*
X167930000Y-69420000D01*
G75*
G02*
X167755000Y-69595000I-175000J0D01*
G01*
X167405000Y-69595000D01*
G75*
G02*
X167230000Y-69420000I0J175000D01*
G01*
X167230000Y-67820000D01*
G75*
G02*
X167405000Y-67645000I175000J0D01*
G01*
G37*
G36*
G01*
X166905000Y-67645000D02*
X167255000Y-67645000D01*
G75*
G02*
X167430000Y-67820000I0J-175000D01*
G01*
X167430000Y-69420000D01*
G75*
G02*
X167255000Y-69595000I-175000J0D01*
G01*
X166905000Y-69595000D01*
G75*
G02*
X166730000Y-69420000I0J175000D01*
G01*
X166730000Y-67820000D01*
G75*
G02*
X166905000Y-67645000I175000J0D01*
G01*
G37*
G36*
G01*
X166405000Y-67645000D02*
X166755000Y-67645000D01*
G75*
G02*
X166930000Y-67820000I0J-175000D01*
G01*
X166930000Y-69420000D01*
G75*
G02*
X166755000Y-69595000I-175000J0D01*
G01*
X166405000Y-69595000D01*
G75*
G02*
X166230000Y-69420000I0J175000D01*
G01*
X166230000Y-67820000D01*
G75*
G02*
X166405000Y-67645000I175000J0D01*
G01*
G37*
G36*
G01*
X165905000Y-67645000D02*
X166255000Y-67645000D01*
G75*
G02*
X166430000Y-67820000I0J-175000D01*
G01*
X166430000Y-69420000D01*
G75*
G02*
X166255000Y-69595000I-175000J0D01*
G01*
X165905000Y-69595000D01*
G75*
G02*
X165730000Y-69420000I0J175000D01*
G01*
X165730000Y-67820000D01*
G75*
G02*
X165905000Y-67645000I175000J0D01*
G01*
G37*
G36*
G01*
X165405000Y-67645000D02*
X165755000Y-67645000D01*
G75*
G02*
X165930000Y-67820000I0J-175000D01*
G01*
X165930000Y-69420000D01*
G75*
G02*
X165755000Y-69595000I-175000J0D01*
G01*
X165405000Y-69595000D01*
G75*
G02*
X165230000Y-69420000I0J175000D01*
G01*
X165230000Y-67820000D01*
G75*
G02*
X165405000Y-67645000I175000J0D01*
G01*
G37*
G36*
G01*
X164905000Y-67645000D02*
X165255000Y-67645000D01*
G75*
G02*
X165430000Y-67820000I0J-175000D01*
G01*
X165430000Y-69420000D01*
G75*
G02*
X165255000Y-69595000I-175000J0D01*
G01*
X164905000Y-69595000D01*
G75*
G02*
X164730000Y-69420000I0J175000D01*
G01*
X164730000Y-67820000D01*
G75*
G02*
X164905000Y-67645000I175000J0D01*
G01*
G37*
G36*
G01*
X164405000Y-67645000D02*
X164755000Y-67645000D01*
G75*
G02*
X164930000Y-67820000I0J-175000D01*
G01*
X164930000Y-69420000D01*
G75*
G02*
X164755000Y-69595000I-175000J0D01*
G01*
X164405000Y-69595000D01*
G75*
G02*
X164230000Y-69420000I0J175000D01*
G01*
X164230000Y-67820000D01*
G75*
G02*
X164405000Y-67645000I175000J0D01*
G01*
G37*
G36*
G01*
X163905000Y-67645000D02*
X164255000Y-67645000D01*
G75*
G02*
X164430000Y-67820000I0J-175000D01*
G01*
X164430000Y-69420000D01*
G75*
G02*
X164255000Y-69595000I-175000J0D01*
G01*
X163905000Y-69595000D01*
G75*
G02*
X163730000Y-69420000I0J175000D01*
G01*
X163730000Y-67820000D01*
G75*
G02*
X163905000Y-67645000I175000J0D01*
G01*
G37*
G36*
G01*
X163405000Y-67645000D02*
X163755000Y-67645000D01*
G75*
G02*
X163930000Y-67820000I0J-175000D01*
G01*
X163930000Y-69420000D01*
G75*
G02*
X163755000Y-69595000I-175000J0D01*
G01*
X163405000Y-69595000D01*
G75*
G02*
X163230000Y-69420000I0J175000D01*
G01*
X163230000Y-67820000D01*
G75*
G02*
X163405000Y-67645000I175000J0D01*
G01*
G37*
G36*
G01*
X162905000Y-67645000D02*
X163255000Y-67645000D01*
G75*
G02*
X163430000Y-67820000I0J-175000D01*
G01*
X163430000Y-69420000D01*
G75*
G02*
X163255000Y-69595000I-175000J0D01*
G01*
X162905000Y-69595000D01*
G75*
G02*
X162730000Y-69420000I0J175000D01*
G01*
X162730000Y-67820000D01*
G75*
G02*
X162905000Y-67645000I175000J0D01*
G01*
G37*
G36*
G01*
X162405000Y-67645000D02*
X162755000Y-67645000D01*
G75*
G02*
X162930000Y-67820000I0J-175000D01*
G01*
X162930000Y-69420000D01*
G75*
G02*
X162755000Y-69595000I-175000J0D01*
G01*
X162405000Y-69595000D01*
G75*
G02*
X162230000Y-69420000I0J175000D01*
G01*
X162230000Y-67820000D01*
G75*
G02*
X162405000Y-67645000I175000J0D01*
G01*
G37*
G36*
G01*
X161905000Y-67645000D02*
X162255000Y-67645000D01*
G75*
G02*
X162430000Y-67820000I0J-175000D01*
G01*
X162430000Y-69420000D01*
G75*
G02*
X162255000Y-69595000I-175000J0D01*
G01*
X161905000Y-69595000D01*
G75*
G02*
X161730000Y-69420000I0J175000D01*
G01*
X161730000Y-67820000D01*
G75*
G02*
X161905000Y-67645000I175000J0D01*
G01*
G37*
G36*
G01*
X161405000Y-67645000D02*
X161755000Y-67645000D01*
G75*
G02*
X161930000Y-67820000I0J-175000D01*
G01*
X161930000Y-69420000D01*
G75*
G02*
X161755000Y-69595000I-175000J0D01*
G01*
X161405000Y-69595000D01*
G75*
G02*
X161230000Y-69420000I0J175000D01*
G01*
X161230000Y-67820000D01*
G75*
G02*
X161405000Y-67645000I175000J0D01*
G01*
G37*
G36*
G01*
X160905000Y-67645000D02*
X161255000Y-67645000D01*
G75*
G02*
X161430000Y-67820000I0J-175000D01*
G01*
X161430000Y-69420000D01*
G75*
G02*
X161255000Y-69595000I-175000J0D01*
G01*
X160905000Y-69595000D01*
G75*
G02*
X160730000Y-69420000I0J175000D01*
G01*
X160730000Y-67820000D01*
G75*
G02*
X160905000Y-67645000I175000J0D01*
G01*
G37*
G36*
G01*
X160405000Y-67645000D02*
X160755000Y-67645000D01*
G75*
G02*
X160930000Y-67820000I0J-175000D01*
G01*
X160930000Y-69420000D01*
G75*
G02*
X160755000Y-69595000I-175000J0D01*
G01*
X160405000Y-69595000D01*
G75*
G02*
X160230000Y-69420000I0J175000D01*
G01*
X160230000Y-67820000D01*
G75*
G02*
X160405000Y-67645000I175000J0D01*
G01*
G37*
G36*
G01*
X159905000Y-67645000D02*
X160255000Y-67645000D01*
G75*
G02*
X160430000Y-67820000I0J-175000D01*
G01*
X160430000Y-69420000D01*
G75*
G02*
X160255000Y-69595000I-175000J0D01*
G01*
X159905000Y-69595000D01*
G75*
G02*
X159730000Y-69420000I0J175000D01*
G01*
X159730000Y-67820000D01*
G75*
G02*
X159905000Y-67645000I175000J0D01*
G01*
G37*
D16*
X201041000Y-114744500D03*
X198501000Y-114744500D03*
X195961000Y-114744500D03*
X193421000Y-114744500D03*
X190881000Y-114744500D03*
X188341000Y-114744500D03*
X185801000Y-114744500D03*
X183261000Y-114744500D03*
X180721000Y-114744500D03*
X178181000Y-114744500D03*
X175641000Y-114744500D03*
X173101000Y-114744500D03*
X170561000Y-114744500D03*
X168021000Y-114744500D03*
X165481000Y-114744500D03*
X162941000Y-114744500D03*
X160401000Y-114744500D03*
X157861000Y-114744500D03*
X155321000Y-114744500D03*
X152781000Y-114744500D03*
X150241000Y-114744500D03*
X147701000Y-114744500D03*
X145161000Y-114744500D03*
X142621000Y-114744500D03*
X140081000Y-114744500D03*
X137541000Y-114744500D03*
X135001000Y-114744500D03*
X132461000Y-114744500D03*
X129921000Y-114744500D03*
X127381000Y-114744500D03*
X124841000Y-114744500D03*
X122301000Y-114744500D03*
X124841000Y-119824500D03*
X201041000Y-119824500D03*
X198501000Y-119824500D03*
X195961000Y-119824500D03*
X193421000Y-119824500D03*
X190881000Y-119824500D03*
X188341000Y-119824500D03*
X185801000Y-119824500D03*
X183261000Y-119824500D03*
X180721000Y-119824500D03*
X178181000Y-119824500D03*
X175641000Y-119824500D03*
X173101000Y-119824500D03*
X170561000Y-119824500D03*
X168021000Y-119824500D03*
X165481000Y-119824500D03*
X162941000Y-119824500D03*
X160401000Y-119824500D03*
X157861000Y-119824500D03*
X155321000Y-119824500D03*
X152781000Y-119824500D03*
X150241000Y-119824500D03*
X147701000Y-119824500D03*
X145161000Y-119824500D03*
X142621000Y-119824500D03*
X140081000Y-119824500D03*
X137541000Y-119824500D03*
X135001000Y-119824500D03*
X132461000Y-119824500D03*
X129921000Y-119824500D03*
X127381000Y-119824500D03*
X122301000Y-119824500D03*
D17*
G36*
X153543000Y-83058000D02*
G01*
X146177000Y-83058000D01*
X146177000Y-76327000D01*
X153543000Y-76327000D01*
X153543000Y-83058000D01*
G37*
X153543000Y-83058000D02*
X146177000Y-83058000D01*
X146177000Y-76327000D01*
X153543000Y-76327000D01*
X153543000Y-83058000D01*
M02*
