M48
; DRILL file {KiCad 5.1.6-c6e7f7d~86~ubuntu18.04.1} date Mon Jul 20 00:11:48 2020
; FORMAT={-:-/ absolute / inch / decimal}
; #@! TF.CreationDate,2020-07-20T00:11:48+01:00
; #@! TF.GenerationSoftware,Kicad,Pcbnew,5.1.6-c6e7f7d~86~ubuntu18.04.1
; #@! TF.FileFunction,Plated,1,2,PTH
FMAT,2
INCH
T1C0.0118
T2C0.0236
T3C0.0394
T4C0.0402
T5C0.1693
T6C0.2520
%
G90
G05
T1
X4.17Y-4.535
X4.1996Y-4.3754
X4.2Y-4.12
X4.275Y-3.835
X4.275Y-3.935
X4.3346Y-4.3704
X4.4696Y-4.3704
X4.52Y-2.295
X4.52Y-2.43
X4.525Y-2.685
X4.61Y-3.835
X4.61Y-3.935
X4.61Y-4.035
X4.6338Y-4.9937
X4.685Y-2.765
X4.7Y-2.725
X4.7119Y-4.5444
X4.79Y-3.19
X4.79Y-3.24
X4.79Y-3.29
X4.8626Y-2.9074
X4.97Y-3.04
X5.115Y-4.8575
X5.17Y-4.105
X5.17Y-4.16
X5.175Y-4.915
X5.27Y-4.32
X5.315Y-3.82
X5.315Y-4.0
X5.315Y-4.855
X5.365Y-4.32
X5.405Y-4.105
X5.405Y-4.16
X5.6075Y-3.2625
X5.6875Y-3.0275
X5.7375Y-2.9575
X5.8075Y-2.7975
X5.825Y-3.05
X5.825Y-3.1
X5.825Y-3.175
X5.825Y-3.225
X5.875Y-2.895
X5.875Y-3.05
X5.875Y-3.1
X5.875Y-3.175
X5.875Y-3.225
X5.895Y-2.825
X5.925Y-3.05
X5.925Y-3.1
X5.925Y-3.175
X5.925Y-3.225
X5.975Y-3.05
X5.975Y-3.1
X5.975Y-3.175
X5.975Y-3.225
X6.0954Y-2.63
X6.15Y-2.8325
X6.1555Y-2.9545
X6.21Y-2.545
X6.25Y-2.46
X6.28Y-2.777
X6.3024Y-3.2238
X6.3024Y-2.6256
X6.44Y-3.295
X6.525Y-2.8
X6.538Y-2.415
X6.5386Y-2.5924
X6.55Y-2.85
X6.575Y-3.35
X6.625Y-3.35
X6.66Y-3.24
X6.66Y-3.28
X6.66Y-3.32
X6.749Y-2.8168
X6.749Y-3.071
X6.8625Y-2.7325
X6.875Y-2.825
X6.9Y-2.85
X6.925Y-2.875
X6.95Y-2.9
X6.96Y-3.015
X6.975Y-2.925
X6.9955Y-2.9545
X7.56Y-3.24
X7.56Y-3.28
X7.64Y-3.08
X7.64Y-3.14
X7.68Y-3.2
X7.72Y-3.64
X7.76Y-3.68
X7.88Y-3.24
X7.92Y-2.98
X8.267Y-4.97
X8.35Y-2.35
X8.355Y-4.215
X8.4876Y-2.4076
X8.52Y-2.815
X8.565Y-2.34
X8.57Y-5.06
X8.575Y-4.24
X8.595Y-4.895
X8.6024Y-2.4076
T2
X8.301Y-3.395
X8.3564Y-3.2614
X8.3564Y-3.5286
X8.49Y-3.206
X8.49Y-3.584
X8.6236Y-3.2614
X8.6236Y-3.5286
X8.679Y-3.395
X7.691Y-5.3125
X7.7464Y-5.1789
X7.7464Y-5.4461
X7.88Y-5.1235
X7.88Y-5.5015
X8.0136Y-5.1789
X8.0136Y-5.4461
X8.069Y-5.3125
X4.656Y-2.045
X4.7114Y-1.9114
X4.7114Y-2.1786
X4.845Y-1.856
X4.845Y-2.234
X4.9786Y-1.9114
X4.9786Y-2.1786
X5.034Y-2.045
X5.598Y-5.12
X5.6352Y-5.0302
X5.6352Y-5.2098
X5.725Y-4.993
X5.725Y-5.247
X5.8148Y-5.0302
X5.8148Y-5.2098
X5.852Y-5.12
X4.6485Y-5.3125
X4.7039Y-5.1789
X4.7039Y-5.4461
X4.8375Y-5.1235
X4.8375Y-5.5015
X4.9711Y-5.1789
X4.9711Y-5.4461
X5.0265Y-5.3125
X4.046Y-3.395
X4.1014Y-3.2614
X4.1014Y-3.5286
X4.235Y-3.206
X4.235Y-3.584
X4.3686Y-3.2614
X4.3686Y-3.5286
X4.424Y-3.395
X7.7035Y-2.045
X7.7589Y-1.9114
X7.7589Y-2.1786
X7.8925Y-1.856
X7.8925Y-2.234
X8.0261Y-1.9114
X8.0261Y-2.1786
X8.0815Y-2.045
X6.828Y-5.12
X6.8652Y-5.0302
X6.8652Y-5.2098
X6.955Y-4.993
X6.955Y-5.247
X7.0448Y-5.0302
X7.0448Y-5.2098
X7.082Y-5.12
T3
X4.4Y-1.95
X4.4Y-2.05
X4.4Y-2.15
X4.4Y-2.25
X4.4Y-2.35
X8.003Y-2.742
X8.003Y-2.842
X8.003Y-2.942
X8.003Y-3.042
X8.003Y-3.142
X8.003Y-3.242
X8.003Y-3.342
X8.003Y-3.442
X8.003Y-3.542
X8.003Y-3.642
X8.003Y-3.742
X8.003Y-3.842
X8.003Y-3.942
X8.003Y-4.042
T4
X4.815Y-4.5175
X4.815Y-4.7175
X4.915Y-4.5175
X4.915Y-4.7175
X5.015Y-4.5175
X5.015Y-4.7175
X5.115Y-4.5175
X5.115Y-4.7175
X5.215Y-4.5175
X5.215Y-4.7175
X5.315Y-4.5175
X5.315Y-4.7175
X5.415Y-4.5175
X5.415Y-4.7175
X5.515Y-4.5175
X5.515Y-4.7175
X5.615Y-4.5175
X5.615Y-4.7175
X5.715Y-4.5175
X5.715Y-4.7175
X5.815Y-4.5175
X5.815Y-4.7175
X5.915Y-4.5175
X5.915Y-4.7175
X6.015Y-4.5175
X6.015Y-4.7175
X6.115Y-4.5175
X6.115Y-4.7175
X6.215Y-4.5175
X6.215Y-4.7175
X6.315Y-4.5175
X6.315Y-4.7175
X6.415Y-4.5175
X6.415Y-4.7175
X6.515Y-4.5175
X6.515Y-4.7175
X6.615Y-4.5175
X6.615Y-4.7175
X6.715Y-4.5175
X6.715Y-4.7175
X6.815Y-4.5175
X6.815Y-4.7175
X6.915Y-4.5175
X6.915Y-4.7175
X7.015Y-4.5175
X7.015Y-4.7175
X7.115Y-4.5175
X7.115Y-4.7175
X7.215Y-4.5175
X7.215Y-4.7175
X7.315Y-4.5175
X7.315Y-4.7175
X7.415Y-4.5175
X7.415Y-4.7175
X7.515Y-4.5175
X7.515Y-4.7175
X7.615Y-4.5175
X7.615Y-4.7175
X7.715Y-4.5175
X7.715Y-4.7175
X7.815Y-4.5175
X7.815Y-4.7175
X7.915Y-4.5175
X7.915Y-4.7175
T5
X5.725Y-5.12
X6.955Y-5.12
T6
X7.8925Y-2.045
X8.49Y-3.395
X7.88Y-5.3125
X4.845Y-2.045
X4.8375Y-5.3125
X4.235Y-3.395
T0
M30
