G04 #@! TF.GenerationSoftware,KiCad,Pcbnew,(5.0.0-3-g5ebb6b6)*
G04 #@! TF.CreationDate,2019-03-06T20:47:56+00:00*
G04 #@! TF.ProjectId,ServerPSU_Breakout,5365727665725053555F427265616B6F,rev?*
G04 #@! TF.SameCoordinates,Original*
G04 #@! TF.FileFunction,Soldermask,Bot*
G04 #@! TF.FilePolarity,Negative*
%FSLAX46Y46*%
G04 Gerber Fmt 4.6, Leading zero omitted, Abs format (unit mm)*
G04 Created by KiCad (PCBNEW (5.0.0-3-g5ebb6b6)) date Wednesday, 06 March 2019 at 20:47:56*
%MOMM*%
%LPD*%
G01*
G04 APERTURE LIST*
%ADD10C,1.924000*%
%ADD11C,2.400000*%
%ADD12R,2.100000X2.100000*%
%ADD13O,2.100000X2.100000*%
G04 APERTURE END LIST*
D10*
G04 #@! TO.C,J_PSU_IN1*
X190500000Y-116840000D03*
X185420000Y-116840000D03*
X182880000Y-116840000D03*
X180340000Y-116840000D03*
X177800000Y-116840000D03*
X175260000Y-116840000D03*
X172720000Y-116840000D03*
X170180000Y-116840000D03*
X167640000Y-116840000D03*
X165100000Y-116840000D03*
X162560000Y-116840000D03*
X160020000Y-116840000D03*
X157480000Y-116840000D03*
X154940000Y-116840000D03*
X152400000Y-116840000D03*
X149860000Y-116840000D03*
X147320000Y-116840000D03*
X144780000Y-116840000D03*
X142240000Y-116840000D03*
X139700000Y-116840000D03*
X137160000Y-116840000D03*
X134620000Y-116840000D03*
X132080000Y-116840000D03*
X129540000Y-116840000D03*
X127000000Y-116840000D03*
X124460000Y-116840000D03*
X121920000Y-116840000D03*
X119380000Y-116840000D03*
X116840000Y-116840000D03*
X114300000Y-116840000D03*
X111760000Y-116840000D03*
X187960000Y-116840000D03*
X190500000Y-121920000D03*
X187960000Y-121920000D03*
X185420000Y-121920000D03*
X182880000Y-121920000D03*
X180340000Y-121920000D03*
X177800000Y-121920000D03*
X175260000Y-121920000D03*
X172720000Y-121920000D03*
X170180000Y-121920000D03*
X167640000Y-121920000D03*
X165100000Y-121920000D03*
X162560000Y-121920000D03*
X160020000Y-121920000D03*
X157480000Y-121920000D03*
X154940000Y-121920000D03*
X152400000Y-121920000D03*
X149860000Y-121920000D03*
X147320000Y-121920000D03*
X144780000Y-121920000D03*
X142240000Y-121920000D03*
X139700000Y-121920000D03*
X137160000Y-121920000D03*
X134620000Y-121920000D03*
X132080000Y-121920000D03*
X129540000Y-121920000D03*
X127000000Y-121920000D03*
X124460000Y-121920000D03*
X121920000Y-121920000D03*
X119380000Y-121920000D03*
X116840000Y-121920000D03*
X114300000Y-121920000D03*
X111760000Y-121920000D03*
G04 #@! TD*
D11*
G04 #@! TO.C,J_GND1*
X190500000Y-85090000D03*
X190500000Y-80010000D03*
X190500000Y-74930000D03*
X190500000Y-69850000D03*
X190500000Y-64770000D03*
X190500000Y-59690000D03*
G04 #@! TD*
G04 #@! TO.C,J_VOUT1*
X111760000Y-59690000D03*
X111760000Y-64770000D03*
X111760000Y-69850000D03*
X111760000Y-74930000D03*
X111760000Y-80010000D03*
X111760000Y-85090000D03*
G04 #@! TD*
D12*
G04 #@! TO.C,J_DATA1*
X189230000Y-91313000D03*
D13*
X189230000Y-93853000D03*
X186690000Y-91313000D03*
X186690000Y-93853000D03*
X184150000Y-91313000D03*
X184150000Y-93853000D03*
X181610000Y-91313000D03*
X181610000Y-93853000D03*
X179070000Y-91313000D03*
X179070000Y-93853000D03*
G04 #@! TD*
M02*
