G04 #@! TF.GenerationSoftware,KiCad,Pcbnew,(5.0.0-3-g5ebb6b6)*
G04 #@! TF.CreationDate,2019-02-22T02:30:13+00:00*
G04 #@! TF.ProjectId,ServerPSU_Breakout,5365727665725053555F427265616B6F,rev?*
G04 #@! TF.SameCoordinates,Original*
G04 #@! TF.FileFunction,Copper,L1,Top,Signal*
G04 #@! TF.FilePolarity,Positive*
%FSLAX46Y46*%
G04 Gerber Fmt 4.6, Leading zero omitted, Abs format (unit mm)*
G04 Created by KiCad (PCBNEW (5.0.0-3-g5ebb6b6)) date Friday, 22 February 2019 at 02:30:13*
%MOMM*%
%LPD*%
G01*
G04 APERTURE LIST*
G04 #@! TA.AperFunction,ComponentPad*
%ADD10C,1.524000*%
G04 #@! TD*
G04 #@! TA.AperFunction,ComponentPad*
%ADD11C,2.000000*%
G04 #@! TD*
G04 #@! TA.AperFunction,ComponentPad*
%ADD12R,1.700000X1.700000*%
G04 #@! TD*
G04 #@! TA.AperFunction,ComponentPad*
%ADD13O,1.700000X1.700000*%
G04 #@! TD*
G04 #@! TA.AperFunction,Conductor*
%ADD14C,0.500000*%
G04 #@! TD*
G04 #@! TA.AperFunction,Conductor*
%ADD15C,0.254000*%
G04 #@! TD*
G04 APERTURE END LIST*
D10*
G04 #@! TO.P,J_PSU_IN1,32*
G04 #@! TO.N,/SDA*
X190500000Y-116840000D03*
G04 #@! TO.P,J_PSU_IN1,30*
G04 #@! TO.N,/GND*
X185420000Y-116840000D03*
G04 #@! TO.P,J_PSU_IN1,29*
G04 #@! TO.N,N/C*
X182880000Y-116840000D03*
G04 #@! TO.P,J_PSU_IN1,28*
X180340000Y-116840000D03*
G04 #@! TO.P,J_PSU_IN1,27*
G04 #@! TO.N,/ADDR*
X177800000Y-116840000D03*
G04 #@! TO.P,J_PSU_IN1,26*
G04 #@! TO.N,/GND*
X175260000Y-116840000D03*
G04 #@! TO.P,J_PSU_IN1,25*
X172720000Y-116840000D03*
G04 #@! TO.P,J_PSU_IN1,24*
X170180000Y-116840000D03*
G04 #@! TO.P,J_PSU_IN1,23*
X167640000Y-116840000D03*
G04 #@! TO.P,J_PSU_IN1,22*
X165100000Y-116840000D03*
G04 #@! TO.P,J_PSU_IN1,21*
X162560000Y-116840000D03*
G04 #@! TO.P,J_PSU_IN1,20*
X160020000Y-116840000D03*
G04 #@! TO.P,J_PSU_IN1,19*
X157480000Y-116840000D03*
G04 #@! TO.P,J_PSU_IN1,18*
X154940000Y-116840000D03*
G04 #@! TO.P,J_PSU_IN1,17*
X152400000Y-116840000D03*
G04 #@! TO.P,J_PSU_IN1,16*
X149860000Y-116840000D03*
G04 #@! TO.P,J_PSU_IN1,15*
X147320000Y-116840000D03*
G04 #@! TO.P,J_PSU_IN1,14*
X144780000Y-116840000D03*
G04 #@! TO.P,J_PSU_IN1,13*
G04 #@! TO.N,/12V*
X142240000Y-116840000D03*
G04 #@! TO.P,J_PSU_IN1,12*
X139700000Y-116840000D03*
G04 #@! TO.P,J_PSU_IN1,11*
X137160000Y-116840000D03*
G04 #@! TO.P,J_PSU_IN1,10*
X134620000Y-116840000D03*
G04 #@! TO.P,J_PSU_IN1,9*
X132080000Y-116840000D03*
G04 #@! TO.P,J_PSU_IN1,8*
X129540000Y-116840000D03*
G04 #@! TO.P,J_PSU_IN1,7*
X127000000Y-116840000D03*
G04 #@! TO.P,J_PSU_IN1,6*
X124460000Y-116840000D03*
G04 #@! TO.P,J_PSU_IN1,5*
X121920000Y-116840000D03*
G04 #@! TO.P,J_PSU_IN1,4*
X119380000Y-116840000D03*
G04 #@! TO.P,J_PSU_IN1,3*
X116840000Y-116840000D03*
G04 #@! TO.P,J_PSU_IN1,2*
X114300000Y-116840000D03*
G04 #@! TO.P,J_PSU_IN1,1*
X111760000Y-116840000D03*
G04 #@! TO.P,J_PSU_IN1,31*
G04 #@! TO.N,/SCL*
X187960000Y-116840000D03*
G04 #@! TO.P,J_PSU_IN1,33*
G04 #@! TO.N,/PSON*
X190500000Y-121920000D03*
G04 #@! TO.P,J_PSU_IN1,34*
G04 #@! TO.N,/ISHARE*
X187960000Y-121920000D03*
G04 #@! TO.P,J_PSU_IN1,35*
G04 #@! TO.N,/PSOK*
X185420000Y-121920000D03*
G04 #@! TO.P,J_PSU_IN1,36*
G04 #@! TO.N,/PRESENT*
X182880000Y-121920000D03*
G04 #@! TO.P,J_PSU_IN1,37*
G04 #@! TO.N,/12VSB*
X180340000Y-121920000D03*
G04 #@! TO.P,J_PSU_IN1,38*
G04 #@! TO.N,/PSINTERRUPT*
X177800000Y-121920000D03*
G04 #@! TO.P,J_PSU_IN1,39*
G04 #@! TO.N,/GND*
X175260000Y-121920000D03*
G04 #@! TO.P,J_PSU_IN1,40*
X172720000Y-121920000D03*
G04 #@! TO.P,J_PSU_IN1,41*
X170180000Y-121920000D03*
G04 #@! TO.P,J_PSU_IN1,42*
X167640000Y-121920000D03*
G04 #@! TO.P,J_PSU_IN1,43*
X165100000Y-121920000D03*
G04 #@! TO.P,J_PSU_IN1,44*
X162560000Y-121920000D03*
G04 #@! TO.P,J_PSU_IN1,45*
X160020000Y-121920000D03*
G04 #@! TO.P,J_PSU_IN1,46*
X157480000Y-121920000D03*
G04 #@! TO.P,J_PSU_IN1,47*
X154940000Y-121920000D03*
G04 #@! TO.P,J_PSU_IN1,48*
X152400000Y-121920000D03*
G04 #@! TO.P,J_PSU_IN1,49*
X149860000Y-121920000D03*
G04 #@! TO.P,J_PSU_IN1,50*
X147320000Y-121920000D03*
G04 #@! TO.P,J_PSU_IN1,51*
X144780000Y-121920000D03*
G04 #@! TO.P,J_PSU_IN1,52*
G04 #@! TO.N,/12V*
X142240000Y-121920000D03*
G04 #@! TO.P,J_PSU_IN1,53*
X139700000Y-121920000D03*
G04 #@! TO.P,J_PSU_IN1,54*
X137160000Y-121920000D03*
G04 #@! TO.P,J_PSU_IN1,55*
X134620000Y-121920000D03*
G04 #@! TO.P,J_PSU_IN1,56*
X132080000Y-121920000D03*
G04 #@! TO.P,J_PSU_IN1,57*
X129540000Y-121920000D03*
G04 #@! TO.P,J_PSU_IN1,58*
X127000000Y-121920000D03*
G04 #@! TO.P,J_PSU_IN1,59*
X124460000Y-121920000D03*
G04 #@! TO.P,J_PSU_IN1,60*
X121920000Y-121920000D03*
G04 #@! TO.P,J_PSU_IN1,61*
X119380000Y-121920000D03*
G04 #@! TO.P,J_PSU_IN1,62*
X116840000Y-121920000D03*
G04 #@! TO.P,J_PSU_IN1,63*
X114300000Y-121920000D03*
G04 #@! TO.P,J_PSU_IN1,64*
X111760000Y-121920000D03*
G04 #@! TD*
D11*
G04 #@! TO.P,J_GND1,6*
G04 #@! TO.N,/GND*
X190500000Y-81280000D03*
G04 #@! TO.P,J_GND1,5*
X190500000Y-76200000D03*
G04 #@! TO.P,J_GND1,4*
X190500000Y-71120000D03*
G04 #@! TO.P,J_GND1,3*
X190500000Y-66040000D03*
G04 #@! TO.P,J_GND1,2*
X190500000Y-60960000D03*
G04 #@! TO.P,J_GND1,1*
X190500000Y-55880000D03*
G04 #@! TD*
G04 #@! TO.P,J_VOUT1,1*
G04 #@! TO.N,/12V*
X111760000Y-55880000D03*
G04 #@! TO.P,J_VOUT1,2*
X111760000Y-60960000D03*
G04 #@! TO.P,J_VOUT1,3*
X111760000Y-66040000D03*
G04 #@! TO.P,J_VOUT1,4*
X111760000Y-71120000D03*
G04 #@! TO.P,J_VOUT1,5*
X111760000Y-76200000D03*
G04 #@! TO.P,J_VOUT1,6*
X111760000Y-81280000D03*
G04 #@! TD*
D12*
G04 #@! TO.P,J_DATA1,1*
G04 #@! TO.N,/PSON*
X189230000Y-107315000D03*
D13*
G04 #@! TO.P,J_DATA1,2*
G04 #@! TO.N,/ISHARE*
X189230000Y-104775000D03*
G04 #@! TO.P,J_DATA1,3*
G04 #@! TO.N,/SDA*
X186690000Y-107315000D03*
G04 #@! TO.P,J_DATA1,4*
G04 #@! TO.N,/PSOK*
X186690000Y-104775000D03*
G04 #@! TO.P,J_DATA1,5*
G04 #@! TO.N,/SCL*
X184150000Y-107315000D03*
G04 #@! TO.P,J_DATA1,6*
G04 #@! TO.N,/PRESENT*
X184150000Y-104775000D03*
G04 #@! TO.P,J_DATA1,7*
G04 #@! TO.N,/ADDR*
X181610000Y-107315000D03*
G04 #@! TO.P,J_DATA1,8*
G04 #@! TO.N,/12VSB*
X181610000Y-104775000D03*
G04 #@! TO.P,J_DATA1,9*
G04 #@! TO.N,/GND*
X179070000Y-107315000D03*
G04 #@! TO.P,J_DATA1,10*
G04 #@! TO.N,/PSINTERRUPT*
X179070000Y-104775000D03*
G04 #@! TD*
D14*
G04 #@! TO.N,/ADDR*
X181610000Y-107315000D02*
X181610000Y-109220000D01*
X177800000Y-113030000D02*
X177800000Y-116840000D01*
X181610000Y-109220000D02*
X177800000Y-113030000D01*
G04 #@! TO.N,/SCL*
X184150000Y-107950000D02*
X184150000Y-110490000D01*
X187960000Y-114300000D02*
X187960000Y-116840000D01*
X184150000Y-110490000D02*
X187960000Y-114300000D01*
G04 #@! TO.N,/SDA*
X186690000Y-107950000D02*
X186690000Y-109220000D01*
X190500000Y-113030000D02*
X190500000Y-116840000D01*
X186690000Y-109220000D02*
X190500000Y-113030000D01*
G04 #@! TO.N,/PSON*
X191135000Y-107315000D02*
X189865000Y-107315000D01*
X193040000Y-109220000D02*
X191135000Y-107315000D01*
X193040000Y-120650000D02*
X193040000Y-109220000D01*
X191770000Y-121920000D02*
X193040000Y-120650000D01*
X190500000Y-121920000D02*
X191770000Y-121920000D01*
G04 #@! TO.N,/ISHARE*
X187960000Y-123190000D02*
X187960000Y-121920000D01*
X189230000Y-124460000D02*
X187960000Y-123190000D01*
X191770000Y-124460000D02*
X189230000Y-124460000D01*
X191135000Y-104775000D02*
X194310000Y-107950000D01*
X189865000Y-104775000D02*
X191135000Y-104775000D01*
X194310000Y-121920000D02*
X191770000Y-124460000D01*
X194310000Y-107950000D02*
X194310000Y-121920000D01*
G04 #@! TO.N,/PSOK*
X191770000Y-102870000D02*
X187960000Y-102870000D01*
X195580000Y-123190000D02*
X195580000Y-106680000D01*
X195580000Y-106680000D02*
X191770000Y-102870000D01*
X193040000Y-125730000D02*
X195580000Y-123190000D01*
X186690000Y-104140000D02*
X186690000Y-105410000D01*
X187960000Y-102870000D02*
X186690000Y-104140000D01*
X187960000Y-125730000D02*
X193040000Y-125730000D01*
X185420000Y-123190000D02*
X187960000Y-125730000D01*
X185420000Y-121920000D02*
X185420000Y-123190000D01*
G04 #@! TD*
D15*
G04 #@! TO.N,/12V*
G36*
X172593000Y-107262394D02*
X166952394Y-112903000D01*
X143510000Y-112903000D01*
X143461399Y-112912667D01*
X143420197Y-112940197D01*
X143392667Y-112981399D01*
X143383000Y-113030000D01*
X143383000Y-126290000D01*
X106120000Y-126290000D01*
X106120000Y-51510000D01*
X172593000Y-51510000D01*
X172593000Y-107262394D01*
X172593000Y-107262394D01*
G37*
X172593000Y-107262394D02*
X166952394Y-112903000D01*
X143510000Y-112903000D01*
X143461399Y-112912667D01*
X143420197Y-112940197D01*
X143392667Y-112981399D01*
X143383000Y-113030000D01*
X143383000Y-126290000D01*
X106120000Y-126290000D01*
X106120000Y-51510000D01*
X172593000Y-51510000D01*
X172593000Y-107262394D01*
G04 #@! TD*
M02*
