G04 #@! TF.GenerationSoftware,KiCad,Pcbnew,5.1.6-c6e7f7d~86~ubuntu18.04.1*
G04 #@! TF.CreationDate,2020-07-20T00:11:47+01:00*
G04 #@! TF.ProjectId,ServerPSU_Breakout,53657276-6572-4505-9355-5f427265616b,rev?*
G04 #@! TF.SameCoordinates,Original*
G04 #@! TF.FileFunction,Paste,Bot*
G04 #@! TF.FilePolarity,Positive*
%FSLAX46Y46*%
G04 Gerber Fmt 4.6, Leading zero omitted, Abs format (unit mm)*
G04 Created by KiCad (PCBNEW 5.1.6-c6e7f7d~86~ubuntu18.04.1) date 2020-07-20 00:11:47*
%MOMM*%
%LPD*%
G01*
G04 APERTURE LIST*
G04 APERTURE END LIST*
G36*
G01*
X124484000Y-74526000D02*
X124484000Y-74826000D01*
G75*
G02*
X124334000Y-74976000I-150000J0D01*
G01*
X122684000Y-74976000D01*
G75*
G02*
X122534000Y-74826000I0J150000D01*
G01*
X122534000Y-74526000D01*
G75*
G02*
X122684000Y-74376000I150000J0D01*
G01*
X124334000Y-74376000D01*
G75*
G02*
X124484000Y-74526000I0J-150000D01*
G01*
G37*
G36*
G01*
X124484000Y-75796000D02*
X124484000Y-76096000D01*
G75*
G02*
X124334000Y-76246000I-150000J0D01*
G01*
X122684000Y-76246000D01*
G75*
G02*
X122534000Y-76096000I0J150000D01*
G01*
X122534000Y-75796000D01*
G75*
G02*
X122684000Y-75646000I150000J0D01*
G01*
X124334000Y-75646000D01*
G75*
G02*
X124484000Y-75796000I0J-150000D01*
G01*
G37*
G36*
G01*
X124484000Y-77066000D02*
X124484000Y-77366000D01*
G75*
G02*
X124334000Y-77516000I-150000J0D01*
G01*
X122684000Y-77516000D01*
G75*
G02*
X122534000Y-77366000I0J150000D01*
G01*
X122534000Y-77066000D01*
G75*
G02*
X122684000Y-76916000I150000J0D01*
G01*
X124334000Y-76916000D01*
G75*
G02*
X124484000Y-77066000I0J-150000D01*
G01*
G37*
G36*
G01*
X124484000Y-78336000D02*
X124484000Y-78636000D01*
G75*
G02*
X124334000Y-78786000I-150000J0D01*
G01*
X122684000Y-78786000D01*
G75*
G02*
X122534000Y-78636000I0J150000D01*
G01*
X122534000Y-78336000D01*
G75*
G02*
X122684000Y-78186000I150000J0D01*
G01*
X124334000Y-78186000D01*
G75*
G02*
X124484000Y-78336000I0J-150000D01*
G01*
G37*
G36*
G01*
X124484000Y-79606000D02*
X124484000Y-79906000D01*
G75*
G02*
X124334000Y-80056000I-150000J0D01*
G01*
X122684000Y-80056000D01*
G75*
G02*
X122534000Y-79906000I0J150000D01*
G01*
X122534000Y-79606000D01*
G75*
G02*
X122684000Y-79456000I150000J0D01*
G01*
X124334000Y-79456000D01*
G75*
G02*
X124484000Y-79606000I0J-150000D01*
G01*
G37*
G36*
G01*
X124484000Y-80876000D02*
X124484000Y-81176000D01*
G75*
G02*
X124334000Y-81326000I-150000J0D01*
G01*
X122684000Y-81326000D01*
G75*
G02*
X122534000Y-81176000I0J150000D01*
G01*
X122534000Y-80876000D01*
G75*
G02*
X122684000Y-80726000I150000J0D01*
G01*
X124334000Y-80726000D01*
G75*
G02*
X124484000Y-80876000I0J-150000D01*
G01*
G37*
G36*
G01*
X124484000Y-82146000D02*
X124484000Y-82446000D01*
G75*
G02*
X124334000Y-82596000I-150000J0D01*
G01*
X122684000Y-82596000D01*
G75*
G02*
X122534000Y-82446000I0J150000D01*
G01*
X122534000Y-82146000D01*
G75*
G02*
X122684000Y-81996000I150000J0D01*
G01*
X124334000Y-81996000D01*
G75*
G02*
X124484000Y-82146000I0J-150000D01*
G01*
G37*
G36*
G01*
X124484000Y-83416000D02*
X124484000Y-83716000D01*
G75*
G02*
X124334000Y-83866000I-150000J0D01*
G01*
X122684000Y-83866000D01*
G75*
G02*
X122534000Y-83716000I0J150000D01*
G01*
X122534000Y-83416000D01*
G75*
G02*
X122684000Y-83266000I150000J0D01*
G01*
X124334000Y-83266000D01*
G75*
G02*
X124484000Y-83416000I0J-150000D01*
G01*
G37*
G36*
G01*
X129434000Y-83416000D02*
X129434000Y-83716000D01*
G75*
G02*
X129284000Y-83866000I-150000J0D01*
G01*
X127634000Y-83866000D01*
G75*
G02*
X127484000Y-83716000I0J150000D01*
G01*
X127484000Y-83416000D01*
G75*
G02*
X127634000Y-83266000I150000J0D01*
G01*
X129284000Y-83266000D01*
G75*
G02*
X129434000Y-83416000I0J-150000D01*
G01*
G37*
G36*
G01*
X129434000Y-82146000D02*
X129434000Y-82446000D01*
G75*
G02*
X129284000Y-82596000I-150000J0D01*
G01*
X127634000Y-82596000D01*
G75*
G02*
X127484000Y-82446000I0J150000D01*
G01*
X127484000Y-82146000D01*
G75*
G02*
X127634000Y-81996000I150000J0D01*
G01*
X129284000Y-81996000D01*
G75*
G02*
X129434000Y-82146000I0J-150000D01*
G01*
G37*
G36*
G01*
X129434000Y-80876000D02*
X129434000Y-81176000D01*
G75*
G02*
X129284000Y-81326000I-150000J0D01*
G01*
X127634000Y-81326000D01*
G75*
G02*
X127484000Y-81176000I0J150000D01*
G01*
X127484000Y-80876000D01*
G75*
G02*
X127634000Y-80726000I150000J0D01*
G01*
X129284000Y-80726000D01*
G75*
G02*
X129434000Y-80876000I0J-150000D01*
G01*
G37*
G36*
G01*
X129434000Y-79606000D02*
X129434000Y-79906000D01*
G75*
G02*
X129284000Y-80056000I-150000J0D01*
G01*
X127634000Y-80056000D01*
G75*
G02*
X127484000Y-79906000I0J150000D01*
G01*
X127484000Y-79606000D01*
G75*
G02*
X127634000Y-79456000I150000J0D01*
G01*
X129284000Y-79456000D01*
G75*
G02*
X129434000Y-79606000I0J-150000D01*
G01*
G37*
G36*
G01*
X129434000Y-78336000D02*
X129434000Y-78636000D01*
G75*
G02*
X129284000Y-78786000I-150000J0D01*
G01*
X127634000Y-78786000D01*
G75*
G02*
X127484000Y-78636000I0J150000D01*
G01*
X127484000Y-78336000D01*
G75*
G02*
X127634000Y-78186000I150000J0D01*
G01*
X129284000Y-78186000D01*
G75*
G02*
X129434000Y-78336000I0J-150000D01*
G01*
G37*
G36*
G01*
X129434000Y-77066000D02*
X129434000Y-77366000D01*
G75*
G02*
X129284000Y-77516000I-150000J0D01*
G01*
X127634000Y-77516000D01*
G75*
G02*
X127484000Y-77366000I0J150000D01*
G01*
X127484000Y-77066000D01*
G75*
G02*
X127634000Y-76916000I150000J0D01*
G01*
X129284000Y-76916000D01*
G75*
G02*
X129434000Y-77066000I0J-150000D01*
G01*
G37*
G36*
G01*
X129434000Y-75796000D02*
X129434000Y-76096000D01*
G75*
G02*
X129284000Y-76246000I-150000J0D01*
G01*
X127634000Y-76246000D01*
G75*
G02*
X127484000Y-76096000I0J150000D01*
G01*
X127484000Y-75796000D01*
G75*
G02*
X127634000Y-75646000I150000J0D01*
G01*
X129284000Y-75646000D01*
G75*
G02*
X129434000Y-75796000I0J-150000D01*
G01*
G37*
G36*
G01*
X129434000Y-74526000D02*
X129434000Y-74826000D01*
G75*
G02*
X129284000Y-74976000I-150000J0D01*
G01*
X127634000Y-74976000D01*
G75*
G02*
X127484000Y-74826000I0J150000D01*
G01*
X127484000Y-74526000D01*
G75*
G02*
X127634000Y-74376000I150000J0D01*
G01*
X129284000Y-74376000D01*
G75*
G02*
X129434000Y-74526000I0J-150000D01*
G01*
G37*
G36*
G01*
X133165000Y-78936001D02*
X133165000Y-78035999D01*
G75*
G02*
X133414999Y-77786000I249999J0D01*
G01*
X134065001Y-77786000D01*
G75*
G02*
X134315000Y-78035999I0J-249999D01*
G01*
X134315000Y-78936001D01*
G75*
G02*
X134065001Y-79186000I-249999J0D01*
G01*
X133414999Y-79186000D01*
G75*
G02*
X133165000Y-78936001I0J249999D01*
G01*
G37*
G36*
G01*
X131115000Y-78936001D02*
X131115000Y-78035999D01*
G75*
G02*
X131364999Y-77786000I249999J0D01*
G01*
X132015001Y-77786000D01*
G75*
G02*
X132265000Y-78035999I0J-249999D01*
G01*
X132265000Y-78936001D01*
G75*
G02*
X132015001Y-79186000I-249999J0D01*
G01*
X131364999Y-79186000D01*
G75*
G02*
X131115000Y-78936001I0J249999D01*
G01*
G37*
G36*
G01*
X133165000Y-76396001D02*
X133165000Y-75495999D01*
G75*
G02*
X133414999Y-75246000I249999J0D01*
G01*
X134065001Y-75246000D01*
G75*
G02*
X134315000Y-75495999I0J-249999D01*
G01*
X134315000Y-76396001D01*
G75*
G02*
X134065001Y-76646000I-249999J0D01*
G01*
X133414999Y-76646000D01*
G75*
G02*
X133165000Y-76396001I0J249999D01*
G01*
G37*
G36*
G01*
X131115000Y-76396001D02*
X131115000Y-75495999D01*
G75*
G02*
X131364999Y-75246000I249999J0D01*
G01*
X132015001Y-75246000D01*
G75*
G02*
X132265000Y-75495999I0J-249999D01*
G01*
X132265000Y-76396001D01*
G75*
G02*
X132015001Y-76646000I-249999J0D01*
G01*
X131364999Y-76646000D01*
G75*
G02*
X131115000Y-76396001I0J249999D01*
G01*
G37*
G36*
G01*
X133165000Y-81476001D02*
X133165000Y-80575999D01*
G75*
G02*
X133414999Y-80326000I249999J0D01*
G01*
X134065001Y-80326000D01*
G75*
G02*
X134315000Y-80575999I0J-249999D01*
G01*
X134315000Y-81476001D01*
G75*
G02*
X134065001Y-81726000I-249999J0D01*
G01*
X133414999Y-81726000D01*
G75*
G02*
X133165000Y-81476001I0J249999D01*
G01*
G37*
G36*
G01*
X131115000Y-81476001D02*
X131115000Y-80575999D01*
G75*
G02*
X131364999Y-80326000I249999J0D01*
G01*
X132015001Y-80326000D01*
G75*
G02*
X132265000Y-80575999I0J-249999D01*
G01*
X132265000Y-81476001D01*
G75*
G02*
X132015001Y-81726000I-249999J0D01*
G01*
X131364999Y-81726000D01*
G75*
G02*
X131115000Y-81476001I0J249999D01*
G01*
G37*
G36*
G01*
X133165000Y-73856001D02*
X133165000Y-72955999D01*
G75*
G02*
X133414999Y-72706000I249999J0D01*
G01*
X134065001Y-72706000D01*
G75*
G02*
X134315000Y-72955999I0J-249999D01*
G01*
X134315000Y-73856001D01*
G75*
G02*
X134065001Y-74106000I-249999J0D01*
G01*
X133414999Y-74106000D01*
G75*
G02*
X133165000Y-73856001I0J249999D01*
G01*
G37*
G36*
G01*
X131115000Y-73856001D02*
X131115000Y-72955999D01*
G75*
G02*
X131364999Y-72706000I249999J0D01*
G01*
X132015001Y-72706000D01*
G75*
G02*
X132265000Y-72955999I0J-249999D01*
G01*
X132265000Y-73856001D01*
G75*
G02*
X132015001Y-74106000I-249999J0D01*
G01*
X131364999Y-74106000D01*
G75*
G02*
X131115000Y-73856001I0J249999D01*
G01*
G37*
G36*
G01*
X117914000Y-80448999D02*
X117914000Y-81349001D01*
G75*
G02*
X117664001Y-81599000I-249999J0D01*
G01*
X117013999Y-81599000D01*
G75*
G02*
X116764000Y-81349001I0J249999D01*
G01*
X116764000Y-80448999D01*
G75*
G02*
X117013999Y-80199000I249999J0D01*
G01*
X117664001Y-80199000D01*
G75*
G02*
X117914000Y-80448999I0J-249999D01*
G01*
G37*
G36*
G01*
X119964000Y-80448999D02*
X119964000Y-81349001D01*
G75*
G02*
X119714001Y-81599000I-249999J0D01*
G01*
X119063999Y-81599000D01*
G75*
G02*
X118814000Y-81349001I0J249999D01*
G01*
X118814000Y-80448999D01*
G75*
G02*
X119063999Y-80199000I249999J0D01*
G01*
X119714001Y-80199000D01*
G75*
G02*
X119964000Y-80448999I0J-249999D01*
G01*
G37*
G36*
G01*
X117914000Y-74352999D02*
X117914000Y-75253001D01*
G75*
G02*
X117664001Y-75503000I-249999J0D01*
G01*
X117013999Y-75503000D01*
G75*
G02*
X116764000Y-75253001I0J249999D01*
G01*
X116764000Y-74352999D01*
G75*
G02*
X117013999Y-74103000I249999J0D01*
G01*
X117664001Y-74103000D01*
G75*
G02*
X117914000Y-74352999I0J-249999D01*
G01*
G37*
G36*
G01*
X119964000Y-74352999D02*
X119964000Y-75253001D01*
G75*
G02*
X119714001Y-75503000I-249999J0D01*
G01*
X119063999Y-75503000D01*
G75*
G02*
X118814000Y-75253001I0J249999D01*
G01*
X118814000Y-74352999D01*
G75*
G02*
X119063999Y-74103000I249999J0D01*
G01*
X119714001Y-74103000D01*
G75*
G02*
X119964000Y-74352999I0J-249999D01*
G01*
G37*
G36*
G01*
X117914000Y-76384999D02*
X117914000Y-77285001D01*
G75*
G02*
X117664001Y-77535000I-249999J0D01*
G01*
X117013999Y-77535000D01*
G75*
G02*
X116764000Y-77285001I0J249999D01*
G01*
X116764000Y-76384999D01*
G75*
G02*
X117013999Y-76135000I249999J0D01*
G01*
X117664001Y-76135000D01*
G75*
G02*
X117914000Y-76384999I0J-249999D01*
G01*
G37*
G36*
G01*
X119964000Y-76384999D02*
X119964000Y-77285001D01*
G75*
G02*
X119714001Y-77535000I-249999J0D01*
G01*
X119063999Y-77535000D01*
G75*
G02*
X118814000Y-77285001I0J249999D01*
G01*
X118814000Y-76384999D01*
G75*
G02*
X119063999Y-76135000I249999J0D01*
G01*
X119714001Y-76135000D01*
G75*
G02*
X119964000Y-76384999I0J-249999D01*
G01*
G37*
G36*
G01*
X117914000Y-78416999D02*
X117914000Y-79317001D01*
G75*
G02*
X117664001Y-79567000I-249999J0D01*
G01*
X117013999Y-79567000D01*
G75*
G02*
X116764000Y-79317001I0J249999D01*
G01*
X116764000Y-78416999D01*
G75*
G02*
X117013999Y-78167000I249999J0D01*
G01*
X117664001Y-78167000D01*
G75*
G02*
X117914000Y-78416999I0J-249999D01*
G01*
G37*
G36*
G01*
X119964000Y-78416999D02*
X119964000Y-79317001D01*
G75*
G02*
X119714001Y-79567000I-249999J0D01*
G01*
X119063999Y-79567000D01*
G75*
G02*
X118814000Y-79317001I0J249999D01*
G01*
X118814000Y-78416999D01*
G75*
G02*
X119063999Y-78167000I249999J0D01*
G01*
X119714001Y-78167000D01*
G75*
G02*
X119964000Y-78416999I0J-249999D01*
G01*
G37*
G36*
G01*
X157455000Y-70395000D02*
X158855000Y-70395000D01*
G75*
G02*
X158930000Y-70470000I0J-75000D01*
G01*
X158930000Y-70620000D01*
G75*
G02*
X158855000Y-70695000I-75000J0D01*
G01*
X157455000Y-70695000D01*
G75*
G02*
X157380000Y-70620000I0J75000D01*
G01*
X157380000Y-70470000D01*
G75*
G02*
X157455000Y-70395000I75000J0D01*
G01*
G37*
G36*
G01*
X157455000Y-70895000D02*
X158855000Y-70895000D01*
G75*
G02*
X158930000Y-70970000I0J-75000D01*
G01*
X158930000Y-71120000D01*
G75*
G02*
X158855000Y-71195000I-75000J0D01*
G01*
X157455000Y-71195000D01*
G75*
G02*
X157380000Y-71120000I0J75000D01*
G01*
X157380000Y-70970000D01*
G75*
G02*
X157455000Y-70895000I75000J0D01*
G01*
G37*
G36*
G01*
X157455000Y-71395000D02*
X158855000Y-71395000D01*
G75*
G02*
X158930000Y-71470000I0J-75000D01*
G01*
X158930000Y-71620000D01*
G75*
G02*
X158855000Y-71695000I-75000J0D01*
G01*
X157455000Y-71695000D01*
G75*
G02*
X157380000Y-71620000I0J75000D01*
G01*
X157380000Y-71470000D01*
G75*
G02*
X157455000Y-71395000I75000J0D01*
G01*
G37*
G36*
G01*
X157455000Y-71895000D02*
X158855000Y-71895000D01*
G75*
G02*
X158930000Y-71970000I0J-75000D01*
G01*
X158930000Y-72120000D01*
G75*
G02*
X158855000Y-72195000I-75000J0D01*
G01*
X157455000Y-72195000D01*
G75*
G02*
X157380000Y-72120000I0J75000D01*
G01*
X157380000Y-71970000D01*
G75*
G02*
X157455000Y-71895000I75000J0D01*
G01*
G37*
G36*
G01*
X157455000Y-72395000D02*
X158855000Y-72395000D01*
G75*
G02*
X158930000Y-72470000I0J-75000D01*
G01*
X158930000Y-72620000D01*
G75*
G02*
X158855000Y-72695000I-75000J0D01*
G01*
X157455000Y-72695000D01*
G75*
G02*
X157380000Y-72620000I0J75000D01*
G01*
X157380000Y-72470000D01*
G75*
G02*
X157455000Y-72395000I75000J0D01*
G01*
G37*
G36*
G01*
X157455000Y-72895000D02*
X158855000Y-72895000D01*
G75*
G02*
X158930000Y-72970000I0J-75000D01*
G01*
X158930000Y-73120000D01*
G75*
G02*
X158855000Y-73195000I-75000J0D01*
G01*
X157455000Y-73195000D01*
G75*
G02*
X157380000Y-73120000I0J75000D01*
G01*
X157380000Y-72970000D01*
G75*
G02*
X157455000Y-72895000I75000J0D01*
G01*
G37*
G36*
G01*
X157455000Y-73395000D02*
X158855000Y-73395000D01*
G75*
G02*
X158930000Y-73470000I0J-75000D01*
G01*
X158930000Y-73620000D01*
G75*
G02*
X158855000Y-73695000I-75000J0D01*
G01*
X157455000Y-73695000D01*
G75*
G02*
X157380000Y-73620000I0J75000D01*
G01*
X157380000Y-73470000D01*
G75*
G02*
X157455000Y-73395000I75000J0D01*
G01*
G37*
G36*
G01*
X157455000Y-73895000D02*
X158855000Y-73895000D01*
G75*
G02*
X158930000Y-73970000I0J-75000D01*
G01*
X158930000Y-74120000D01*
G75*
G02*
X158855000Y-74195000I-75000J0D01*
G01*
X157455000Y-74195000D01*
G75*
G02*
X157380000Y-74120000I0J75000D01*
G01*
X157380000Y-73970000D01*
G75*
G02*
X157455000Y-73895000I75000J0D01*
G01*
G37*
G36*
G01*
X157455000Y-74395000D02*
X158855000Y-74395000D01*
G75*
G02*
X158930000Y-74470000I0J-75000D01*
G01*
X158930000Y-74620000D01*
G75*
G02*
X158855000Y-74695000I-75000J0D01*
G01*
X157455000Y-74695000D01*
G75*
G02*
X157380000Y-74620000I0J75000D01*
G01*
X157380000Y-74470000D01*
G75*
G02*
X157455000Y-74395000I75000J0D01*
G01*
G37*
G36*
G01*
X157455000Y-74895000D02*
X158855000Y-74895000D01*
G75*
G02*
X158930000Y-74970000I0J-75000D01*
G01*
X158930000Y-75120000D01*
G75*
G02*
X158855000Y-75195000I-75000J0D01*
G01*
X157455000Y-75195000D01*
G75*
G02*
X157380000Y-75120000I0J75000D01*
G01*
X157380000Y-74970000D01*
G75*
G02*
X157455000Y-74895000I75000J0D01*
G01*
G37*
G36*
G01*
X157455000Y-75395000D02*
X158855000Y-75395000D01*
G75*
G02*
X158930000Y-75470000I0J-75000D01*
G01*
X158930000Y-75620000D01*
G75*
G02*
X158855000Y-75695000I-75000J0D01*
G01*
X157455000Y-75695000D01*
G75*
G02*
X157380000Y-75620000I0J75000D01*
G01*
X157380000Y-75470000D01*
G75*
G02*
X157455000Y-75395000I75000J0D01*
G01*
G37*
G36*
G01*
X157455000Y-75895000D02*
X158855000Y-75895000D01*
G75*
G02*
X158930000Y-75970000I0J-75000D01*
G01*
X158930000Y-76120000D01*
G75*
G02*
X158855000Y-76195000I-75000J0D01*
G01*
X157455000Y-76195000D01*
G75*
G02*
X157380000Y-76120000I0J75000D01*
G01*
X157380000Y-75970000D01*
G75*
G02*
X157455000Y-75895000I75000J0D01*
G01*
G37*
G36*
G01*
X157455000Y-76395000D02*
X158855000Y-76395000D01*
G75*
G02*
X158930000Y-76470000I0J-75000D01*
G01*
X158930000Y-76620000D01*
G75*
G02*
X158855000Y-76695000I-75000J0D01*
G01*
X157455000Y-76695000D01*
G75*
G02*
X157380000Y-76620000I0J75000D01*
G01*
X157380000Y-76470000D01*
G75*
G02*
X157455000Y-76395000I75000J0D01*
G01*
G37*
G36*
G01*
X157455000Y-76895000D02*
X158855000Y-76895000D01*
G75*
G02*
X158930000Y-76970000I0J-75000D01*
G01*
X158930000Y-77120000D01*
G75*
G02*
X158855000Y-77195000I-75000J0D01*
G01*
X157455000Y-77195000D01*
G75*
G02*
X157380000Y-77120000I0J75000D01*
G01*
X157380000Y-76970000D01*
G75*
G02*
X157455000Y-76895000I75000J0D01*
G01*
G37*
G36*
G01*
X157455000Y-77395000D02*
X158855000Y-77395000D01*
G75*
G02*
X158930000Y-77470000I0J-75000D01*
G01*
X158930000Y-77620000D01*
G75*
G02*
X158855000Y-77695000I-75000J0D01*
G01*
X157455000Y-77695000D01*
G75*
G02*
X157380000Y-77620000I0J75000D01*
G01*
X157380000Y-77470000D01*
G75*
G02*
X157455000Y-77395000I75000J0D01*
G01*
G37*
G36*
G01*
X157455000Y-77895000D02*
X158855000Y-77895000D01*
G75*
G02*
X158930000Y-77970000I0J-75000D01*
G01*
X158930000Y-78120000D01*
G75*
G02*
X158855000Y-78195000I-75000J0D01*
G01*
X157455000Y-78195000D01*
G75*
G02*
X157380000Y-78120000I0J75000D01*
G01*
X157380000Y-77970000D01*
G75*
G02*
X157455000Y-77895000I75000J0D01*
G01*
G37*
G36*
G01*
X160005000Y-79195000D02*
X160155000Y-79195000D01*
G75*
G02*
X160230000Y-79270000I0J-75000D01*
G01*
X160230000Y-80670000D01*
G75*
G02*
X160155000Y-80745000I-75000J0D01*
G01*
X160005000Y-80745000D01*
G75*
G02*
X159930000Y-80670000I0J75000D01*
G01*
X159930000Y-79270000D01*
G75*
G02*
X160005000Y-79195000I75000J0D01*
G01*
G37*
G36*
G01*
X160505000Y-79195000D02*
X160655000Y-79195000D01*
G75*
G02*
X160730000Y-79270000I0J-75000D01*
G01*
X160730000Y-80670000D01*
G75*
G02*
X160655000Y-80745000I-75000J0D01*
G01*
X160505000Y-80745000D01*
G75*
G02*
X160430000Y-80670000I0J75000D01*
G01*
X160430000Y-79270000D01*
G75*
G02*
X160505000Y-79195000I75000J0D01*
G01*
G37*
G36*
G01*
X161005000Y-79195000D02*
X161155000Y-79195000D01*
G75*
G02*
X161230000Y-79270000I0J-75000D01*
G01*
X161230000Y-80670000D01*
G75*
G02*
X161155000Y-80745000I-75000J0D01*
G01*
X161005000Y-80745000D01*
G75*
G02*
X160930000Y-80670000I0J75000D01*
G01*
X160930000Y-79270000D01*
G75*
G02*
X161005000Y-79195000I75000J0D01*
G01*
G37*
G36*
G01*
X161505000Y-79195000D02*
X161655000Y-79195000D01*
G75*
G02*
X161730000Y-79270000I0J-75000D01*
G01*
X161730000Y-80670000D01*
G75*
G02*
X161655000Y-80745000I-75000J0D01*
G01*
X161505000Y-80745000D01*
G75*
G02*
X161430000Y-80670000I0J75000D01*
G01*
X161430000Y-79270000D01*
G75*
G02*
X161505000Y-79195000I75000J0D01*
G01*
G37*
G36*
G01*
X162005000Y-79195000D02*
X162155000Y-79195000D01*
G75*
G02*
X162230000Y-79270000I0J-75000D01*
G01*
X162230000Y-80670000D01*
G75*
G02*
X162155000Y-80745000I-75000J0D01*
G01*
X162005000Y-80745000D01*
G75*
G02*
X161930000Y-80670000I0J75000D01*
G01*
X161930000Y-79270000D01*
G75*
G02*
X162005000Y-79195000I75000J0D01*
G01*
G37*
G36*
G01*
X162505000Y-79195000D02*
X162655000Y-79195000D01*
G75*
G02*
X162730000Y-79270000I0J-75000D01*
G01*
X162730000Y-80670000D01*
G75*
G02*
X162655000Y-80745000I-75000J0D01*
G01*
X162505000Y-80745000D01*
G75*
G02*
X162430000Y-80670000I0J75000D01*
G01*
X162430000Y-79270000D01*
G75*
G02*
X162505000Y-79195000I75000J0D01*
G01*
G37*
G36*
G01*
X163005000Y-79195000D02*
X163155000Y-79195000D01*
G75*
G02*
X163230000Y-79270000I0J-75000D01*
G01*
X163230000Y-80670000D01*
G75*
G02*
X163155000Y-80745000I-75000J0D01*
G01*
X163005000Y-80745000D01*
G75*
G02*
X162930000Y-80670000I0J75000D01*
G01*
X162930000Y-79270000D01*
G75*
G02*
X163005000Y-79195000I75000J0D01*
G01*
G37*
G36*
G01*
X163505000Y-79195000D02*
X163655000Y-79195000D01*
G75*
G02*
X163730000Y-79270000I0J-75000D01*
G01*
X163730000Y-80670000D01*
G75*
G02*
X163655000Y-80745000I-75000J0D01*
G01*
X163505000Y-80745000D01*
G75*
G02*
X163430000Y-80670000I0J75000D01*
G01*
X163430000Y-79270000D01*
G75*
G02*
X163505000Y-79195000I75000J0D01*
G01*
G37*
G36*
G01*
X164005000Y-79195000D02*
X164155000Y-79195000D01*
G75*
G02*
X164230000Y-79270000I0J-75000D01*
G01*
X164230000Y-80670000D01*
G75*
G02*
X164155000Y-80745000I-75000J0D01*
G01*
X164005000Y-80745000D01*
G75*
G02*
X163930000Y-80670000I0J75000D01*
G01*
X163930000Y-79270000D01*
G75*
G02*
X164005000Y-79195000I75000J0D01*
G01*
G37*
G36*
G01*
X164505000Y-79195000D02*
X164655000Y-79195000D01*
G75*
G02*
X164730000Y-79270000I0J-75000D01*
G01*
X164730000Y-80670000D01*
G75*
G02*
X164655000Y-80745000I-75000J0D01*
G01*
X164505000Y-80745000D01*
G75*
G02*
X164430000Y-80670000I0J75000D01*
G01*
X164430000Y-79270000D01*
G75*
G02*
X164505000Y-79195000I75000J0D01*
G01*
G37*
G36*
G01*
X165005000Y-79195000D02*
X165155000Y-79195000D01*
G75*
G02*
X165230000Y-79270000I0J-75000D01*
G01*
X165230000Y-80670000D01*
G75*
G02*
X165155000Y-80745000I-75000J0D01*
G01*
X165005000Y-80745000D01*
G75*
G02*
X164930000Y-80670000I0J75000D01*
G01*
X164930000Y-79270000D01*
G75*
G02*
X165005000Y-79195000I75000J0D01*
G01*
G37*
G36*
G01*
X165505000Y-79195000D02*
X165655000Y-79195000D01*
G75*
G02*
X165730000Y-79270000I0J-75000D01*
G01*
X165730000Y-80670000D01*
G75*
G02*
X165655000Y-80745000I-75000J0D01*
G01*
X165505000Y-80745000D01*
G75*
G02*
X165430000Y-80670000I0J75000D01*
G01*
X165430000Y-79270000D01*
G75*
G02*
X165505000Y-79195000I75000J0D01*
G01*
G37*
G36*
G01*
X166005000Y-79195000D02*
X166155000Y-79195000D01*
G75*
G02*
X166230000Y-79270000I0J-75000D01*
G01*
X166230000Y-80670000D01*
G75*
G02*
X166155000Y-80745000I-75000J0D01*
G01*
X166005000Y-80745000D01*
G75*
G02*
X165930000Y-80670000I0J75000D01*
G01*
X165930000Y-79270000D01*
G75*
G02*
X166005000Y-79195000I75000J0D01*
G01*
G37*
G36*
G01*
X166505000Y-79195000D02*
X166655000Y-79195000D01*
G75*
G02*
X166730000Y-79270000I0J-75000D01*
G01*
X166730000Y-80670000D01*
G75*
G02*
X166655000Y-80745000I-75000J0D01*
G01*
X166505000Y-80745000D01*
G75*
G02*
X166430000Y-80670000I0J75000D01*
G01*
X166430000Y-79270000D01*
G75*
G02*
X166505000Y-79195000I75000J0D01*
G01*
G37*
G36*
G01*
X167005000Y-79195000D02*
X167155000Y-79195000D01*
G75*
G02*
X167230000Y-79270000I0J-75000D01*
G01*
X167230000Y-80670000D01*
G75*
G02*
X167155000Y-80745000I-75000J0D01*
G01*
X167005000Y-80745000D01*
G75*
G02*
X166930000Y-80670000I0J75000D01*
G01*
X166930000Y-79270000D01*
G75*
G02*
X167005000Y-79195000I75000J0D01*
G01*
G37*
G36*
G01*
X167505000Y-79195000D02*
X167655000Y-79195000D01*
G75*
G02*
X167730000Y-79270000I0J-75000D01*
G01*
X167730000Y-80670000D01*
G75*
G02*
X167655000Y-80745000I-75000J0D01*
G01*
X167505000Y-80745000D01*
G75*
G02*
X167430000Y-80670000I0J75000D01*
G01*
X167430000Y-79270000D01*
G75*
G02*
X167505000Y-79195000I75000J0D01*
G01*
G37*
G36*
G01*
X168805000Y-77895000D02*
X170205000Y-77895000D01*
G75*
G02*
X170280000Y-77970000I0J-75000D01*
G01*
X170280000Y-78120000D01*
G75*
G02*
X170205000Y-78195000I-75000J0D01*
G01*
X168805000Y-78195000D01*
G75*
G02*
X168730000Y-78120000I0J75000D01*
G01*
X168730000Y-77970000D01*
G75*
G02*
X168805000Y-77895000I75000J0D01*
G01*
G37*
G36*
G01*
X168805000Y-77395000D02*
X170205000Y-77395000D01*
G75*
G02*
X170280000Y-77470000I0J-75000D01*
G01*
X170280000Y-77620000D01*
G75*
G02*
X170205000Y-77695000I-75000J0D01*
G01*
X168805000Y-77695000D01*
G75*
G02*
X168730000Y-77620000I0J75000D01*
G01*
X168730000Y-77470000D01*
G75*
G02*
X168805000Y-77395000I75000J0D01*
G01*
G37*
G36*
G01*
X168805000Y-76895000D02*
X170205000Y-76895000D01*
G75*
G02*
X170280000Y-76970000I0J-75000D01*
G01*
X170280000Y-77120000D01*
G75*
G02*
X170205000Y-77195000I-75000J0D01*
G01*
X168805000Y-77195000D01*
G75*
G02*
X168730000Y-77120000I0J75000D01*
G01*
X168730000Y-76970000D01*
G75*
G02*
X168805000Y-76895000I75000J0D01*
G01*
G37*
G36*
G01*
X168805000Y-76395000D02*
X170205000Y-76395000D01*
G75*
G02*
X170280000Y-76470000I0J-75000D01*
G01*
X170280000Y-76620000D01*
G75*
G02*
X170205000Y-76695000I-75000J0D01*
G01*
X168805000Y-76695000D01*
G75*
G02*
X168730000Y-76620000I0J75000D01*
G01*
X168730000Y-76470000D01*
G75*
G02*
X168805000Y-76395000I75000J0D01*
G01*
G37*
G36*
G01*
X168805000Y-75895000D02*
X170205000Y-75895000D01*
G75*
G02*
X170280000Y-75970000I0J-75000D01*
G01*
X170280000Y-76120000D01*
G75*
G02*
X170205000Y-76195000I-75000J0D01*
G01*
X168805000Y-76195000D01*
G75*
G02*
X168730000Y-76120000I0J75000D01*
G01*
X168730000Y-75970000D01*
G75*
G02*
X168805000Y-75895000I75000J0D01*
G01*
G37*
G36*
G01*
X168805000Y-75395000D02*
X170205000Y-75395000D01*
G75*
G02*
X170280000Y-75470000I0J-75000D01*
G01*
X170280000Y-75620000D01*
G75*
G02*
X170205000Y-75695000I-75000J0D01*
G01*
X168805000Y-75695000D01*
G75*
G02*
X168730000Y-75620000I0J75000D01*
G01*
X168730000Y-75470000D01*
G75*
G02*
X168805000Y-75395000I75000J0D01*
G01*
G37*
G36*
G01*
X168805000Y-74895000D02*
X170205000Y-74895000D01*
G75*
G02*
X170280000Y-74970000I0J-75000D01*
G01*
X170280000Y-75120000D01*
G75*
G02*
X170205000Y-75195000I-75000J0D01*
G01*
X168805000Y-75195000D01*
G75*
G02*
X168730000Y-75120000I0J75000D01*
G01*
X168730000Y-74970000D01*
G75*
G02*
X168805000Y-74895000I75000J0D01*
G01*
G37*
G36*
G01*
X168805000Y-74395000D02*
X170205000Y-74395000D01*
G75*
G02*
X170280000Y-74470000I0J-75000D01*
G01*
X170280000Y-74620000D01*
G75*
G02*
X170205000Y-74695000I-75000J0D01*
G01*
X168805000Y-74695000D01*
G75*
G02*
X168730000Y-74620000I0J75000D01*
G01*
X168730000Y-74470000D01*
G75*
G02*
X168805000Y-74395000I75000J0D01*
G01*
G37*
G36*
G01*
X168805000Y-73895000D02*
X170205000Y-73895000D01*
G75*
G02*
X170280000Y-73970000I0J-75000D01*
G01*
X170280000Y-74120000D01*
G75*
G02*
X170205000Y-74195000I-75000J0D01*
G01*
X168805000Y-74195000D01*
G75*
G02*
X168730000Y-74120000I0J75000D01*
G01*
X168730000Y-73970000D01*
G75*
G02*
X168805000Y-73895000I75000J0D01*
G01*
G37*
G36*
G01*
X168805000Y-73395000D02*
X170205000Y-73395000D01*
G75*
G02*
X170280000Y-73470000I0J-75000D01*
G01*
X170280000Y-73620000D01*
G75*
G02*
X170205000Y-73695000I-75000J0D01*
G01*
X168805000Y-73695000D01*
G75*
G02*
X168730000Y-73620000I0J75000D01*
G01*
X168730000Y-73470000D01*
G75*
G02*
X168805000Y-73395000I75000J0D01*
G01*
G37*
G36*
G01*
X168805000Y-72895000D02*
X170205000Y-72895000D01*
G75*
G02*
X170280000Y-72970000I0J-75000D01*
G01*
X170280000Y-73120000D01*
G75*
G02*
X170205000Y-73195000I-75000J0D01*
G01*
X168805000Y-73195000D01*
G75*
G02*
X168730000Y-73120000I0J75000D01*
G01*
X168730000Y-72970000D01*
G75*
G02*
X168805000Y-72895000I75000J0D01*
G01*
G37*
G36*
G01*
X168805000Y-72395000D02*
X170205000Y-72395000D01*
G75*
G02*
X170280000Y-72470000I0J-75000D01*
G01*
X170280000Y-72620000D01*
G75*
G02*
X170205000Y-72695000I-75000J0D01*
G01*
X168805000Y-72695000D01*
G75*
G02*
X168730000Y-72620000I0J75000D01*
G01*
X168730000Y-72470000D01*
G75*
G02*
X168805000Y-72395000I75000J0D01*
G01*
G37*
G36*
G01*
X168805000Y-71895000D02*
X170205000Y-71895000D01*
G75*
G02*
X170280000Y-71970000I0J-75000D01*
G01*
X170280000Y-72120000D01*
G75*
G02*
X170205000Y-72195000I-75000J0D01*
G01*
X168805000Y-72195000D01*
G75*
G02*
X168730000Y-72120000I0J75000D01*
G01*
X168730000Y-71970000D01*
G75*
G02*
X168805000Y-71895000I75000J0D01*
G01*
G37*
G36*
G01*
X168805000Y-71395000D02*
X170205000Y-71395000D01*
G75*
G02*
X170280000Y-71470000I0J-75000D01*
G01*
X170280000Y-71620000D01*
G75*
G02*
X170205000Y-71695000I-75000J0D01*
G01*
X168805000Y-71695000D01*
G75*
G02*
X168730000Y-71620000I0J75000D01*
G01*
X168730000Y-71470000D01*
G75*
G02*
X168805000Y-71395000I75000J0D01*
G01*
G37*
G36*
G01*
X168805000Y-70895000D02*
X170205000Y-70895000D01*
G75*
G02*
X170280000Y-70970000I0J-75000D01*
G01*
X170280000Y-71120000D01*
G75*
G02*
X170205000Y-71195000I-75000J0D01*
G01*
X168805000Y-71195000D01*
G75*
G02*
X168730000Y-71120000I0J75000D01*
G01*
X168730000Y-70970000D01*
G75*
G02*
X168805000Y-70895000I75000J0D01*
G01*
G37*
G36*
G01*
X168805000Y-70395000D02*
X170205000Y-70395000D01*
G75*
G02*
X170280000Y-70470000I0J-75000D01*
G01*
X170280000Y-70620000D01*
G75*
G02*
X170205000Y-70695000I-75000J0D01*
G01*
X168805000Y-70695000D01*
G75*
G02*
X168730000Y-70620000I0J75000D01*
G01*
X168730000Y-70470000D01*
G75*
G02*
X168805000Y-70395000I75000J0D01*
G01*
G37*
G36*
G01*
X167505000Y-67845000D02*
X167655000Y-67845000D01*
G75*
G02*
X167730000Y-67920000I0J-75000D01*
G01*
X167730000Y-69320000D01*
G75*
G02*
X167655000Y-69395000I-75000J0D01*
G01*
X167505000Y-69395000D01*
G75*
G02*
X167430000Y-69320000I0J75000D01*
G01*
X167430000Y-67920000D01*
G75*
G02*
X167505000Y-67845000I75000J0D01*
G01*
G37*
G36*
G01*
X167005000Y-67845000D02*
X167155000Y-67845000D01*
G75*
G02*
X167230000Y-67920000I0J-75000D01*
G01*
X167230000Y-69320000D01*
G75*
G02*
X167155000Y-69395000I-75000J0D01*
G01*
X167005000Y-69395000D01*
G75*
G02*
X166930000Y-69320000I0J75000D01*
G01*
X166930000Y-67920000D01*
G75*
G02*
X167005000Y-67845000I75000J0D01*
G01*
G37*
G36*
G01*
X166505000Y-67845000D02*
X166655000Y-67845000D01*
G75*
G02*
X166730000Y-67920000I0J-75000D01*
G01*
X166730000Y-69320000D01*
G75*
G02*
X166655000Y-69395000I-75000J0D01*
G01*
X166505000Y-69395000D01*
G75*
G02*
X166430000Y-69320000I0J75000D01*
G01*
X166430000Y-67920000D01*
G75*
G02*
X166505000Y-67845000I75000J0D01*
G01*
G37*
G36*
G01*
X166005000Y-67845000D02*
X166155000Y-67845000D01*
G75*
G02*
X166230000Y-67920000I0J-75000D01*
G01*
X166230000Y-69320000D01*
G75*
G02*
X166155000Y-69395000I-75000J0D01*
G01*
X166005000Y-69395000D01*
G75*
G02*
X165930000Y-69320000I0J75000D01*
G01*
X165930000Y-67920000D01*
G75*
G02*
X166005000Y-67845000I75000J0D01*
G01*
G37*
G36*
G01*
X165505000Y-67845000D02*
X165655000Y-67845000D01*
G75*
G02*
X165730000Y-67920000I0J-75000D01*
G01*
X165730000Y-69320000D01*
G75*
G02*
X165655000Y-69395000I-75000J0D01*
G01*
X165505000Y-69395000D01*
G75*
G02*
X165430000Y-69320000I0J75000D01*
G01*
X165430000Y-67920000D01*
G75*
G02*
X165505000Y-67845000I75000J0D01*
G01*
G37*
G36*
G01*
X165005000Y-67845000D02*
X165155000Y-67845000D01*
G75*
G02*
X165230000Y-67920000I0J-75000D01*
G01*
X165230000Y-69320000D01*
G75*
G02*
X165155000Y-69395000I-75000J0D01*
G01*
X165005000Y-69395000D01*
G75*
G02*
X164930000Y-69320000I0J75000D01*
G01*
X164930000Y-67920000D01*
G75*
G02*
X165005000Y-67845000I75000J0D01*
G01*
G37*
G36*
G01*
X164505000Y-67845000D02*
X164655000Y-67845000D01*
G75*
G02*
X164730000Y-67920000I0J-75000D01*
G01*
X164730000Y-69320000D01*
G75*
G02*
X164655000Y-69395000I-75000J0D01*
G01*
X164505000Y-69395000D01*
G75*
G02*
X164430000Y-69320000I0J75000D01*
G01*
X164430000Y-67920000D01*
G75*
G02*
X164505000Y-67845000I75000J0D01*
G01*
G37*
G36*
G01*
X164005000Y-67845000D02*
X164155000Y-67845000D01*
G75*
G02*
X164230000Y-67920000I0J-75000D01*
G01*
X164230000Y-69320000D01*
G75*
G02*
X164155000Y-69395000I-75000J0D01*
G01*
X164005000Y-69395000D01*
G75*
G02*
X163930000Y-69320000I0J75000D01*
G01*
X163930000Y-67920000D01*
G75*
G02*
X164005000Y-67845000I75000J0D01*
G01*
G37*
G36*
G01*
X163505000Y-67845000D02*
X163655000Y-67845000D01*
G75*
G02*
X163730000Y-67920000I0J-75000D01*
G01*
X163730000Y-69320000D01*
G75*
G02*
X163655000Y-69395000I-75000J0D01*
G01*
X163505000Y-69395000D01*
G75*
G02*
X163430000Y-69320000I0J75000D01*
G01*
X163430000Y-67920000D01*
G75*
G02*
X163505000Y-67845000I75000J0D01*
G01*
G37*
G36*
G01*
X163005000Y-67845000D02*
X163155000Y-67845000D01*
G75*
G02*
X163230000Y-67920000I0J-75000D01*
G01*
X163230000Y-69320000D01*
G75*
G02*
X163155000Y-69395000I-75000J0D01*
G01*
X163005000Y-69395000D01*
G75*
G02*
X162930000Y-69320000I0J75000D01*
G01*
X162930000Y-67920000D01*
G75*
G02*
X163005000Y-67845000I75000J0D01*
G01*
G37*
G36*
G01*
X162505000Y-67845000D02*
X162655000Y-67845000D01*
G75*
G02*
X162730000Y-67920000I0J-75000D01*
G01*
X162730000Y-69320000D01*
G75*
G02*
X162655000Y-69395000I-75000J0D01*
G01*
X162505000Y-69395000D01*
G75*
G02*
X162430000Y-69320000I0J75000D01*
G01*
X162430000Y-67920000D01*
G75*
G02*
X162505000Y-67845000I75000J0D01*
G01*
G37*
G36*
G01*
X162005000Y-67845000D02*
X162155000Y-67845000D01*
G75*
G02*
X162230000Y-67920000I0J-75000D01*
G01*
X162230000Y-69320000D01*
G75*
G02*
X162155000Y-69395000I-75000J0D01*
G01*
X162005000Y-69395000D01*
G75*
G02*
X161930000Y-69320000I0J75000D01*
G01*
X161930000Y-67920000D01*
G75*
G02*
X162005000Y-67845000I75000J0D01*
G01*
G37*
G36*
G01*
X161505000Y-67845000D02*
X161655000Y-67845000D01*
G75*
G02*
X161730000Y-67920000I0J-75000D01*
G01*
X161730000Y-69320000D01*
G75*
G02*
X161655000Y-69395000I-75000J0D01*
G01*
X161505000Y-69395000D01*
G75*
G02*
X161430000Y-69320000I0J75000D01*
G01*
X161430000Y-67920000D01*
G75*
G02*
X161505000Y-67845000I75000J0D01*
G01*
G37*
G36*
G01*
X161005000Y-67845000D02*
X161155000Y-67845000D01*
G75*
G02*
X161230000Y-67920000I0J-75000D01*
G01*
X161230000Y-69320000D01*
G75*
G02*
X161155000Y-69395000I-75000J0D01*
G01*
X161005000Y-69395000D01*
G75*
G02*
X160930000Y-69320000I0J75000D01*
G01*
X160930000Y-67920000D01*
G75*
G02*
X161005000Y-67845000I75000J0D01*
G01*
G37*
G36*
G01*
X160505000Y-67845000D02*
X160655000Y-67845000D01*
G75*
G02*
X160730000Y-67920000I0J-75000D01*
G01*
X160730000Y-69320000D01*
G75*
G02*
X160655000Y-69395000I-75000J0D01*
G01*
X160505000Y-69395000D01*
G75*
G02*
X160430000Y-69320000I0J75000D01*
G01*
X160430000Y-67920000D01*
G75*
G02*
X160505000Y-67845000I75000J0D01*
G01*
G37*
G36*
G01*
X160005000Y-67845000D02*
X160155000Y-67845000D01*
G75*
G02*
X160230000Y-67920000I0J-75000D01*
G01*
X160230000Y-69320000D01*
G75*
G02*
X160155000Y-69395000I-75000J0D01*
G01*
X160005000Y-69395000D01*
G75*
G02*
X159930000Y-69320000I0J75000D01*
G01*
X159930000Y-67920000D01*
G75*
G02*
X160005000Y-67845000I75000J0D01*
G01*
G37*
M02*
