G04 #@! TF.GenerationSoftware,KiCad,Pcbnew,5.1.6-c6e7f7d~86~ubuntu18.04.1*
G04 #@! TF.CreationDate,2020-07-20T00:11:47+01:00*
G04 #@! TF.ProjectId,ServerPSU_Breakout,53657276-6572-4505-9355-5f427265616b,rev?*
G04 #@! TF.SameCoordinates,Original*
G04 #@! TF.FileFunction,Paste,Top*
G04 #@! TF.FilePolarity,Positive*
%FSLAX46Y46*%
G04 Gerber Fmt 4.6, Leading zero omitted, Abs format (unit mm)*
G04 Created by KiCad (PCBNEW 5.1.6-c6e7f7d~86~ubuntu18.04.1) date 2020-07-20 00:11:47*
%MOMM*%
%LPD*%
G01*
G04 APERTURE LIST*
%ADD10R,2.440000X1.120000*%
%ADD11R,1.060000X0.650000*%
%ADD12R,8.200000X2.600000*%
%ADD13R,1.100000X1.100000*%
%ADD14C,0.100000*%
%ADD15R,2.300000X0.900000*%
%ADD16R,0.650000X1.560000*%
%ADD17R,0.900000X0.800000*%
G04 APERTURE END LIST*
D10*
X115049000Y-97409000D03*
X106439000Y-102489000D03*
X115049000Y-99949000D03*
X106439000Y-99949000D03*
X115049000Y-102489000D03*
X106439000Y-97409000D03*
X114922000Y-69469000D03*
X106312000Y-74549000D03*
X114922000Y-72009000D03*
X106312000Y-72009000D03*
X114922000Y-74549000D03*
X106312000Y-69469000D03*
X106439000Y-127889000D03*
X115049000Y-120269000D03*
X106439000Y-125349000D03*
X115049000Y-122809000D03*
X106439000Y-122809000D03*
X115049000Y-125349000D03*
X106439000Y-120269000D03*
X115049000Y-127889000D03*
G36*
G01*
X130371001Y-108262000D02*
X129470999Y-108262000D01*
G75*
G02*
X129221000Y-108012001I0J249999D01*
G01*
X129221000Y-107361999D01*
G75*
G02*
X129470999Y-107112000I249999J0D01*
G01*
X130371001Y-107112000D01*
G75*
G02*
X130621000Y-107361999I0J-249999D01*
G01*
X130621000Y-108012001D01*
G75*
G02*
X130371001Y-108262000I-249999J0D01*
G01*
G37*
G36*
G01*
X130371001Y-110312000D02*
X129470999Y-110312000D01*
G75*
G02*
X129221000Y-110062001I0J249999D01*
G01*
X129221000Y-109411999D01*
G75*
G02*
X129470999Y-109162000I249999J0D01*
G01*
X130371001Y-109162000D01*
G75*
G02*
X130621000Y-109411999I0J-249999D01*
G01*
X130621000Y-110062001D01*
G75*
G02*
X130371001Y-110312000I-249999J0D01*
G01*
G37*
D11*
X213240800Y-126238000D03*
X213240800Y-125288000D03*
X213240800Y-127188000D03*
X211040800Y-127188000D03*
X211040800Y-126238000D03*
X211040800Y-125288000D03*
G36*
G01*
X210751000Y-105264799D02*
X210751000Y-106164801D01*
G75*
G02*
X210501001Y-106414800I-249999J0D01*
G01*
X209850999Y-106414800D01*
G75*
G02*
X209601000Y-106164801I0J249999D01*
G01*
X209601000Y-105264799D01*
G75*
G02*
X209850999Y-105014800I249999J0D01*
G01*
X210501001Y-105014800D01*
G75*
G02*
X210751000Y-105264799I0J-249999D01*
G01*
G37*
G36*
G01*
X212801000Y-105264799D02*
X212801000Y-106164801D01*
G75*
G02*
X212551001Y-106414800I-249999J0D01*
G01*
X211900999Y-106414800D01*
G75*
G02*
X211651000Y-106164801I0J249999D01*
G01*
X211651000Y-105264799D01*
G75*
G02*
X211900999Y-105014800I249999J0D01*
G01*
X212551001Y-105014800D01*
G75*
G02*
X212801000Y-105264799I0J-249999D01*
G01*
G37*
G36*
G01*
X211651000Y-109593801D02*
X211651000Y-108693799D01*
G75*
G02*
X211900999Y-108443800I249999J0D01*
G01*
X212551001Y-108443800D01*
G75*
G02*
X212801000Y-108693799I0J-249999D01*
G01*
X212801000Y-109593801D01*
G75*
G02*
X212551001Y-109843800I-249999J0D01*
G01*
X211900999Y-109843800D01*
G75*
G02*
X211651000Y-109593801I0J249999D01*
G01*
G37*
G36*
G01*
X209601000Y-109593801D02*
X209601000Y-108693799D01*
G75*
G02*
X209850999Y-108443800I249999J0D01*
G01*
X210501001Y-108443800D01*
G75*
G02*
X210751000Y-108693799I0J-249999D01*
G01*
X210751000Y-109593801D01*
G75*
G02*
X210501001Y-109843800I-249999J0D01*
G01*
X209850999Y-109843800D01*
G75*
G02*
X209601000Y-109593801I0J249999D01*
G01*
G37*
G36*
G01*
X104705999Y-110441000D02*
X105606001Y-110441000D01*
G75*
G02*
X105856000Y-110690999I0J-249999D01*
G01*
X105856000Y-111341001D01*
G75*
G02*
X105606001Y-111591000I-249999J0D01*
G01*
X104705999Y-111591000D01*
G75*
G02*
X104456000Y-111341001I0J249999D01*
G01*
X104456000Y-110690999D01*
G75*
G02*
X104705999Y-110441000I249999J0D01*
G01*
G37*
G36*
G01*
X104705999Y-108391000D02*
X105606001Y-108391000D01*
G75*
G02*
X105856000Y-108640999I0J-249999D01*
G01*
X105856000Y-109291001D01*
G75*
G02*
X105606001Y-109541000I-249999J0D01*
G01*
X104705999Y-109541000D01*
G75*
G02*
X104456000Y-109291001I0J249999D01*
G01*
X104456000Y-108640999D01*
G75*
G02*
X104705999Y-108391000I249999J0D01*
G01*
G37*
G36*
G01*
X108007999Y-110432000D02*
X108908001Y-110432000D01*
G75*
G02*
X109158000Y-110681999I0J-249999D01*
G01*
X109158000Y-111332001D01*
G75*
G02*
X108908001Y-111582000I-249999J0D01*
G01*
X108007999Y-111582000D01*
G75*
G02*
X107758000Y-111332001I0J249999D01*
G01*
X107758000Y-110681999D01*
G75*
G02*
X108007999Y-110432000I249999J0D01*
G01*
G37*
G36*
G01*
X108007999Y-108382000D02*
X108908001Y-108382000D01*
G75*
G02*
X109158000Y-108631999I0J-249999D01*
G01*
X109158000Y-109282001D01*
G75*
G02*
X108908001Y-109532000I-249999J0D01*
G01*
X108007999Y-109532000D01*
G75*
G02*
X107758000Y-109282001I0J249999D01*
G01*
X107758000Y-108631999D01*
G75*
G02*
X108007999Y-108382000I249999J0D01*
G01*
G37*
G36*
G01*
X111309999Y-110432000D02*
X112210001Y-110432000D01*
G75*
G02*
X112460000Y-110681999I0J-249999D01*
G01*
X112460000Y-111332001D01*
G75*
G02*
X112210001Y-111582000I-249999J0D01*
G01*
X111309999Y-111582000D01*
G75*
G02*
X111060000Y-111332001I0J249999D01*
G01*
X111060000Y-110681999D01*
G75*
G02*
X111309999Y-110432000I249999J0D01*
G01*
G37*
G36*
G01*
X111309999Y-108382000D02*
X112210001Y-108382000D01*
G75*
G02*
X112460000Y-108631999I0J-249999D01*
G01*
X112460000Y-109282001D01*
G75*
G02*
X112210001Y-109532000I-249999J0D01*
G01*
X111309999Y-109532000D01*
G75*
G02*
X111060000Y-109282001I0J249999D01*
G01*
X111060000Y-108631999D01*
G75*
G02*
X111309999Y-108382000I249999J0D01*
G01*
G37*
D12*
X215519000Y-113582800D03*
X215519000Y-119182800D03*
D13*
X218316000Y-123113800D03*
X215516000Y-123113800D03*
G36*
G01*
X216339000Y-108693799D02*
X216339000Y-109593801D01*
G75*
G02*
X216089001Y-109843800I-249999J0D01*
G01*
X215438999Y-109843800D01*
G75*
G02*
X215189000Y-109593801I0J249999D01*
G01*
X215189000Y-108693799D01*
G75*
G02*
X215438999Y-108443800I249999J0D01*
G01*
X216089001Y-108443800D01*
G75*
G02*
X216339000Y-108693799I0J-249999D01*
G01*
G37*
G36*
G01*
X218389000Y-108693799D02*
X218389000Y-109593801D01*
G75*
G02*
X218139001Y-109843800I-249999J0D01*
G01*
X217488999Y-109843800D01*
G75*
G02*
X217239000Y-109593801I0J249999D01*
G01*
X217239000Y-108693799D01*
G75*
G02*
X217488999Y-108443800I249999J0D01*
G01*
X218139001Y-108443800D01*
G75*
G02*
X218389000Y-108693799I0J-249999D01*
G01*
G37*
G36*
G01*
X211640000Y-122612999D02*
X211640000Y-123513001D01*
G75*
G02*
X211390001Y-123763000I-249999J0D01*
G01*
X210739999Y-123763000D01*
G75*
G02*
X210490000Y-123513001I0J249999D01*
G01*
X210490000Y-122612999D01*
G75*
G02*
X210739999Y-122363000I249999J0D01*
G01*
X211390001Y-122363000D01*
G75*
G02*
X211640000Y-122612999I0J-249999D01*
G01*
G37*
G36*
G01*
X213690000Y-122612999D02*
X213690000Y-123513001D01*
G75*
G02*
X213440001Y-123763000I-249999J0D01*
G01*
X212789999Y-123763000D01*
G75*
G02*
X212540000Y-123513001I0J249999D01*
G01*
X212540000Y-122612999D01*
G75*
G02*
X212789999Y-122363000I249999J0D01*
G01*
X213440001Y-122363000D01*
G75*
G02*
X213690000Y-122612999I0J-249999D01*
G01*
G37*
G36*
G01*
X217061200Y-127704001D02*
X217061200Y-126803999D01*
G75*
G02*
X217311199Y-126554000I249999J0D01*
G01*
X217961201Y-126554000D01*
G75*
G02*
X218211200Y-126803999I0J-249999D01*
G01*
X218211200Y-127704001D01*
G75*
G02*
X217961201Y-127954000I-249999J0D01*
G01*
X217311199Y-127954000D01*
G75*
G02*
X217061200Y-127704001I0J249999D01*
G01*
G37*
G36*
G01*
X215011200Y-127704001D02*
X215011200Y-126803999D01*
G75*
G02*
X215261199Y-126554000I249999J0D01*
G01*
X215911201Y-126554000D01*
G75*
G02*
X216161200Y-126803999I0J-249999D01*
G01*
X216161200Y-127704001D01*
G75*
G02*
X215911201Y-127954000I-249999J0D01*
G01*
X215261199Y-127954000D01*
G75*
G02*
X215011200Y-127704001I0J249999D01*
G01*
G37*
D14*
G36*
X149921500Y-80432000D02*
G01*
X145796500Y-80432000D01*
X145796500Y-80015500D01*
X143321500Y-80015500D01*
X143321500Y-79115500D01*
X145796500Y-79115500D01*
X145796500Y-78699000D01*
X149921500Y-78699000D01*
X149921500Y-80432000D01*
G37*
D15*
X144471500Y-81065500D03*
X144471500Y-78065500D03*
D11*
X212133000Y-63053000D03*
X212133000Y-61153000D03*
X214333000Y-61153000D03*
X214333000Y-62103000D03*
X214333000Y-63053000D03*
D16*
X216601000Y-55419000D03*
X218501000Y-55419000D03*
X218501000Y-58119000D03*
X217551000Y-58119000D03*
X216601000Y-58119000D03*
G36*
G01*
X213556000Y-49599001D02*
X213556000Y-48698999D01*
G75*
G02*
X213805999Y-48449000I249999J0D01*
G01*
X214456001Y-48449000D01*
G75*
G02*
X214706000Y-48698999I0J-249999D01*
G01*
X214706000Y-49599001D01*
G75*
G02*
X214456001Y-49849000I-249999J0D01*
G01*
X213805999Y-49849000D01*
G75*
G02*
X213556000Y-49599001I0J249999D01*
G01*
G37*
G36*
G01*
X211506000Y-49599001D02*
X211506000Y-48698999D01*
G75*
G02*
X211755999Y-48449000I249999J0D01*
G01*
X212406001Y-48449000D01*
G75*
G02*
X212656000Y-48698999I0J-249999D01*
G01*
X212656000Y-49599001D01*
G75*
G02*
X212406001Y-49849000I-249999J0D01*
G01*
X211755999Y-49849000D01*
G75*
G02*
X211506000Y-49599001I0J249999D01*
G01*
G37*
G36*
G01*
X216974000Y-69145999D02*
X216974000Y-70046001D01*
G75*
G02*
X216724001Y-70296000I-249999J0D01*
G01*
X216073999Y-70296000D01*
G75*
G02*
X215824000Y-70046001I0J249999D01*
G01*
X215824000Y-69145999D01*
G75*
G02*
X216073999Y-68896000I249999J0D01*
G01*
X216724001Y-68896000D01*
G75*
G02*
X216974000Y-69145999I0J-249999D01*
G01*
G37*
G36*
G01*
X219024000Y-69145999D02*
X219024000Y-70046001D01*
G75*
G02*
X218774001Y-70296000I-249999J0D01*
G01*
X218123999Y-70296000D01*
G75*
G02*
X217874000Y-70046001I0J249999D01*
G01*
X217874000Y-69145999D01*
G75*
G02*
X218123999Y-68896000I249999J0D01*
G01*
X218774001Y-68896000D01*
G75*
G02*
X219024000Y-69145999I0J-249999D01*
G01*
G37*
G36*
G01*
X217874000Y-73983001D02*
X217874000Y-73082999D01*
G75*
G02*
X218123999Y-72833000I249999J0D01*
G01*
X218774001Y-72833000D01*
G75*
G02*
X219024000Y-73082999I0J-249999D01*
G01*
X219024000Y-73983001D01*
G75*
G02*
X218774001Y-74233000I-249999J0D01*
G01*
X218123999Y-74233000D01*
G75*
G02*
X217874000Y-73983001I0J249999D01*
G01*
G37*
G36*
G01*
X215824000Y-73983001D02*
X215824000Y-73082999D01*
G75*
G02*
X216073999Y-72833000I249999J0D01*
G01*
X216724001Y-72833000D01*
G75*
G02*
X216974000Y-73082999I0J-249999D01*
G01*
X216974000Y-73983001D01*
G75*
G02*
X216724001Y-74233000I-249999J0D01*
G01*
X216073999Y-74233000D01*
G75*
G02*
X215824000Y-73983001I0J249999D01*
G01*
G37*
G36*
G01*
X212656000Y-57588999D02*
X212656000Y-58489001D01*
G75*
G02*
X212406001Y-58739000I-249999J0D01*
G01*
X211755999Y-58739000D01*
G75*
G02*
X211506000Y-58489001I0J249999D01*
G01*
X211506000Y-57588999D01*
G75*
G02*
X211755999Y-57339000I249999J0D01*
G01*
X212406001Y-57339000D01*
G75*
G02*
X212656000Y-57588999I0J-249999D01*
G01*
G37*
G36*
G01*
X214706000Y-57588999D02*
X214706000Y-58489001D01*
G75*
G02*
X214456001Y-58739000I-249999J0D01*
G01*
X213805999Y-58739000D01*
G75*
G02*
X213556000Y-58489001I0J249999D01*
G01*
X213556000Y-57588999D01*
G75*
G02*
X213805999Y-57339000I249999J0D01*
G01*
X214456001Y-57339000D01*
G75*
G02*
X214706000Y-57588999I0J-249999D01*
G01*
G37*
G36*
G01*
X143896500Y-75570501D02*
X143896500Y-74670499D01*
G75*
G02*
X144146499Y-74420500I249999J0D01*
G01*
X144796501Y-74420500D01*
G75*
G02*
X145046500Y-74670499I0J-249999D01*
G01*
X145046500Y-75570501D01*
G75*
G02*
X144796501Y-75820500I-249999J0D01*
G01*
X144146499Y-75820500D01*
G75*
G02*
X143896500Y-75570501I0J249999D01*
G01*
G37*
G36*
G01*
X141846500Y-75570501D02*
X141846500Y-74670499D01*
G75*
G02*
X142096499Y-74420500I249999J0D01*
G01*
X142746501Y-74420500D01*
G75*
G02*
X142996500Y-74670499I0J-249999D01*
G01*
X142996500Y-75570501D01*
G75*
G02*
X142746501Y-75820500I-249999J0D01*
G01*
X142096499Y-75820500D01*
G75*
G02*
X141846500Y-75570501I0J249999D01*
G01*
G37*
G36*
G01*
X142996500Y-83687499D02*
X142996500Y-84587501D01*
G75*
G02*
X142746501Y-84837500I-249999J0D01*
G01*
X142096499Y-84837500D01*
G75*
G02*
X141846500Y-84587501I0J249999D01*
G01*
X141846500Y-83687499D01*
G75*
G02*
X142096499Y-83437500I249999J0D01*
G01*
X142746501Y-83437500D01*
G75*
G02*
X142996500Y-83687499I0J-249999D01*
G01*
G37*
G36*
G01*
X145046500Y-83687499D02*
X145046500Y-84587501D01*
G75*
G02*
X144796501Y-84837500I-249999J0D01*
G01*
X144146499Y-84837500D01*
G75*
G02*
X143896500Y-84587501I0J249999D01*
G01*
X143896500Y-83687499D01*
G75*
G02*
X144146499Y-83437500I249999J0D01*
G01*
X144796501Y-83437500D01*
G75*
G02*
X145046500Y-83687499I0J-249999D01*
G01*
G37*
G36*
G01*
X213556000Y-53409001D02*
X213556000Y-52508999D01*
G75*
G02*
X213805999Y-52259000I249999J0D01*
G01*
X214456001Y-52259000D01*
G75*
G02*
X214706000Y-52508999I0J-249999D01*
G01*
X214706000Y-53409001D01*
G75*
G02*
X214456001Y-53659000I-249999J0D01*
G01*
X213805999Y-53659000D01*
G75*
G02*
X213556000Y-53409001I0J249999D01*
G01*
G37*
G36*
G01*
X211506000Y-53409001D02*
X211506000Y-52508999D01*
G75*
G02*
X211755999Y-52259000I249999J0D01*
G01*
X212406001Y-52259000D01*
G75*
G02*
X212656000Y-52508999I0J-249999D01*
G01*
X212656000Y-53409001D01*
G75*
G02*
X212406001Y-53659000I-249999J0D01*
G01*
X211755999Y-53659000D01*
G75*
G02*
X211506000Y-53409001I0J249999D01*
G01*
G37*
G36*
G01*
X173794000Y-76511999D02*
X173794000Y-77412001D01*
G75*
G02*
X173544001Y-77662000I-249999J0D01*
G01*
X172893999Y-77662000D01*
G75*
G02*
X172644000Y-77412001I0J249999D01*
G01*
X172644000Y-76511999D01*
G75*
G02*
X172893999Y-76262000I249999J0D01*
G01*
X173544001Y-76262000D01*
G75*
G02*
X173794000Y-76511999I0J-249999D01*
G01*
G37*
G36*
G01*
X175844000Y-76511999D02*
X175844000Y-77412001D01*
G75*
G02*
X175594001Y-77662000I-249999J0D01*
G01*
X174943999Y-77662000D01*
G75*
G02*
X174694000Y-77412001I0J249999D01*
G01*
X174694000Y-76511999D01*
G75*
G02*
X174943999Y-76262000I249999J0D01*
G01*
X175594001Y-76262000D01*
G75*
G02*
X175844000Y-76511999I0J-249999D01*
G01*
G37*
D17*
X119681500Y-113411000D03*
X117681500Y-114361000D03*
X117681500Y-112461000D03*
G36*
G01*
X155263001Y-68638000D02*
X154362999Y-68638000D01*
G75*
G02*
X154113000Y-68388001I0J249999D01*
G01*
X154113000Y-67737999D01*
G75*
G02*
X154362999Y-67488000I249999J0D01*
G01*
X155263001Y-67488000D01*
G75*
G02*
X155513000Y-67737999I0J-249999D01*
G01*
X155513000Y-68388001D01*
G75*
G02*
X155263001Y-68638000I-249999J0D01*
G01*
G37*
G36*
G01*
X155263001Y-70688000D02*
X154362999Y-70688000D01*
G75*
G02*
X154113000Y-70438001I0J249999D01*
G01*
X154113000Y-69787999D01*
G75*
G02*
X154362999Y-69538000I249999J0D01*
G01*
X155263001Y-69538000D01*
G75*
G02*
X155513000Y-69787999I0J-249999D01*
G01*
X155513000Y-70438001D01*
G75*
G02*
X155263001Y-70688000I-249999J0D01*
G01*
G37*
G36*
G01*
X147123999Y-69157000D02*
X148024001Y-69157000D01*
G75*
G02*
X148274000Y-69406999I0J-249999D01*
G01*
X148274000Y-70057001D01*
G75*
G02*
X148024001Y-70307000I-249999J0D01*
G01*
X147123999Y-70307000D01*
G75*
G02*
X146874000Y-70057001I0J249999D01*
G01*
X146874000Y-69406999D01*
G75*
G02*
X147123999Y-69157000I249999J0D01*
G01*
G37*
G36*
G01*
X147123999Y-67107000D02*
X148024001Y-67107000D01*
G75*
G02*
X148274000Y-67356999I0J-249999D01*
G01*
X148274000Y-68007001D01*
G75*
G02*
X148024001Y-68257000I-249999J0D01*
G01*
X147123999Y-68257000D01*
G75*
G02*
X146874000Y-68007001I0J249999D01*
G01*
X146874000Y-67356999D01*
G75*
G02*
X147123999Y-67107000I249999J0D01*
G01*
G37*
G36*
G01*
X149282999Y-69157000D02*
X150183001Y-69157000D01*
G75*
G02*
X150433000Y-69406999I0J-249999D01*
G01*
X150433000Y-70057001D01*
G75*
G02*
X150183001Y-70307000I-249999J0D01*
G01*
X149282999Y-70307000D01*
G75*
G02*
X149033000Y-70057001I0J249999D01*
G01*
X149033000Y-69406999D01*
G75*
G02*
X149282999Y-69157000I249999J0D01*
G01*
G37*
G36*
G01*
X149282999Y-67107000D02*
X150183001Y-67107000D01*
G75*
G02*
X150433000Y-67356999I0J-249999D01*
G01*
X150433000Y-68007001D01*
G75*
G02*
X150183001Y-68257000I-249999J0D01*
G01*
X149282999Y-68257000D01*
G75*
G02*
X149033000Y-68007001I0J249999D01*
G01*
X149033000Y-67356999D01*
G75*
G02*
X149282999Y-67107000I249999J0D01*
G01*
G37*
G36*
G01*
X163010001Y-63050000D02*
X162109999Y-63050000D01*
G75*
G02*
X161860000Y-62800001I0J249999D01*
G01*
X161860000Y-62149999D01*
G75*
G02*
X162109999Y-61900000I249999J0D01*
G01*
X163010001Y-61900000D01*
G75*
G02*
X163260000Y-62149999I0J-249999D01*
G01*
X163260000Y-62800001D01*
G75*
G02*
X163010001Y-63050000I-249999J0D01*
G01*
G37*
G36*
G01*
X163010001Y-65100000D02*
X162109999Y-65100000D01*
G75*
G02*
X161860000Y-64850001I0J249999D01*
G01*
X161860000Y-64199999D01*
G75*
G02*
X162109999Y-63950000I249999J0D01*
G01*
X163010001Y-63950000D01*
G75*
G02*
X163260000Y-64199999I0J-249999D01*
G01*
X163260000Y-64850001D01*
G75*
G02*
X163010001Y-65100000I-249999J0D01*
G01*
G37*
G36*
G01*
X159569999Y-63950000D02*
X160470001Y-63950000D01*
G75*
G02*
X160720000Y-64199999I0J-249999D01*
G01*
X160720000Y-64850001D01*
G75*
G02*
X160470001Y-65100000I-249999J0D01*
G01*
X159569999Y-65100000D01*
G75*
G02*
X159320000Y-64850001I0J249999D01*
G01*
X159320000Y-64199999D01*
G75*
G02*
X159569999Y-63950000I249999J0D01*
G01*
G37*
G36*
G01*
X159569999Y-61900000D02*
X160470001Y-61900000D01*
G75*
G02*
X160720000Y-62149999I0J-249999D01*
G01*
X160720000Y-62800001D01*
G75*
G02*
X160470001Y-63050000I-249999J0D01*
G01*
X159569999Y-63050000D01*
G75*
G02*
X159320000Y-62800001I0J249999D01*
G01*
X159320000Y-62149999D01*
G75*
G02*
X159569999Y-61900000I249999J0D01*
G01*
G37*
G36*
G01*
X160713000Y-83242999D02*
X160713000Y-84143001D01*
G75*
G02*
X160463001Y-84393000I-249999J0D01*
G01*
X159812999Y-84393000D01*
G75*
G02*
X159563000Y-84143001I0J249999D01*
G01*
X159563000Y-83242999D01*
G75*
G02*
X159812999Y-82993000I249999J0D01*
G01*
X160463001Y-82993000D01*
G75*
G02*
X160713000Y-83242999I0J-249999D01*
G01*
G37*
G36*
G01*
X162763000Y-83242999D02*
X162763000Y-84143001D01*
G75*
G02*
X162513001Y-84393000I-249999J0D01*
G01*
X161862999Y-84393000D01*
G75*
G02*
X161613000Y-84143001I0J249999D01*
G01*
X161613000Y-83242999D01*
G75*
G02*
X161862999Y-82993000I249999J0D01*
G01*
X162513001Y-82993000D01*
G75*
G02*
X162763000Y-83242999I0J-249999D01*
G01*
G37*
G36*
G01*
X172523999Y-70935000D02*
X173424001Y-70935000D01*
G75*
G02*
X173674000Y-71184999I0J-249999D01*
G01*
X173674000Y-71835001D01*
G75*
G02*
X173424001Y-72085000I-249999J0D01*
G01*
X172523999Y-72085000D01*
G75*
G02*
X172274000Y-71835001I0J249999D01*
G01*
X172274000Y-71184999D01*
G75*
G02*
X172523999Y-70935000I249999J0D01*
G01*
G37*
G36*
G01*
X172523999Y-68885000D02*
X173424001Y-68885000D01*
G75*
G02*
X173674000Y-69134999I0J-249999D01*
G01*
X173674000Y-69785001D01*
G75*
G02*
X173424001Y-70035000I-249999J0D01*
G01*
X172523999Y-70035000D01*
G75*
G02*
X172274000Y-69785001I0J249999D01*
G01*
X172274000Y-69134999D01*
G75*
G02*
X172523999Y-68885000I249999J0D01*
G01*
G37*
G36*
G01*
X165615199Y-63950000D02*
X166515201Y-63950000D01*
G75*
G02*
X166765200Y-64199999I0J-249999D01*
G01*
X166765200Y-64850001D01*
G75*
G02*
X166515201Y-65100000I-249999J0D01*
G01*
X165615199Y-65100000D01*
G75*
G02*
X165365200Y-64850001I0J249999D01*
G01*
X165365200Y-64199999D01*
G75*
G02*
X165615199Y-63950000I249999J0D01*
G01*
G37*
G36*
G01*
X165615199Y-61900000D02*
X166515201Y-61900000D01*
G75*
G02*
X166765200Y-62149999I0J-249999D01*
G01*
X166765200Y-62800001D01*
G75*
G02*
X166515201Y-63050000I-249999J0D01*
G01*
X165615199Y-63050000D01*
G75*
G02*
X165365200Y-62800001I0J249999D01*
G01*
X165365200Y-62149999D01*
G75*
G02*
X165615199Y-61900000I249999J0D01*
G01*
G37*
G36*
G01*
X154362999Y-64966000D02*
X155263001Y-64966000D01*
G75*
G02*
X155513000Y-65215999I0J-249999D01*
G01*
X155513000Y-65866001D01*
G75*
G02*
X155263001Y-66116000I-249999J0D01*
G01*
X154362999Y-66116000D01*
G75*
G02*
X154113000Y-65866001I0J249999D01*
G01*
X154113000Y-65215999D01*
G75*
G02*
X154362999Y-64966000I249999J0D01*
G01*
G37*
G36*
G01*
X154362999Y-62916000D02*
X155263001Y-62916000D01*
G75*
G02*
X155513000Y-63165999I0J-249999D01*
G01*
X155513000Y-63816001D01*
G75*
G02*
X155263001Y-64066000I-249999J0D01*
G01*
X154362999Y-64066000D01*
G75*
G02*
X154113000Y-63816001I0J249999D01*
G01*
X154113000Y-63165999D01*
G75*
G02*
X154362999Y-62916000I249999J0D01*
G01*
G37*
M02*
