M48
;DRILL file {KiCad (5.0.0-3-g5ebb6b6)} date Friday, 22 February 2019 at 02:30:16
;FORMAT={-:-/ absolute / metric / decimal}
FMAT,2
METRIC,TZ
T1C1.000
T2C1.020
T3C1.400
%
G90
G05
M71
T1
X179.07Y-104.775
X179.07Y-107.315
X181.61Y-104.775
X181.61Y-107.315
X184.15Y-104.775
X184.15Y-107.315
X186.69Y-104.775
X186.69Y-107.315
X189.23Y-104.775
X189.23Y-107.315
T2
X111.76Y-116.84
X111.76Y-121.92
X114.3Y-116.84
X114.3Y-121.92
X116.84Y-116.84
X116.84Y-121.92
X119.38Y-116.84
X119.38Y-121.92
X121.92Y-116.84
X121.92Y-121.92
X124.46Y-116.84
X124.46Y-121.92
X127.Y-116.84
X127.Y-121.92
X129.54Y-116.84
X129.54Y-121.92
X132.08Y-116.84
X132.08Y-121.92
X134.62Y-116.84
X134.62Y-121.92
X137.16Y-116.84
X137.16Y-121.92
X139.7Y-116.84
X139.7Y-121.92
X142.24Y-116.84
X142.24Y-121.92
X144.78Y-116.84
X144.78Y-121.92
X147.32Y-116.84
X147.32Y-121.92
X149.86Y-116.84
X149.86Y-121.92
X152.4Y-116.84
X152.4Y-121.92
X154.94Y-116.84
X154.94Y-121.92
X157.48Y-116.84
X157.48Y-121.92
X160.02Y-116.84
X160.02Y-121.92
X162.56Y-116.84
X162.56Y-121.92
X165.1Y-116.84
X165.1Y-121.92
X167.64Y-116.84
X167.64Y-121.92
X170.18Y-116.84
X170.18Y-121.92
X172.72Y-116.84
X172.72Y-121.92
X175.26Y-116.84
X175.26Y-121.92
X177.8Y-116.84
X177.8Y-121.92
X180.34Y-116.84
X180.34Y-121.92
X182.88Y-116.84
X182.88Y-121.92
X185.42Y-116.84
X185.42Y-121.92
X187.96Y-116.84
X187.96Y-121.92
X190.5Y-116.84
X190.5Y-121.92
T3
X111.76Y-55.88
X111.76Y-60.96
X111.76Y-66.04
X111.76Y-71.12
X111.76Y-76.2
X111.76Y-81.28
X190.5Y-55.88
X190.5Y-60.96
X190.5Y-66.04
X190.5Y-71.12
X190.5Y-76.2
X190.5Y-81.28
T0
M30
