<?xml version="1.0" standalone="no"?>
 <!DOCTYPE svg PUBLIC "-//W3C//DTD SVG 1.1//EN" 
 "http://www.w3.org/Graphics/SVG/1.1/DTD/svg11.dtd"> 
<svg
  xmlns:svg="http://www.w3.org/2000/svg"
  xmlns="http://www.w3.org/2000/svg"
  xmlns:xlink="http://www.w3.org/1999/xlink"
  version="1.1"
  width="29.700220cm" height="21.000720cm" viewBox="0 0 116930 82680">
<title>SVG Picture created as OutputConnectors-OutputConnectors.svg date 2020/07/26 11:50:10 </title>
  <desc>Picture generated by Eeschema-SVG </desc>
<g style="fill:#000000; fill-opacity:1;stroke:#000000; stroke-opacity:1;
stroke-linecap:round; stroke-linejoin:round;"
 transform="translate(0 0) scale(1 1)">
</g>
<g style="fill:#000000; fill-opacity:0.0; 
stroke:#000000; stroke-width:-10; stroke-opacity:1; 
stroke-linecap:round; stroke-linejoin:round;">
</g>
<g style="fill:#840000; fill-opacity:0.0; 
stroke:#840000; stroke-width:-10; stroke-opacity:1; 
stroke-linecap:round; stroke-linejoin:round;">
</g>
<g style="fill:#840000; fill-opacity:0.0; 
stroke:#840000; stroke-width:100; stroke-opacity:1; 
stroke-linecap:round; stroke-linejoin:round;">
</g>
<g style="fill:#840000; fill-opacity:0.0; 
stroke:#840000; stroke-width:60; stroke-opacity:1; 
stroke-linecap:round; stroke-linejoin:round;">
<rect x="69690" y="65360" width="42520" height="12600" rx="0" />
</g>
<g style="fill:#840000; fill-opacity:0.0; 
stroke:#840000; stroke-width:100; stroke-opacity:1; 
stroke-linecap:round; stroke-linejoin:round;">
</g>
<g style="fill:#840000; fill-opacity:0.0; 
stroke:#840000; stroke-width:60; stroke-opacity:1; 
stroke-linecap:round; stroke-linejoin:round;">
<rect x="3940" y="3940" width="109050" height="74800" rx="0" />
</g>
<g style="fill:#840000; fill-opacity:0.0; 
stroke:#840000; stroke-width:100; stroke-opacity:1; 
stroke-linecap:round; stroke-linejoin:round;">
</g>
<g style="fill:#840000; fill-opacity:0.0; 
stroke:#840000; stroke-width:60; stroke-opacity:1; 
stroke-linecap:round; stroke-linejoin:round;">
<rect x="4720" y="4720" width="107490" height="73240" rx="0" />
</g>
<g style="fill:#840000; fill-opacity:0.0; 
stroke:#840000; stroke-width:100; stroke-opacity:1; 
stroke-linecap:round; stroke-linejoin:round;">
</g>
<g style="fill:#840000; fill-opacity:0.0; 
stroke:#840000; stroke-width:60; stroke-opacity:1; 
stroke-linecap:round; stroke-linejoin:round;">
<path d="M23620 4720
L23620 3940
" />
</g>
<g style="fill:#840000; fill-opacity:0.0; 
stroke:#840000; stroke-width:100; stroke-opacity:1; 
stroke-linecap:round; stroke-linejoin:round;">
</g>
<g style="fill:#840000; fill-opacity:0.0; 
stroke:#840000; stroke-width:60; stroke-opacity:1; 
stroke-linecap:round; stroke-linejoin:round;">
<path d="M43310 4720
L43310 3940
" />
</g>
<g style="fill:#840000; fill-opacity:0.0; 
stroke:#840000; stroke-width:100; stroke-opacity:1; 
stroke-linecap:round; stroke-linejoin:round;">
</g>
<g style="fill:#840000; fill-opacity:0.0; 
stroke:#840000; stroke-width:60; stroke-opacity:1; 
stroke-linecap:round; stroke-linejoin:round;">
<path d="M62990 4720
L62990 3940
" />
</g>
<g style="fill:#840000; fill-opacity:0.0; 
stroke:#840000; stroke-width:100; stroke-opacity:1; 
stroke-linecap:round; stroke-linejoin:round;">
</g>
<g style="fill:#840000; fill-opacity:0.0; 
stroke:#840000; stroke-width:60; stroke-opacity:1; 
stroke-linecap:round; stroke-linejoin:round;">
<path d="M82680 4720
L82680 3940
" />
</g>
<g style="fill:#840000; fill-opacity:0.0; 
stroke:#840000; stroke-width:100; stroke-opacity:1; 
stroke-linecap:round; stroke-linejoin:round;">
</g>
<g style="fill:#840000; fill-opacity:0.0; 
stroke:#840000; stroke-width:60; stroke-opacity:1; 
stroke-linecap:round; stroke-linejoin:round;">
<path d="M102360 4720
L102360 3940
" />
</g>
<g style="fill:#840000; fill-opacity:0.0; 
stroke:#840000; stroke-width:100; stroke-opacity:1; 
stroke-linecap:round; stroke-linejoin:round;">
</g>
<g style="fill:#840000; fill-opacity:0.0; 
stroke:#840000; stroke-width:60; stroke-opacity:1; 
stroke-linecap:round; stroke-linejoin:round;">
<text x="13780" y="4580"
textLength="550" font-size="680" lengthAdjust="spacingAndGlyphs"
text-anchor="start" opacity="0">1</text>
<path d="M14190 4560
L13900 4560
" />
<path d="M14050 4560
L14050 4050
L14000 4120
L13950 4170
L13900 4190
" />
</g>
<g style="fill:#840000; fill-opacity:0.0; 
stroke:#840000; stroke-width:100; stroke-opacity:1; 
stroke-linecap:round; stroke-linejoin:round;">
</g>
<g style="fill:#840000; fill-opacity:0.0; 
stroke:#840000; stroke-width:60; stroke-opacity:1; 
stroke-linecap:round; stroke-linejoin:round;">
<text x="33460" y="4580"
textLength="550" font-size="680" lengthAdjust="spacingAndGlyphs"
text-anchor="start" opacity="0">2</text>
<path d="M33580 4090
L33610 4070
L33660 4050
L33780 4050
L33830 4070
L33850 4090
L33870 4140
L33870 4190
L33850 4260
L33560 4560
L33870 4560
" />
</g>
<g style="fill:#840000; fill-opacity:0.0; 
stroke:#840000; stroke-width:100; stroke-opacity:1; 
stroke-linecap:round; stroke-linejoin:round;">
</g>
<g style="fill:#840000; fill-opacity:0.0; 
stroke:#840000; stroke-width:60; stroke-opacity:1; 
stroke-linecap:round; stroke-linejoin:round;">
<text x="53150" y="4580"
textLength="550" font-size="680" lengthAdjust="spacingAndGlyphs"
text-anchor="start" opacity="0">3</text>
<path d="M53250 4050
L53560 4050
L53390 4240
L53470 4240
L53520 4260
L53540 4290
L53560 4340
L53560 4460
L53540 4510
L53520 4530
L53470 4560
L53320 4560
L53270 4530
L53250 4510
" />
</g>
<g style="fill:#840000; fill-opacity:0.0; 
stroke:#840000; stroke-width:100; stroke-opacity:1; 
stroke-linecap:round; stroke-linejoin:round;">
</g>
<g style="fill:#840000; fill-opacity:0.0; 
stroke:#840000; stroke-width:60; stroke-opacity:1; 
stroke-linecap:round; stroke-linejoin:round;">
<text x="72830" y="4580"
textLength="550" font-size="680" lengthAdjust="spacingAndGlyphs"
text-anchor="start" opacity="0">4</text>
<path d="M73200 4220
L73200 4560
" />
<path d="M73070 4020
L72950 4390
L73270 4390
" />
</g>
<g style="fill:#840000; fill-opacity:0.0; 
stroke:#840000; stroke-width:100; stroke-opacity:1; 
stroke-linecap:round; stroke-linejoin:round;">
</g>
<g style="fill:#840000; fill-opacity:0.0; 
stroke:#840000; stroke-width:60; stroke-opacity:1; 
stroke-linecap:round; stroke-linejoin:round;">
<text x="92520" y="4580"
textLength="550" font-size="680" lengthAdjust="spacingAndGlyphs"
text-anchor="start" opacity="0">5</text>
<path d="M92910 4050
L92670 4050
L92640 4290
L92670 4260
L92720 4240
L92840 4240
L92890 4260
L92910 4290
L92930 4340
L92930 4460
L92910 4510
L92890 4530
L92840 4560
L92720 4560
L92670 4530
L92640 4510
" />
</g>
<g style="fill:#840000; fill-opacity:0.0; 
stroke:#840000; stroke-width:100; stroke-opacity:1; 
stroke-linecap:round; stroke-linejoin:round;">
</g>
<g style="fill:#840000; fill-opacity:0.0; 
stroke:#840000; stroke-width:60; stroke-opacity:1; 
stroke-linecap:round; stroke-linejoin:round;">
<text x="112200" y="4580"
textLength="550" font-size="680" lengthAdjust="spacingAndGlyphs"
text-anchor="start" opacity="0">6</text>
<path d="M112570 4050
L112470 4050
L112420 4070
L112400 4090
L112350 4170
L112320 4260
L112320 4460
L112350 4510
L112370 4530
L112420 4560
L112520 4560
L112570 4530
L112590 4510
L112610 4460
L112610 4340
L112590 4290
L112570 4260
L112520 4240
L112420 4240
L112370 4260
L112350 4290
L112320 4340
" />
</g>
<g style="fill:#840000; fill-opacity:0.0; 
stroke:#840000; stroke-width:100; stroke-opacity:1; 
stroke-linecap:round; stroke-linejoin:round;">
</g>
<g style="fill:#840000; fill-opacity:0.0; 
stroke:#840000; stroke-width:60; stroke-opacity:1; 
stroke-linecap:round; stroke-linejoin:round;">
<path d="M23620 77960
L23620 78740
" />
</g>
<g style="fill:#840000; fill-opacity:0.0; 
stroke:#840000; stroke-width:100; stroke-opacity:1; 
stroke-linecap:round; stroke-linejoin:round;">
</g>
<g style="fill:#840000; fill-opacity:0.0; 
stroke:#840000; stroke-width:60; stroke-opacity:1; 
stroke-linecap:round; stroke-linejoin:round;">
<path d="M43310 77960
L43310 78740
" />
</g>
<g style="fill:#840000; fill-opacity:0.0; 
stroke:#840000; stroke-width:100; stroke-opacity:1; 
stroke-linecap:round; stroke-linejoin:round;">
</g>
<g style="fill:#840000; fill-opacity:0.0; 
stroke:#840000; stroke-width:60; stroke-opacity:1; 
stroke-linecap:round; stroke-linejoin:round;">
<path d="M62990 77960
L62990 78740
" />
</g>
<g style="fill:#840000; fill-opacity:0.0; 
stroke:#840000; stroke-width:100; stroke-opacity:1; 
stroke-linecap:round; stroke-linejoin:round;">
</g>
<g style="fill:#840000; fill-opacity:0.0; 
stroke:#840000; stroke-width:60; stroke-opacity:1; 
stroke-linecap:round; stroke-linejoin:round;">
<path d="M82680 77960
L82680 78740
" />
</g>
<g style="fill:#840000; fill-opacity:0.0; 
stroke:#840000; stroke-width:100; stroke-opacity:1; 
stroke-linecap:round; stroke-linejoin:round;">
</g>
<g style="fill:#840000; fill-opacity:0.0; 
stroke:#840000; stroke-width:60; stroke-opacity:1; 
stroke-linecap:round; stroke-linejoin:round;">
<path d="M102360 77960
L102360 78740
" />
</g>
<g style="fill:#840000; fill-opacity:0.0; 
stroke:#840000; stroke-width:100; stroke-opacity:1; 
stroke-linecap:round; stroke-linejoin:round;">
</g>
<g style="fill:#840000; fill-opacity:0.0; 
stroke:#840000; stroke-width:60; stroke-opacity:1; 
stroke-linecap:round; stroke-linejoin:round;">
<text x="13780" y="78600"
textLength="550" font-size="680" lengthAdjust="spacingAndGlyphs"
text-anchor="start" opacity="0">1</text>
<path d="M14190 78580
L13900 78580
" />
<path d="M14050 78580
L14050 78070
L14000 78140
L13950 78190
L13900 78210
" />
</g>
<g style="fill:#840000; fill-opacity:0.0; 
stroke:#840000; stroke-width:100; stroke-opacity:1; 
stroke-linecap:round; stroke-linejoin:round;">
</g>
<g style="fill:#840000; fill-opacity:0.0; 
stroke:#840000; stroke-width:60; stroke-opacity:1; 
stroke-linecap:round; stroke-linejoin:round;">
<text x="33460" y="78600"
textLength="550" font-size="680" lengthAdjust="spacingAndGlyphs"
text-anchor="start" opacity="0">2</text>
<path d="M33580 78110
L33610 78090
L33660 78070
L33780 78070
L33830 78090
L33850 78110
L33870 78160
L33870 78210
L33850 78280
L33560 78580
L33870 78580
" />
</g>
<g style="fill:#840000; fill-opacity:0.0; 
stroke:#840000; stroke-width:100; stroke-opacity:1; 
stroke-linecap:round; stroke-linejoin:round;">
</g>
<g style="fill:#840000; fill-opacity:0.0; 
stroke:#840000; stroke-width:60; stroke-opacity:1; 
stroke-linecap:round; stroke-linejoin:round;">
<text x="53150" y="78600"
textLength="550" font-size="680" lengthAdjust="spacingAndGlyphs"
text-anchor="start" opacity="0">3</text>
<path d="M53250 78070
L53560 78070
L53390 78260
L53470 78260
L53520 78280
L53540 78310
L53560 78360
L53560 78480
L53540 78530
L53520 78550
L53470 78580
L53320 78580
L53270 78550
L53250 78530
" />
</g>
<g style="fill:#840000; fill-opacity:0.0; 
stroke:#840000; stroke-width:100; stroke-opacity:1; 
stroke-linecap:round; stroke-linejoin:round;">
</g>
<g style="fill:#840000; fill-opacity:0.0; 
stroke:#840000; stroke-width:60; stroke-opacity:1; 
stroke-linecap:round; stroke-linejoin:round;">
<text x="72830" y="78600"
textLength="550" font-size="680" lengthAdjust="spacingAndGlyphs"
text-anchor="start" opacity="0">4</text>
<path d="M73200 78240
L73200 78580
" />
<path d="M73070 78040
L72950 78410
L73270 78410
" />
</g>
<g style="fill:#840000; fill-opacity:0.0; 
stroke:#840000; stroke-width:100; stroke-opacity:1; 
stroke-linecap:round; stroke-linejoin:round;">
</g>
<g style="fill:#840000; fill-opacity:0.0; 
stroke:#840000; stroke-width:60; stroke-opacity:1; 
stroke-linecap:round; stroke-linejoin:round;">
<text x="92520" y="78600"
textLength="550" font-size="680" lengthAdjust="spacingAndGlyphs"
text-anchor="start" opacity="0">5</text>
<path d="M92910 78070
L92670 78070
L92640 78310
L92670 78280
L92720 78260
L92840 78260
L92890 78280
L92910 78310
L92930 78360
L92930 78480
L92910 78530
L92890 78550
L92840 78580
L92720 78580
L92670 78550
L92640 78530
" />
</g>
<g style="fill:#840000; fill-opacity:0.0; 
stroke:#840000; stroke-width:100; stroke-opacity:1; 
stroke-linecap:round; stroke-linejoin:round;">
</g>
<g style="fill:#840000; fill-opacity:0.0; 
stroke:#840000; stroke-width:60; stroke-opacity:1; 
stroke-linecap:round; stroke-linejoin:round;">
<text x="112200" y="78600"
textLength="550" font-size="680" lengthAdjust="spacingAndGlyphs"
text-anchor="start" opacity="0">6</text>
<path d="M112570 78070
L112470 78070
L112420 78090
L112400 78110
L112350 78190
L112320 78280
L112320 78480
L112350 78530
L112370 78550
L112420 78580
L112520 78580
L112570 78550
L112590 78530
L112610 78480
L112610 78360
L112590 78310
L112570 78280
L112520 78260
L112420 78260
L112370 78280
L112350 78310
L112320 78360
" />
</g>
<g style="fill:#840000; fill-opacity:0.0; 
stroke:#840000; stroke-width:100; stroke-opacity:1; 
stroke-linecap:round; stroke-linejoin:round;">
</g>
<g style="fill:#840000; fill-opacity:0.0; 
stroke:#840000; stroke-width:60; stroke-opacity:1; 
stroke-linecap:round; stroke-linejoin:round;">
<path d="M3940 23620
L4720 23620
" />
</g>
<g style="fill:#840000; fill-opacity:0.0; 
stroke:#840000; stroke-width:100; stroke-opacity:1; 
stroke-linecap:round; stroke-linejoin:round;">
</g>
<g style="fill:#840000; fill-opacity:0.0; 
stroke:#840000; stroke-width:60; stroke-opacity:1; 
stroke-linecap:round; stroke-linejoin:round;">
<path d="M3940 43310
L4720 43310
" />
</g>
<g style="fill:#840000; fill-opacity:0.0; 
stroke:#840000; stroke-width:100; stroke-opacity:1; 
stroke-linecap:round; stroke-linejoin:round;">
</g>
<g style="fill:#840000; fill-opacity:0.0; 
stroke:#840000; stroke-width:60; stroke-opacity:1; 
stroke-linecap:round; stroke-linejoin:round;">
<path d="M3940 62990
L4720 62990
" />
</g>
<g style="fill:#840000; fill-opacity:0.0; 
stroke:#840000; stroke-width:100; stroke-opacity:1; 
stroke-linecap:round; stroke-linejoin:round;">
</g>
<g style="fill:#840000; fill-opacity:0.0; 
stroke:#840000; stroke-width:60; stroke-opacity:1; 
stroke-linecap:round; stroke-linejoin:round;">
<text x="4330" y="14030"
textLength="500" font-size="680" lengthAdjust="spacingAndGlyphs"
text-anchor="middle" opacity="0">A</text>
<path d="M4200 13860
L4450 13860
" />
<path d="M4160 14010
L4330 13500
L4500 14010
" />
</g>
<g style="fill:#840000; fill-opacity:0.0; 
stroke:#840000; stroke-width:100; stroke-opacity:1; 
stroke-linecap:round; stroke-linejoin:round;">
</g>
<g style="fill:#840000; fill-opacity:0.0; 
stroke:#840000; stroke-width:60; stroke-opacity:1; 
stroke-linecap:round; stroke-linejoin:round;">
<text x="4330" y="33710"
textLength="570" font-size="680" lengthAdjust="spacingAndGlyphs"
text-anchor="middle" opacity="0">B</text>
<path d="M4360 33420
L4430 33440
L4460 33470
L4480 33520
L4480 33590
L4460 33640
L4430 33660
L4390 33690
L4190 33690
L4190 33180
L4360 33180
L4410 33200
L4430 33220
L4460 33270
L4460 33320
L4430 33370
L4410 33390
L4360 33420
L4190 33420
" />
</g>
<g style="fill:#840000; fill-opacity:0.0; 
stroke:#840000; stroke-width:100; stroke-opacity:1; 
stroke-linecap:round; stroke-linejoin:round;">
</g>
<g style="fill:#840000; fill-opacity:0.0; 
stroke:#840000; stroke-width:60; stroke-opacity:1; 
stroke-linecap:round; stroke-linejoin:round;">
<text x="4330" y="53400"
textLength="570" font-size="680" lengthAdjust="spacingAndGlyphs"
text-anchor="middle" opacity="0">C</text>
<path d="M4480 53330
L4460 53350
L4390 53380
L4340 53380
L4260 53350
L4220 53300
L4190 53250
L4170 53160
L4170 53080
L4190 52990
L4220 52940
L4260 52890
L4340 52870
L4390 52870
L4460 52890
L4480 52910
" />
</g>
<g style="fill:#840000; fill-opacity:0.0; 
stroke:#840000; stroke-width:100; stroke-opacity:1; 
stroke-linecap:round; stroke-linejoin:round;">
</g>
<g style="fill:#840000; fill-opacity:0.0; 
stroke:#840000; stroke-width:60; stroke-opacity:1; 
stroke-linecap:round; stroke-linejoin:round;">
<text x="4330" y="73080"
textLength="570" font-size="680" lengthAdjust="spacingAndGlyphs"
text-anchor="middle" opacity="0">D</text>
<path d="M4190 73060
L4190 72550
L4310 72550
L4390 72570
L4430 72620
L4460 72670
L4480 72760
L4480 72840
L4460 72930
L4430 72980
L4390 73030
L4310 73060
L4190 73060
" />
</g>
<g style="fill:#840000; fill-opacity:0.0; 
stroke:#840000; stroke-width:100; stroke-opacity:1; 
stroke-linecap:round; stroke-linejoin:round;">
</g>
<g style="fill:#840000; fill-opacity:0.0; 
stroke:#840000; stroke-width:60; stroke-opacity:1; 
stroke-linecap:round; stroke-linejoin:round;">
<path d="M112990 23620
L112210 23620
" />
</g>
<g style="fill:#840000; fill-opacity:0.0; 
stroke:#840000; stroke-width:100; stroke-opacity:1; 
stroke-linecap:round; stroke-linejoin:round;">
</g>
<g style="fill:#840000; fill-opacity:0.0; 
stroke:#840000; stroke-width:60; stroke-opacity:1; 
stroke-linecap:round; stroke-linejoin:round;">
<path d="M112990 43310
L112210 43310
" />
</g>
<g style="fill:#840000; fill-opacity:0.0; 
stroke:#840000; stroke-width:100; stroke-opacity:1; 
stroke-linecap:round; stroke-linejoin:round;">
</g>
<g style="fill:#840000; fill-opacity:0.0; 
stroke:#840000; stroke-width:60; stroke-opacity:1; 
stroke-linecap:round; stroke-linejoin:round;">
<path d="M112990 62990
L112210 62990
" />
</g>
<g style="fill:#840000; fill-opacity:0.0; 
stroke:#840000; stroke-width:100; stroke-opacity:1; 
stroke-linecap:round; stroke-linejoin:round;">
</g>
<g style="fill:#840000; fill-opacity:0.0; 
stroke:#840000; stroke-width:60; stroke-opacity:1; 
stroke-linecap:round; stroke-linejoin:round;">
<text x="112600" y="14030"
textLength="500" font-size="680" lengthAdjust="spacingAndGlyphs"
text-anchor="middle" opacity="0">A</text>
<path d="M112470 13860
L112720 13860
" />
<path d="M112430 14010
L112600 13500
L112770 14010
" />
</g>
<g style="fill:#840000; fill-opacity:0.0; 
stroke:#840000; stroke-width:100; stroke-opacity:1; 
stroke-linecap:round; stroke-linejoin:round;">
</g>
<g style="fill:#840000; fill-opacity:0.0; 
stroke:#840000; stroke-width:60; stroke-opacity:1; 
stroke-linecap:round; stroke-linejoin:round;">
<text x="112600" y="33710"
textLength="570" font-size="680" lengthAdjust="spacingAndGlyphs"
text-anchor="middle" opacity="0">B</text>
<path d="M112630 33420
L112700 33440
L112730 33470
L112750 33520
L112750 33590
L112730 33640
L112700 33660
L112660 33690
L112460 33690
L112460 33180
L112630 33180
L112680 33200
L112700 33220
L112730 33270
L112730 33320
L112700 33370
L112680 33390
L112630 33420
L112460 33420
" />
</g>
<g style="fill:#840000; fill-opacity:0.0; 
stroke:#840000; stroke-width:100; stroke-opacity:1; 
stroke-linecap:round; stroke-linejoin:round;">
</g>
<g style="fill:#840000; fill-opacity:0.0; 
stroke:#840000; stroke-width:60; stroke-opacity:1; 
stroke-linecap:round; stroke-linejoin:round;">
<text x="112600" y="53400"
textLength="570" font-size="680" lengthAdjust="spacingAndGlyphs"
text-anchor="middle" opacity="0">C</text>
<path d="M112750 53330
L112730 53350
L112660 53380
L112610 53380
L112530 53350
L112490 53300
L112460 53250
L112440 53160
L112440 53080
L112460 52990
L112490 52940
L112530 52890
L112610 52870
L112660 52870
L112730 52890
L112750 52910
" />
</g>
<g style="fill:#840000; fill-opacity:0.0; 
stroke:#840000; stroke-width:100; stroke-opacity:1; 
stroke-linecap:round; stroke-linejoin:round;">
</g>
<g style="fill:#840000; fill-opacity:0.0; 
stroke:#840000; stroke-width:60; stroke-opacity:1; 
stroke-linecap:round; stroke-linejoin:round;">
<text x="112600" y="73080"
textLength="570" font-size="680" lengthAdjust="spacingAndGlyphs"
text-anchor="middle" opacity="0">D</text>
<path d="M112460 73060
L112460 72550
L112580 72550
L112660 72570
L112700 72620
L112730 72670
L112750 72760
L112750 72840
L112730 72930
L112700 72980
L112660 73030
L112580 73060
L112460 73060
" />
</g>
<g style="fill:#840000; fill-opacity:0.0; 
stroke:#840000; stroke-width:100; stroke-opacity:1; 
stroke-linecap:round; stroke-linejoin:round;">
</g>
<g style="fill:#840000; fill-opacity:0.0; 
stroke:#840000; stroke-width:60; stroke-opacity:1; 
stroke-linecap:round; stroke-linejoin:round;">
<text x="78740" y="76320"
textLength="8710" font-size="780" lengthAdjust="spacingAndGlyphs"
text-anchor="start" opacity="0">Date: 2020-07-26</text>
<path d="M78910 76290
L78910 75700
L79050 75700
L79130 75730
L79190 75790
L79210 75840
L79240 75950
L79240 76040
L79210 76150
L79190 76210
L79130 76260
L79050 76290
L78910 76290
" />
<path d="M79750 76290
L79750 75980
L79720 75930
L79660 75900
L79550 75900
L79500 75930
" />
<path d="M79750 76260
L79690 76290
L79550 76290
L79500 76260
L79470 76210
L79470 76150
L79500 76100
L79550 76070
L79690 76070
L79750 76040
" />
<path d="M79950 75900
L80170 75900
" />
<path d="M80030 75700
L80030 76210
L80060 76260
L80110 76290
L80170 76290
" />
<path d="M80590 76260
L80540 76290
L80420 76290
L80370 76260
L80340 76210
L80340 75980
L80370 75930
L80420 75900
L80540 75900
L80590 75930
L80620 75980
L80620 76040
L80340 76100
" />
<path d="M80870 76240
L80900 76260
L80870 76290
L80840 76260
L80870 76240
L80870 76290
" />
<path d="M80870 75930
L80900 75950
L80870 75980
L80840 75950
L80870 75930
L80870 75980
" />
<path d="M81570 75760
L81600 75730
L81660 75700
L81800 75700
L81860 75730
L81880 75760
L81910 75810
L81910 75870
L81880 75950
L81550 76290
L81910 76290
" />
<path d="M82280 75700
L82330 75700
L82390 75730
L82420 75760
L82450 75810
L82470 75930
L82470 76070
L82450 76180
L82420 76240
L82390 76260
L82330 76290
L82280 76290
L82220 76260
L82190 76240
L82160 76180
L82140 76070
L82140 75930
L82160 75810
L82190 75760
L82220 75730
L82280 75700
" />
<path d="M82700 75760
L82730 75730
L82780 75700
L82920 75700
L82980 75730
L83010 75760
L83040 75810
L83040 75870
L83010 75950
L82670 76290
L83040 76290
" />
<path d="M83400 75700
L83460 75700
L83510 75730
L83540 75760
L83570 75810
L83600 75930
L83600 76070
L83570 76180
L83540 76240
L83510 76260
L83460 76290
L83400 76290
L83340 76260
L83320 76240
L83290 76180
L83260 76070
L83260 75930
L83290 75810
L83320 75760
L83340 75730
L83400 75700
" />
<path d="M83850 76070
L84300 76070
" />
<path d="M84690 75700
L84750 75700
L84810 75730
L84830 75760
L84860 75810
L84890 75930
L84890 76070
L84860 76180
L84830 76240
L84810 76260
L84750 76290
L84690 76290
L84640 76260
L84610 76240
L84580 76180
L84550 76070
L84550 75930
L84580 75810
L84610 75760
L84640 75730
L84690 75700
" />
<path d="M85090 75700
L85480 75700
L85230 76290
" />
<path d="M85700 76070
L86150 76070
" />
<path d="M86410 75760
L86440 75730
L86490 75700
L86630 75700
L86690 75730
L86720 75760
L86740 75810
L86740 75870
L86720 75950
L86380 76290
L86740 76290
" />
<path d="M87250 75700
L87140 75700
L87080 75730
L87050 75760
L87000 75840
L86970 75950
L86970 76180
L87000 76240
L87030 76260
L87080 76290
L87190 76290
L87250 76260
L87280 76240
L87310 76180
L87310 76040
L87280 75980
L87250 75950
L87190 75930
L87080 75930
L87030 75950
L87000 75980
L86970 76040
" />
</g>
<g style="fill:#840000; fill-opacity:0.0; 
stroke:#840000; stroke-width:100; stroke-opacity:1; 
stroke-linecap:round; stroke-linejoin:round;">
</g>
<g style="fill:#840000; fill-opacity:0.0; 
stroke:#840000; stroke-width:60; stroke-opacity:1; 
stroke-linecap:round; stroke-linejoin:round;">
<path d="M69690 76580
L112210 76580
" />
</g>
<g style="fill:#840000; fill-opacity:0.0; 
stroke:#840000; stroke-width:100; stroke-opacity:1; 
stroke-linecap:round; stroke-linejoin:round;">
</g>
<g style="fill:#840000; fill-opacity:0.0; 
stroke:#840000; stroke-width:60; stroke-opacity:1; 
stroke-linecap:round; stroke-linejoin:round;">
<text x="70080" y="77420"
textLength="23240" font-size="780" lengthAdjust="spacingAndGlyphs"
text-anchor="start" opacity="0">KiCad E.D.A.  kicad 5.1.6-c6e7f7d~87~ubuntu18.04.1</text>
<path d="M70250 77390
L70250 76800
" />
<path d="M70580 77390
L70330 77050
" />
<path d="M70580 76800
L70250 77140
" />
<path d="M70840 77390
L70840 77000
" />
<path d="M70840 76800
L70810 76830
L70840 76860
L70860 76830
L70840 76800
L70840 76860
" />
<path d="M71450 77340
L71430 77360
L71340 77390
L71290 77390
L71200 77360
L71140 77310
L71120 77250
L71090 77140
L71090 77050
L71120 76940
L71140 76890
L71200 76830
L71290 76800
L71340 76800
L71430 76830
L71450 76860
" />
<path d="M71960 77390
L71960 77080
L71930 77030
L71880 77000
L71760 77000
L71710 77030
" />
<path d="M71960 77360
L71900 77390
L71760 77390
L71710 77360
L71680 77310
L71680 77250
L71710 77200
L71760 77170
L71900 77170
L71960 77140
" />
<path d="M72490 77390
L72490 76800
" />
<path d="M72490 77360
L72440 77390
L72320 77390
L72270 77360
L72240 77340
L72210 77280
L72210 77110
L72240 77050
L72270 77030
L72320 77000
L72440 77000
L72490 77030
" />
<path d="M73220 77080
L73420 77080
" />
<path d="M73500 77390
L73220 77390
L73220 76800
L73500 76800
" />
<path d="M73760 77340
L73790 77360
L73760 77390
L73730 77360
L73760 77340
L73760 77390
" />
<path d="M74040 77390
L74040 76800
L74180 76800
L74260 76830
L74320 76890
L74350 76940
L74380 77050
L74380 77140
L74350 77250
L74320 77310
L74260 77360
L74180 77390
L74040 77390
" />
<path d="M74630 77340
L74660 77360
L74630 77390
L74600 77360
L74630 77340
L74630 77390
" />
<path d="M74880 77220
L75160 77220
" />
<path d="M74830 77390
L75020 76800
L75220 77390
" />
<path d="M75420 77340
L75440 77360
L75420 77390
L75390 77360
L75420 77340
L75420 77390
" />
<path d="M76600 77390
L76600 76800
" />
<path d="M76650 77170
L76820 77390
" />
<path d="M76820 77000
L76600 77220
" />
<path d="M77070 77390
L77070 77000
" />
<path d="M77070 76800
L77040 76830
L77070 76860
L77100 76830
L77070 76800
L77070 76860
" />
<path d="M77610 77360
L77550 77390
L77440 77390
L77380 77360
L77350 77340
L77330 77280
L77330 77110
L77350 77050
L77380 77030
L77440 77000
L77550 77000
L77610 77030
" />
<path d="M78110 77390
L78110 77080
L78080 77030
L78030 77000
L77920 77000
L77860 77030
" />
<path d="M78110 77360
L78060 77390
L77920 77390
L77860 77360
L77830 77310
L77830 77250
L77860 77200
L77920 77170
L78060 77170
L78110 77140
" />
<path d="M78650 77390
L78650 76800
" />
<path d="M78650 77360
L78590 77390
L78480 77390
L78420 77360
L78390 77340
L78370 77280
L78370 77110
L78390 77050
L78420 77030
L78480 77000
L78590 77000
L78650 77030
" />
<path d="M79660 76800
L79380 76800
L79350 77080
L79380 77050
L79430 77030
L79570 77030
L79630 77050
L79660 77080
L79690 77140
L79690 77280
L79660 77340
L79630 77360
L79570 77390
L79430 77390
L79380 77360
L79350 77340
" />
<path d="M79940 77340
L79970 77360
L79940 77390
L79910 77360
L79940 77340
L79940 77390
" />
<path d="M80530 77390
L80190 77390
" />
<path d="M80360 77390
L80360 76800
L80300 76890
L80250 76940
L80190 76970
" />
<path d="M80780 77340
L80810 77360
L80780 77390
L80750 77360
L80780 77340
L80780 77390
" />
<path d="M81320 76800
L81200 76800
L81150 76830
L81120 76860
L81060 76940
L81030 77050
L81030 77280
L81060 77340
L81090 77360
L81150 77390
L81260 77390
L81320 77360
L81340 77340
L81370 77280
L81370 77140
L81340 77080
L81320 77050
L81260 77030
L81150 77030
L81090 77050
L81060 77080
L81030 77140
" />
<path d="M81620 77170
L82070 77170
" />
<path d="M82610 77360
L82550 77390
L82440 77390
L82380 77360
L82350 77340
L82330 77280
L82330 77110
L82350 77050
L82380 77030
L82440 77000
L82550 77000
L82610 77030
" />
<path d="M83110 76800
L83000 76800
L82940 76830
L82920 76860
L82860 76940
L82830 77050
L82830 77280
L82860 77340
L82890 77360
L82940 77390
L83060 77390
L83110 77360
L83140 77340
L83170 77280
L83170 77140
L83140 77080
L83110 77050
L83060 77030
L82940 77030
L82890 77050
L82860 77080
L82830 77140
" />
<path d="M83650 77360
L83590 77390
L83480 77390
L83420 77360
L83390 77310
L83390 77080
L83420 77030
L83480 77000
L83590 77000
L83650 77030
L83680 77080
L83680 77140
L83390 77200
" />
<path d="M83870 76800
L84270 76800
L84010 77390
" />
<path d="M84410 77000
L84630 77000
" />
<path d="M84490 77390
L84490 76890
L84520 76830
L84570 76800
L84630 76800
" />
<path d="M84770 76800
L85160 76800
L84910 77390
" />
<path d="M85640 77390
L85640 76800
" />
<path d="M85640 77360
L85590 77390
L85470 77390
L85420 77360
L85390 77340
L85360 77280
L85360 77110
L85390 77050
L85420 77030
L85470 77000
L85590 77000
L85640 77030
" />
<path d="M85780 76640
L86340 76640
" />
<path d="M86010 77050
L85950 77030
L85920 77000
L85890 76940
L85890 76910
L85920 76860
L85950 76830
L86010 76800
L86120 76800
L86180 76830
L86200 76860
L86230 76910
L86230 76940
L86200 77000
L86180 77030
L86120 77050
L86010 77050
L85950 77080
L85920 77110
L85890 77170
L85890 77280
L85920 77340
L85950 77360
L86010 77390
L86120 77390
L86180 77360
L86200 77340
L86230 77280
L86230 77170
L86200 77110
L86180 77080
L86120 77050
" />
<path d="M86340 76640
L86910 76640
" />
<path d="M86430 76800
L86820 76800
L86570 77390
" />
<path d="M87300 77000
L87300 77390
" />
<path d="M87050 77000
L87050 77310
L87070 77360
L87130 77390
L87220 77390
L87270 77360
L87300 77340
" />
<path d="M87580 77390
L87580 76800
" />
<path d="M87580 77030
L87640 77000
L87750 77000
L87810 77030
L87830 77050
L87860 77110
L87860 77280
L87830 77340
L87810 77360
L87750 77390
L87640 77390
L87580 77360
" />
<path d="M88370 77000
L88370 77390
" />
<path d="M88110 77000
L88110 77310
L88140 77360
L88200 77390
L88280 77390
L88340 77360
L88370 77340
" />
<path d="M88650 77000
L88650 77390
" />
<path d="M88650 77050
L88680 77030
L88730 77000
L88820 77000
L88870 77030
L88900 77080
L88900 77390
" />
<path d="M89100 77000
L89320 77000
" />
<path d="M89180 76800
L89180 77310
L89210 77360
L89270 77390
L89320 77390
" />
<path d="M89770 77000
L89770 77390
" />
<path d="M89520 77000
L89520 77310
L89550 77360
L89600 77390
L89690 77390
L89740 77360
L89770 77340
" />
<path d="M90360 77390
L90020 77390
" />
<path d="M90190 77390
L90190 76800
L90140 76890
L90080 76940
L90020 76970
" />
<path d="M90700 77050
L90640 77030
L90610 77000
L90590 76940
L90590 76910
L90610 76860
L90640 76830
L90700 76800
L90810 76800
L90870 76830
L90900 76860
L90920 76910
L90920 76940
L90900 77000
L90870 77030
L90810 77050
L90700 77050
L90640 77080
L90610 77110
L90590 77170
L90590 77280
L90610 77340
L90640 77360
L90700 77390
L90810 77390
L90870 77360
L90900 77340
L90920 77280
L90920 77170
L90900 77110
L90870 77080
L90810 77050
" />
<path d="M91180 77340
L91200 77360
L91180 77390
L91150 77360
L91180 77340
L91180 77390
" />
<path d="M91570 76800
L91630 76800
L91680 76830
L91710 76860
L91740 76910
L91770 77030
L91770 77170
L91740 77280
L91710 77340
L91680 77360
L91630 77390
L91570 77390
L91510 77360
L91490 77340
L91460 77280
L91430 77170
L91430 77030
L91460 76910
L91490 76860
L91510 76830
L91570 76800
" />
<path d="M92270 77000
L92270 77390
" />
<path d="M92130 76770
L91990 77200
L92360 77200
" />
<path d="M92580 77340
L92610 77360
L92580 77390
L92550 77360
L92580 77340
L92580 77390
" />
<path d="M93170 77390
L92830 77390
" />
<path d="M93000 77390
L93000 76800
L92950 76890
L92890 76940
L92830 76970
" />
</g>
<g style="fill:#840000; fill-opacity:0.0; 
stroke:#840000; stroke-width:100; stroke-opacity:1; 
stroke-linecap:round; stroke-linejoin:round;">
</g>
<g style="fill:#840000; fill-opacity:0.0; 
stroke:#840000; stroke-width:60; stroke-opacity:1; 
stroke-linecap:round; stroke-linejoin:round;">
<path d="M69690 75400
L112210 75400
" />
</g>
<g style="fill:#840000; fill-opacity:0.0; 
stroke:#840000; stroke-width:100; stroke-opacity:1; 
stroke-linecap:round; stroke-linejoin:round;">
</g>
<g style="fill:#840000; fill-opacity:0.0; 
stroke:#840000; stroke-width:120; stroke-opacity:1; 
stroke-linecap:round; stroke-linejoin:round;">
<text x="103540" y="76320"
textLength="2840" font-size="780" lengthAdjust="spacingAndGlyphs"
text-anchor="start" opacity="0">Rev: A</text>
<path d="M104090 76290
L103890 76010
" />
<path d="M103750 76290
L103750 75700
L103980 75700
L104030 75730
L104060 75760
L104090 75810
L104090 75900
L104060 75950
L104030 75980
L103980 76010
L103750 76010
" />
<path d="M104570 76260
L104510 76290
L104400 76290
L104340 76260
L104320 76210
L104320 75980
L104340 75930
L104400 75900
L104510 75900
L104570 75930
L104600 75980
L104600 76040
L104320 76100
" />
<path d="M104790 75900
L104930 76290
L105070 75900
" />
<path d="M105300 76240
L105330 76260
L105300 76290
L105270 76260
L105300 76240
L105300 76290
" />
<path d="M105300 75930
L105330 75950
L105300 75980
L105270 75950
L105300 75930
L105300 75980
" />
<path d="M106000 76120
L106280 76120
" />
<path d="M105940 76290
L106140 75700
L106340 76290
" />
</g>
<g style="fill:#840000; fill-opacity:0.0; 
stroke:#840000; stroke-width:100; stroke-opacity:1; 
stroke-linecap:round; stroke-linejoin:round;">
</g>
<g style="fill:#840000; fill-opacity:0.0; 
stroke:#840000; stroke-width:60; stroke-opacity:1; 
stroke-linecap:round; stroke-linejoin:round;">
<text x="70080" y="76320"
textLength="3780" font-size="780" lengthAdjust="spacingAndGlyphs"
text-anchor="start" opacity="0">Size: A4</text>
<path d="M70220 76260
L70300 76290
L70440 76290
L70500 76260
L70530 76240
L70550 76180
L70550 76120
L70530 76070
L70500 76040
L70440 76010
L70330 75980
L70270 75950
L70250 75930
L70220 75870
L70220 75810
L70250 75760
L70270 75730
L70330 75700
L70470 75700
L70550 75730
" />
<path d="M70810 76290
L70810 75900
" />
<path d="M70810 75700
L70780 75730
L70810 75760
L70840 75730
L70810 75700
L70810 75760
" />
<path d="M71030 75900
L71340 75900
L71030 76290
L71340 76290
" />
<path d="M71790 76260
L71730 76290
L71620 76290
L71570 76260
L71540 76210
L71540 75980
L71570 75930
L71620 75900
L71730 75900
L71790 75930
L71820 75980
L71820 76040
L71540 76100
" />
<path d="M72070 76240
L72100 76260
L72070 76290
L72040 76260
L72070 76240
L72070 76290
" />
<path d="M72070 75930
L72100 75950
L72070 75980
L72040 75950
L72070 75930
L72070 75980
" />
<path d="M72770 76120
L73060 76120
" />
<path d="M72720 76290
L72910 75700
L73110 76290
" />
<path d="M73560 75900
L73560 76290
" />
<path d="M73420 75670
L73280 76100
L73650 76100
" />
</g>
<g style="fill:#840000; fill-opacity:0.0; 
stroke:#840000; stroke-width:100; stroke-opacity:1; 
stroke-linecap:round; stroke-linejoin:round;">
</g>
<g style="fill:#840000; fill-opacity:0.0; 
stroke:#840000; stroke-width:60; stroke-opacity:1; 
stroke-linecap:round; stroke-linejoin:round;">
<text x="103540" y="77420"
textLength="3350" font-size="780" lengthAdjust="spacingAndGlyphs"
text-anchor="start" opacity="0">Id: 2/7</text>
<path d="M103710 77390
L103710 76800
" />
<path d="M104240 77390
L104240 76800
" />
<path d="M104240 77360
L104180 77390
L104070 77390
L104010 77360
L103990 77340
L103960 77280
L103960 77110
L103990 77050
L104010 77030
L104070 77000
L104180 77000
L104240 77030
" />
<path d="M104520 77340
L104550 77360
L104520 77390
L104490 77360
L104520 77340
L104520 77390
" />
<path d="M104520 77030
L104550 77050
L104520 77080
L104490 77050
L104520 77030
L104520 77080
" />
<path d="M105220 76860
L105250 76830
L105310 76800
L105450 76800
L105500 76830
L105530 76860
L105560 76910
L105560 76970
L105530 77050
L105190 77390
L105560 77390
" />
<path d="M106230 76770
L105730 77530
" />
<path d="M106370 76800
L106770 76800
L106520 77390
" />
</g>
<g style="fill:#840000; fill-opacity:0.0; 
stroke:#840000; stroke-width:100; stroke-opacity:1; 
stroke-linecap:round; stroke-linejoin:round;">
</g>
<g style="fill:#840000; fill-opacity:0.0; 
stroke:#840000; stroke-width:60; stroke-opacity:1; 
stroke-linecap:round; stroke-linejoin:round;">
<path d="M69690 73820
L112210 73820
" />
</g>
<g style="fill:#840000; fill-opacity:0.0; 
stroke:#840000; stroke-width:100; stroke-opacity:1; 
stroke-linecap:round; stroke-linejoin:round;">
</g>
<g style="fill:#840000; fill-opacity:0.0; 
stroke:#840000; stroke-width:160; stroke-opacity:1; 
stroke-linecap:round; stroke-linejoin:round;">
<text x="70080" y="74920"
textLength="21920" font-size="1050" lengthAdjust="spacingAndGlyphs"
text-anchor="start" opacity="0">Title: High current output connctors</text>
<path d="M70360 74090
L70810 74090
" />
<path d="M70480 74880
L70580 74090
" />
<path d="M70970 74880
L71040 74360
" />
<path d="M71070 74090
L71030 74130
L71060 74170
L71110 74130
L71070 74090
L71060 74170
" />
<path d="M71300 74360
L71600 74360
" />
<path d="M71450 74090
L71360 74770
L71390 74840
L71460 74880
L71540 74880
" />
<path d="M71910 74880
L71840 74840
L71820 74770
L71900 74090
" />
<path d="M72520 74840
L72440 74880
L72290 74880
L72220 74840
L72190 74770
L72230 74470
L72280 74390
L72360 74360
L72510 74360
L72580 74390
L72610 74470
L72600 74540
L72210 74620
" />
<path d="M72900 74810
L72930 74840
L72890 74880
L72860 74840
L72900 74810
L72890 74880
" />
<path d="M72950 74390
L72990 74430
L72940 74470
L72910 74430
L72950 74390
L72940 74470
" />
<path d="M73870 74880
L73970 74090
" />
<path d="M73920 74470
L74370 74470
" />
<path d="M74320 74880
L74420 74090
" />
<path d="M74700 74880
L74760 74360
" />
<path d="M74800 74090
L74750 74130
L74790 74170
L74830 74130
L74800 74090
L74790 74170
" />
<path d="M75480 74360
L75400 75000
L75350 75070
L75310 75110
L75230 75150
L75120 75150
L75050 75110
" />
<path d="M75420 74840
L75340 74880
L75190 74880
L75120 74840
L75080 74810
L75060 74730
L75080 74510
L75130 74430
L75170 74390
L75250 74360
L75400 74360
L75470 74390
" />
<path d="M75790 74880
L75890 74090
" />
<path d="M76130 74880
L76180 74470
L76150 74390
L76080 74360
L75970 74360
L75890 74390
L75850 74430
" />
<path d="M77450 74840
L77370 74880
L77220 74880
L77150 74840
L77120 74810
L77090 74730
L77120 74510
L77160 74430
L77200 74390
L77280 74360
L77430 74360
L77510 74390
" />
<path d="M78190 74360
L78120 74880
" />
<path d="M77850 74360
L77800 74770
L77830 74840
L77900 74880
L78010 74880
L78090 74840
L78130 74810
" />
<path d="M78500 74880
L78560 74360
" />
<path d="M78540 74510
L78590 74430
L78630 74390
L78710 74360
L78790 74360
" />
<path d="M78990 74880
L79050 74360
" />
<path d="M79030 74510
L79080 74430
L79120 74390
L79200 74360
L79280 74360
" />
<path d="M79780 74840
L79700 74880
L79550 74880
L79480 74840
L79450 74770
L79490 74470
L79540 74390
L79620 74360
L79770 74360
L79840 74390
L79870 74470
L79860 74540
L79470 74620
" />
<path d="M80220 74360
L80150 74880
" />
<path d="M80210 74430
L80250 74390
L80330 74360
L80440 74360
L80510 74390
L80540 74470
L80490 74880
" />
<path d="M80820 74360
L81120 74360
" />
<path d="M80970 74090
L80880 74770
L80910 74840
L80980 74880
L81060 74880
" />
<path d="M82030 74880
L81960 74840
L81930 74810
L81900 74730
L81930 74510
L81980 74430
L82020 74390
L82100 74360
L82210 74360
L82280 74390
L82320 74430
L82340 74510
L82320 74730
L82270 74810
L82230 74840
L82150 74880
L82030 74880
" />
<path d="M83040 74360
L82970 74880
" />
<path d="M82700 74360
L82650 74770
L82680 74840
L82750 74880
L82860 74880
L82940 74840
L82980 74810
" />
<path d="M83300 74360
L83600 74360
" />
<path d="M83450 74090
L83360 74770
L83390 74840
L83460 74880
L83540 74880
" />
<path d="M83870 74360
L83770 75150
" />
<path d="M83860 74390
L83940 74360
L84090 74360
L84160 74390
L84200 74430
L84230 74510
L84200 74730
L84150 74810
L84110 74840
L84030 74880
L83880 74880
L83810 74840
" />
<path d="M84920 74360
L84860 74880
" />
<path d="M84580 74360
L84530 74770
L84560 74840
L84630 74880
L84740 74880
L84820 74840
L84860 74810
" />
<path d="M85180 74360
L85490 74360
" />
<path d="M85330 74090
L85250 74770
L85270 74840
L85340 74880
L85420 74880
" />
<path d="M86630 74840
L86550 74880
L86400 74880
L86330 74840
L86290 74810
L86270 74730
L86290 74510
L86340 74430
L86380 74390
L86460 74360
L86610 74360
L86680 74390
" />
<path d="M87070 74880
L87000 74840
L86970 74810
L86940 74730
L86970 74510
L87020 74430
L87060 74390
L87140 74360
L87250 74360
L87320 74390
L87360 74430
L87390 74510
L87360 74730
L87310 74810
L87270 74840
L87190 74880
L87070 74880
" />
<path d="M87740 74360
L87680 74880
" />
<path d="M87730 74430
L87780 74390
L87860 74360
L87970 74360
L88040 74390
L88070 74470
L88020 74880
" />
<path d="M88460 74360
L88390 74880
" />
<path d="M88450 74430
L88490 74390
L88570 74360
L88680 74360
L88750 74390
L88780 74470
L88730 74880
" />
<path d="M89450 74840
L89370 74880
L89220 74880
L89150 74840
L89120 74810
L89090 74730
L89120 74510
L89160 74430
L89200 74390
L89280 74360
L89440 74360
L89510 74390
" />
<path d="M89740 74360
L90040 74360
" />
<path d="M89880 74090
L89800 74770
L89830 74840
L89900 74880
L89970 74880
" />
<path d="M90350 74880
L90280 74840
L90240 74810
L90220 74730
L90240 74510
L90290 74430
L90330 74390
L90410 74360
L90530 74360
L90600 74390
L90630 74430
L90660 74510
L90630 74730
L90580 74810
L90540 74840
L90460 74880
L90350 74880
" />
<path d="M90950 74880
L91020 74360
" />
<path d="M91000 74510
L91040 74430
L91090 74390
L91170 74360
L91240 74360
" />
<path d="M91410 74840
L91480 74880
L91630 74880
L91710 74840
L91750 74770
L91760 74730
L91730 74660
L91660 74620
L91550 74620
L91480 74580
L91450 74510
L91450 74470
L91500 74390
L91580 74360
L91690 74360
L91760 74390
" />
</g>
<g style="fill:#840000; fill-opacity:0.0; 
stroke:#840000; stroke-width:100; stroke-opacity:1; 
stroke-linecap:round; stroke-linejoin:round;">
</g>
<g style="fill:#840000; fill-opacity:0.0; 
stroke:#840000; stroke-width:60; stroke-opacity:1; 
stroke-linecap:round; stroke-linejoin:round;">
<text x="70080" y="73400"
textLength="12150" font-size="780" lengthAdjust="spacingAndGlyphs"
text-anchor="start" opacity="0">File: OutputConnectors.sch</text>
<path d="M70440 73060
L70250 73060
" />
<path d="M70250 73370
L70250 72780
L70530 72780
" />
<path d="M70750 73370
L70750 72980
" />
<path d="M70750 72780
L70720 72810
L70750 72840
L70780 72810
L70750 72780
L70750 72840
" />
<path d="M71120 73370
L71060 73340
L71030 73290
L71030 72780
" />
<path d="M71570 73340
L71510 73370
L71400 73370
L71340 73340
L71310 73290
L71310 73060
L71340 73010
L71400 72980
L71510 72980
L71570 73010
L71590 73060
L71590 73120
L71310 73180
" />
<path d="M71850 73320
L71880 73340
L71850 73370
L71820 73340
L71850 73320
L71850 73370
" />
<path d="M71850 73010
L71880 73030
L71850 73060
L71820 73030
L71850 73010
L71850 73060
" />
<path d="M72690 72780
L72800 72780
L72860 72810
L72910 72870
L72940 72980
L72940 73180
L72910 73290
L72860 73340
L72800 73370
L72690 73370
L72630 73340
L72580 73290
L72550 73180
L72550 72980
L72580 72870
L72630 72810
L72690 72780
" />
<path d="M73450 72980
L73450 73370
" />
<path d="M73200 72980
L73200 73290
L73220 73340
L73280 73370
L73360 73370
L73420 73340
L73450 73320
" />
<path d="M73650 72980
L73870 72980
" />
<path d="M73730 72780
L73730 73290
L73760 73340
L73810 73370
L73870 73370
" />
<path d="M74070 72980
L74070 73570
" />
<path d="M74070 73010
L74120 72980
L74240 72980
L74290 73010
L74320 73030
L74350 73090
L74350 73260
L74320 73320
L74290 73340
L74240 73370
L74120 73370
L74070 73340
" />
<path d="M74850 72980
L74850 73370
" />
<path d="M74600 72980
L74600 73290
L74630 73340
L74680 73370
L74770 73370
L74830 73340
L74850 73320
" />
<path d="M75050 72980
L75270 72980
" />
<path d="M75130 72780
L75130 73290
L75160 73340
L75220 73370
L75270 73370
" />
<path d="M75810 73320
L75780 73340
L75700 73370
L75640 73370
L75560 73340
L75500 73290
L75470 73230
L75440 73120
L75440 73030
L75470 72920
L75500 72870
L75560 72810
L75640 72780
L75700 72780
L75780 72810
L75810 72840
" />
<path d="M76150 73370
L76090 73340
L76060 73320
L76030 73260
L76030 73090
L76060 73030
L76090 73010
L76150 72980
L76230 72980
L76290 73010
L76310 73030
L76340 73090
L76340 73260
L76310 73320
L76290 73340
L76230 73370
L76150 73370
" />
<path d="M76600 72980
L76600 73370
" />
<path d="M76600 73030
L76620 73010
L76680 72980
L76760 72980
L76820 73010
L76850 73060
L76850 73370
" />
<path d="M77130 72980
L77130 73370
" />
<path d="M77130 73030
L77160 73010
L77210 72980
L77300 72980
L77350 73010
L77380 73060
L77380 73370
" />
<path d="M77890 73340
L77830 73370
L77720 73370
L77660 73340
L77630 73290
L77630 73060
L77660 73010
L77720 72980
L77830 72980
L77890 73010
L77920 73060
L77920 73120
L77630 73180
" />
<path d="M78420 73340
L78370 73370
L78250 73370
L78200 73340
L78170 73320
L78140 73260
L78140 73090
L78170 73030
L78200 73010
L78250 72980
L78370 72980
L78420 73010
" />
<path d="M78590 72980
L78810 72980
" />
<path d="M78670 72780
L78670 73290
L78700 73340
L78760 73370
L78810 73370
" />
<path d="M79100 73370
L79040 73340
L79010 73320
L78980 73260
L78980 73090
L79010 73030
L79040 73010
L79100 72980
L79180 72980
L79240 73010
L79260 73030
L79290 73090
L79290 73260
L79260 73320
L79240 73340
L79180 73370
L79100 73370
" />
<path d="M79550 73370
L79550 72980
" />
<path d="M79550 73090
L79570 73030
L79600 73010
L79660 72980
L79710 72980
" />
<path d="M79880 73340
L79940 73370
L80050 73370
L80110 73340
L80140 73290
L80140 73260
L80110 73200
L80050 73180
L79970 73180
L79910 73150
L79880 73090
L79880 73060
L79910 73010
L79970 72980
L80050 72980
L80110 73010
" />
<path d="M80390 73320
L80420 73340
L80390 73370
L80360 73340
L80390 73320
L80390 73370
" />
<path d="M80640 73340
L80700 73370
L80810 73370
L80870 73340
L80890 73290
L80890 73260
L80870 73200
L80810 73180
L80730 73180
L80670 73150
L80640 73090
L80640 73060
L80670 73010
L80730 72980
L80810 72980
L80870 73010
" />
<path d="M81400 73340
L81340 73370
L81230 73370
L81170 73340
L81150 73320
L81120 73260
L81120 73090
L81150 73030
L81170 73010
L81230 72980
L81340 72980
L81400 73010
" />
<path d="M81650 73370
L81650 72780
" />
<path d="M81910 73370
L81910 73060
L81880 73010
L81820 72980
L81740 72980
L81680 73010
L81650 73030
" />
</g>
<g style="fill:#840000; fill-opacity:0.0; 
stroke:#840000; stroke-width:100; stroke-opacity:1; 
stroke-linecap:round; stroke-linejoin:round;">
</g>
<g style="fill:#840000; fill-opacity:0.0; 
stroke:#840000; stroke-width:60; stroke-opacity:1; 
stroke-linecap:round; stroke-linejoin:round;">
<path d="M69690 71460
L112210 71460
" />
</g>
<g style="fill:#840000; fill-opacity:0.0; 
stroke:#840000; stroke-width:100; stroke-opacity:1; 
stroke-linecap:round; stroke-linejoin:round;">
</g>
<g style="fill:#840000; fill-opacity:0.0; 
stroke:#840000; stroke-width:60; stroke-opacity:1; 
stroke-linecap:round; stroke-linejoin:round;">
<text x="70080" y="72340"
textLength="12280" font-size="780" lengthAdjust="spacingAndGlyphs"
text-anchor="start" opacity="0">Sheet: /OutputConnectors/</text>
<path d="M70220 72280
L70300 72310
L70440 72310
L70500 72280
L70530 72260
L70550 72200
L70550 72140
L70530 72090
L70500 72060
L70440 72030
L70330 72000
L70270 71970
L70250 71950
L70220 71890
L70220 71830
L70250 71780
L70270 71750
L70330 71720
L70470 71720
L70550 71750
" />
<path d="M70810 72310
L70810 71720
" />
<path d="M71060 72310
L71060 72000
L71030 71950
L70980 71920
L70890 71920
L70840 71950
L70810 71970
" />
<path d="M71570 72280
L71510 72310
L71400 72310
L71340 72280
L71310 72230
L71310 72000
L71340 71950
L71400 71920
L71510 71920
L71570 71950
L71590 72000
L71590 72060
L71310 72120
" />
<path d="M72070 72280
L72020 72310
L71900 72310
L71850 72280
L71820 72230
L71820 72000
L71850 71950
L71900 71920
L72020 71920
L72070 71950
L72100 72000
L72100 72060
L71820 72120
" />
<path d="M72270 71920
L72490 71920
" />
<path d="M72350 71720
L72350 72230
L72380 72280
L72440 72310
L72490 72310
" />
<path d="M72690 72260
L72720 72280
L72690 72310
L72660 72280
L72690 72260
L72690 72310
" />
<path d="M72690 71950
L72720 71970
L72690 72000
L72660 71970
L72690 71950
L72690 72000
" />
<path d="M73840 71690
L73340 72450
" />
<path d="M74150 71720
L74260 71720
L74320 71750
L74380 71810
L74400 71920
L74400 72120
L74380 72230
L74320 72280
L74260 72310
L74150 72310
L74090 72280
L74040 72230
L74010 72120
L74010 71920
L74040 71810
L74090 71750
L74150 71720
" />
<path d="M74910 71920
L74910 72310
" />
<path d="M74660 71920
L74660 72230
L74680 72280
L74740 72310
L74830 72310
L74880 72280
L74910 72260
" />
<path d="M75110 71920
L75330 71920
" />
<path d="M75190 71720
L75190 72230
L75220 72280
L75270 72310
L75330 72310
" />
<path d="M75530 71920
L75530 72510
" />
<path d="M75530 71950
L75580 71920
L75700 71920
L75750 71950
L75780 71970
L75810 72030
L75810 72200
L75780 72260
L75750 72280
L75700 72310
L75580 72310
L75530 72280
" />
<path d="M76310 71920
L76310 72310
" />
<path d="M76060 71920
L76060 72230
L76090 72280
L76150 72310
L76230 72310
L76290 72280
L76310 72260
" />
<path d="M76510 71920
L76740 71920
" />
<path d="M76600 71720
L76600 72230
L76620 72280
L76680 72310
L76740 72310
" />
<path d="M77270 72260
L77240 72280
L77160 72310
L77100 72310
L77020 72280
L76960 72230
L76930 72170
L76900 72060
L76900 71970
L76930 71860
L76960 71810
L77020 71750
L77100 71720
L77160 71720
L77240 71750
L77270 71780
" />
<path d="M77610 72310
L77550 72280
L77520 72260
L77490 72200
L77490 72030
L77520 71970
L77550 71950
L77610 71920
L77690 71920
L77750 71950
L77780 71970
L77800 72030
L77800 72200
L77780 72260
L77750 72280
L77690 72310
L77610 72310
" />
<path d="M78060 71920
L78060 72310
" />
<path d="M78060 71970
L78080 71950
L78140 71920
L78220 71920
L78280 71950
L78310 72000
L78310 72310
" />
<path d="M78590 71920
L78590 72310
" />
<path d="M78590 71970
L78620 71950
L78670 71920
L78760 71920
L78810 71950
L78840 72000
L78840 72310
" />
<path d="M79350 72280
L79290 72310
L79180 72310
L79120 72280
L79100 72230
L79100 72000
L79120 71950
L79180 71920
L79290 71920
L79350 71950
L79380 72000
L79380 72060
L79100 72120
" />
<path d="M79880 72280
L79830 72310
L79710 72310
L79660 72280
L79630 72260
L79600 72200
L79600 72030
L79630 71970
L79660 71950
L79710 71920
L79830 71920
L79880 71950
" />
<path d="M80050 71920
L80280 71920
" />
<path d="M80140 71720
L80140 72230
L80160 72280
L80220 72310
L80280 72310
" />
<path d="M80560 72310
L80500 72280
L80470 72260
L80440 72200
L80440 72030
L80470 71970
L80500 71950
L80560 71920
L80640 71920
L80700 71950
L80730 71970
L80750 72030
L80750 72200
L80730 72260
L80700 72280
L80640 72310
L80560 72310
" />
<path d="M81010 72310
L81010 71920
" />
<path d="M81010 72030
L81030 71970
L81060 71950
L81120 71920
L81170 71920
" />
<path d="M81340 72280
L81400 72310
L81510 72310
L81570 72280
L81600 72230
L81600 72200
L81570 72140
L81510 72120
L81430 72120
L81370 72090
L81340 72030
L81340 72000
L81370 71950
L81430 71920
L81510 71920
L81570 71950
" />
<path d="M82270 71690
L81760 72450
" />
</g>
<g style="fill:#840000; fill-opacity:0.0; 
stroke:#840000; stroke-width:100; stroke-opacity:1; 
stroke-linecap:round; stroke-linejoin:round;">
</g>
<g style="fill:#840000; fill-opacity:0.0; 
stroke:#840000; stroke-width:60; stroke-opacity:1; 
stroke-linecap:round; stroke-linejoin:round;">
<path d="M77560 75400
L77560 76580
" />
</g>
<g style="fill:#840000; fill-opacity:0.0; 
stroke:#840000; stroke-width:100; stroke-opacity:1; 
stroke-linecap:round; stroke-linejoin:round;">
</g>
<g style="fill:#840000; fill-opacity:0.0; 
stroke:#840000; stroke-width:60; stroke-opacity:1; 
stroke-linecap:round; stroke-linejoin:round;">
<path d="M102760 75400
L102760 77960
" />
</g>
<g style="fill:#840000; fill-opacity:0.0; 
stroke:#840000; stroke-width:0; stroke-opacity:1; 
stroke-linecap:round; stroke-linejoin:round;">
<g >
</g>
<g style="fill:#840000; fill-opacity:0.0; 
stroke:#840000; stroke-width:60; stroke-opacity:1; 
stroke-linecap:round; stroke-linejoin:round;">
<path style="fill:#840000; fill-opacity:0.0; 
stroke:#840000; stroke-width:60; stroke-opacity:1; 
stroke-linecap:round; stroke-linejoin:round;fill:none"
d="M 42000,40500
42000,41000
42500,41000
42000,41500
41500,41000
42000,41000
" /> 
</g>
<g style="fill:#008484; fill-opacity:0.0; 
stroke:#008484; stroke-width:60; stroke-opacity:1; 
stroke-linecap:round; stroke-linejoin:round;">
<text x="42050" y="42500"
textLength="2060" font-size="660" lengthAdjust="spacingAndGlyphs"
text-anchor="middle" opacity="0">GNDS</text>
<path d="M41430 42000
L41380 41970
L41310 41970
L41240 42000
L41190 42040
L41160 42090
L41140 42190
L41140 42260
L41160 42350
L41190 42400
L41240 42450
L41310 42470
L41350 42470
L41430 42450
L41450 42420
L41450 42260
L41350 42260
" />
<path d="M41660 42470
L41660 41970
L41950 42470
L41950 41970
" />
<path d="M42190 42470
L42190 41970
L42310 41970
L42380 42000
L42430 42040
L42450 42090
L42470 42190
L42470 42260
L42450 42350
L42430 42400
L42380 42450
L42310 42470
L42190 42470
" />
<path d="M42660 42450
L42740 42470
L42850 42470
L42900 42450
L42930 42420
L42950 42380
L42950 42330
L42930 42280
L42900 42260
L42850 42230
L42760 42210
L42710 42190
L42690 42160
L42660 42110
L42660 42070
L42690 42020
L42710 42000
L42760 41970
L42880 41970
L42950 42000
" />
</g>
</g>
<g style="fill:#008484; fill-opacity:0.0; 
stroke:#008484; stroke-width:0; stroke-opacity:1; 
stroke-linecap:round; stroke-linejoin:round;">
<g >
</g>
<g style="fill:#840000; fill-opacity:0.0; 
stroke:#840000; stroke-width:0; stroke-opacity:1; 
stroke-linecap:round; stroke-linejoin:round;">
</g>
<g style="fill:#FFFFC2; fill-opacity:0.0; 
stroke:#FFFFC2; stroke-width:0; stroke-opacity:1; 
stroke-linecap:round; stroke-linejoin:round;">
</g>
<g style="fill:#FFFFC2; fill-opacity:0.6; 
stroke:#FFFFC2; stroke-width:0; stroke-opacity:1; 
stroke-linecap:round; stroke-linejoin:round;">
<rect x="47500" y="29500" width="1000" height="1000" rx="0" />
</g>
<g style="fill:#840000; fill-opacity:0.6; 
stroke:#840000; stroke-width:0; stroke-opacity:1; 
stroke-linecap:round; stroke-linejoin:round;">
</g>
<g style="fill:#840000; fill-opacity:0.0; 
stroke:#840000; stroke-width:100; stroke-opacity:1; 
stroke-linecap:round; stroke-linejoin:round;">
<rect x="47500" y="29500" width="1000" height="1000" rx="0" />
</g>
<g style="fill:#840000; fill-opacity:0.0; 
stroke:#840000; stroke-width:60; stroke-opacity:1; 
stroke-linecap:round; stroke-linejoin:round;">
<rect x="47500" y="29950" width="500" height="100" rx="0" />
</g>
<g style="fill:#840000; fill-opacity:0.0; 
stroke:#840000; stroke-width:100; stroke-opacity:1; 
stroke-linecap:round; stroke-linejoin:round;">
<rect x="47500" y="29500" width="1000" height="1000" rx="0" />
</g>
<g style="fill:#840000; fill-opacity:0.0; 
stroke:#840000; stroke-width:60; stroke-opacity:1; 
stroke-linecap:round; stroke-linejoin:round;">
<path d="M47500 30000
L46000 30000
" />
<text x="46750" y="29900"
textLength="540" font-size="660" lengthAdjust="spacingAndGlyphs"
text-anchor="middle" opacity="0">1</text>
<path d="M46890 29870
L46600 29870
" />
<path d="M46750 29870
L46750 29370
L46700 29440
L46650 29490
L46600 29510
" />
</g>
<g style="fill:#008484; fill-opacity:0.0; 
stroke:#008484; stroke-width:60; stroke-opacity:1; 
stroke-linecap:round; stroke-linejoin:round;">
<text x="49260" y="29850"
textLength="920" font-size="660" lengthAdjust="spacingAndGlyphs"
text-anchor="middle" opacity="0">J3</text>
<path d="M49090 29320
L49090 29680
L49060 29750
L49020 29800
L48950 29820
L48900 29820
" />
<path d="M49280 29320
L49590 29320
L49420 29510
L49490 29510
L49540 29540
L49560 29560
L49590 29610
L49590 29730
L49560 29770
L49540 29800
L49490 29820
L49350 29820
L49300 29800
L49280 29770
" />
<text x="51100" y="30760"
textLength="4610" font-size="660" lengthAdjust="spacingAndGlyphs"
text-anchor="middle" opacity="0">Conn_01x01</text>
<path d="M49230 30680
L49200 30710
L49130 30730
L49080 30730
L49010 30710
L48960 30660
L48940 30610
L48920 30520
L48920 30450
L48940 30350
L48960 30300
L49010 30260
L49080 30230
L49130 30230
L49200 30260
L49230 30280
" />
<path d="M49510 30730
L49460 30710
L49440 30680
L49420 30640
L49420 30490
L49440 30450
L49460 30420
L49510 30400
L49580 30400
L49630 30420
L49650 30450
L49680 30490
L49680 30640
L49650 30680
L49630 30710
L49580 30730
L49510 30730
" />
<path d="M49890 30400
L49890 30730
" />
<path d="M49890 30450
L49920 30420
L49960 30400
L50040 30400
L50080 30420
L50110 30470
L50110 30730
" />
<path d="M50350 30400
L50350 30730
" />
<path d="M50350 30450
L50370 30420
L50420 30400
L50490 30400
L50540 30420
L50560 30470
L50560 30730
" />
<path d="M50680 30780
L51060 30780
" />
<path d="M51270 30230
L51320 30230
L51370 30260
L51390 30280
L51420 30330
L51440 30420
L51440 30540
L51420 30640
L51390 30680
L51370 30710
L51320 30730
L51270 30730
L51230 30710
L51200 30680
L51180 30640
L51150 30540
L51150 30420
L51180 30330
L51200 30280
L51230 30260
L51270 30230
" />
<path d="M51920 30730
L51630 30730
" />
<path d="M51770 30730
L51770 30230
L51730 30300
L51680 30350
L51630 30370
" />
<path d="M52080 30730
L52350 30400
" />
<path d="M52080 30400
L52350 30730
" />
<path d="M52630 30230
L52680 30230
L52730 30260
L52750 30280
L52770 30330
L52800 30420
L52800 30540
L52770 30640
L52750 30680
L52730 30710
L52680 30730
L52630 30730
L52580 30710
L52560 30680
L52540 30640
L52510 30540
L52510 30420
L52540 30330
L52560 30280
L52580 30260
L52630 30230
" />
<path d="M53270 30730
L52990 30730
" />
<path d="M53130 30730
L53130 30230
L53080 30300
L53040 30350
L52990 30370
" />
</g>
</g>
<g style="fill:#008484; fill-opacity:0.0; 
stroke:#008484; stroke-width:0; stroke-opacity:1; 
stroke-linecap:round; stroke-linejoin:round;">
<g >
</g>
<g style="fill:#840000; fill-opacity:0.0; 
stroke:#840000; stroke-width:0; stroke-opacity:1; 
stroke-linecap:round; stroke-linejoin:round;">
</g>
<g style="fill:#FFFFC2; fill-opacity:0.0; 
stroke:#FFFFC2; stroke-width:0; stroke-opacity:1; 
stroke-linecap:round; stroke-linejoin:round;">
</g>
<g style="fill:#FFFFC2; fill-opacity:0.6; 
stroke:#FFFFC2; stroke-width:0; stroke-opacity:1; 
stroke-linecap:round; stroke-linejoin:round;">
<rect x="47500" y="38000" width="1000" height="1000" rx="0" />
</g>
<g style="fill:#840000; fill-opacity:0.6; 
stroke:#840000; stroke-width:0; stroke-opacity:1; 
stroke-linecap:round; stroke-linejoin:round;">
</g>
<g style="fill:#840000; fill-opacity:0.0; 
stroke:#840000; stroke-width:100; stroke-opacity:1; 
stroke-linecap:round; stroke-linejoin:round;">
<rect x="47500" y="38000" width="1000" height="1000" rx="0" />
</g>
<g style="fill:#840000; fill-opacity:0.0; 
stroke:#840000; stroke-width:60; stroke-opacity:1; 
stroke-linecap:round; stroke-linejoin:round;">
<rect x="47500" y="38450" width="500" height="100" rx="0" />
</g>
<g style="fill:#840000; fill-opacity:0.0; 
stroke:#840000; stroke-width:100; stroke-opacity:1; 
stroke-linecap:round; stroke-linejoin:round;">
<rect x="47500" y="38000" width="1000" height="1000" rx="0" />
</g>
<g style="fill:#840000; fill-opacity:0.0; 
stroke:#840000; stroke-width:60; stroke-opacity:1; 
stroke-linecap:round; stroke-linejoin:round;">
<path d="M47500 38500
L46000 38500
" />
<text x="46750" y="38400"
textLength="540" font-size="660" lengthAdjust="spacingAndGlyphs"
text-anchor="middle" opacity="0">1</text>
<path d="M46890 38370
L46600 38370
" />
<path d="M46750 38370
L46750 37870
L46700 37940
L46650 37990
L46600 38010
" />
</g>
<g style="fill:#008484; fill-opacity:0.0; 
stroke:#008484; stroke-width:60; stroke-opacity:1; 
stroke-linecap:round; stroke-linejoin:round;">
<text x="49260" y="38350"
textLength="920" font-size="660" lengthAdjust="spacingAndGlyphs"
text-anchor="middle" opacity="0">J4</text>
<path d="M49090 37820
L49090 38180
L49060 38250
L49020 38300
L48950 38320
L48900 38320
" />
<path d="M49540 37990
L49540 38320
" />
<path d="M49420 37800
L49300 38150
L49610 38150
" />
<text x="51100" y="39260"
textLength="4610" font-size="660" lengthAdjust="spacingAndGlyphs"
text-anchor="middle" opacity="0">Conn_01x01</text>
<path d="M49230 39180
L49200 39210
L49130 39230
L49080 39230
L49010 39210
L48960 39160
L48940 39110
L48920 39020
L48920 38950
L48940 38850
L48960 38800
L49010 38760
L49080 38730
L49130 38730
L49200 38760
L49230 38780
" />
<path d="M49510 39230
L49460 39210
L49440 39180
L49420 39140
L49420 38990
L49440 38950
L49460 38920
L49510 38900
L49580 38900
L49630 38920
L49650 38950
L49680 38990
L49680 39140
L49650 39180
L49630 39210
L49580 39230
L49510 39230
" />
<path d="M49890 38900
L49890 39230
" />
<path d="M49890 38950
L49920 38920
L49960 38900
L50040 38900
L50080 38920
L50110 38970
L50110 39230
" />
<path d="M50350 38900
L50350 39230
" />
<path d="M50350 38950
L50370 38920
L50420 38900
L50490 38900
L50540 38920
L50560 38970
L50560 39230
" />
<path d="M50680 39280
L51060 39280
" />
<path d="M51270 38730
L51320 38730
L51370 38760
L51390 38780
L51420 38830
L51440 38920
L51440 39040
L51420 39140
L51390 39180
L51370 39210
L51320 39230
L51270 39230
L51230 39210
L51200 39180
L51180 39140
L51150 39040
L51150 38920
L51180 38830
L51200 38780
L51230 38760
L51270 38730
" />
<path d="M51920 39230
L51630 39230
" />
<path d="M51770 39230
L51770 38730
L51730 38800
L51680 38850
L51630 38870
" />
<path d="M52080 39230
L52350 38900
" />
<path d="M52080 38900
L52350 39230
" />
<path d="M52630 38730
L52680 38730
L52730 38760
L52750 38780
L52770 38830
L52800 38920
L52800 39040
L52770 39140
L52750 39180
L52730 39210
L52680 39230
L52630 39230
L52580 39210
L52560 39180
L52540 39140
L52510 39040
L52510 38920
L52540 38830
L52560 38780
L52580 38760
L52630 38730
" />
<path d="M53270 39230
L52990 39230
" />
<path d="M53130 39230
L53130 38730
L53080 38800
L53040 38850
L52990 38870
" />
</g>
</g>
<g style="fill:#008484; fill-opacity:0.0; 
stroke:#008484; stroke-width:60; stroke-opacity:1; 
stroke-linecap:round; stroke-linejoin:round;">
</g>
<g style="fill:#008400; fill-opacity:0.0; 
stroke:#008400; stroke-width:60; stroke-opacity:1; 
stroke-linecap:round; stroke-linejoin:round;">
<path d="M46000 30000
L43000 30000
" />
<path d="M42000 38500
L42000 40500
" />
<path d="M42000 38500
L46000 38500
" />
</g>
<g style="fill:#848400; fill-opacity:0.0; 
stroke:#848400; stroke-width:60; stroke-opacity:1; 
stroke-linecap:round; stroke-linejoin:round;">
<text x="42400" y="30250"
textLength="3870" font-size="660" lengthAdjust="spacingAndGlyphs"
text-anchor="end" opacity="0">PSU_VBUS</text>
<path d="M38670 30220
L38670 29720
L38870 29720
L38910 29750
L38940 29770
L38960 29820
L38960 29890
L38940 29940
L38910 29960
L38870 29980
L38670 29980
" />
<path d="M39150 30200
L39220 30220
L39340 30220
L39390 30200
L39410 30170
L39440 30130
L39440 30080
L39410 30030
L39390 30010
L39340 29980
L39250 29960
L39200 29940
L39170 29910
L39150 29860
L39150 29820
L39170 29770
L39200 29750
L39250 29720
L39370 29720
L39440 29750
" />
<path d="M39650 29720
L39650 30130
L39670 30170
L39700 30200
L39750 30220
L39840 30220
L39890 30200
L39910 30170
L39940 30130
L39940 29720
" />
<path d="M40060 30270
L40440 30270
" />
<path d="M40480 29720
L40650 30220
L40820 29720
" />
<path d="M41150 29960
L41220 29980
L41250 30010
L41270 30050
L41270 30130
L41250 30170
L41220 30200
L41170 30220
L40980 30220
L40980 29720
L41150 29720
L41200 29750
L41220 29770
L41250 29820
L41250 29860
L41220 29910
L41200 29940
L41150 29960
L40980 29960
" />
<path d="M41480 29720
L41480 30130
L41510 30170
L41530 30200
L41580 30220
L41670 30220
L41720 30200
L41750 30170
L41770 30130
L41770 29720
" />
<path d="M41980 30200
L42060 30220
L42170 30220
L42220 30200
L42250 30170
L42270 30130
L42270 30080
L42250 30030
L42220 30010
L42170 29980
L42080 29960
L42030 29940
L42010 29910
L41980 29860
L41980 29820
L42010 29770
L42030 29750
L42080 29720
L42200 29720
L42270 29750
" />
</g>
<g style="fill:#848400; fill-opacity:0.0; 
stroke:#848400; stroke-width:100; stroke-opacity:1; 
stroke-linecap:round; stroke-linejoin:round;">
<path style="fill:#848400; fill-opacity:0.0; 
stroke:#848400; stroke-width:100; stroke-opacity:1; 
stroke-linecap:round; stroke-linejoin:round;fill:none"
d="M 43000,30000
42750,29750
42500,29750
42500,30250
42750,30250
Z" /> 
</g> 
</svg>
