G04 #@! TF.GenerationSoftware,KiCad,Pcbnew,5.1.6-c6e7f7d~87~ubuntu18.04.1*
G04 #@! TF.CreationDate,2020-08-09T22:57:09+01:00*
G04 #@! TF.ProjectId,ServerPSU_Breakout,53657276-6572-4505-9355-5f427265616b,B*
G04 #@! TF.SameCoordinates,Original*
G04 #@! TF.FileFunction,Soldermask,Bot*
G04 #@! TF.FilePolarity,Negative*
%FSLAX46Y46*%
G04 Gerber Fmt 4.6, Leading zero omitted, Abs format (unit mm)*
G04 Created by KiCad (PCBNEW 5.1.6-c6e7f7d~87~ubuntu18.04.1) date 2020-08-09 22:57:09*
%MOMM*%
%LPD*%
G01*
G04 APERTURE LIST*
%ADD10O,2.100000X2.100000*%
%ADD11R,2.100000X2.100000*%
%ADD12C,4.600000*%
%ADD13C,1.300000*%
%ADD14C,13.200000*%
%ADD15R,1.400000X1.400000*%
%ADD16R,1.300000X1.200000*%
%ADD17C,1.924000*%
%ADD18C,0.254000*%
G04 APERTURE END LIST*
D10*
X105473500Y-117602000D03*
X108013500Y-117602000D03*
D11*
X110553500Y-117602000D03*
D10*
X133223000Y-69723000D03*
X135763000Y-69723000D03*
X138303000Y-69723000D03*
X140843000Y-69723000D03*
D11*
X143383000Y-69723000D03*
D12*
X198310500Y-64173100D03*
D10*
X203288900Y-84899500D03*
X203288900Y-102679500D03*
X203288900Y-82359500D03*
X203288900Y-74739500D03*
D12*
X121983500Y-108140500D03*
D10*
X203288900Y-97599500D03*
D12*
X198234300Y-108140500D03*
D10*
X203288900Y-92519500D03*
X203288900Y-87439500D03*
D11*
X203288900Y-69659500D03*
D10*
X203288900Y-100139500D03*
D12*
X121983500Y-64198500D03*
D10*
X203288900Y-72199500D03*
X203288900Y-79819500D03*
X203288900Y-89979500D03*
X203288900Y-95059500D03*
X203288900Y-77279500D03*
G36*
G01*
X127250000Y-93632500D02*
X126750000Y-93632500D01*
G75*
G02*
X126500000Y-93382500I0J250000D01*
G01*
X126500000Y-91532500D01*
G75*
G02*
X126750000Y-91282500I250000J0D01*
G01*
X127250000Y-91282500D01*
G75*
G02*
X127500000Y-91532500I0J-250000D01*
G01*
X127500000Y-93382500D01*
G75*
G02*
X127250000Y-93632500I-250000J0D01*
G01*
G37*
G36*
G01*
X125980000Y-93632500D02*
X125480000Y-93632500D01*
G75*
G02*
X125230000Y-93382500I0J250000D01*
G01*
X125230000Y-91532500D01*
G75*
G02*
X125480000Y-91282500I250000J0D01*
G01*
X125980000Y-91282500D01*
G75*
G02*
X126230000Y-91532500I0J-250000D01*
G01*
X126230000Y-93382500D01*
G75*
G02*
X125980000Y-93632500I-250000J0D01*
G01*
G37*
G36*
G01*
X124710000Y-93632500D02*
X124210000Y-93632500D01*
G75*
G02*
X123960000Y-93382500I0J250000D01*
G01*
X123960000Y-91532500D01*
G75*
G02*
X124210000Y-91282500I250000J0D01*
G01*
X124710000Y-91282500D01*
G75*
G02*
X124960000Y-91532500I0J-250000D01*
G01*
X124960000Y-93382500D01*
G75*
G02*
X124710000Y-93632500I-250000J0D01*
G01*
G37*
G36*
G01*
X123440000Y-93632500D02*
X122940000Y-93632500D01*
G75*
G02*
X122690000Y-93382500I0J250000D01*
G01*
X122690000Y-91532500D01*
G75*
G02*
X122940000Y-91282500I250000J0D01*
G01*
X123440000Y-91282500D01*
G75*
G02*
X123690000Y-91532500I0J-250000D01*
G01*
X123690000Y-93382500D01*
G75*
G02*
X123440000Y-93632500I-250000J0D01*
G01*
G37*
G36*
G01*
X122170000Y-93632500D02*
X121670000Y-93632500D01*
G75*
G02*
X121420000Y-93382500I0J250000D01*
G01*
X121420000Y-91532500D01*
G75*
G02*
X121670000Y-91282500I250000J0D01*
G01*
X122170000Y-91282500D01*
G75*
G02*
X122420000Y-91532500I0J-250000D01*
G01*
X122420000Y-93382500D01*
G75*
G02*
X122170000Y-93632500I-250000J0D01*
G01*
G37*
G36*
G01*
X120900000Y-93632500D02*
X120400000Y-93632500D01*
G75*
G02*
X120150000Y-93382500I0J250000D01*
G01*
X120150000Y-91532500D01*
G75*
G02*
X120400000Y-91282500I250000J0D01*
G01*
X120900000Y-91282500D01*
G75*
G02*
X121150000Y-91532500I0J-250000D01*
G01*
X121150000Y-93382500D01*
G75*
G02*
X120900000Y-93632500I-250000J0D01*
G01*
G37*
G36*
G01*
X119630000Y-93632500D02*
X119130000Y-93632500D01*
G75*
G02*
X118880000Y-93382500I0J250000D01*
G01*
X118880000Y-91532500D01*
G75*
G02*
X119130000Y-91282500I250000J0D01*
G01*
X119630000Y-91282500D01*
G75*
G02*
X119880000Y-91532500I0J-250000D01*
G01*
X119880000Y-93382500D01*
G75*
G02*
X119630000Y-93632500I-250000J0D01*
G01*
G37*
G36*
G01*
X119630000Y-98582500D02*
X119130000Y-98582500D01*
G75*
G02*
X118880000Y-98332500I0J250000D01*
G01*
X118880000Y-96482500D01*
G75*
G02*
X119130000Y-96232500I250000J0D01*
G01*
X119630000Y-96232500D01*
G75*
G02*
X119880000Y-96482500I0J-250000D01*
G01*
X119880000Y-98332500D01*
G75*
G02*
X119630000Y-98582500I-250000J0D01*
G01*
G37*
G36*
G01*
X120900000Y-98582500D02*
X120400000Y-98582500D01*
G75*
G02*
X120150000Y-98332500I0J250000D01*
G01*
X120150000Y-96482500D01*
G75*
G02*
X120400000Y-96232500I250000J0D01*
G01*
X120900000Y-96232500D01*
G75*
G02*
X121150000Y-96482500I0J-250000D01*
G01*
X121150000Y-98332500D01*
G75*
G02*
X120900000Y-98582500I-250000J0D01*
G01*
G37*
G36*
G01*
X122170000Y-98582500D02*
X121670000Y-98582500D01*
G75*
G02*
X121420000Y-98332500I0J250000D01*
G01*
X121420000Y-96482500D01*
G75*
G02*
X121670000Y-96232500I250000J0D01*
G01*
X122170000Y-96232500D01*
G75*
G02*
X122420000Y-96482500I0J-250000D01*
G01*
X122420000Y-98332500D01*
G75*
G02*
X122170000Y-98582500I-250000J0D01*
G01*
G37*
G36*
G01*
X123440000Y-98582500D02*
X122940000Y-98582500D01*
G75*
G02*
X122690000Y-98332500I0J250000D01*
G01*
X122690000Y-96482500D01*
G75*
G02*
X122940000Y-96232500I250000J0D01*
G01*
X123440000Y-96232500D01*
G75*
G02*
X123690000Y-96482500I0J-250000D01*
G01*
X123690000Y-98332500D01*
G75*
G02*
X123440000Y-98582500I-250000J0D01*
G01*
G37*
G36*
G01*
X124710000Y-98582500D02*
X124210000Y-98582500D01*
G75*
G02*
X123960000Y-98332500I0J250000D01*
G01*
X123960000Y-96482500D01*
G75*
G02*
X124210000Y-96232500I250000J0D01*
G01*
X124710000Y-96232500D01*
G75*
G02*
X124960000Y-96482500I0J-250000D01*
G01*
X124960000Y-98332500D01*
G75*
G02*
X124710000Y-98582500I-250000J0D01*
G01*
G37*
G36*
G01*
X125980000Y-98582500D02*
X125480000Y-98582500D01*
G75*
G02*
X125230000Y-98332500I0J250000D01*
G01*
X125230000Y-96482500D01*
G75*
G02*
X125480000Y-96232500I250000J0D01*
G01*
X125980000Y-96232500D01*
G75*
G02*
X126230000Y-96482500I0J-250000D01*
G01*
X126230000Y-98332500D01*
G75*
G02*
X125980000Y-98582500I-250000J0D01*
G01*
G37*
G36*
G01*
X127250000Y-98582500D02*
X126750000Y-98582500D01*
G75*
G02*
X126500000Y-98332500I0J250000D01*
G01*
X126500000Y-96482500D01*
G75*
G02*
X126750000Y-96232500I250000J0D01*
G01*
X127250000Y-96232500D01*
G75*
G02*
X127500000Y-96482500I0J-250000D01*
G01*
X127500000Y-98332500D01*
G75*
G02*
X127250000Y-98582500I-250000J0D01*
G01*
G37*
G36*
G01*
X127563044Y-88523000D02*
X126436956Y-88523000D01*
G75*
G02*
X126100000Y-88186044I0J336956D01*
G01*
X126100000Y-87309956D01*
G75*
G02*
X126436956Y-86973000I336956J0D01*
G01*
X127563044Y-86973000D01*
G75*
G02*
X127900000Y-87309956I0J-336956D01*
G01*
X127900000Y-88186044D01*
G75*
G02*
X127563044Y-88523000I-336956J0D01*
G01*
G37*
G36*
G01*
X127563044Y-90573000D02*
X126436956Y-90573000D01*
G75*
G02*
X126100000Y-90236044I0J336956D01*
G01*
X126100000Y-89359956D01*
G75*
G02*
X126436956Y-89023000I336956J0D01*
G01*
X127563044Y-89023000D01*
G75*
G02*
X127900000Y-89359956I0J-336956D01*
G01*
X127900000Y-90236044D01*
G75*
G02*
X127563044Y-90573000I-336956J0D01*
G01*
G37*
G36*
G01*
X123194000Y-71128456D02*
X123194000Y-72254544D01*
G75*
G02*
X122857044Y-72591500I-336956J0D01*
G01*
X121980956Y-72591500D01*
G75*
G02*
X121644000Y-72254544I0J336956D01*
G01*
X121644000Y-71128456D01*
G75*
G02*
X121980956Y-70791500I336956J0D01*
G01*
X122857044Y-70791500D01*
G75*
G02*
X123194000Y-71128456I0J-336956D01*
G01*
G37*
G36*
G01*
X125244000Y-71128456D02*
X125244000Y-72254544D01*
G75*
G02*
X124907044Y-72591500I-336956J0D01*
G01*
X124030956Y-72591500D01*
G75*
G02*
X123694000Y-72254544I0J336956D01*
G01*
X123694000Y-71128456D01*
G75*
G02*
X124030956Y-70791500I336956J0D01*
G01*
X124907044Y-70791500D01*
G75*
G02*
X125244000Y-71128456I0J-336956D01*
G01*
G37*
G36*
G01*
X123668000Y-73727500D02*
X123668000Y-74227500D01*
G75*
G02*
X123418000Y-74477500I-250000J0D01*
G01*
X121568000Y-74477500D01*
G75*
G02*
X121318000Y-74227500I0J250000D01*
G01*
X121318000Y-73727500D01*
G75*
G02*
X121568000Y-73477500I250000J0D01*
G01*
X123418000Y-73477500D01*
G75*
G02*
X123668000Y-73727500I0J-250000D01*
G01*
G37*
G36*
G01*
X123668000Y-74997500D02*
X123668000Y-75497500D01*
G75*
G02*
X123418000Y-75747500I-250000J0D01*
G01*
X121568000Y-75747500D01*
G75*
G02*
X121318000Y-75497500I0J250000D01*
G01*
X121318000Y-74997500D01*
G75*
G02*
X121568000Y-74747500I250000J0D01*
G01*
X123418000Y-74747500D01*
G75*
G02*
X123668000Y-74997500I0J-250000D01*
G01*
G37*
G36*
G01*
X123668000Y-76267500D02*
X123668000Y-76767500D01*
G75*
G02*
X123418000Y-77017500I-250000J0D01*
G01*
X121568000Y-77017500D01*
G75*
G02*
X121318000Y-76767500I0J250000D01*
G01*
X121318000Y-76267500D01*
G75*
G02*
X121568000Y-76017500I250000J0D01*
G01*
X123418000Y-76017500D01*
G75*
G02*
X123668000Y-76267500I0J-250000D01*
G01*
G37*
G36*
G01*
X123668000Y-77537500D02*
X123668000Y-78037500D01*
G75*
G02*
X123418000Y-78287500I-250000J0D01*
G01*
X121568000Y-78287500D01*
G75*
G02*
X121318000Y-78037500I0J250000D01*
G01*
X121318000Y-77537500D01*
G75*
G02*
X121568000Y-77287500I250000J0D01*
G01*
X123418000Y-77287500D01*
G75*
G02*
X123668000Y-77537500I0J-250000D01*
G01*
G37*
G36*
G01*
X123668000Y-78807500D02*
X123668000Y-79307500D01*
G75*
G02*
X123418000Y-79557500I-250000J0D01*
G01*
X121568000Y-79557500D01*
G75*
G02*
X121318000Y-79307500I0J250000D01*
G01*
X121318000Y-78807500D01*
G75*
G02*
X121568000Y-78557500I250000J0D01*
G01*
X123418000Y-78557500D01*
G75*
G02*
X123668000Y-78807500I0J-250000D01*
G01*
G37*
G36*
G01*
X123668000Y-80077500D02*
X123668000Y-80577500D01*
G75*
G02*
X123418000Y-80827500I-250000J0D01*
G01*
X121568000Y-80827500D01*
G75*
G02*
X121318000Y-80577500I0J250000D01*
G01*
X121318000Y-80077500D01*
G75*
G02*
X121568000Y-79827500I250000J0D01*
G01*
X123418000Y-79827500D01*
G75*
G02*
X123668000Y-80077500I0J-250000D01*
G01*
G37*
G36*
G01*
X123668000Y-81347500D02*
X123668000Y-81847500D01*
G75*
G02*
X123418000Y-82097500I-250000J0D01*
G01*
X121568000Y-82097500D01*
G75*
G02*
X121318000Y-81847500I0J250000D01*
G01*
X121318000Y-81347500D01*
G75*
G02*
X121568000Y-81097500I250000J0D01*
G01*
X123418000Y-81097500D01*
G75*
G02*
X123668000Y-81347500I0J-250000D01*
G01*
G37*
G36*
G01*
X123668000Y-82617500D02*
X123668000Y-83117500D01*
G75*
G02*
X123418000Y-83367500I-250000J0D01*
G01*
X121568000Y-83367500D01*
G75*
G02*
X121318000Y-83117500I0J250000D01*
G01*
X121318000Y-82617500D01*
G75*
G02*
X121568000Y-82367500I250000J0D01*
G01*
X123418000Y-82367500D01*
G75*
G02*
X123668000Y-82617500I0J-250000D01*
G01*
G37*
G36*
G01*
X128618000Y-82617500D02*
X128618000Y-83117500D01*
G75*
G02*
X128368000Y-83367500I-250000J0D01*
G01*
X126518000Y-83367500D01*
G75*
G02*
X126268000Y-83117500I0J250000D01*
G01*
X126268000Y-82617500D01*
G75*
G02*
X126518000Y-82367500I250000J0D01*
G01*
X128368000Y-82367500D01*
G75*
G02*
X128618000Y-82617500I0J-250000D01*
G01*
G37*
G36*
G01*
X128618000Y-81347500D02*
X128618000Y-81847500D01*
G75*
G02*
X128368000Y-82097500I-250000J0D01*
G01*
X126518000Y-82097500D01*
G75*
G02*
X126268000Y-81847500I0J250000D01*
G01*
X126268000Y-81347500D01*
G75*
G02*
X126518000Y-81097500I250000J0D01*
G01*
X128368000Y-81097500D01*
G75*
G02*
X128618000Y-81347500I0J-250000D01*
G01*
G37*
G36*
G01*
X128618000Y-80077500D02*
X128618000Y-80577500D01*
G75*
G02*
X128368000Y-80827500I-250000J0D01*
G01*
X126518000Y-80827500D01*
G75*
G02*
X126268000Y-80577500I0J250000D01*
G01*
X126268000Y-80077500D01*
G75*
G02*
X126518000Y-79827500I250000J0D01*
G01*
X128368000Y-79827500D01*
G75*
G02*
X128618000Y-80077500I0J-250000D01*
G01*
G37*
G36*
G01*
X128618000Y-78807500D02*
X128618000Y-79307500D01*
G75*
G02*
X128368000Y-79557500I-250000J0D01*
G01*
X126518000Y-79557500D01*
G75*
G02*
X126268000Y-79307500I0J250000D01*
G01*
X126268000Y-78807500D01*
G75*
G02*
X126518000Y-78557500I250000J0D01*
G01*
X128368000Y-78557500D01*
G75*
G02*
X128618000Y-78807500I0J-250000D01*
G01*
G37*
G36*
G01*
X128618000Y-77537500D02*
X128618000Y-78037500D01*
G75*
G02*
X128368000Y-78287500I-250000J0D01*
G01*
X126518000Y-78287500D01*
G75*
G02*
X126268000Y-78037500I0J250000D01*
G01*
X126268000Y-77537500D01*
G75*
G02*
X126518000Y-77287500I250000J0D01*
G01*
X128368000Y-77287500D01*
G75*
G02*
X128618000Y-77537500I0J-250000D01*
G01*
G37*
G36*
G01*
X128618000Y-76267500D02*
X128618000Y-76767500D01*
G75*
G02*
X128368000Y-77017500I-250000J0D01*
G01*
X126518000Y-77017500D01*
G75*
G02*
X126268000Y-76767500I0J250000D01*
G01*
X126268000Y-76267500D01*
G75*
G02*
X126518000Y-76017500I250000J0D01*
G01*
X128368000Y-76017500D01*
G75*
G02*
X128618000Y-76267500I0J-250000D01*
G01*
G37*
G36*
G01*
X128618000Y-74997500D02*
X128618000Y-75497500D01*
G75*
G02*
X128368000Y-75747500I-250000J0D01*
G01*
X126518000Y-75747500D01*
G75*
G02*
X126268000Y-75497500I0J250000D01*
G01*
X126268000Y-74997500D01*
G75*
G02*
X126518000Y-74747500I250000J0D01*
G01*
X128368000Y-74747500D01*
G75*
G02*
X128618000Y-74997500I0J-250000D01*
G01*
G37*
G36*
G01*
X128618000Y-73727500D02*
X128618000Y-74227500D01*
G75*
G02*
X128368000Y-74477500I-250000J0D01*
G01*
X126518000Y-74477500D01*
G75*
G02*
X126268000Y-74227500I0J250000D01*
G01*
X126268000Y-73727500D01*
G75*
G02*
X126518000Y-73477500I250000J0D01*
G01*
X128368000Y-73477500D01*
G75*
G02*
X128618000Y-73727500I0J-250000D01*
G01*
G37*
D13*
X149444113Y-126653887D03*
X146050000Y-125248000D03*
X142655887Y-126653887D03*
X141250000Y-130048000D03*
X142655887Y-133442113D03*
X146050000Y-134848000D03*
X149444113Y-133442113D03*
X150850000Y-130048000D03*
D14*
X146050000Y-130048000D03*
D13*
X180432113Y-126653887D03*
X177038000Y-125248000D03*
X173643887Y-126653887D03*
X172238000Y-130048000D03*
X173643887Y-133442113D03*
X177038000Y-134848000D03*
X180432113Y-133442113D03*
X181838000Y-130048000D03*
D14*
X177038000Y-130048000D03*
X215201500Y-86550500D03*
D13*
X220001500Y-86550500D03*
X218595613Y-89944613D03*
X215201500Y-91350500D03*
X211807387Y-89944613D03*
X210401500Y-86550500D03*
X211807387Y-83156387D03*
X215201500Y-81750500D03*
X218595613Y-83156387D03*
D14*
X107378500Y-86550500D03*
D13*
X112178500Y-86550500D03*
X110772613Y-89944613D03*
X107378500Y-91350500D03*
X103984387Y-89944613D03*
X102578500Y-86550500D03*
X103984387Y-83156387D03*
X107378500Y-81750500D03*
X110772613Y-83156387D03*
D14*
X127952500Y-134874000D03*
D13*
X132752500Y-134874000D03*
X131346613Y-138268113D03*
X127952500Y-139674000D03*
X124558387Y-138268113D03*
X123152500Y-134874000D03*
X124558387Y-131479887D03*
X127952500Y-130074000D03*
X131346613Y-131479887D03*
D14*
X195135500Y-134874000D03*
D13*
X199935500Y-134874000D03*
X198529613Y-138268113D03*
X195135500Y-139674000D03*
X191741387Y-138268113D03*
X190335500Y-134874000D03*
X191741387Y-131479887D03*
X195135500Y-130074000D03*
X198529613Y-131479887D03*
D15*
X135763000Y-66802000D03*
X140843000Y-66802000D03*
X133223000Y-66802000D03*
X138303000Y-66802000D03*
X143383000Y-66802000D03*
G36*
G01*
X130627956Y-79053500D02*
X131754044Y-79053500D01*
G75*
G02*
X132091000Y-79390456I0J-336956D01*
G01*
X132091000Y-80266544D01*
G75*
G02*
X131754044Y-80603500I-336956J0D01*
G01*
X130627956Y-80603500D01*
G75*
G02*
X130291000Y-80266544I0J336956D01*
G01*
X130291000Y-79390456D01*
G75*
G02*
X130627956Y-79053500I336956J0D01*
G01*
G37*
G36*
G01*
X130627956Y-77003500D02*
X131754044Y-77003500D01*
G75*
G02*
X132091000Y-77340456I0J-336956D01*
G01*
X132091000Y-78216544D01*
G75*
G02*
X131754044Y-78553500I-336956J0D01*
G01*
X130627956Y-78553500D01*
G75*
G02*
X130291000Y-78216544I0J336956D01*
G01*
X130291000Y-77340456D01*
G75*
G02*
X130627956Y-77003500I336956J0D01*
G01*
G37*
G36*
G01*
X131754044Y-73981500D02*
X130627956Y-73981500D01*
G75*
G02*
X130291000Y-73644544I0J336956D01*
G01*
X130291000Y-72768456D01*
G75*
G02*
X130627956Y-72431500I336956J0D01*
G01*
X131754044Y-72431500D01*
G75*
G02*
X132091000Y-72768456I0J-336956D01*
G01*
X132091000Y-73644544D01*
G75*
G02*
X131754044Y-73981500I-336956J0D01*
G01*
G37*
G36*
G01*
X131754044Y-76031500D02*
X130627956Y-76031500D01*
G75*
G02*
X130291000Y-75694544I0J336956D01*
G01*
X130291000Y-74818456D01*
G75*
G02*
X130627956Y-74481500I336956J0D01*
G01*
X131754044Y-74481500D01*
G75*
G02*
X132091000Y-74818456I0J-336956D01*
G01*
X132091000Y-75694544D01*
G75*
G02*
X131754044Y-76031500I-336956J0D01*
G01*
G37*
G36*
G01*
X128147000Y-84209456D02*
X128147000Y-85335544D01*
G75*
G02*
X127810044Y-85672500I-336956J0D01*
G01*
X126933956Y-85672500D01*
G75*
G02*
X126597000Y-85335544I0J336956D01*
G01*
X126597000Y-84209456D01*
G75*
G02*
X126933956Y-83872500I336956J0D01*
G01*
X127810044Y-83872500D01*
G75*
G02*
X128147000Y-84209456I0J-336956D01*
G01*
G37*
G36*
G01*
X130197000Y-84209456D02*
X130197000Y-85335544D01*
G75*
G02*
X129860044Y-85672500I-336956J0D01*
G01*
X128983956Y-85672500D01*
G75*
G02*
X128647000Y-85335544I0J336956D01*
G01*
X128647000Y-84209456D01*
G75*
G02*
X128983956Y-83872500I336956J0D01*
G01*
X129860044Y-83872500D01*
G75*
G02*
X130197000Y-84209456I0J-336956D01*
G01*
G37*
G36*
G01*
X127944044Y-70362000D02*
X126817956Y-70362000D01*
G75*
G02*
X126481000Y-70025044I0J336956D01*
G01*
X126481000Y-69148956D01*
G75*
G02*
X126817956Y-68812000I336956J0D01*
G01*
X127944044Y-68812000D01*
G75*
G02*
X128281000Y-69148956I0J-336956D01*
G01*
X128281000Y-70025044D01*
G75*
G02*
X127944044Y-70362000I-336956J0D01*
G01*
G37*
G36*
G01*
X127944044Y-72412000D02*
X126817956Y-72412000D01*
G75*
G02*
X126481000Y-72075044I0J336956D01*
G01*
X126481000Y-71198956D01*
G75*
G02*
X126817956Y-70862000I336956J0D01*
G01*
X127944044Y-70862000D01*
G75*
G02*
X128281000Y-71198956I0J-336956D01*
G01*
X128281000Y-72075044D01*
G75*
G02*
X127944044Y-72412000I-336956J0D01*
G01*
G37*
G36*
G01*
X117419956Y-86419500D02*
X118546044Y-86419500D01*
G75*
G02*
X118883000Y-86756456I0J-336956D01*
G01*
X118883000Y-87632544D01*
G75*
G02*
X118546044Y-87969500I-336956J0D01*
G01*
X117419956Y-87969500D01*
G75*
G02*
X117083000Y-87632544I0J336956D01*
G01*
X117083000Y-86756456D01*
G75*
G02*
X117419956Y-86419500I336956J0D01*
G01*
G37*
G36*
G01*
X117419956Y-84369500D02*
X118546044Y-84369500D01*
G75*
G02*
X118883000Y-84706456I0J-336956D01*
G01*
X118883000Y-85582544D01*
G75*
G02*
X118546044Y-85919500I-336956J0D01*
G01*
X117419956Y-85919500D01*
G75*
G02*
X117083000Y-85582544I0J336956D01*
G01*
X117083000Y-84706456D01*
G75*
G02*
X117419956Y-84369500I336956J0D01*
G01*
G37*
G36*
G01*
X120451044Y-70679500D02*
X119324956Y-70679500D01*
G75*
G02*
X118988000Y-70342544I0J336956D01*
G01*
X118988000Y-69466456D01*
G75*
G02*
X119324956Y-69129500I336956J0D01*
G01*
X120451044Y-69129500D01*
G75*
G02*
X120788000Y-69466456I0J-336956D01*
G01*
X120788000Y-70342544D01*
G75*
G02*
X120451044Y-70679500I-336956J0D01*
G01*
G37*
G36*
G01*
X120451044Y-72729500D02*
X119324956Y-72729500D01*
G75*
G02*
X118988000Y-72392544I0J336956D01*
G01*
X118988000Y-71516456D01*
G75*
G02*
X119324956Y-71179500I336956J0D01*
G01*
X120451044Y-71179500D01*
G75*
G02*
X120788000Y-71516456I0J-336956D01*
G01*
X120788000Y-72392544D01*
G75*
G02*
X120451044Y-72729500I-336956J0D01*
G01*
G37*
G36*
G01*
X118990544Y-74807000D02*
X117864456Y-74807000D01*
G75*
G02*
X117527500Y-74470044I0J336956D01*
G01*
X117527500Y-73593956D01*
G75*
G02*
X117864456Y-73257000I336956J0D01*
G01*
X118990544Y-73257000D01*
G75*
G02*
X119327500Y-73593956I0J-336956D01*
G01*
X119327500Y-74470044D01*
G75*
G02*
X118990544Y-74807000I-336956J0D01*
G01*
G37*
G36*
G01*
X118990544Y-76857000D02*
X117864456Y-76857000D01*
G75*
G02*
X117527500Y-76520044I0J336956D01*
G01*
X117527500Y-75643956D01*
G75*
G02*
X117864456Y-75307000I336956J0D01*
G01*
X118990544Y-75307000D01*
G75*
G02*
X119327500Y-75643956I0J-336956D01*
G01*
X119327500Y-76520044D01*
G75*
G02*
X118990544Y-76857000I-336956J0D01*
G01*
G37*
G36*
G01*
X117864456Y-79371000D02*
X118990544Y-79371000D01*
G75*
G02*
X119327500Y-79707956I0J-336956D01*
G01*
X119327500Y-80584044D01*
G75*
G02*
X118990544Y-80921000I-336956J0D01*
G01*
X117864456Y-80921000D01*
G75*
G02*
X117527500Y-80584044I0J336956D01*
G01*
X117527500Y-79707956D01*
G75*
G02*
X117864456Y-79371000I336956J0D01*
G01*
G37*
G36*
G01*
X117864456Y-77321000D02*
X118990544Y-77321000D01*
G75*
G02*
X119327500Y-77657956I0J-336956D01*
G01*
X119327500Y-78534044D01*
G75*
G02*
X118990544Y-78871000I-336956J0D01*
G01*
X117864456Y-78871000D01*
G75*
G02*
X117527500Y-78534044I0J336956D01*
G01*
X117527500Y-77657956D01*
G75*
G02*
X117864456Y-77321000I336956J0D01*
G01*
G37*
G36*
G01*
X120086956Y-89023000D02*
X121213044Y-89023000D01*
G75*
G02*
X121550000Y-89359956I0J-336956D01*
G01*
X121550000Y-90236044D01*
G75*
G02*
X121213044Y-90573000I-336956J0D01*
G01*
X120086956Y-90573000D01*
G75*
G02*
X119750000Y-90236044I0J336956D01*
G01*
X119750000Y-89359956D01*
G75*
G02*
X120086956Y-89023000I336956J0D01*
G01*
G37*
G36*
G01*
X120086956Y-86973000D02*
X121213044Y-86973000D01*
G75*
G02*
X121550000Y-87309956I0J-336956D01*
G01*
X121550000Y-88186044D01*
G75*
G02*
X121213044Y-88523000I-336956J0D01*
G01*
X120086956Y-88523000D01*
G75*
G02*
X119750000Y-88186044I0J336956D01*
G01*
X119750000Y-87309956D01*
G75*
G02*
X120086956Y-86973000I336956J0D01*
G01*
G37*
G36*
G01*
X125023044Y-101985000D02*
X123896956Y-101985000D01*
G75*
G02*
X123560000Y-101648044I0J336956D01*
G01*
X123560000Y-100771956D01*
G75*
G02*
X123896956Y-100435000I336956J0D01*
G01*
X125023044Y-100435000D01*
G75*
G02*
X125360000Y-100771956I0J-336956D01*
G01*
X125360000Y-101648044D01*
G75*
G02*
X125023044Y-101985000I-336956J0D01*
G01*
G37*
G36*
G01*
X125023044Y-104035000D02*
X123896956Y-104035000D01*
G75*
G02*
X123560000Y-103698044I0J336956D01*
G01*
X123560000Y-102821956D01*
G75*
G02*
X123896956Y-102485000I336956J0D01*
G01*
X125023044Y-102485000D01*
G75*
G02*
X125360000Y-102821956I0J-336956D01*
G01*
X125360000Y-103698044D01*
G75*
G02*
X125023044Y-104035000I-336956J0D01*
G01*
G37*
G36*
G01*
X127944044Y-101985000D02*
X126817956Y-101985000D01*
G75*
G02*
X126481000Y-101648044I0J336956D01*
G01*
X126481000Y-100771956D01*
G75*
G02*
X126817956Y-100435000I336956J0D01*
G01*
X127944044Y-100435000D01*
G75*
G02*
X128281000Y-100771956I0J-336956D01*
G01*
X128281000Y-101648044D01*
G75*
G02*
X127944044Y-101985000I-336956J0D01*
G01*
G37*
G36*
G01*
X127944044Y-104035000D02*
X126817956Y-104035000D01*
G75*
G02*
X126481000Y-103698044I0J336956D01*
G01*
X126481000Y-102821956D01*
G75*
G02*
X126817956Y-102485000I336956J0D01*
G01*
X127944044Y-102485000D01*
G75*
G02*
X128281000Y-102821956I0J-336956D01*
G01*
X128281000Y-103698044D01*
G75*
G02*
X127944044Y-104035000I-336956J0D01*
G01*
G37*
G36*
G01*
X157355000Y-70195000D02*
X158955000Y-70195000D01*
G75*
G02*
X159130000Y-70370000I0J-175000D01*
G01*
X159130000Y-70720000D01*
G75*
G02*
X158955000Y-70895000I-175000J0D01*
G01*
X157355000Y-70895000D01*
G75*
G02*
X157180000Y-70720000I0J175000D01*
G01*
X157180000Y-70370000D01*
G75*
G02*
X157355000Y-70195000I175000J0D01*
G01*
G37*
G36*
G01*
X157355000Y-70695000D02*
X158955000Y-70695000D01*
G75*
G02*
X159130000Y-70870000I0J-175000D01*
G01*
X159130000Y-71220000D01*
G75*
G02*
X158955000Y-71395000I-175000J0D01*
G01*
X157355000Y-71395000D01*
G75*
G02*
X157180000Y-71220000I0J175000D01*
G01*
X157180000Y-70870000D01*
G75*
G02*
X157355000Y-70695000I175000J0D01*
G01*
G37*
G36*
G01*
X157355000Y-71195000D02*
X158955000Y-71195000D01*
G75*
G02*
X159130000Y-71370000I0J-175000D01*
G01*
X159130000Y-71720000D01*
G75*
G02*
X158955000Y-71895000I-175000J0D01*
G01*
X157355000Y-71895000D01*
G75*
G02*
X157180000Y-71720000I0J175000D01*
G01*
X157180000Y-71370000D01*
G75*
G02*
X157355000Y-71195000I175000J0D01*
G01*
G37*
G36*
G01*
X157355000Y-71695000D02*
X158955000Y-71695000D01*
G75*
G02*
X159130000Y-71870000I0J-175000D01*
G01*
X159130000Y-72220000D01*
G75*
G02*
X158955000Y-72395000I-175000J0D01*
G01*
X157355000Y-72395000D01*
G75*
G02*
X157180000Y-72220000I0J175000D01*
G01*
X157180000Y-71870000D01*
G75*
G02*
X157355000Y-71695000I175000J0D01*
G01*
G37*
G36*
G01*
X157355000Y-72195000D02*
X158955000Y-72195000D01*
G75*
G02*
X159130000Y-72370000I0J-175000D01*
G01*
X159130000Y-72720000D01*
G75*
G02*
X158955000Y-72895000I-175000J0D01*
G01*
X157355000Y-72895000D01*
G75*
G02*
X157180000Y-72720000I0J175000D01*
G01*
X157180000Y-72370000D01*
G75*
G02*
X157355000Y-72195000I175000J0D01*
G01*
G37*
G36*
G01*
X157355000Y-72695000D02*
X158955000Y-72695000D01*
G75*
G02*
X159130000Y-72870000I0J-175000D01*
G01*
X159130000Y-73220000D01*
G75*
G02*
X158955000Y-73395000I-175000J0D01*
G01*
X157355000Y-73395000D01*
G75*
G02*
X157180000Y-73220000I0J175000D01*
G01*
X157180000Y-72870000D01*
G75*
G02*
X157355000Y-72695000I175000J0D01*
G01*
G37*
G36*
G01*
X157355000Y-73195000D02*
X158955000Y-73195000D01*
G75*
G02*
X159130000Y-73370000I0J-175000D01*
G01*
X159130000Y-73720000D01*
G75*
G02*
X158955000Y-73895000I-175000J0D01*
G01*
X157355000Y-73895000D01*
G75*
G02*
X157180000Y-73720000I0J175000D01*
G01*
X157180000Y-73370000D01*
G75*
G02*
X157355000Y-73195000I175000J0D01*
G01*
G37*
G36*
G01*
X157355000Y-73695000D02*
X158955000Y-73695000D01*
G75*
G02*
X159130000Y-73870000I0J-175000D01*
G01*
X159130000Y-74220000D01*
G75*
G02*
X158955000Y-74395000I-175000J0D01*
G01*
X157355000Y-74395000D01*
G75*
G02*
X157180000Y-74220000I0J175000D01*
G01*
X157180000Y-73870000D01*
G75*
G02*
X157355000Y-73695000I175000J0D01*
G01*
G37*
G36*
G01*
X157355000Y-74195000D02*
X158955000Y-74195000D01*
G75*
G02*
X159130000Y-74370000I0J-175000D01*
G01*
X159130000Y-74720000D01*
G75*
G02*
X158955000Y-74895000I-175000J0D01*
G01*
X157355000Y-74895000D01*
G75*
G02*
X157180000Y-74720000I0J175000D01*
G01*
X157180000Y-74370000D01*
G75*
G02*
X157355000Y-74195000I175000J0D01*
G01*
G37*
G36*
G01*
X157355000Y-74695000D02*
X158955000Y-74695000D01*
G75*
G02*
X159130000Y-74870000I0J-175000D01*
G01*
X159130000Y-75220000D01*
G75*
G02*
X158955000Y-75395000I-175000J0D01*
G01*
X157355000Y-75395000D01*
G75*
G02*
X157180000Y-75220000I0J175000D01*
G01*
X157180000Y-74870000D01*
G75*
G02*
X157355000Y-74695000I175000J0D01*
G01*
G37*
G36*
G01*
X157355000Y-75195000D02*
X158955000Y-75195000D01*
G75*
G02*
X159130000Y-75370000I0J-175000D01*
G01*
X159130000Y-75720000D01*
G75*
G02*
X158955000Y-75895000I-175000J0D01*
G01*
X157355000Y-75895000D01*
G75*
G02*
X157180000Y-75720000I0J175000D01*
G01*
X157180000Y-75370000D01*
G75*
G02*
X157355000Y-75195000I175000J0D01*
G01*
G37*
G36*
G01*
X157355000Y-75695000D02*
X158955000Y-75695000D01*
G75*
G02*
X159130000Y-75870000I0J-175000D01*
G01*
X159130000Y-76220000D01*
G75*
G02*
X158955000Y-76395000I-175000J0D01*
G01*
X157355000Y-76395000D01*
G75*
G02*
X157180000Y-76220000I0J175000D01*
G01*
X157180000Y-75870000D01*
G75*
G02*
X157355000Y-75695000I175000J0D01*
G01*
G37*
G36*
G01*
X157355000Y-76195000D02*
X158955000Y-76195000D01*
G75*
G02*
X159130000Y-76370000I0J-175000D01*
G01*
X159130000Y-76720000D01*
G75*
G02*
X158955000Y-76895000I-175000J0D01*
G01*
X157355000Y-76895000D01*
G75*
G02*
X157180000Y-76720000I0J175000D01*
G01*
X157180000Y-76370000D01*
G75*
G02*
X157355000Y-76195000I175000J0D01*
G01*
G37*
G36*
G01*
X157355000Y-76695000D02*
X158955000Y-76695000D01*
G75*
G02*
X159130000Y-76870000I0J-175000D01*
G01*
X159130000Y-77220000D01*
G75*
G02*
X158955000Y-77395000I-175000J0D01*
G01*
X157355000Y-77395000D01*
G75*
G02*
X157180000Y-77220000I0J175000D01*
G01*
X157180000Y-76870000D01*
G75*
G02*
X157355000Y-76695000I175000J0D01*
G01*
G37*
G36*
G01*
X157355000Y-77195000D02*
X158955000Y-77195000D01*
G75*
G02*
X159130000Y-77370000I0J-175000D01*
G01*
X159130000Y-77720000D01*
G75*
G02*
X158955000Y-77895000I-175000J0D01*
G01*
X157355000Y-77895000D01*
G75*
G02*
X157180000Y-77720000I0J175000D01*
G01*
X157180000Y-77370000D01*
G75*
G02*
X157355000Y-77195000I175000J0D01*
G01*
G37*
G36*
G01*
X157355000Y-77695000D02*
X158955000Y-77695000D01*
G75*
G02*
X159130000Y-77870000I0J-175000D01*
G01*
X159130000Y-78220000D01*
G75*
G02*
X158955000Y-78395000I-175000J0D01*
G01*
X157355000Y-78395000D01*
G75*
G02*
X157180000Y-78220000I0J175000D01*
G01*
X157180000Y-77870000D01*
G75*
G02*
X157355000Y-77695000I175000J0D01*
G01*
G37*
G36*
G01*
X159905000Y-78995000D02*
X160255000Y-78995000D01*
G75*
G02*
X160430000Y-79170000I0J-175000D01*
G01*
X160430000Y-80770000D01*
G75*
G02*
X160255000Y-80945000I-175000J0D01*
G01*
X159905000Y-80945000D01*
G75*
G02*
X159730000Y-80770000I0J175000D01*
G01*
X159730000Y-79170000D01*
G75*
G02*
X159905000Y-78995000I175000J0D01*
G01*
G37*
G36*
G01*
X160405000Y-78995000D02*
X160755000Y-78995000D01*
G75*
G02*
X160930000Y-79170000I0J-175000D01*
G01*
X160930000Y-80770000D01*
G75*
G02*
X160755000Y-80945000I-175000J0D01*
G01*
X160405000Y-80945000D01*
G75*
G02*
X160230000Y-80770000I0J175000D01*
G01*
X160230000Y-79170000D01*
G75*
G02*
X160405000Y-78995000I175000J0D01*
G01*
G37*
G36*
G01*
X160905000Y-78995000D02*
X161255000Y-78995000D01*
G75*
G02*
X161430000Y-79170000I0J-175000D01*
G01*
X161430000Y-80770000D01*
G75*
G02*
X161255000Y-80945000I-175000J0D01*
G01*
X160905000Y-80945000D01*
G75*
G02*
X160730000Y-80770000I0J175000D01*
G01*
X160730000Y-79170000D01*
G75*
G02*
X160905000Y-78995000I175000J0D01*
G01*
G37*
G36*
G01*
X161405000Y-78995000D02*
X161755000Y-78995000D01*
G75*
G02*
X161930000Y-79170000I0J-175000D01*
G01*
X161930000Y-80770000D01*
G75*
G02*
X161755000Y-80945000I-175000J0D01*
G01*
X161405000Y-80945000D01*
G75*
G02*
X161230000Y-80770000I0J175000D01*
G01*
X161230000Y-79170000D01*
G75*
G02*
X161405000Y-78995000I175000J0D01*
G01*
G37*
G36*
G01*
X161905000Y-78995000D02*
X162255000Y-78995000D01*
G75*
G02*
X162430000Y-79170000I0J-175000D01*
G01*
X162430000Y-80770000D01*
G75*
G02*
X162255000Y-80945000I-175000J0D01*
G01*
X161905000Y-80945000D01*
G75*
G02*
X161730000Y-80770000I0J175000D01*
G01*
X161730000Y-79170000D01*
G75*
G02*
X161905000Y-78995000I175000J0D01*
G01*
G37*
G36*
G01*
X162405000Y-78995000D02*
X162755000Y-78995000D01*
G75*
G02*
X162930000Y-79170000I0J-175000D01*
G01*
X162930000Y-80770000D01*
G75*
G02*
X162755000Y-80945000I-175000J0D01*
G01*
X162405000Y-80945000D01*
G75*
G02*
X162230000Y-80770000I0J175000D01*
G01*
X162230000Y-79170000D01*
G75*
G02*
X162405000Y-78995000I175000J0D01*
G01*
G37*
G36*
G01*
X162905000Y-78995000D02*
X163255000Y-78995000D01*
G75*
G02*
X163430000Y-79170000I0J-175000D01*
G01*
X163430000Y-80770000D01*
G75*
G02*
X163255000Y-80945000I-175000J0D01*
G01*
X162905000Y-80945000D01*
G75*
G02*
X162730000Y-80770000I0J175000D01*
G01*
X162730000Y-79170000D01*
G75*
G02*
X162905000Y-78995000I175000J0D01*
G01*
G37*
G36*
G01*
X163405000Y-78995000D02*
X163755000Y-78995000D01*
G75*
G02*
X163930000Y-79170000I0J-175000D01*
G01*
X163930000Y-80770000D01*
G75*
G02*
X163755000Y-80945000I-175000J0D01*
G01*
X163405000Y-80945000D01*
G75*
G02*
X163230000Y-80770000I0J175000D01*
G01*
X163230000Y-79170000D01*
G75*
G02*
X163405000Y-78995000I175000J0D01*
G01*
G37*
G36*
G01*
X163905000Y-78995000D02*
X164255000Y-78995000D01*
G75*
G02*
X164430000Y-79170000I0J-175000D01*
G01*
X164430000Y-80770000D01*
G75*
G02*
X164255000Y-80945000I-175000J0D01*
G01*
X163905000Y-80945000D01*
G75*
G02*
X163730000Y-80770000I0J175000D01*
G01*
X163730000Y-79170000D01*
G75*
G02*
X163905000Y-78995000I175000J0D01*
G01*
G37*
G36*
G01*
X164405000Y-78995000D02*
X164755000Y-78995000D01*
G75*
G02*
X164930000Y-79170000I0J-175000D01*
G01*
X164930000Y-80770000D01*
G75*
G02*
X164755000Y-80945000I-175000J0D01*
G01*
X164405000Y-80945000D01*
G75*
G02*
X164230000Y-80770000I0J175000D01*
G01*
X164230000Y-79170000D01*
G75*
G02*
X164405000Y-78995000I175000J0D01*
G01*
G37*
G36*
G01*
X164905000Y-78995000D02*
X165255000Y-78995000D01*
G75*
G02*
X165430000Y-79170000I0J-175000D01*
G01*
X165430000Y-80770000D01*
G75*
G02*
X165255000Y-80945000I-175000J0D01*
G01*
X164905000Y-80945000D01*
G75*
G02*
X164730000Y-80770000I0J175000D01*
G01*
X164730000Y-79170000D01*
G75*
G02*
X164905000Y-78995000I175000J0D01*
G01*
G37*
G36*
G01*
X165405000Y-78995000D02*
X165755000Y-78995000D01*
G75*
G02*
X165930000Y-79170000I0J-175000D01*
G01*
X165930000Y-80770000D01*
G75*
G02*
X165755000Y-80945000I-175000J0D01*
G01*
X165405000Y-80945000D01*
G75*
G02*
X165230000Y-80770000I0J175000D01*
G01*
X165230000Y-79170000D01*
G75*
G02*
X165405000Y-78995000I175000J0D01*
G01*
G37*
G36*
G01*
X165905000Y-78995000D02*
X166255000Y-78995000D01*
G75*
G02*
X166430000Y-79170000I0J-175000D01*
G01*
X166430000Y-80770000D01*
G75*
G02*
X166255000Y-80945000I-175000J0D01*
G01*
X165905000Y-80945000D01*
G75*
G02*
X165730000Y-80770000I0J175000D01*
G01*
X165730000Y-79170000D01*
G75*
G02*
X165905000Y-78995000I175000J0D01*
G01*
G37*
G36*
G01*
X166405000Y-78995000D02*
X166755000Y-78995000D01*
G75*
G02*
X166930000Y-79170000I0J-175000D01*
G01*
X166930000Y-80770000D01*
G75*
G02*
X166755000Y-80945000I-175000J0D01*
G01*
X166405000Y-80945000D01*
G75*
G02*
X166230000Y-80770000I0J175000D01*
G01*
X166230000Y-79170000D01*
G75*
G02*
X166405000Y-78995000I175000J0D01*
G01*
G37*
G36*
G01*
X166905000Y-78995000D02*
X167255000Y-78995000D01*
G75*
G02*
X167430000Y-79170000I0J-175000D01*
G01*
X167430000Y-80770000D01*
G75*
G02*
X167255000Y-80945000I-175000J0D01*
G01*
X166905000Y-80945000D01*
G75*
G02*
X166730000Y-80770000I0J175000D01*
G01*
X166730000Y-79170000D01*
G75*
G02*
X166905000Y-78995000I175000J0D01*
G01*
G37*
G36*
G01*
X167405000Y-78995000D02*
X167755000Y-78995000D01*
G75*
G02*
X167930000Y-79170000I0J-175000D01*
G01*
X167930000Y-80770000D01*
G75*
G02*
X167755000Y-80945000I-175000J0D01*
G01*
X167405000Y-80945000D01*
G75*
G02*
X167230000Y-80770000I0J175000D01*
G01*
X167230000Y-79170000D01*
G75*
G02*
X167405000Y-78995000I175000J0D01*
G01*
G37*
G36*
G01*
X168705000Y-77695000D02*
X170305000Y-77695000D01*
G75*
G02*
X170480000Y-77870000I0J-175000D01*
G01*
X170480000Y-78220000D01*
G75*
G02*
X170305000Y-78395000I-175000J0D01*
G01*
X168705000Y-78395000D01*
G75*
G02*
X168530000Y-78220000I0J175000D01*
G01*
X168530000Y-77870000D01*
G75*
G02*
X168705000Y-77695000I175000J0D01*
G01*
G37*
G36*
G01*
X168705000Y-77195000D02*
X170305000Y-77195000D01*
G75*
G02*
X170480000Y-77370000I0J-175000D01*
G01*
X170480000Y-77720000D01*
G75*
G02*
X170305000Y-77895000I-175000J0D01*
G01*
X168705000Y-77895000D01*
G75*
G02*
X168530000Y-77720000I0J175000D01*
G01*
X168530000Y-77370000D01*
G75*
G02*
X168705000Y-77195000I175000J0D01*
G01*
G37*
G36*
G01*
X168705000Y-76695000D02*
X170305000Y-76695000D01*
G75*
G02*
X170480000Y-76870000I0J-175000D01*
G01*
X170480000Y-77220000D01*
G75*
G02*
X170305000Y-77395000I-175000J0D01*
G01*
X168705000Y-77395000D01*
G75*
G02*
X168530000Y-77220000I0J175000D01*
G01*
X168530000Y-76870000D01*
G75*
G02*
X168705000Y-76695000I175000J0D01*
G01*
G37*
G36*
G01*
X168705000Y-76195000D02*
X170305000Y-76195000D01*
G75*
G02*
X170480000Y-76370000I0J-175000D01*
G01*
X170480000Y-76720000D01*
G75*
G02*
X170305000Y-76895000I-175000J0D01*
G01*
X168705000Y-76895000D01*
G75*
G02*
X168530000Y-76720000I0J175000D01*
G01*
X168530000Y-76370000D01*
G75*
G02*
X168705000Y-76195000I175000J0D01*
G01*
G37*
G36*
G01*
X168705000Y-75695000D02*
X170305000Y-75695000D01*
G75*
G02*
X170480000Y-75870000I0J-175000D01*
G01*
X170480000Y-76220000D01*
G75*
G02*
X170305000Y-76395000I-175000J0D01*
G01*
X168705000Y-76395000D01*
G75*
G02*
X168530000Y-76220000I0J175000D01*
G01*
X168530000Y-75870000D01*
G75*
G02*
X168705000Y-75695000I175000J0D01*
G01*
G37*
G36*
G01*
X168705000Y-75195000D02*
X170305000Y-75195000D01*
G75*
G02*
X170480000Y-75370000I0J-175000D01*
G01*
X170480000Y-75720000D01*
G75*
G02*
X170305000Y-75895000I-175000J0D01*
G01*
X168705000Y-75895000D01*
G75*
G02*
X168530000Y-75720000I0J175000D01*
G01*
X168530000Y-75370000D01*
G75*
G02*
X168705000Y-75195000I175000J0D01*
G01*
G37*
G36*
G01*
X168705000Y-74695000D02*
X170305000Y-74695000D01*
G75*
G02*
X170480000Y-74870000I0J-175000D01*
G01*
X170480000Y-75220000D01*
G75*
G02*
X170305000Y-75395000I-175000J0D01*
G01*
X168705000Y-75395000D01*
G75*
G02*
X168530000Y-75220000I0J175000D01*
G01*
X168530000Y-74870000D01*
G75*
G02*
X168705000Y-74695000I175000J0D01*
G01*
G37*
G36*
G01*
X168705000Y-74195000D02*
X170305000Y-74195000D01*
G75*
G02*
X170480000Y-74370000I0J-175000D01*
G01*
X170480000Y-74720000D01*
G75*
G02*
X170305000Y-74895000I-175000J0D01*
G01*
X168705000Y-74895000D01*
G75*
G02*
X168530000Y-74720000I0J175000D01*
G01*
X168530000Y-74370000D01*
G75*
G02*
X168705000Y-74195000I175000J0D01*
G01*
G37*
G36*
G01*
X168705000Y-73695000D02*
X170305000Y-73695000D01*
G75*
G02*
X170480000Y-73870000I0J-175000D01*
G01*
X170480000Y-74220000D01*
G75*
G02*
X170305000Y-74395000I-175000J0D01*
G01*
X168705000Y-74395000D01*
G75*
G02*
X168530000Y-74220000I0J175000D01*
G01*
X168530000Y-73870000D01*
G75*
G02*
X168705000Y-73695000I175000J0D01*
G01*
G37*
G36*
G01*
X168705000Y-73195000D02*
X170305000Y-73195000D01*
G75*
G02*
X170480000Y-73370000I0J-175000D01*
G01*
X170480000Y-73720000D01*
G75*
G02*
X170305000Y-73895000I-175000J0D01*
G01*
X168705000Y-73895000D01*
G75*
G02*
X168530000Y-73720000I0J175000D01*
G01*
X168530000Y-73370000D01*
G75*
G02*
X168705000Y-73195000I175000J0D01*
G01*
G37*
G36*
G01*
X168705000Y-72695000D02*
X170305000Y-72695000D01*
G75*
G02*
X170480000Y-72870000I0J-175000D01*
G01*
X170480000Y-73220000D01*
G75*
G02*
X170305000Y-73395000I-175000J0D01*
G01*
X168705000Y-73395000D01*
G75*
G02*
X168530000Y-73220000I0J175000D01*
G01*
X168530000Y-72870000D01*
G75*
G02*
X168705000Y-72695000I175000J0D01*
G01*
G37*
G36*
G01*
X168705000Y-72195000D02*
X170305000Y-72195000D01*
G75*
G02*
X170480000Y-72370000I0J-175000D01*
G01*
X170480000Y-72720000D01*
G75*
G02*
X170305000Y-72895000I-175000J0D01*
G01*
X168705000Y-72895000D01*
G75*
G02*
X168530000Y-72720000I0J175000D01*
G01*
X168530000Y-72370000D01*
G75*
G02*
X168705000Y-72195000I175000J0D01*
G01*
G37*
G36*
G01*
X168705000Y-71695000D02*
X170305000Y-71695000D01*
G75*
G02*
X170480000Y-71870000I0J-175000D01*
G01*
X170480000Y-72220000D01*
G75*
G02*
X170305000Y-72395000I-175000J0D01*
G01*
X168705000Y-72395000D01*
G75*
G02*
X168530000Y-72220000I0J175000D01*
G01*
X168530000Y-71870000D01*
G75*
G02*
X168705000Y-71695000I175000J0D01*
G01*
G37*
G36*
G01*
X168705000Y-71195000D02*
X170305000Y-71195000D01*
G75*
G02*
X170480000Y-71370000I0J-175000D01*
G01*
X170480000Y-71720000D01*
G75*
G02*
X170305000Y-71895000I-175000J0D01*
G01*
X168705000Y-71895000D01*
G75*
G02*
X168530000Y-71720000I0J175000D01*
G01*
X168530000Y-71370000D01*
G75*
G02*
X168705000Y-71195000I175000J0D01*
G01*
G37*
G36*
G01*
X168705000Y-70695000D02*
X170305000Y-70695000D01*
G75*
G02*
X170480000Y-70870000I0J-175000D01*
G01*
X170480000Y-71220000D01*
G75*
G02*
X170305000Y-71395000I-175000J0D01*
G01*
X168705000Y-71395000D01*
G75*
G02*
X168530000Y-71220000I0J175000D01*
G01*
X168530000Y-70870000D01*
G75*
G02*
X168705000Y-70695000I175000J0D01*
G01*
G37*
G36*
G01*
X168705000Y-70195000D02*
X170305000Y-70195000D01*
G75*
G02*
X170480000Y-70370000I0J-175000D01*
G01*
X170480000Y-70720000D01*
G75*
G02*
X170305000Y-70895000I-175000J0D01*
G01*
X168705000Y-70895000D01*
G75*
G02*
X168530000Y-70720000I0J175000D01*
G01*
X168530000Y-70370000D01*
G75*
G02*
X168705000Y-70195000I175000J0D01*
G01*
G37*
G36*
G01*
X167405000Y-67645000D02*
X167755000Y-67645000D01*
G75*
G02*
X167930000Y-67820000I0J-175000D01*
G01*
X167930000Y-69420000D01*
G75*
G02*
X167755000Y-69595000I-175000J0D01*
G01*
X167405000Y-69595000D01*
G75*
G02*
X167230000Y-69420000I0J175000D01*
G01*
X167230000Y-67820000D01*
G75*
G02*
X167405000Y-67645000I175000J0D01*
G01*
G37*
G36*
G01*
X166905000Y-67645000D02*
X167255000Y-67645000D01*
G75*
G02*
X167430000Y-67820000I0J-175000D01*
G01*
X167430000Y-69420000D01*
G75*
G02*
X167255000Y-69595000I-175000J0D01*
G01*
X166905000Y-69595000D01*
G75*
G02*
X166730000Y-69420000I0J175000D01*
G01*
X166730000Y-67820000D01*
G75*
G02*
X166905000Y-67645000I175000J0D01*
G01*
G37*
G36*
G01*
X166405000Y-67645000D02*
X166755000Y-67645000D01*
G75*
G02*
X166930000Y-67820000I0J-175000D01*
G01*
X166930000Y-69420000D01*
G75*
G02*
X166755000Y-69595000I-175000J0D01*
G01*
X166405000Y-69595000D01*
G75*
G02*
X166230000Y-69420000I0J175000D01*
G01*
X166230000Y-67820000D01*
G75*
G02*
X166405000Y-67645000I175000J0D01*
G01*
G37*
G36*
G01*
X165905000Y-67645000D02*
X166255000Y-67645000D01*
G75*
G02*
X166430000Y-67820000I0J-175000D01*
G01*
X166430000Y-69420000D01*
G75*
G02*
X166255000Y-69595000I-175000J0D01*
G01*
X165905000Y-69595000D01*
G75*
G02*
X165730000Y-69420000I0J175000D01*
G01*
X165730000Y-67820000D01*
G75*
G02*
X165905000Y-67645000I175000J0D01*
G01*
G37*
G36*
G01*
X165405000Y-67645000D02*
X165755000Y-67645000D01*
G75*
G02*
X165930000Y-67820000I0J-175000D01*
G01*
X165930000Y-69420000D01*
G75*
G02*
X165755000Y-69595000I-175000J0D01*
G01*
X165405000Y-69595000D01*
G75*
G02*
X165230000Y-69420000I0J175000D01*
G01*
X165230000Y-67820000D01*
G75*
G02*
X165405000Y-67645000I175000J0D01*
G01*
G37*
G36*
G01*
X164905000Y-67645000D02*
X165255000Y-67645000D01*
G75*
G02*
X165430000Y-67820000I0J-175000D01*
G01*
X165430000Y-69420000D01*
G75*
G02*
X165255000Y-69595000I-175000J0D01*
G01*
X164905000Y-69595000D01*
G75*
G02*
X164730000Y-69420000I0J175000D01*
G01*
X164730000Y-67820000D01*
G75*
G02*
X164905000Y-67645000I175000J0D01*
G01*
G37*
G36*
G01*
X164405000Y-67645000D02*
X164755000Y-67645000D01*
G75*
G02*
X164930000Y-67820000I0J-175000D01*
G01*
X164930000Y-69420000D01*
G75*
G02*
X164755000Y-69595000I-175000J0D01*
G01*
X164405000Y-69595000D01*
G75*
G02*
X164230000Y-69420000I0J175000D01*
G01*
X164230000Y-67820000D01*
G75*
G02*
X164405000Y-67645000I175000J0D01*
G01*
G37*
G36*
G01*
X163905000Y-67645000D02*
X164255000Y-67645000D01*
G75*
G02*
X164430000Y-67820000I0J-175000D01*
G01*
X164430000Y-69420000D01*
G75*
G02*
X164255000Y-69595000I-175000J0D01*
G01*
X163905000Y-69595000D01*
G75*
G02*
X163730000Y-69420000I0J175000D01*
G01*
X163730000Y-67820000D01*
G75*
G02*
X163905000Y-67645000I175000J0D01*
G01*
G37*
G36*
G01*
X163405000Y-67645000D02*
X163755000Y-67645000D01*
G75*
G02*
X163930000Y-67820000I0J-175000D01*
G01*
X163930000Y-69420000D01*
G75*
G02*
X163755000Y-69595000I-175000J0D01*
G01*
X163405000Y-69595000D01*
G75*
G02*
X163230000Y-69420000I0J175000D01*
G01*
X163230000Y-67820000D01*
G75*
G02*
X163405000Y-67645000I175000J0D01*
G01*
G37*
G36*
G01*
X162905000Y-67645000D02*
X163255000Y-67645000D01*
G75*
G02*
X163430000Y-67820000I0J-175000D01*
G01*
X163430000Y-69420000D01*
G75*
G02*
X163255000Y-69595000I-175000J0D01*
G01*
X162905000Y-69595000D01*
G75*
G02*
X162730000Y-69420000I0J175000D01*
G01*
X162730000Y-67820000D01*
G75*
G02*
X162905000Y-67645000I175000J0D01*
G01*
G37*
G36*
G01*
X162405000Y-67645000D02*
X162755000Y-67645000D01*
G75*
G02*
X162930000Y-67820000I0J-175000D01*
G01*
X162930000Y-69420000D01*
G75*
G02*
X162755000Y-69595000I-175000J0D01*
G01*
X162405000Y-69595000D01*
G75*
G02*
X162230000Y-69420000I0J175000D01*
G01*
X162230000Y-67820000D01*
G75*
G02*
X162405000Y-67645000I175000J0D01*
G01*
G37*
G36*
G01*
X161905000Y-67645000D02*
X162255000Y-67645000D01*
G75*
G02*
X162430000Y-67820000I0J-175000D01*
G01*
X162430000Y-69420000D01*
G75*
G02*
X162255000Y-69595000I-175000J0D01*
G01*
X161905000Y-69595000D01*
G75*
G02*
X161730000Y-69420000I0J175000D01*
G01*
X161730000Y-67820000D01*
G75*
G02*
X161905000Y-67645000I175000J0D01*
G01*
G37*
G36*
G01*
X161405000Y-67645000D02*
X161755000Y-67645000D01*
G75*
G02*
X161930000Y-67820000I0J-175000D01*
G01*
X161930000Y-69420000D01*
G75*
G02*
X161755000Y-69595000I-175000J0D01*
G01*
X161405000Y-69595000D01*
G75*
G02*
X161230000Y-69420000I0J175000D01*
G01*
X161230000Y-67820000D01*
G75*
G02*
X161405000Y-67645000I175000J0D01*
G01*
G37*
G36*
G01*
X160905000Y-67645000D02*
X161255000Y-67645000D01*
G75*
G02*
X161430000Y-67820000I0J-175000D01*
G01*
X161430000Y-69420000D01*
G75*
G02*
X161255000Y-69595000I-175000J0D01*
G01*
X160905000Y-69595000D01*
G75*
G02*
X160730000Y-69420000I0J175000D01*
G01*
X160730000Y-67820000D01*
G75*
G02*
X160905000Y-67645000I175000J0D01*
G01*
G37*
G36*
G01*
X160405000Y-67645000D02*
X160755000Y-67645000D01*
G75*
G02*
X160930000Y-67820000I0J-175000D01*
G01*
X160930000Y-69420000D01*
G75*
G02*
X160755000Y-69595000I-175000J0D01*
G01*
X160405000Y-69595000D01*
G75*
G02*
X160230000Y-69420000I0J175000D01*
G01*
X160230000Y-67820000D01*
G75*
G02*
X160405000Y-67645000I175000J0D01*
G01*
G37*
G36*
G01*
X159905000Y-67645000D02*
X160255000Y-67645000D01*
G75*
G02*
X160430000Y-67820000I0J-175000D01*
G01*
X160430000Y-69420000D01*
G75*
G02*
X160255000Y-69595000I-175000J0D01*
G01*
X159905000Y-69595000D01*
G75*
G02*
X159730000Y-69420000I0J175000D01*
G01*
X159730000Y-67820000D01*
G75*
G02*
X159905000Y-67645000I175000J0D01*
G01*
G37*
D16*
X136350500Y-103632000D03*
X138350500Y-104582000D03*
X138350500Y-102682000D03*
D17*
X201041000Y-114744500D03*
X198501000Y-114744500D03*
X195961000Y-114744500D03*
X193421000Y-114744500D03*
X190881000Y-114744500D03*
X188341000Y-114744500D03*
X185801000Y-114744500D03*
X183261000Y-114744500D03*
X180721000Y-114744500D03*
X178181000Y-114744500D03*
X175641000Y-114744500D03*
X173101000Y-114744500D03*
X170561000Y-114744500D03*
X168021000Y-114744500D03*
X165481000Y-114744500D03*
X162941000Y-114744500D03*
X160401000Y-114744500D03*
X157861000Y-114744500D03*
X155321000Y-114744500D03*
X152781000Y-114744500D03*
X150241000Y-114744500D03*
X147701000Y-114744500D03*
X145161000Y-114744500D03*
X142621000Y-114744500D03*
X140081000Y-114744500D03*
X137541000Y-114744500D03*
X135001000Y-114744500D03*
X132461000Y-114744500D03*
X129921000Y-114744500D03*
X127381000Y-114744500D03*
X124841000Y-114744500D03*
X122301000Y-114744500D03*
X124841000Y-119824500D03*
X201041000Y-119824500D03*
X198501000Y-119824500D03*
X195961000Y-119824500D03*
X193421000Y-119824500D03*
X190881000Y-119824500D03*
X188341000Y-119824500D03*
X185801000Y-119824500D03*
X183261000Y-119824500D03*
X180721000Y-119824500D03*
X178181000Y-119824500D03*
X175641000Y-119824500D03*
X173101000Y-119824500D03*
X170561000Y-119824500D03*
X168021000Y-119824500D03*
X165481000Y-119824500D03*
X162941000Y-119824500D03*
X160401000Y-119824500D03*
X157861000Y-119824500D03*
X155321000Y-119824500D03*
X152781000Y-119824500D03*
X150241000Y-119824500D03*
X147701000Y-119824500D03*
X145161000Y-119824500D03*
X142621000Y-119824500D03*
X140081000Y-119824500D03*
X137541000Y-119824500D03*
X135001000Y-119824500D03*
X132461000Y-119824500D03*
X129921000Y-119824500D03*
X127381000Y-119824500D03*
X122301000Y-119824500D03*
D18*
G36*
X153543000Y-86868000D02*
G01*
X146177000Y-86868000D01*
X146177000Y-80137000D01*
X153543000Y-80137000D01*
X153543000Y-86868000D01*
G37*
X153543000Y-86868000D02*
X146177000Y-86868000D01*
X146177000Y-80137000D01*
X153543000Y-80137000D01*
X153543000Y-86868000D01*
M02*
