G04 #@! TF.GenerationSoftware,KiCad,Pcbnew,5.1.6-c6e7f7d~87~ubuntu18.04.1*
G04 #@! TF.CreationDate,2020-08-09T22:57:09+01:00*
G04 #@! TF.ProjectId,ServerPSU_Breakout,53657276-6572-4505-9355-5f427265616b,B*
G04 #@! TF.SameCoordinates,Original*
G04 #@! TF.FileFunction,Paste,Bot*
G04 #@! TF.FilePolarity,Positive*
%FSLAX46Y46*%
G04 Gerber Fmt 4.6, Leading zero omitted, Abs format (unit mm)*
G04 Created by KiCad (PCBNEW 5.1.6-c6e7f7d~87~ubuntu18.04.1) date 2020-08-09 22:57:09*
%MOMM*%
%LPD*%
G01*
G04 APERTURE LIST*
%ADD10R,0.900000X0.800000*%
G04 APERTURE END LIST*
G36*
G01*
X127150000Y-93432500D02*
X126850000Y-93432500D01*
G75*
G02*
X126700000Y-93282500I0J150000D01*
G01*
X126700000Y-91632500D01*
G75*
G02*
X126850000Y-91482500I150000J0D01*
G01*
X127150000Y-91482500D01*
G75*
G02*
X127300000Y-91632500I0J-150000D01*
G01*
X127300000Y-93282500D01*
G75*
G02*
X127150000Y-93432500I-150000J0D01*
G01*
G37*
G36*
G01*
X125880000Y-93432500D02*
X125580000Y-93432500D01*
G75*
G02*
X125430000Y-93282500I0J150000D01*
G01*
X125430000Y-91632500D01*
G75*
G02*
X125580000Y-91482500I150000J0D01*
G01*
X125880000Y-91482500D01*
G75*
G02*
X126030000Y-91632500I0J-150000D01*
G01*
X126030000Y-93282500D01*
G75*
G02*
X125880000Y-93432500I-150000J0D01*
G01*
G37*
G36*
G01*
X124610000Y-93432500D02*
X124310000Y-93432500D01*
G75*
G02*
X124160000Y-93282500I0J150000D01*
G01*
X124160000Y-91632500D01*
G75*
G02*
X124310000Y-91482500I150000J0D01*
G01*
X124610000Y-91482500D01*
G75*
G02*
X124760000Y-91632500I0J-150000D01*
G01*
X124760000Y-93282500D01*
G75*
G02*
X124610000Y-93432500I-150000J0D01*
G01*
G37*
G36*
G01*
X123340000Y-93432500D02*
X123040000Y-93432500D01*
G75*
G02*
X122890000Y-93282500I0J150000D01*
G01*
X122890000Y-91632500D01*
G75*
G02*
X123040000Y-91482500I150000J0D01*
G01*
X123340000Y-91482500D01*
G75*
G02*
X123490000Y-91632500I0J-150000D01*
G01*
X123490000Y-93282500D01*
G75*
G02*
X123340000Y-93432500I-150000J0D01*
G01*
G37*
G36*
G01*
X122070000Y-93432500D02*
X121770000Y-93432500D01*
G75*
G02*
X121620000Y-93282500I0J150000D01*
G01*
X121620000Y-91632500D01*
G75*
G02*
X121770000Y-91482500I150000J0D01*
G01*
X122070000Y-91482500D01*
G75*
G02*
X122220000Y-91632500I0J-150000D01*
G01*
X122220000Y-93282500D01*
G75*
G02*
X122070000Y-93432500I-150000J0D01*
G01*
G37*
G36*
G01*
X120800000Y-93432500D02*
X120500000Y-93432500D01*
G75*
G02*
X120350000Y-93282500I0J150000D01*
G01*
X120350000Y-91632500D01*
G75*
G02*
X120500000Y-91482500I150000J0D01*
G01*
X120800000Y-91482500D01*
G75*
G02*
X120950000Y-91632500I0J-150000D01*
G01*
X120950000Y-93282500D01*
G75*
G02*
X120800000Y-93432500I-150000J0D01*
G01*
G37*
G36*
G01*
X119530000Y-93432500D02*
X119230000Y-93432500D01*
G75*
G02*
X119080000Y-93282500I0J150000D01*
G01*
X119080000Y-91632500D01*
G75*
G02*
X119230000Y-91482500I150000J0D01*
G01*
X119530000Y-91482500D01*
G75*
G02*
X119680000Y-91632500I0J-150000D01*
G01*
X119680000Y-93282500D01*
G75*
G02*
X119530000Y-93432500I-150000J0D01*
G01*
G37*
G36*
G01*
X119530000Y-98382500D02*
X119230000Y-98382500D01*
G75*
G02*
X119080000Y-98232500I0J150000D01*
G01*
X119080000Y-96582500D01*
G75*
G02*
X119230000Y-96432500I150000J0D01*
G01*
X119530000Y-96432500D01*
G75*
G02*
X119680000Y-96582500I0J-150000D01*
G01*
X119680000Y-98232500D01*
G75*
G02*
X119530000Y-98382500I-150000J0D01*
G01*
G37*
G36*
G01*
X120800000Y-98382500D02*
X120500000Y-98382500D01*
G75*
G02*
X120350000Y-98232500I0J150000D01*
G01*
X120350000Y-96582500D01*
G75*
G02*
X120500000Y-96432500I150000J0D01*
G01*
X120800000Y-96432500D01*
G75*
G02*
X120950000Y-96582500I0J-150000D01*
G01*
X120950000Y-98232500D01*
G75*
G02*
X120800000Y-98382500I-150000J0D01*
G01*
G37*
G36*
G01*
X122070000Y-98382500D02*
X121770000Y-98382500D01*
G75*
G02*
X121620000Y-98232500I0J150000D01*
G01*
X121620000Y-96582500D01*
G75*
G02*
X121770000Y-96432500I150000J0D01*
G01*
X122070000Y-96432500D01*
G75*
G02*
X122220000Y-96582500I0J-150000D01*
G01*
X122220000Y-98232500D01*
G75*
G02*
X122070000Y-98382500I-150000J0D01*
G01*
G37*
G36*
G01*
X123340000Y-98382500D02*
X123040000Y-98382500D01*
G75*
G02*
X122890000Y-98232500I0J150000D01*
G01*
X122890000Y-96582500D01*
G75*
G02*
X123040000Y-96432500I150000J0D01*
G01*
X123340000Y-96432500D01*
G75*
G02*
X123490000Y-96582500I0J-150000D01*
G01*
X123490000Y-98232500D01*
G75*
G02*
X123340000Y-98382500I-150000J0D01*
G01*
G37*
G36*
G01*
X124610000Y-98382500D02*
X124310000Y-98382500D01*
G75*
G02*
X124160000Y-98232500I0J150000D01*
G01*
X124160000Y-96582500D01*
G75*
G02*
X124310000Y-96432500I150000J0D01*
G01*
X124610000Y-96432500D01*
G75*
G02*
X124760000Y-96582500I0J-150000D01*
G01*
X124760000Y-98232500D01*
G75*
G02*
X124610000Y-98382500I-150000J0D01*
G01*
G37*
G36*
G01*
X125880000Y-98382500D02*
X125580000Y-98382500D01*
G75*
G02*
X125430000Y-98232500I0J150000D01*
G01*
X125430000Y-96582500D01*
G75*
G02*
X125580000Y-96432500I150000J0D01*
G01*
X125880000Y-96432500D01*
G75*
G02*
X126030000Y-96582500I0J-150000D01*
G01*
X126030000Y-98232500D01*
G75*
G02*
X125880000Y-98382500I-150000J0D01*
G01*
G37*
G36*
G01*
X127150000Y-98382500D02*
X126850000Y-98382500D01*
G75*
G02*
X126700000Y-98232500I0J150000D01*
G01*
X126700000Y-96582500D01*
G75*
G02*
X126850000Y-96432500I150000J0D01*
G01*
X127150000Y-96432500D01*
G75*
G02*
X127300000Y-96582500I0J-150000D01*
G01*
X127300000Y-98232500D01*
G75*
G02*
X127150000Y-98382500I-150000J0D01*
G01*
G37*
G36*
G01*
X127450001Y-88323000D02*
X126549999Y-88323000D01*
G75*
G02*
X126300000Y-88073001I0J249999D01*
G01*
X126300000Y-87422999D01*
G75*
G02*
X126549999Y-87173000I249999J0D01*
G01*
X127450001Y-87173000D01*
G75*
G02*
X127700000Y-87422999I0J-249999D01*
G01*
X127700000Y-88073001D01*
G75*
G02*
X127450001Y-88323000I-249999J0D01*
G01*
G37*
G36*
G01*
X127450001Y-90373000D02*
X126549999Y-90373000D01*
G75*
G02*
X126300000Y-90123001I0J249999D01*
G01*
X126300000Y-89472999D01*
G75*
G02*
X126549999Y-89223000I249999J0D01*
G01*
X127450001Y-89223000D01*
G75*
G02*
X127700000Y-89472999I0J-249999D01*
G01*
X127700000Y-90123001D01*
G75*
G02*
X127450001Y-90373000I-249999J0D01*
G01*
G37*
G36*
G01*
X122994000Y-71241499D02*
X122994000Y-72141501D01*
G75*
G02*
X122744001Y-72391500I-249999J0D01*
G01*
X122093999Y-72391500D01*
G75*
G02*
X121844000Y-72141501I0J249999D01*
G01*
X121844000Y-71241499D01*
G75*
G02*
X122093999Y-70991500I249999J0D01*
G01*
X122744001Y-70991500D01*
G75*
G02*
X122994000Y-71241499I0J-249999D01*
G01*
G37*
G36*
G01*
X125044000Y-71241499D02*
X125044000Y-72141501D01*
G75*
G02*
X124794001Y-72391500I-249999J0D01*
G01*
X124143999Y-72391500D01*
G75*
G02*
X123894000Y-72141501I0J249999D01*
G01*
X123894000Y-71241499D01*
G75*
G02*
X124143999Y-70991500I249999J0D01*
G01*
X124794001Y-70991500D01*
G75*
G02*
X125044000Y-71241499I0J-249999D01*
G01*
G37*
G36*
G01*
X123468000Y-73827500D02*
X123468000Y-74127500D01*
G75*
G02*
X123318000Y-74277500I-150000J0D01*
G01*
X121668000Y-74277500D01*
G75*
G02*
X121518000Y-74127500I0J150000D01*
G01*
X121518000Y-73827500D01*
G75*
G02*
X121668000Y-73677500I150000J0D01*
G01*
X123318000Y-73677500D01*
G75*
G02*
X123468000Y-73827500I0J-150000D01*
G01*
G37*
G36*
G01*
X123468000Y-75097500D02*
X123468000Y-75397500D01*
G75*
G02*
X123318000Y-75547500I-150000J0D01*
G01*
X121668000Y-75547500D01*
G75*
G02*
X121518000Y-75397500I0J150000D01*
G01*
X121518000Y-75097500D01*
G75*
G02*
X121668000Y-74947500I150000J0D01*
G01*
X123318000Y-74947500D01*
G75*
G02*
X123468000Y-75097500I0J-150000D01*
G01*
G37*
G36*
G01*
X123468000Y-76367500D02*
X123468000Y-76667500D01*
G75*
G02*
X123318000Y-76817500I-150000J0D01*
G01*
X121668000Y-76817500D01*
G75*
G02*
X121518000Y-76667500I0J150000D01*
G01*
X121518000Y-76367500D01*
G75*
G02*
X121668000Y-76217500I150000J0D01*
G01*
X123318000Y-76217500D01*
G75*
G02*
X123468000Y-76367500I0J-150000D01*
G01*
G37*
G36*
G01*
X123468000Y-77637500D02*
X123468000Y-77937500D01*
G75*
G02*
X123318000Y-78087500I-150000J0D01*
G01*
X121668000Y-78087500D01*
G75*
G02*
X121518000Y-77937500I0J150000D01*
G01*
X121518000Y-77637500D01*
G75*
G02*
X121668000Y-77487500I150000J0D01*
G01*
X123318000Y-77487500D01*
G75*
G02*
X123468000Y-77637500I0J-150000D01*
G01*
G37*
G36*
G01*
X123468000Y-78907500D02*
X123468000Y-79207500D01*
G75*
G02*
X123318000Y-79357500I-150000J0D01*
G01*
X121668000Y-79357500D01*
G75*
G02*
X121518000Y-79207500I0J150000D01*
G01*
X121518000Y-78907500D01*
G75*
G02*
X121668000Y-78757500I150000J0D01*
G01*
X123318000Y-78757500D01*
G75*
G02*
X123468000Y-78907500I0J-150000D01*
G01*
G37*
G36*
G01*
X123468000Y-80177500D02*
X123468000Y-80477500D01*
G75*
G02*
X123318000Y-80627500I-150000J0D01*
G01*
X121668000Y-80627500D01*
G75*
G02*
X121518000Y-80477500I0J150000D01*
G01*
X121518000Y-80177500D01*
G75*
G02*
X121668000Y-80027500I150000J0D01*
G01*
X123318000Y-80027500D01*
G75*
G02*
X123468000Y-80177500I0J-150000D01*
G01*
G37*
G36*
G01*
X123468000Y-81447500D02*
X123468000Y-81747500D01*
G75*
G02*
X123318000Y-81897500I-150000J0D01*
G01*
X121668000Y-81897500D01*
G75*
G02*
X121518000Y-81747500I0J150000D01*
G01*
X121518000Y-81447500D01*
G75*
G02*
X121668000Y-81297500I150000J0D01*
G01*
X123318000Y-81297500D01*
G75*
G02*
X123468000Y-81447500I0J-150000D01*
G01*
G37*
G36*
G01*
X123468000Y-82717500D02*
X123468000Y-83017500D01*
G75*
G02*
X123318000Y-83167500I-150000J0D01*
G01*
X121668000Y-83167500D01*
G75*
G02*
X121518000Y-83017500I0J150000D01*
G01*
X121518000Y-82717500D01*
G75*
G02*
X121668000Y-82567500I150000J0D01*
G01*
X123318000Y-82567500D01*
G75*
G02*
X123468000Y-82717500I0J-150000D01*
G01*
G37*
G36*
G01*
X128418000Y-82717500D02*
X128418000Y-83017500D01*
G75*
G02*
X128268000Y-83167500I-150000J0D01*
G01*
X126618000Y-83167500D01*
G75*
G02*
X126468000Y-83017500I0J150000D01*
G01*
X126468000Y-82717500D01*
G75*
G02*
X126618000Y-82567500I150000J0D01*
G01*
X128268000Y-82567500D01*
G75*
G02*
X128418000Y-82717500I0J-150000D01*
G01*
G37*
G36*
G01*
X128418000Y-81447500D02*
X128418000Y-81747500D01*
G75*
G02*
X128268000Y-81897500I-150000J0D01*
G01*
X126618000Y-81897500D01*
G75*
G02*
X126468000Y-81747500I0J150000D01*
G01*
X126468000Y-81447500D01*
G75*
G02*
X126618000Y-81297500I150000J0D01*
G01*
X128268000Y-81297500D01*
G75*
G02*
X128418000Y-81447500I0J-150000D01*
G01*
G37*
G36*
G01*
X128418000Y-80177500D02*
X128418000Y-80477500D01*
G75*
G02*
X128268000Y-80627500I-150000J0D01*
G01*
X126618000Y-80627500D01*
G75*
G02*
X126468000Y-80477500I0J150000D01*
G01*
X126468000Y-80177500D01*
G75*
G02*
X126618000Y-80027500I150000J0D01*
G01*
X128268000Y-80027500D01*
G75*
G02*
X128418000Y-80177500I0J-150000D01*
G01*
G37*
G36*
G01*
X128418000Y-78907500D02*
X128418000Y-79207500D01*
G75*
G02*
X128268000Y-79357500I-150000J0D01*
G01*
X126618000Y-79357500D01*
G75*
G02*
X126468000Y-79207500I0J150000D01*
G01*
X126468000Y-78907500D01*
G75*
G02*
X126618000Y-78757500I150000J0D01*
G01*
X128268000Y-78757500D01*
G75*
G02*
X128418000Y-78907500I0J-150000D01*
G01*
G37*
G36*
G01*
X128418000Y-77637500D02*
X128418000Y-77937500D01*
G75*
G02*
X128268000Y-78087500I-150000J0D01*
G01*
X126618000Y-78087500D01*
G75*
G02*
X126468000Y-77937500I0J150000D01*
G01*
X126468000Y-77637500D01*
G75*
G02*
X126618000Y-77487500I150000J0D01*
G01*
X128268000Y-77487500D01*
G75*
G02*
X128418000Y-77637500I0J-150000D01*
G01*
G37*
G36*
G01*
X128418000Y-76367500D02*
X128418000Y-76667500D01*
G75*
G02*
X128268000Y-76817500I-150000J0D01*
G01*
X126618000Y-76817500D01*
G75*
G02*
X126468000Y-76667500I0J150000D01*
G01*
X126468000Y-76367500D01*
G75*
G02*
X126618000Y-76217500I150000J0D01*
G01*
X128268000Y-76217500D01*
G75*
G02*
X128418000Y-76367500I0J-150000D01*
G01*
G37*
G36*
G01*
X128418000Y-75097500D02*
X128418000Y-75397500D01*
G75*
G02*
X128268000Y-75547500I-150000J0D01*
G01*
X126618000Y-75547500D01*
G75*
G02*
X126468000Y-75397500I0J150000D01*
G01*
X126468000Y-75097500D01*
G75*
G02*
X126618000Y-74947500I150000J0D01*
G01*
X128268000Y-74947500D01*
G75*
G02*
X128418000Y-75097500I0J-150000D01*
G01*
G37*
G36*
G01*
X128418000Y-73827500D02*
X128418000Y-74127500D01*
G75*
G02*
X128268000Y-74277500I-150000J0D01*
G01*
X126618000Y-74277500D01*
G75*
G02*
X126468000Y-74127500I0J150000D01*
G01*
X126468000Y-73827500D01*
G75*
G02*
X126618000Y-73677500I150000J0D01*
G01*
X128268000Y-73677500D01*
G75*
G02*
X128418000Y-73827500I0J-150000D01*
G01*
G37*
G36*
G01*
X130740999Y-79253500D02*
X131641001Y-79253500D01*
G75*
G02*
X131891000Y-79503499I0J-249999D01*
G01*
X131891000Y-80153501D01*
G75*
G02*
X131641001Y-80403500I-249999J0D01*
G01*
X130740999Y-80403500D01*
G75*
G02*
X130491000Y-80153501I0J249999D01*
G01*
X130491000Y-79503499D01*
G75*
G02*
X130740999Y-79253500I249999J0D01*
G01*
G37*
G36*
G01*
X130740999Y-77203500D02*
X131641001Y-77203500D01*
G75*
G02*
X131891000Y-77453499I0J-249999D01*
G01*
X131891000Y-78103501D01*
G75*
G02*
X131641001Y-78353500I-249999J0D01*
G01*
X130740999Y-78353500D01*
G75*
G02*
X130491000Y-78103501I0J249999D01*
G01*
X130491000Y-77453499D01*
G75*
G02*
X130740999Y-77203500I249999J0D01*
G01*
G37*
G36*
G01*
X131641001Y-73781500D02*
X130740999Y-73781500D01*
G75*
G02*
X130491000Y-73531501I0J249999D01*
G01*
X130491000Y-72881499D01*
G75*
G02*
X130740999Y-72631500I249999J0D01*
G01*
X131641001Y-72631500D01*
G75*
G02*
X131891000Y-72881499I0J-249999D01*
G01*
X131891000Y-73531501D01*
G75*
G02*
X131641001Y-73781500I-249999J0D01*
G01*
G37*
G36*
G01*
X131641001Y-75831500D02*
X130740999Y-75831500D01*
G75*
G02*
X130491000Y-75581501I0J249999D01*
G01*
X130491000Y-74931499D01*
G75*
G02*
X130740999Y-74681500I249999J0D01*
G01*
X131641001Y-74681500D01*
G75*
G02*
X131891000Y-74931499I0J-249999D01*
G01*
X131891000Y-75581501D01*
G75*
G02*
X131641001Y-75831500I-249999J0D01*
G01*
G37*
G36*
G01*
X127947000Y-84322499D02*
X127947000Y-85222501D01*
G75*
G02*
X127697001Y-85472500I-249999J0D01*
G01*
X127046999Y-85472500D01*
G75*
G02*
X126797000Y-85222501I0J249999D01*
G01*
X126797000Y-84322499D01*
G75*
G02*
X127046999Y-84072500I249999J0D01*
G01*
X127697001Y-84072500D01*
G75*
G02*
X127947000Y-84322499I0J-249999D01*
G01*
G37*
G36*
G01*
X129997000Y-84322499D02*
X129997000Y-85222501D01*
G75*
G02*
X129747001Y-85472500I-249999J0D01*
G01*
X129096999Y-85472500D01*
G75*
G02*
X128847000Y-85222501I0J249999D01*
G01*
X128847000Y-84322499D01*
G75*
G02*
X129096999Y-84072500I249999J0D01*
G01*
X129747001Y-84072500D01*
G75*
G02*
X129997000Y-84322499I0J-249999D01*
G01*
G37*
G36*
G01*
X127831001Y-70162000D02*
X126930999Y-70162000D01*
G75*
G02*
X126681000Y-69912001I0J249999D01*
G01*
X126681000Y-69261999D01*
G75*
G02*
X126930999Y-69012000I249999J0D01*
G01*
X127831001Y-69012000D01*
G75*
G02*
X128081000Y-69261999I0J-249999D01*
G01*
X128081000Y-69912001D01*
G75*
G02*
X127831001Y-70162000I-249999J0D01*
G01*
G37*
G36*
G01*
X127831001Y-72212000D02*
X126930999Y-72212000D01*
G75*
G02*
X126681000Y-71962001I0J249999D01*
G01*
X126681000Y-71311999D01*
G75*
G02*
X126930999Y-71062000I249999J0D01*
G01*
X127831001Y-71062000D01*
G75*
G02*
X128081000Y-71311999I0J-249999D01*
G01*
X128081000Y-71962001D01*
G75*
G02*
X127831001Y-72212000I-249999J0D01*
G01*
G37*
G36*
G01*
X117532999Y-86619500D02*
X118433001Y-86619500D01*
G75*
G02*
X118683000Y-86869499I0J-249999D01*
G01*
X118683000Y-87519501D01*
G75*
G02*
X118433001Y-87769500I-249999J0D01*
G01*
X117532999Y-87769500D01*
G75*
G02*
X117283000Y-87519501I0J249999D01*
G01*
X117283000Y-86869499D01*
G75*
G02*
X117532999Y-86619500I249999J0D01*
G01*
G37*
G36*
G01*
X117532999Y-84569500D02*
X118433001Y-84569500D01*
G75*
G02*
X118683000Y-84819499I0J-249999D01*
G01*
X118683000Y-85469501D01*
G75*
G02*
X118433001Y-85719500I-249999J0D01*
G01*
X117532999Y-85719500D01*
G75*
G02*
X117283000Y-85469501I0J249999D01*
G01*
X117283000Y-84819499D01*
G75*
G02*
X117532999Y-84569500I249999J0D01*
G01*
G37*
G36*
G01*
X120338001Y-70479500D02*
X119437999Y-70479500D01*
G75*
G02*
X119188000Y-70229501I0J249999D01*
G01*
X119188000Y-69579499D01*
G75*
G02*
X119437999Y-69329500I249999J0D01*
G01*
X120338001Y-69329500D01*
G75*
G02*
X120588000Y-69579499I0J-249999D01*
G01*
X120588000Y-70229501D01*
G75*
G02*
X120338001Y-70479500I-249999J0D01*
G01*
G37*
G36*
G01*
X120338001Y-72529500D02*
X119437999Y-72529500D01*
G75*
G02*
X119188000Y-72279501I0J249999D01*
G01*
X119188000Y-71629499D01*
G75*
G02*
X119437999Y-71379500I249999J0D01*
G01*
X120338001Y-71379500D01*
G75*
G02*
X120588000Y-71629499I0J-249999D01*
G01*
X120588000Y-72279501D01*
G75*
G02*
X120338001Y-72529500I-249999J0D01*
G01*
G37*
G36*
G01*
X118877501Y-74607000D02*
X117977499Y-74607000D01*
G75*
G02*
X117727500Y-74357001I0J249999D01*
G01*
X117727500Y-73706999D01*
G75*
G02*
X117977499Y-73457000I249999J0D01*
G01*
X118877501Y-73457000D01*
G75*
G02*
X119127500Y-73706999I0J-249999D01*
G01*
X119127500Y-74357001D01*
G75*
G02*
X118877501Y-74607000I-249999J0D01*
G01*
G37*
G36*
G01*
X118877501Y-76657000D02*
X117977499Y-76657000D01*
G75*
G02*
X117727500Y-76407001I0J249999D01*
G01*
X117727500Y-75756999D01*
G75*
G02*
X117977499Y-75507000I249999J0D01*
G01*
X118877501Y-75507000D01*
G75*
G02*
X119127500Y-75756999I0J-249999D01*
G01*
X119127500Y-76407001D01*
G75*
G02*
X118877501Y-76657000I-249999J0D01*
G01*
G37*
G36*
G01*
X117977499Y-79571000D02*
X118877501Y-79571000D01*
G75*
G02*
X119127500Y-79820999I0J-249999D01*
G01*
X119127500Y-80471001D01*
G75*
G02*
X118877501Y-80721000I-249999J0D01*
G01*
X117977499Y-80721000D01*
G75*
G02*
X117727500Y-80471001I0J249999D01*
G01*
X117727500Y-79820999D01*
G75*
G02*
X117977499Y-79571000I249999J0D01*
G01*
G37*
G36*
G01*
X117977499Y-77521000D02*
X118877501Y-77521000D01*
G75*
G02*
X119127500Y-77770999I0J-249999D01*
G01*
X119127500Y-78421001D01*
G75*
G02*
X118877501Y-78671000I-249999J0D01*
G01*
X117977499Y-78671000D01*
G75*
G02*
X117727500Y-78421001I0J249999D01*
G01*
X117727500Y-77770999D01*
G75*
G02*
X117977499Y-77521000I249999J0D01*
G01*
G37*
G36*
G01*
X120199999Y-89223000D02*
X121100001Y-89223000D01*
G75*
G02*
X121350000Y-89472999I0J-249999D01*
G01*
X121350000Y-90123001D01*
G75*
G02*
X121100001Y-90373000I-249999J0D01*
G01*
X120199999Y-90373000D01*
G75*
G02*
X119950000Y-90123001I0J249999D01*
G01*
X119950000Y-89472999D01*
G75*
G02*
X120199999Y-89223000I249999J0D01*
G01*
G37*
G36*
G01*
X120199999Y-87173000D02*
X121100001Y-87173000D01*
G75*
G02*
X121350000Y-87422999I0J-249999D01*
G01*
X121350000Y-88073001D01*
G75*
G02*
X121100001Y-88323000I-249999J0D01*
G01*
X120199999Y-88323000D01*
G75*
G02*
X119950000Y-88073001I0J249999D01*
G01*
X119950000Y-87422999D01*
G75*
G02*
X120199999Y-87173000I249999J0D01*
G01*
G37*
G36*
G01*
X124910001Y-101785000D02*
X124009999Y-101785000D01*
G75*
G02*
X123760000Y-101535001I0J249999D01*
G01*
X123760000Y-100884999D01*
G75*
G02*
X124009999Y-100635000I249999J0D01*
G01*
X124910001Y-100635000D01*
G75*
G02*
X125160000Y-100884999I0J-249999D01*
G01*
X125160000Y-101535001D01*
G75*
G02*
X124910001Y-101785000I-249999J0D01*
G01*
G37*
G36*
G01*
X124910001Y-103835000D02*
X124009999Y-103835000D01*
G75*
G02*
X123760000Y-103585001I0J249999D01*
G01*
X123760000Y-102934999D01*
G75*
G02*
X124009999Y-102685000I249999J0D01*
G01*
X124910001Y-102685000D01*
G75*
G02*
X125160000Y-102934999I0J-249999D01*
G01*
X125160000Y-103585001D01*
G75*
G02*
X124910001Y-103835000I-249999J0D01*
G01*
G37*
G36*
G01*
X127831001Y-101785000D02*
X126930999Y-101785000D01*
G75*
G02*
X126681000Y-101535001I0J249999D01*
G01*
X126681000Y-100884999D01*
G75*
G02*
X126930999Y-100635000I249999J0D01*
G01*
X127831001Y-100635000D01*
G75*
G02*
X128081000Y-100884999I0J-249999D01*
G01*
X128081000Y-101535001D01*
G75*
G02*
X127831001Y-101785000I-249999J0D01*
G01*
G37*
G36*
G01*
X127831001Y-103835000D02*
X126930999Y-103835000D01*
G75*
G02*
X126681000Y-103585001I0J249999D01*
G01*
X126681000Y-102934999D01*
G75*
G02*
X126930999Y-102685000I249999J0D01*
G01*
X127831001Y-102685000D01*
G75*
G02*
X128081000Y-102934999I0J-249999D01*
G01*
X128081000Y-103585001D01*
G75*
G02*
X127831001Y-103835000I-249999J0D01*
G01*
G37*
G36*
G01*
X157455000Y-70395000D02*
X158855000Y-70395000D01*
G75*
G02*
X158930000Y-70470000I0J-75000D01*
G01*
X158930000Y-70620000D01*
G75*
G02*
X158855000Y-70695000I-75000J0D01*
G01*
X157455000Y-70695000D01*
G75*
G02*
X157380000Y-70620000I0J75000D01*
G01*
X157380000Y-70470000D01*
G75*
G02*
X157455000Y-70395000I75000J0D01*
G01*
G37*
G36*
G01*
X157455000Y-70895000D02*
X158855000Y-70895000D01*
G75*
G02*
X158930000Y-70970000I0J-75000D01*
G01*
X158930000Y-71120000D01*
G75*
G02*
X158855000Y-71195000I-75000J0D01*
G01*
X157455000Y-71195000D01*
G75*
G02*
X157380000Y-71120000I0J75000D01*
G01*
X157380000Y-70970000D01*
G75*
G02*
X157455000Y-70895000I75000J0D01*
G01*
G37*
G36*
G01*
X157455000Y-71395000D02*
X158855000Y-71395000D01*
G75*
G02*
X158930000Y-71470000I0J-75000D01*
G01*
X158930000Y-71620000D01*
G75*
G02*
X158855000Y-71695000I-75000J0D01*
G01*
X157455000Y-71695000D01*
G75*
G02*
X157380000Y-71620000I0J75000D01*
G01*
X157380000Y-71470000D01*
G75*
G02*
X157455000Y-71395000I75000J0D01*
G01*
G37*
G36*
G01*
X157455000Y-71895000D02*
X158855000Y-71895000D01*
G75*
G02*
X158930000Y-71970000I0J-75000D01*
G01*
X158930000Y-72120000D01*
G75*
G02*
X158855000Y-72195000I-75000J0D01*
G01*
X157455000Y-72195000D01*
G75*
G02*
X157380000Y-72120000I0J75000D01*
G01*
X157380000Y-71970000D01*
G75*
G02*
X157455000Y-71895000I75000J0D01*
G01*
G37*
G36*
G01*
X157455000Y-72395000D02*
X158855000Y-72395000D01*
G75*
G02*
X158930000Y-72470000I0J-75000D01*
G01*
X158930000Y-72620000D01*
G75*
G02*
X158855000Y-72695000I-75000J0D01*
G01*
X157455000Y-72695000D01*
G75*
G02*
X157380000Y-72620000I0J75000D01*
G01*
X157380000Y-72470000D01*
G75*
G02*
X157455000Y-72395000I75000J0D01*
G01*
G37*
G36*
G01*
X157455000Y-72895000D02*
X158855000Y-72895000D01*
G75*
G02*
X158930000Y-72970000I0J-75000D01*
G01*
X158930000Y-73120000D01*
G75*
G02*
X158855000Y-73195000I-75000J0D01*
G01*
X157455000Y-73195000D01*
G75*
G02*
X157380000Y-73120000I0J75000D01*
G01*
X157380000Y-72970000D01*
G75*
G02*
X157455000Y-72895000I75000J0D01*
G01*
G37*
G36*
G01*
X157455000Y-73395000D02*
X158855000Y-73395000D01*
G75*
G02*
X158930000Y-73470000I0J-75000D01*
G01*
X158930000Y-73620000D01*
G75*
G02*
X158855000Y-73695000I-75000J0D01*
G01*
X157455000Y-73695000D01*
G75*
G02*
X157380000Y-73620000I0J75000D01*
G01*
X157380000Y-73470000D01*
G75*
G02*
X157455000Y-73395000I75000J0D01*
G01*
G37*
G36*
G01*
X157455000Y-73895000D02*
X158855000Y-73895000D01*
G75*
G02*
X158930000Y-73970000I0J-75000D01*
G01*
X158930000Y-74120000D01*
G75*
G02*
X158855000Y-74195000I-75000J0D01*
G01*
X157455000Y-74195000D01*
G75*
G02*
X157380000Y-74120000I0J75000D01*
G01*
X157380000Y-73970000D01*
G75*
G02*
X157455000Y-73895000I75000J0D01*
G01*
G37*
G36*
G01*
X157455000Y-74395000D02*
X158855000Y-74395000D01*
G75*
G02*
X158930000Y-74470000I0J-75000D01*
G01*
X158930000Y-74620000D01*
G75*
G02*
X158855000Y-74695000I-75000J0D01*
G01*
X157455000Y-74695000D01*
G75*
G02*
X157380000Y-74620000I0J75000D01*
G01*
X157380000Y-74470000D01*
G75*
G02*
X157455000Y-74395000I75000J0D01*
G01*
G37*
G36*
G01*
X157455000Y-74895000D02*
X158855000Y-74895000D01*
G75*
G02*
X158930000Y-74970000I0J-75000D01*
G01*
X158930000Y-75120000D01*
G75*
G02*
X158855000Y-75195000I-75000J0D01*
G01*
X157455000Y-75195000D01*
G75*
G02*
X157380000Y-75120000I0J75000D01*
G01*
X157380000Y-74970000D01*
G75*
G02*
X157455000Y-74895000I75000J0D01*
G01*
G37*
G36*
G01*
X157455000Y-75395000D02*
X158855000Y-75395000D01*
G75*
G02*
X158930000Y-75470000I0J-75000D01*
G01*
X158930000Y-75620000D01*
G75*
G02*
X158855000Y-75695000I-75000J0D01*
G01*
X157455000Y-75695000D01*
G75*
G02*
X157380000Y-75620000I0J75000D01*
G01*
X157380000Y-75470000D01*
G75*
G02*
X157455000Y-75395000I75000J0D01*
G01*
G37*
G36*
G01*
X157455000Y-75895000D02*
X158855000Y-75895000D01*
G75*
G02*
X158930000Y-75970000I0J-75000D01*
G01*
X158930000Y-76120000D01*
G75*
G02*
X158855000Y-76195000I-75000J0D01*
G01*
X157455000Y-76195000D01*
G75*
G02*
X157380000Y-76120000I0J75000D01*
G01*
X157380000Y-75970000D01*
G75*
G02*
X157455000Y-75895000I75000J0D01*
G01*
G37*
G36*
G01*
X157455000Y-76395000D02*
X158855000Y-76395000D01*
G75*
G02*
X158930000Y-76470000I0J-75000D01*
G01*
X158930000Y-76620000D01*
G75*
G02*
X158855000Y-76695000I-75000J0D01*
G01*
X157455000Y-76695000D01*
G75*
G02*
X157380000Y-76620000I0J75000D01*
G01*
X157380000Y-76470000D01*
G75*
G02*
X157455000Y-76395000I75000J0D01*
G01*
G37*
G36*
G01*
X157455000Y-76895000D02*
X158855000Y-76895000D01*
G75*
G02*
X158930000Y-76970000I0J-75000D01*
G01*
X158930000Y-77120000D01*
G75*
G02*
X158855000Y-77195000I-75000J0D01*
G01*
X157455000Y-77195000D01*
G75*
G02*
X157380000Y-77120000I0J75000D01*
G01*
X157380000Y-76970000D01*
G75*
G02*
X157455000Y-76895000I75000J0D01*
G01*
G37*
G36*
G01*
X157455000Y-77395000D02*
X158855000Y-77395000D01*
G75*
G02*
X158930000Y-77470000I0J-75000D01*
G01*
X158930000Y-77620000D01*
G75*
G02*
X158855000Y-77695000I-75000J0D01*
G01*
X157455000Y-77695000D01*
G75*
G02*
X157380000Y-77620000I0J75000D01*
G01*
X157380000Y-77470000D01*
G75*
G02*
X157455000Y-77395000I75000J0D01*
G01*
G37*
G36*
G01*
X157455000Y-77895000D02*
X158855000Y-77895000D01*
G75*
G02*
X158930000Y-77970000I0J-75000D01*
G01*
X158930000Y-78120000D01*
G75*
G02*
X158855000Y-78195000I-75000J0D01*
G01*
X157455000Y-78195000D01*
G75*
G02*
X157380000Y-78120000I0J75000D01*
G01*
X157380000Y-77970000D01*
G75*
G02*
X157455000Y-77895000I75000J0D01*
G01*
G37*
G36*
G01*
X160005000Y-79195000D02*
X160155000Y-79195000D01*
G75*
G02*
X160230000Y-79270000I0J-75000D01*
G01*
X160230000Y-80670000D01*
G75*
G02*
X160155000Y-80745000I-75000J0D01*
G01*
X160005000Y-80745000D01*
G75*
G02*
X159930000Y-80670000I0J75000D01*
G01*
X159930000Y-79270000D01*
G75*
G02*
X160005000Y-79195000I75000J0D01*
G01*
G37*
G36*
G01*
X160505000Y-79195000D02*
X160655000Y-79195000D01*
G75*
G02*
X160730000Y-79270000I0J-75000D01*
G01*
X160730000Y-80670000D01*
G75*
G02*
X160655000Y-80745000I-75000J0D01*
G01*
X160505000Y-80745000D01*
G75*
G02*
X160430000Y-80670000I0J75000D01*
G01*
X160430000Y-79270000D01*
G75*
G02*
X160505000Y-79195000I75000J0D01*
G01*
G37*
G36*
G01*
X161005000Y-79195000D02*
X161155000Y-79195000D01*
G75*
G02*
X161230000Y-79270000I0J-75000D01*
G01*
X161230000Y-80670000D01*
G75*
G02*
X161155000Y-80745000I-75000J0D01*
G01*
X161005000Y-80745000D01*
G75*
G02*
X160930000Y-80670000I0J75000D01*
G01*
X160930000Y-79270000D01*
G75*
G02*
X161005000Y-79195000I75000J0D01*
G01*
G37*
G36*
G01*
X161505000Y-79195000D02*
X161655000Y-79195000D01*
G75*
G02*
X161730000Y-79270000I0J-75000D01*
G01*
X161730000Y-80670000D01*
G75*
G02*
X161655000Y-80745000I-75000J0D01*
G01*
X161505000Y-80745000D01*
G75*
G02*
X161430000Y-80670000I0J75000D01*
G01*
X161430000Y-79270000D01*
G75*
G02*
X161505000Y-79195000I75000J0D01*
G01*
G37*
G36*
G01*
X162005000Y-79195000D02*
X162155000Y-79195000D01*
G75*
G02*
X162230000Y-79270000I0J-75000D01*
G01*
X162230000Y-80670000D01*
G75*
G02*
X162155000Y-80745000I-75000J0D01*
G01*
X162005000Y-80745000D01*
G75*
G02*
X161930000Y-80670000I0J75000D01*
G01*
X161930000Y-79270000D01*
G75*
G02*
X162005000Y-79195000I75000J0D01*
G01*
G37*
G36*
G01*
X162505000Y-79195000D02*
X162655000Y-79195000D01*
G75*
G02*
X162730000Y-79270000I0J-75000D01*
G01*
X162730000Y-80670000D01*
G75*
G02*
X162655000Y-80745000I-75000J0D01*
G01*
X162505000Y-80745000D01*
G75*
G02*
X162430000Y-80670000I0J75000D01*
G01*
X162430000Y-79270000D01*
G75*
G02*
X162505000Y-79195000I75000J0D01*
G01*
G37*
G36*
G01*
X163005000Y-79195000D02*
X163155000Y-79195000D01*
G75*
G02*
X163230000Y-79270000I0J-75000D01*
G01*
X163230000Y-80670000D01*
G75*
G02*
X163155000Y-80745000I-75000J0D01*
G01*
X163005000Y-80745000D01*
G75*
G02*
X162930000Y-80670000I0J75000D01*
G01*
X162930000Y-79270000D01*
G75*
G02*
X163005000Y-79195000I75000J0D01*
G01*
G37*
G36*
G01*
X163505000Y-79195000D02*
X163655000Y-79195000D01*
G75*
G02*
X163730000Y-79270000I0J-75000D01*
G01*
X163730000Y-80670000D01*
G75*
G02*
X163655000Y-80745000I-75000J0D01*
G01*
X163505000Y-80745000D01*
G75*
G02*
X163430000Y-80670000I0J75000D01*
G01*
X163430000Y-79270000D01*
G75*
G02*
X163505000Y-79195000I75000J0D01*
G01*
G37*
G36*
G01*
X164005000Y-79195000D02*
X164155000Y-79195000D01*
G75*
G02*
X164230000Y-79270000I0J-75000D01*
G01*
X164230000Y-80670000D01*
G75*
G02*
X164155000Y-80745000I-75000J0D01*
G01*
X164005000Y-80745000D01*
G75*
G02*
X163930000Y-80670000I0J75000D01*
G01*
X163930000Y-79270000D01*
G75*
G02*
X164005000Y-79195000I75000J0D01*
G01*
G37*
G36*
G01*
X164505000Y-79195000D02*
X164655000Y-79195000D01*
G75*
G02*
X164730000Y-79270000I0J-75000D01*
G01*
X164730000Y-80670000D01*
G75*
G02*
X164655000Y-80745000I-75000J0D01*
G01*
X164505000Y-80745000D01*
G75*
G02*
X164430000Y-80670000I0J75000D01*
G01*
X164430000Y-79270000D01*
G75*
G02*
X164505000Y-79195000I75000J0D01*
G01*
G37*
G36*
G01*
X165005000Y-79195000D02*
X165155000Y-79195000D01*
G75*
G02*
X165230000Y-79270000I0J-75000D01*
G01*
X165230000Y-80670000D01*
G75*
G02*
X165155000Y-80745000I-75000J0D01*
G01*
X165005000Y-80745000D01*
G75*
G02*
X164930000Y-80670000I0J75000D01*
G01*
X164930000Y-79270000D01*
G75*
G02*
X165005000Y-79195000I75000J0D01*
G01*
G37*
G36*
G01*
X165505000Y-79195000D02*
X165655000Y-79195000D01*
G75*
G02*
X165730000Y-79270000I0J-75000D01*
G01*
X165730000Y-80670000D01*
G75*
G02*
X165655000Y-80745000I-75000J0D01*
G01*
X165505000Y-80745000D01*
G75*
G02*
X165430000Y-80670000I0J75000D01*
G01*
X165430000Y-79270000D01*
G75*
G02*
X165505000Y-79195000I75000J0D01*
G01*
G37*
G36*
G01*
X166005000Y-79195000D02*
X166155000Y-79195000D01*
G75*
G02*
X166230000Y-79270000I0J-75000D01*
G01*
X166230000Y-80670000D01*
G75*
G02*
X166155000Y-80745000I-75000J0D01*
G01*
X166005000Y-80745000D01*
G75*
G02*
X165930000Y-80670000I0J75000D01*
G01*
X165930000Y-79270000D01*
G75*
G02*
X166005000Y-79195000I75000J0D01*
G01*
G37*
G36*
G01*
X166505000Y-79195000D02*
X166655000Y-79195000D01*
G75*
G02*
X166730000Y-79270000I0J-75000D01*
G01*
X166730000Y-80670000D01*
G75*
G02*
X166655000Y-80745000I-75000J0D01*
G01*
X166505000Y-80745000D01*
G75*
G02*
X166430000Y-80670000I0J75000D01*
G01*
X166430000Y-79270000D01*
G75*
G02*
X166505000Y-79195000I75000J0D01*
G01*
G37*
G36*
G01*
X167005000Y-79195000D02*
X167155000Y-79195000D01*
G75*
G02*
X167230000Y-79270000I0J-75000D01*
G01*
X167230000Y-80670000D01*
G75*
G02*
X167155000Y-80745000I-75000J0D01*
G01*
X167005000Y-80745000D01*
G75*
G02*
X166930000Y-80670000I0J75000D01*
G01*
X166930000Y-79270000D01*
G75*
G02*
X167005000Y-79195000I75000J0D01*
G01*
G37*
G36*
G01*
X167505000Y-79195000D02*
X167655000Y-79195000D01*
G75*
G02*
X167730000Y-79270000I0J-75000D01*
G01*
X167730000Y-80670000D01*
G75*
G02*
X167655000Y-80745000I-75000J0D01*
G01*
X167505000Y-80745000D01*
G75*
G02*
X167430000Y-80670000I0J75000D01*
G01*
X167430000Y-79270000D01*
G75*
G02*
X167505000Y-79195000I75000J0D01*
G01*
G37*
G36*
G01*
X168805000Y-77895000D02*
X170205000Y-77895000D01*
G75*
G02*
X170280000Y-77970000I0J-75000D01*
G01*
X170280000Y-78120000D01*
G75*
G02*
X170205000Y-78195000I-75000J0D01*
G01*
X168805000Y-78195000D01*
G75*
G02*
X168730000Y-78120000I0J75000D01*
G01*
X168730000Y-77970000D01*
G75*
G02*
X168805000Y-77895000I75000J0D01*
G01*
G37*
G36*
G01*
X168805000Y-77395000D02*
X170205000Y-77395000D01*
G75*
G02*
X170280000Y-77470000I0J-75000D01*
G01*
X170280000Y-77620000D01*
G75*
G02*
X170205000Y-77695000I-75000J0D01*
G01*
X168805000Y-77695000D01*
G75*
G02*
X168730000Y-77620000I0J75000D01*
G01*
X168730000Y-77470000D01*
G75*
G02*
X168805000Y-77395000I75000J0D01*
G01*
G37*
G36*
G01*
X168805000Y-76895000D02*
X170205000Y-76895000D01*
G75*
G02*
X170280000Y-76970000I0J-75000D01*
G01*
X170280000Y-77120000D01*
G75*
G02*
X170205000Y-77195000I-75000J0D01*
G01*
X168805000Y-77195000D01*
G75*
G02*
X168730000Y-77120000I0J75000D01*
G01*
X168730000Y-76970000D01*
G75*
G02*
X168805000Y-76895000I75000J0D01*
G01*
G37*
G36*
G01*
X168805000Y-76395000D02*
X170205000Y-76395000D01*
G75*
G02*
X170280000Y-76470000I0J-75000D01*
G01*
X170280000Y-76620000D01*
G75*
G02*
X170205000Y-76695000I-75000J0D01*
G01*
X168805000Y-76695000D01*
G75*
G02*
X168730000Y-76620000I0J75000D01*
G01*
X168730000Y-76470000D01*
G75*
G02*
X168805000Y-76395000I75000J0D01*
G01*
G37*
G36*
G01*
X168805000Y-75895000D02*
X170205000Y-75895000D01*
G75*
G02*
X170280000Y-75970000I0J-75000D01*
G01*
X170280000Y-76120000D01*
G75*
G02*
X170205000Y-76195000I-75000J0D01*
G01*
X168805000Y-76195000D01*
G75*
G02*
X168730000Y-76120000I0J75000D01*
G01*
X168730000Y-75970000D01*
G75*
G02*
X168805000Y-75895000I75000J0D01*
G01*
G37*
G36*
G01*
X168805000Y-75395000D02*
X170205000Y-75395000D01*
G75*
G02*
X170280000Y-75470000I0J-75000D01*
G01*
X170280000Y-75620000D01*
G75*
G02*
X170205000Y-75695000I-75000J0D01*
G01*
X168805000Y-75695000D01*
G75*
G02*
X168730000Y-75620000I0J75000D01*
G01*
X168730000Y-75470000D01*
G75*
G02*
X168805000Y-75395000I75000J0D01*
G01*
G37*
G36*
G01*
X168805000Y-74895000D02*
X170205000Y-74895000D01*
G75*
G02*
X170280000Y-74970000I0J-75000D01*
G01*
X170280000Y-75120000D01*
G75*
G02*
X170205000Y-75195000I-75000J0D01*
G01*
X168805000Y-75195000D01*
G75*
G02*
X168730000Y-75120000I0J75000D01*
G01*
X168730000Y-74970000D01*
G75*
G02*
X168805000Y-74895000I75000J0D01*
G01*
G37*
G36*
G01*
X168805000Y-74395000D02*
X170205000Y-74395000D01*
G75*
G02*
X170280000Y-74470000I0J-75000D01*
G01*
X170280000Y-74620000D01*
G75*
G02*
X170205000Y-74695000I-75000J0D01*
G01*
X168805000Y-74695000D01*
G75*
G02*
X168730000Y-74620000I0J75000D01*
G01*
X168730000Y-74470000D01*
G75*
G02*
X168805000Y-74395000I75000J0D01*
G01*
G37*
G36*
G01*
X168805000Y-73895000D02*
X170205000Y-73895000D01*
G75*
G02*
X170280000Y-73970000I0J-75000D01*
G01*
X170280000Y-74120000D01*
G75*
G02*
X170205000Y-74195000I-75000J0D01*
G01*
X168805000Y-74195000D01*
G75*
G02*
X168730000Y-74120000I0J75000D01*
G01*
X168730000Y-73970000D01*
G75*
G02*
X168805000Y-73895000I75000J0D01*
G01*
G37*
G36*
G01*
X168805000Y-73395000D02*
X170205000Y-73395000D01*
G75*
G02*
X170280000Y-73470000I0J-75000D01*
G01*
X170280000Y-73620000D01*
G75*
G02*
X170205000Y-73695000I-75000J0D01*
G01*
X168805000Y-73695000D01*
G75*
G02*
X168730000Y-73620000I0J75000D01*
G01*
X168730000Y-73470000D01*
G75*
G02*
X168805000Y-73395000I75000J0D01*
G01*
G37*
G36*
G01*
X168805000Y-72895000D02*
X170205000Y-72895000D01*
G75*
G02*
X170280000Y-72970000I0J-75000D01*
G01*
X170280000Y-73120000D01*
G75*
G02*
X170205000Y-73195000I-75000J0D01*
G01*
X168805000Y-73195000D01*
G75*
G02*
X168730000Y-73120000I0J75000D01*
G01*
X168730000Y-72970000D01*
G75*
G02*
X168805000Y-72895000I75000J0D01*
G01*
G37*
G36*
G01*
X168805000Y-72395000D02*
X170205000Y-72395000D01*
G75*
G02*
X170280000Y-72470000I0J-75000D01*
G01*
X170280000Y-72620000D01*
G75*
G02*
X170205000Y-72695000I-75000J0D01*
G01*
X168805000Y-72695000D01*
G75*
G02*
X168730000Y-72620000I0J75000D01*
G01*
X168730000Y-72470000D01*
G75*
G02*
X168805000Y-72395000I75000J0D01*
G01*
G37*
G36*
G01*
X168805000Y-71895000D02*
X170205000Y-71895000D01*
G75*
G02*
X170280000Y-71970000I0J-75000D01*
G01*
X170280000Y-72120000D01*
G75*
G02*
X170205000Y-72195000I-75000J0D01*
G01*
X168805000Y-72195000D01*
G75*
G02*
X168730000Y-72120000I0J75000D01*
G01*
X168730000Y-71970000D01*
G75*
G02*
X168805000Y-71895000I75000J0D01*
G01*
G37*
G36*
G01*
X168805000Y-71395000D02*
X170205000Y-71395000D01*
G75*
G02*
X170280000Y-71470000I0J-75000D01*
G01*
X170280000Y-71620000D01*
G75*
G02*
X170205000Y-71695000I-75000J0D01*
G01*
X168805000Y-71695000D01*
G75*
G02*
X168730000Y-71620000I0J75000D01*
G01*
X168730000Y-71470000D01*
G75*
G02*
X168805000Y-71395000I75000J0D01*
G01*
G37*
G36*
G01*
X168805000Y-70895000D02*
X170205000Y-70895000D01*
G75*
G02*
X170280000Y-70970000I0J-75000D01*
G01*
X170280000Y-71120000D01*
G75*
G02*
X170205000Y-71195000I-75000J0D01*
G01*
X168805000Y-71195000D01*
G75*
G02*
X168730000Y-71120000I0J75000D01*
G01*
X168730000Y-70970000D01*
G75*
G02*
X168805000Y-70895000I75000J0D01*
G01*
G37*
G36*
G01*
X168805000Y-70395000D02*
X170205000Y-70395000D01*
G75*
G02*
X170280000Y-70470000I0J-75000D01*
G01*
X170280000Y-70620000D01*
G75*
G02*
X170205000Y-70695000I-75000J0D01*
G01*
X168805000Y-70695000D01*
G75*
G02*
X168730000Y-70620000I0J75000D01*
G01*
X168730000Y-70470000D01*
G75*
G02*
X168805000Y-70395000I75000J0D01*
G01*
G37*
G36*
G01*
X167505000Y-67845000D02*
X167655000Y-67845000D01*
G75*
G02*
X167730000Y-67920000I0J-75000D01*
G01*
X167730000Y-69320000D01*
G75*
G02*
X167655000Y-69395000I-75000J0D01*
G01*
X167505000Y-69395000D01*
G75*
G02*
X167430000Y-69320000I0J75000D01*
G01*
X167430000Y-67920000D01*
G75*
G02*
X167505000Y-67845000I75000J0D01*
G01*
G37*
G36*
G01*
X167005000Y-67845000D02*
X167155000Y-67845000D01*
G75*
G02*
X167230000Y-67920000I0J-75000D01*
G01*
X167230000Y-69320000D01*
G75*
G02*
X167155000Y-69395000I-75000J0D01*
G01*
X167005000Y-69395000D01*
G75*
G02*
X166930000Y-69320000I0J75000D01*
G01*
X166930000Y-67920000D01*
G75*
G02*
X167005000Y-67845000I75000J0D01*
G01*
G37*
G36*
G01*
X166505000Y-67845000D02*
X166655000Y-67845000D01*
G75*
G02*
X166730000Y-67920000I0J-75000D01*
G01*
X166730000Y-69320000D01*
G75*
G02*
X166655000Y-69395000I-75000J0D01*
G01*
X166505000Y-69395000D01*
G75*
G02*
X166430000Y-69320000I0J75000D01*
G01*
X166430000Y-67920000D01*
G75*
G02*
X166505000Y-67845000I75000J0D01*
G01*
G37*
G36*
G01*
X166005000Y-67845000D02*
X166155000Y-67845000D01*
G75*
G02*
X166230000Y-67920000I0J-75000D01*
G01*
X166230000Y-69320000D01*
G75*
G02*
X166155000Y-69395000I-75000J0D01*
G01*
X166005000Y-69395000D01*
G75*
G02*
X165930000Y-69320000I0J75000D01*
G01*
X165930000Y-67920000D01*
G75*
G02*
X166005000Y-67845000I75000J0D01*
G01*
G37*
G36*
G01*
X165505000Y-67845000D02*
X165655000Y-67845000D01*
G75*
G02*
X165730000Y-67920000I0J-75000D01*
G01*
X165730000Y-69320000D01*
G75*
G02*
X165655000Y-69395000I-75000J0D01*
G01*
X165505000Y-69395000D01*
G75*
G02*
X165430000Y-69320000I0J75000D01*
G01*
X165430000Y-67920000D01*
G75*
G02*
X165505000Y-67845000I75000J0D01*
G01*
G37*
G36*
G01*
X165005000Y-67845000D02*
X165155000Y-67845000D01*
G75*
G02*
X165230000Y-67920000I0J-75000D01*
G01*
X165230000Y-69320000D01*
G75*
G02*
X165155000Y-69395000I-75000J0D01*
G01*
X165005000Y-69395000D01*
G75*
G02*
X164930000Y-69320000I0J75000D01*
G01*
X164930000Y-67920000D01*
G75*
G02*
X165005000Y-67845000I75000J0D01*
G01*
G37*
G36*
G01*
X164505000Y-67845000D02*
X164655000Y-67845000D01*
G75*
G02*
X164730000Y-67920000I0J-75000D01*
G01*
X164730000Y-69320000D01*
G75*
G02*
X164655000Y-69395000I-75000J0D01*
G01*
X164505000Y-69395000D01*
G75*
G02*
X164430000Y-69320000I0J75000D01*
G01*
X164430000Y-67920000D01*
G75*
G02*
X164505000Y-67845000I75000J0D01*
G01*
G37*
G36*
G01*
X164005000Y-67845000D02*
X164155000Y-67845000D01*
G75*
G02*
X164230000Y-67920000I0J-75000D01*
G01*
X164230000Y-69320000D01*
G75*
G02*
X164155000Y-69395000I-75000J0D01*
G01*
X164005000Y-69395000D01*
G75*
G02*
X163930000Y-69320000I0J75000D01*
G01*
X163930000Y-67920000D01*
G75*
G02*
X164005000Y-67845000I75000J0D01*
G01*
G37*
G36*
G01*
X163505000Y-67845000D02*
X163655000Y-67845000D01*
G75*
G02*
X163730000Y-67920000I0J-75000D01*
G01*
X163730000Y-69320000D01*
G75*
G02*
X163655000Y-69395000I-75000J0D01*
G01*
X163505000Y-69395000D01*
G75*
G02*
X163430000Y-69320000I0J75000D01*
G01*
X163430000Y-67920000D01*
G75*
G02*
X163505000Y-67845000I75000J0D01*
G01*
G37*
G36*
G01*
X163005000Y-67845000D02*
X163155000Y-67845000D01*
G75*
G02*
X163230000Y-67920000I0J-75000D01*
G01*
X163230000Y-69320000D01*
G75*
G02*
X163155000Y-69395000I-75000J0D01*
G01*
X163005000Y-69395000D01*
G75*
G02*
X162930000Y-69320000I0J75000D01*
G01*
X162930000Y-67920000D01*
G75*
G02*
X163005000Y-67845000I75000J0D01*
G01*
G37*
G36*
G01*
X162505000Y-67845000D02*
X162655000Y-67845000D01*
G75*
G02*
X162730000Y-67920000I0J-75000D01*
G01*
X162730000Y-69320000D01*
G75*
G02*
X162655000Y-69395000I-75000J0D01*
G01*
X162505000Y-69395000D01*
G75*
G02*
X162430000Y-69320000I0J75000D01*
G01*
X162430000Y-67920000D01*
G75*
G02*
X162505000Y-67845000I75000J0D01*
G01*
G37*
G36*
G01*
X162005000Y-67845000D02*
X162155000Y-67845000D01*
G75*
G02*
X162230000Y-67920000I0J-75000D01*
G01*
X162230000Y-69320000D01*
G75*
G02*
X162155000Y-69395000I-75000J0D01*
G01*
X162005000Y-69395000D01*
G75*
G02*
X161930000Y-69320000I0J75000D01*
G01*
X161930000Y-67920000D01*
G75*
G02*
X162005000Y-67845000I75000J0D01*
G01*
G37*
G36*
G01*
X161505000Y-67845000D02*
X161655000Y-67845000D01*
G75*
G02*
X161730000Y-67920000I0J-75000D01*
G01*
X161730000Y-69320000D01*
G75*
G02*
X161655000Y-69395000I-75000J0D01*
G01*
X161505000Y-69395000D01*
G75*
G02*
X161430000Y-69320000I0J75000D01*
G01*
X161430000Y-67920000D01*
G75*
G02*
X161505000Y-67845000I75000J0D01*
G01*
G37*
G36*
G01*
X161005000Y-67845000D02*
X161155000Y-67845000D01*
G75*
G02*
X161230000Y-67920000I0J-75000D01*
G01*
X161230000Y-69320000D01*
G75*
G02*
X161155000Y-69395000I-75000J0D01*
G01*
X161005000Y-69395000D01*
G75*
G02*
X160930000Y-69320000I0J75000D01*
G01*
X160930000Y-67920000D01*
G75*
G02*
X161005000Y-67845000I75000J0D01*
G01*
G37*
G36*
G01*
X160505000Y-67845000D02*
X160655000Y-67845000D01*
G75*
G02*
X160730000Y-67920000I0J-75000D01*
G01*
X160730000Y-69320000D01*
G75*
G02*
X160655000Y-69395000I-75000J0D01*
G01*
X160505000Y-69395000D01*
G75*
G02*
X160430000Y-69320000I0J75000D01*
G01*
X160430000Y-67920000D01*
G75*
G02*
X160505000Y-67845000I75000J0D01*
G01*
G37*
G36*
G01*
X160005000Y-67845000D02*
X160155000Y-67845000D01*
G75*
G02*
X160230000Y-67920000I0J-75000D01*
G01*
X160230000Y-69320000D01*
G75*
G02*
X160155000Y-69395000I-75000J0D01*
G01*
X160005000Y-69395000D01*
G75*
G02*
X159930000Y-69320000I0J75000D01*
G01*
X159930000Y-67920000D01*
G75*
G02*
X160005000Y-67845000I75000J0D01*
G01*
G37*
D10*
X136350500Y-103632000D03*
X138350500Y-104582000D03*
X138350500Y-102682000D03*
M02*
