G04 #@! TF.GenerationSoftware,KiCad,Pcbnew,5.1.6-c6e7f7d~87~ubuntu18.04.1*
G04 #@! TF.CreationDate,2020-08-09T22:57:09+01:00*
G04 #@! TF.ProjectId,ServerPSU_Breakout,53657276-6572-4505-9355-5f427265616b,B*
G04 #@! TF.SameCoordinates,Original*
G04 #@! TF.FileFunction,Legend,Top*
G04 #@! TF.FilePolarity,Positive*
%FSLAX46Y46*%
G04 Gerber Fmt 4.6, Leading zero omitted, Abs format (unit mm)*
G04 Created by KiCad (PCBNEW 5.1.6-c6e7f7d~87~ubuntu18.04.1) date 2020-08-09 22:57:09*
%MOMM*%
%LPD*%
G01*
G04 APERTURE LIST*
%ADD10C,0.100000*%
%ADD11C,0.400000*%
%ADD12C,0.200000*%
%ADD13C,0.375000*%
%ADD14C,0.300000*%
%ADD15C,1.000000*%
%ADD16C,0.120000*%
%ADD17C,0.150000*%
G04 APERTURE END LIST*
D10*
X207931333Y-128319666D02*
X208264666Y-128319666D01*
X207864666Y-128519666D02*
X208098000Y-127819666D01*
X208331333Y-128519666D01*
X208564666Y-128519666D02*
X208564666Y-127819666D01*
X208964666Y-128519666D01*
X208964666Y-127819666D01*
X209264666Y-128319666D02*
X209598000Y-128319666D01*
X209198000Y-128519666D02*
X209431333Y-127819666D01*
X209664666Y-128519666D01*
X210231333Y-128519666D02*
X209898000Y-128519666D01*
X209898000Y-127819666D01*
X210598000Y-127819666D02*
X210731333Y-127819666D01*
X210798000Y-127853000D01*
X210864666Y-127919666D01*
X210898000Y-128053000D01*
X210898000Y-128286333D01*
X210864666Y-128419666D01*
X210798000Y-128486333D01*
X210731333Y-128519666D01*
X210598000Y-128519666D01*
X210531333Y-128486333D01*
X210464666Y-128419666D01*
X210431333Y-128286333D01*
X210431333Y-128053000D01*
X210464666Y-127919666D01*
X210531333Y-127853000D01*
X210598000Y-127819666D01*
X211564666Y-127853000D02*
X211498000Y-127819666D01*
X211398000Y-127819666D01*
X211298000Y-127853000D01*
X211231333Y-127919666D01*
X211198000Y-127986333D01*
X211164666Y-128119666D01*
X211164666Y-128219666D01*
X211198000Y-128353000D01*
X211231333Y-128419666D01*
X211298000Y-128486333D01*
X211398000Y-128519666D01*
X211464666Y-128519666D01*
X211564666Y-128486333D01*
X211598000Y-128453000D01*
X211598000Y-128219666D01*
X211464666Y-128219666D01*
X212398000Y-128486333D02*
X212498000Y-128519666D01*
X212664666Y-128519666D01*
X212731333Y-128486333D01*
X212764666Y-128453000D01*
X212798000Y-128386333D01*
X212798000Y-128319666D01*
X212764666Y-128253000D01*
X212731333Y-128219666D01*
X212664666Y-128186333D01*
X212531333Y-128153000D01*
X212464666Y-128119666D01*
X212431333Y-128086333D01*
X212398000Y-128019666D01*
X212398000Y-127953000D01*
X212431333Y-127886333D01*
X212464666Y-127853000D01*
X212531333Y-127819666D01*
X212698000Y-127819666D01*
X212798000Y-127853000D01*
X213098000Y-128153000D02*
X213331333Y-128153000D01*
X213431333Y-128519666D02*
X213098000Y-128519666D01*
X213098000Y-127819666D01*
X213431333Y-127819666D01*
X213631333Y-127819666D02*
X214031333Y-127819666D01*
X213831333Y-128519666D02*
X213831333Y-127819666D01*
X214164666Y-127819666D02*
X214564666Y-127819666D01*
X214364666Y-128519666D02*
X214364666Y-127819666D01*
X214798000Y-128519666D02*
X214798000Y-127819666D01*
X215131333Y-128519666D02*
X215131333Y-127819666D01*
X215531333Y-128519666D01*
X215531333Y-127819666D01*
X216231333Y-127853000D02*
X216164666Y-127819666D01*
X216064666Y-127819666D01*
X215964666Y-127853000D01*
X215898000Y-127919666D01*
X215864666Y-127986333D01*
X215831333Y-128119666D01*
X215831333Y-128219666D01*
X215864666Y-128353000D01*
X215898000Y-128419666D01*
X215964666Y-128486333D01*
X216064666Y-128519666D01*
X216131333Y-128519666D01*
X216231333Y-128486333D01*
X216264666Y-128453000D01*
X216264666Y-128219666D01*
X216131333Y-128219666D01*
X216531333Y-128486333D02*
X216631333Y-128519666D01*
X216798000Y-128519666D01*
X216864666Y-128486333D01*
X216898000Y-128453000D01*
X216931333Y-128386333D01*
X216931333Y-128319666D01*
X216898000Y-128253000D01*
X216864666Y-128219666D01*
X216798000Y-128186333D01*
X216664666Y-128153000D01*
X216598000Y-128119666D01*
X216564666Y-128086333D01*
X216531333Y-128019666D01*
X216531333Y-127953000D01*
X216564666Y-127886333D01*
X216598000Y-127853000D01*
X216664666Y-127819666D01*
X216831333Y-127819666D01*
X216931333Y-127853000D01*
X217231333Y-128453000D02*
X217264666Y-128486333D01*
X217231333Y-128519666D01*
X217198000Y-128486333D01*
X217231333Y-128453000D01*
X217231333Y-128519666D01*
X217231333Y-128086333D02*
X217264666Y-128119666D01*
X217231333Y-128153000D01*
X217198000Y-128119666D01*
X217231333Y-128086333D01*
X217231333Y-128153000D01*
X208431333Y-129403000D02*
X208964666Y-129403000D01*
X209298000Y-129403000D02*
X209831333Y-129403000D01*
X210164666Y-129403000D02*
X210698000Y-129403000D01*
X211031333Y-129403000D02*
X211564666Y-129403000D01*
X211898000Y-129403000D02*
X212431333Y-129403000D01*
X212764666Y-129403000D02*
X213298000Y-129403000D01*
X213631333Y-129403000D02*
X214164666Y-129403000D01*
X214498000Y-129403000D02*
X215031333Y-129403000D01*
X215364666Y-129403000D02*
X215898000Y-129403000D01*
X216231333Y-129403000D02*
X216764666Y-129403000D01*
X103908000Y-128519666D02*
X103908000Y-127819666D01*
X104074666Y-127819666D01*
X104174666Y-127853000D01*
X104241333Y-127919666D01*
X104274666Y-127986333D01*
X104308000Y-128119666D01*
X104308000Y-128219666D01*
X104274666Y-128353000D01*
X104241333Y-128419666D01*
X104174666Y-128486333D01*
X104074666Y-128519666D01*
X103908000Y-128519666D01*
X104608000Y-128519666D02*
X104608000Y-127819666D01*
X105308000Y-127853000D02*
X105241333Y-127819666D01*
X105141333Y-127819666D01*
X105041333Y-127853000D01*
X104974666Y-127919666D01*
X104941333Y-127986333D01*
X104908000Y-128119666D01*
X104908000Y-128219666D01*
X104941333Y-128353000D01*
X104974666Y-128419666D01*
X105041333Y-128486333D01*
X105141333Y-128519666D01*
X105208000Y-128519666D01*
X105308000Y-128486333D01*
X105341333Y-128453000D01*
X105341333Y-128219666D01*
X105208000Y-128219666D01*
X105641333Y-128519666D02*
X105641333Y-127819666D01*
X105874666Y-127819666D02*
X106274666Y-127819666D01*
X106074666Y-128519666D02*
X106074666Y-127819666D01*
X106474666Y-128319666D02*
X106808000Y-128319666D01*
X106408000Y-128519666D02*
X106641333Y-127819666D01*
X106874666Y-128519666D01*
X107441333Y-128519666D02*
X107108000Y-128519666D01*
X107108000Y-127819666D01*
X108174666Y-128486333D02*
X108274666Y-128519666D01*
X108441333Y-128519666D01*
X108508000Y-128486333D01*
X108541333Y-128453000D01*
X108574666Y-128386333D01*
X108574666Y-128319666D01*
X108541333Y-128253000D01*
X108508000Y-128219666D01*
X108441333Y-128186333D01*
X108308000Y-128153000D01*
X108241333Y-128119666D01*
X108208000Y-128086333D01*
X108174666Y-128019666D01*
X108174666Y-127953000D01*
X108208000Y-127886333D01*
X108241333Y-127853000D01*
X108308000Y-127819666D01*
X108474666Y-127819666D01*
X108574666Y-127853000D01*
X108874666Y-128153000D02*
X109108000Y-128153000D01*
X109208000Y-128519666D02*
X108874666Y-128519666D01*
X108874666Y-127819666D01*
X109208000Y-127819666D01*
X109408000Y-127819666D02*
X109808000Y-127819666D01*
X109608000Y-128519666D02*
X109608000Y-127819666D01*
X109941333Y-127819666D02*
X110341333Y-127819666D01*
X110141333Y-128519666D02*
X110141333Y-127819666D01*
X110574666Y-128519666D02*
X110574666Y-127819666D01*
X110908000Y-128519666D02*
X110908000Y-127819666D01*
X111308000Y-128519666D01*
X111308000Y-127819666D01*
X112008000Y-127853000D02*
X111941333Y-127819666D01*
X111841333Y-127819666D01*
X111741333Y-127853000D01*
X111674666Y-127919666D01*
X111641333Y-127986333D01*
X111608000Y-128119666D01*
X111608000Y-128219666D01*
X111641333Y-128353000D01*
X111674666Y-128419666D01*
X111741333Y-128486333D01*
X111841333Y-128519666D01*
X111908000Y-128519666D01*
X112008000Y-128486333D01*
X112041333Y-128453000D01*
X112041333Y-128219666D01*
X111908000Y-128219666D01*
X112308000Y-128486333D02*
X112408000Y-128519666D01*
X112574666Y-128519666D01*
X112641333Y-128486333D01*
X112674666Y-128453000D01*
X112708000Y-128386333D01*
X112708000Y-128319666D01*
X112674666Y-128253000D01*
X112641333Y-128219666D01*
X112574666Y-128186333D01*
X112441333Y-128153000D01*
X112374666Y-128119666D01*
X112341333Y-128086333D01*
X112308000Y-128019666D01*
X112308000Y-127953000D01*
X112341333Y-127886333D01*
X112374666Y-127853000D01*
X112441333Y-127819666D01*
X112608000Y-127819666D01*
X112708000Y-127853000D01*
X113008000Y-128453000D02*
X113041333Y-128486333D01*
X113008000Y-128519666D01*
X112974666Y-128486333D01*
X113008000Y-128453000D01*
X113008000Y-128519666D01*
X113008000Y-128086333D02*
X113041333Y-128119666D01*
X113008000Y-128153000D01*
X112974666Y-128119666D01*
X113008000Y-128086333D01*
X113008000Y-128153000D01*
X104291333Y-129403000D02*
X104824666Y-129403000D01*
X105158000Y-129403000D02*
X105691333Y-129403000D01*
X106024666Y-129403000D02*
X106558000Y-129403000D01*
X106891333Y-129403000D02*
X107424666Y-129403000D01*
X107758000Y-129403000D02*
X108291333Y-129403000D01*
X108624666Y-129403000D02*
X109158000Y-129403000D01*
X109491333Y-129403000D02*
X110024666Y-129403000D01*
X110358000Y-129403000D02*
X110891333Y-129403000D01*
X111224666Y-129403000D02*
X111758000Y-129403000D01*
X112091333Y-129403000D02*
X112624666Y-129403000D01*
X208986333Y-130898666D02*
X209319666Y-130898666D01*
X208919666Y-131098666D02*
X209153000Y-130398666D01*
X209386333Y-131098666D01*
X210386333Y-130732000D02*
X210486333Y-130765333D01*
X210519666Y-130798666D01*
X210553000Y-130865333D01*
X210553000Y-130965333D01*
X210519666Y-131032000D01*
X210486333Y-131065333D01*
X210419666Y-131098666D01*
X210153000Y-131098666D01*
X210153000Y-130398666D01*
X210386333Y-130398666D01*
X210453000Y-130432000D01*
X210486333Y-130465333D01*
X210519666Y-130532000D01*
X210519666Y-130598666D01*
X210486333Y-130665333D01*
X210453000Y-130698666D01*
X210386333Y-130732000D01*
X210153000Y-130732000D01*
X211786333Y-131032000D02*
X211753000Y-131065333D01*
X211653000Y-131098666D01*
X211586333Y-131098666D01*
X211486333Y-131065333D01*
X211419666Y-130998666D01*
X211386333Y-130932000D01*
X211353000Y-130798666D01*
X211353000Y-130698666D01*
X211386333Y-130565333D01*
X211419666Y-130498666D01*
X211486333Y-130432000D01*
X211586333Y-130398666D01*
X211653000Y-130398666D01*
X211753000Y-130432000D01*
X211786333Y-130465333D01*
X213653000Y-130898666D02*
X213986333Y-130898666D01*
X213586333Y-131098666D02*
X213819666Y-130398666D01*
X214053000Y-131098666D01*
X214286333Y-131098666D02*
X214286333Y-130398666D01*
X214453000Y-130398666D01*
X214553000Y-130432000D01*
X214619666Y-130498666D01*
X214653000Y-130565333D01*
X214686333Y-130698666D01*
X214686333Y-130798666D01*
X214653000Y-130932000D01*
X214619666Y-130998666D01*
X214553000Y-131065333D01*
X214453000Y-131098666D01*
X214286333Y-131098666D01*
X214986333Y-131098666D02*
X214986333Y-130398666D01*
X215153000Y-130398666D01*
X215253000Y-130432000D01*
X215319666Y-130498666D01*
X215353000Y-130565333D01*
X215386333Y-130698666D01*
X215386333Y-130798666D01*
X215353000Y-130932000D01*
X215319666Y-130998666D01*
X215253000Y-131065333D01*
X215153000Y-131098666D01*
X214986333Y-131098666D01*
X216086333Y-131098666D02*
X215853000Y-130765333D01*
X215686333Y-131098666D02*
X215686333Y-130398666D01*
X215953000Y-130398666D01*
X216019666Y-130432000D01*
X216053000Y-130465333D01*
X216086333Y-130532000D01*
X216086333Y-130632000D01*
X216053000Y-130698666D01*
X216019666Y-130732000D01*
X215953000Y-130765333D01*
X215686333Y-130765333D01*
X209153000Y-131548666D02*
X209219666Y-131548666D01*
X209286333Y-131582000D01*
X209319666Y-131615333D01*
X209353000Y-131682000D01*
X209386333Y-131815333D01*
X209386333Y-131982000D01*
X209353000Y-132115333D01*
X209319666Y-132182000D01*
X209286333Y-132215333D01*
X209219666Y-132248666D01*
X209153000Y-132248666D01*
X209086333Y-132215333D01*
X209053000Y-132182000D01*
X209019666Y-132115333D01*
X208986333Y-131982000D01*
X208986333Y-131815333D01*
X209019666Y-131682000D01*
X209053000Y-131615333D01*
X209086333Y-131582000D01*
X209153000Y-131548666D01*
X210353000Y-131548666D02*
X210419666Y-131548666D01*
X210486333Y-131582000D01*
X210519666Y-131615333D01*
X210553000Y-131682000D01*
X210586333Y-131815333D01*
X210586333Y-131982000D01*
X210553000Y-132115333D01*
X210519666Y-132182000D01*
X210486333Y-132215333D01*
X210419666Y-132248666D01*
X210353000Y-132248666D01*
X210286333Y-132215333D01*
X210253000Y-132182000D01*
X210219666Y-132115333D01*
X210186333Y-131982000D01*
X210186333Y-131815333D01*
X210219666Y-131682000D01*
X210253000Y-131615333D01*
X210286333Y-131582000D01*
X210353000Y-131548666D01*
X211553000Y-131548666D02*
X211619666Y-131548666D01*
X211686333Y-131582000D01*
X211719666Y-131615333D01*
X211753000Y-131682000D01*
X211786333Y-131815333D01*
X211786333Y-131982000D01*
X211753000Y-132115333D01*
X211719666Y-132182000D01*
X211686333Y-132215333D01*
X211619666Y-132248666D01*
X211553000Y-132248666D01*
X211486333Y-132215333D01*
X211453000Y-132182000D01*
X211419666Y-132115333D01*
X211386333Y-131982000D01*
X211386333Y-131815333D01*
X211419666Y-131682000D01*
X211453000Y-131615333D01*
X211486333Y-131582000D01*
X211553000Y-131548666D01*
X213386333Y-131882000D02*
X213486333Y-131915333D01*
X213519666Y-131948666D01*
X213553000Y-132015333D01*
X213553000Y-132115333D01*
X213519666Y-132182000D01*
X213486333Y-132215333D01*
X213419666Y-132248666D01*
X213153000Y-132248666D01*
X213153000Y-131548666D01*
X213386333Y-131548666D01*
X213453000Y-131582000D01*
X213486333Y-131615333D01*
X213519666Y-131682000D01*
X213519666Y-131748666D01*
X213486333Y-131815333D01*
X213453000Y-131848666D01*
X213386333Y-131882000D01*
X213153000Y-131882000D01*
X213986333Y-131548666D02*
X214053000Y-131548666D01*
X214119666Y-131582000D01*
X214153000Y-131615333D01*
X214186333Y-131682000D01*
X214219666Y-131815333D01*
X214219666Y-131982000D01*
X214186333Y-132115333D01*
X214153000Y-132182000D01*
X214119666Y-132215333D01*
X214053000Y-132248666D01*
X213986333Y-132248666D01*
X213919666Y-132215333D01*
X213886333Y-132182000D01*
X213853000Y-132115333D01*
X213819666Y-131982000D01*
X213819666Y-131815333D01*
X213853000Y-131682000D01*
X213886333Y-131615333D01*
X213919666Y-131582000D01*
X213986333Y-131548666D01*
X215019666Y-131515333D02*
X214419666Y-132415333D01*
X215219666Y-132048666D02*
X215553000Y-132048666D01*
X215153000Y-132248666D02*
X215386333Y-131548666D01*
X215619666Y-132248666D01*
X215986333Y-131548666D02*
X216053000Y-131548666D01*
X216119666Y-131582000D01*
X216153000Y-131615333D01*
X216186333Y-131682000D01*
X216219666Y-131815333D01*
X216219666Y-131982000D01*
X216186333Y-132115333D01*
X216153000Y-132182000D01*
X216119666Y-132215333D01*
X216053000Y-132248666D01*
X215986333Y-132248666D01*
X215919666Y-132215333D01*
X215886333Y-132182000D01*
X215853000Y-132115333D01*
X215819666Y-131982000D01*
X215819666Y-131815333D01*
X215853000Y-131682000D01*
X215886333Y-131615333D01*
X215919666Y-131582000D01*
X215986333Y-131548666D01*
X209386333Y-133398666D02*
X208986333Y-133398666D01*
X209186333Y-133398666D02*
X209186333Y-132698666D01*
X209119666Y-132798666D01*
X209053000Y-132865333D01*
X208986333Y-132898666D01*
X210353000Y-132698666D02*
X210419666Y-132698666D01*
X210486333Y-132732000D01*
X210519666Y-132765333D01*
X210553000Y-132832000D01*
X210586333Y-132965333D01*
X210586333Y-133132000D01*
X210553000Y-133265333D01*
X210519666Y-133332000D01*
X210486333Y-133365333D01*
X210419666Y-133398666D01*
X210353000Y-133398666D01*
X210286333Y-133365333D01*
X210253000Y-133332000D01*
X210219666Y-133265333D01*
X210186333Y-133132000D01*
X210186333Y-132965333D01*
X210219666Y-132832000D01*
X210253000Y-132765333D01*
X210286333Y-132732000D01*
X210353000Y-132698666D01*
X211553000Y-132698666D02*
X211619666Y-132698666D01*
X211686333Y-132732000D01*
X211719666Y-132765333D01*
X211753000Y-132832000D01*
X211786333Y-132965333D01*
X211786333Y-133132000D01*
X211753000Y-133265333D01*
X211719666Y-133332000D01*
X211686333Y-133365333D01*
X211619666Y-133398666D01*
X211553000Y-133398666D01*
X211486333Y-133365333D01*
X211453000Y-133332000D01*
X211419666Y-133265333D01*
X211386333Y-133132000D01*
X211386333Y-132965333D01*
X211419666Y-132832000D01*
X211453000Y-132765333D01*
X211486333Y-132732000D01*
X211553000Y-132698666D01*
X213386333Y-133032000D02*
X213486333Y-133065333D01*
X213519666Y-133098666D01*
X213553000Y-133165333D01*
X213553000Y-133265333D01*
X213519666Y-133332000D01*
X213486333Y-133365333D01*
X213419666Y-133398666D01*
X213153000Y-133398666D01*
X213153000Y-132698666D01*
X213386333Y-132698666D01*
X213453000Y-132732000D01*
X213486333Y-132765333D01*
X213519666Y-132832000D01*
X213519666Y-132898666D01*
X213486333Y-132965333D01*
X213453000Y-132998666D01*
X213386333Y-133032000D01*
X213153000Y-133032000D01*
X213819666Y-132765333D02*
X213853000Y-132732000D01*
X213919666Y-132698666D01*
X214086333Y-132698666D01*
X214153000Y-132732000D01*
X214186333Y-132765333D01*
X214219666Y-132832000D01*
X214219666Y-132898666D01*
X214186333Y-132998666D01*
X213786333Y-133398666D01*
X214219666Y-133398666D01*
X215019666Y-132665333D02*
X214419666Y-133565333D01*
X215219666Y-133198666D02*
X215553000Y-133198666D01*
X215153000Y-133398666D02*
X215386333Y-132698666D01*
X215619666Y-133398666D01*
X215819666Y-132765333D02*
X215853000Y-132732000D01*
X215919666Y-132698666D01*
X216086333Y-132698666D01*
X216153000Y-132732000D01*
X216186333Y-132765333D01*
X216219666Y-132832000D01*
X216219666Y-132898666D01*
X216186333Y-132998666D01*
X215786333Y-133398666D01*
X216219666Y-133398666D01*
X209153000Y-133848666D02*
X209219666Y-133848666D01*
X209286333Y-133882000D01*
X209319666Y-133915333D01*
X209353000Y-133982000D01*
X209386333Y-134115333D01*
X209386333Y-134282000D01*
X209353000Y-134415333D01*
X209319666Y-134482000D01*
X209286333Y-134515333D01*
X209219666Y-134548666D01*
X209153000Y-134548666D01*
X209086333Y-134515333D01*
X209053000Y-134482000D01*
X209019666Y-134415333D01*
X208986333Y-134282000D01*
X208986333Y-134115333D01*
X209019666Y-133982000D01*
X209053000Y-133915333D01*
X209086333Y-133882000D01*
X209153000Y-133848666D01*
X210586333Y-134548666D02*
X210186333Y-134548666D01*
X210386333Y-134548666D02*
X210386333Y-133848666D01*
X210319666Y-133948666D01*
X210253000Y-134015333D01*
X210186333Y-134048666D01*
X211553000Y-133848666D02*
X211619666Y-133848666D01*
X211686333Y-133882000D01*
X211719666Y-133915333D01*
X211753000Y-133982000D01*
X211786333Y-134115333D01*
X211786333Y-134282000D01*
X211753000Y-134415333D01*
X211719666Y-134482000D01*
X211686333Y-134515333D01*
X211619666Y-134548666D01*
X211553000Y-134548666D01*
X211486333Y-134515333D01*
X211453000Y-134482000D01*
X211419666Y-134415333D01*
X211386333Y-134282000D01*
X211386333Y-134115333D01*
X211419666Y-133982000D01*
X211453000Y-133915333D01*
X211486333Y-133882000D01*
X211553000Y-133848666D01*
X213386333Y-134182000D02*
X213486333Y-134215333D01*
X213519666Y-134248666D01*
X213553000Y-134315333D01*
X213553000Y-134415333D01*
X213519666Y-134482000D01*
X213486333Y-134515333D01*
X213419666Y-134548666D01*
X213153000Y-134548666D01*
X213153000Y-133848666D01*
X213386333Y-133848666D01*
X213453000Y-133882000D01*
X213486333Y-133915333D01*
X213519666Y-133982000D01*
X213519666Y-134048666D01*
X213486333Y-134115333D01*
X213453000Y-134148666D01*
X213386333Y-134182000D01*
X213153000Y-134182000D01*
X214153000Y-134082000D02*
X214153000Y-134548666D01*
X213986333Y-133815333D02*
X213819666Y-134315333D01*
X214253000Y-134315333D01*
X215019666Y-133815333D02*
X214419666Y-134715333D01*
X215219666Y-134348666D02*
X215553000Y-134348666D01*
X215153000Y-134548666D02*
X215386333Y-133848666D01*
X215619666Y-134548666D01*
X216153000Y-134082000D02*
X216153000Y-134548666D01*
X215986333Y-133815333D02*
X215819666Y-134315333D01*
X216253000Y-134315333D01*
X209386333Y-135698666D02*
X208986333Y-135698666D01*
X209186333Y-135698666D02*
X209186333Y-134998666D01*
X209119666Y-135098666D01*
X209053000Y-135165333D01*
X208986333Y-135198666D01*
X210586333Y-135698666D02*
X210186333Y-135698666D01*
X210386333Y-135698666D02*
X210386333Y-134998666D01*
X210319666Y-135098666D01*
X210253000Y-135165333D01*
X210186333Y-135198666D01*
X211553000Y-134998666D02*
X211619666Y-134998666D01*
X211686333Y-135032000D01*
X211719666Y-135065333D01*
X211753000Y-135132000D01*
X211786333Y-135265333D01*
X211786333Y-135432000D01*
X211753000Y-135565333D01*
X211719666Y-135632000D01*
X211686333Y-135665333D01*
X211619666Y-135698666D01*
X211553000Y-135698666D01*
X211486333Y-135665333D01*
X211453000Y-135632000D01*
X211419666Y-135565333D01*
X211386333Y-135432000D01*
X211386333Y-135265333D01*
X211419666Y-135132000D01*
X211453000Y-135065333D01*
X211486333Y-135032000D01*
X211553000Y-134998666D01*
X213386333Y-135332000D02*
X213486333Y-135365333D01*
X213519666Y-135398666D01*
X213553000Y-135465333D01*
X213553000Y-135565333D01*
X213519666Y-135632000D01*
X213486333Y-135665333D01*
X213419666Y-135698666D01*
X213153000Y-135698666D01*
X213153000Y-134998666D01*
X213386333Y-134998666D01*
X213453000Y-135032000D01*
X213486333Y-135065333D01*
X213519666Y-135132000D01*
X213519666Y-135198666D01*
X213486333Y-135265333D01*
X213453000Y-135298666D01*
X213386333Y-135332000D01*
X213153000Y-135332000D01*
X214153000Y-134998666D02*
X214019666Y-134998666D01*
X213953000Y-135032000D01*
X213919666Y-135065333D01*
X213853000Y-135165333D01*
X213819666Y-135298666D01*
X213819666Y-135565333D01*
X213853000Y-135632000D01*
X213886333Y-135665333D01*
X213953000Y-135698666D01*
X214086333Y-135698666D01*
X214153000Y-135665333D01*
X214186333Y-135632000D01*
X214219666Y-135565333D01*
X214219666Y-135398666D01*
X214186333Y-135332000D01*
X214153000Y-135298666D01*
X214086333Y-135265333D01*
X213953000Y-135265333D01*
X213886333Y-135298666D01*
X213853000Y-135332000D01*
X213819666Y-135398666D01*
X215019666Y-134965333D02*
X214419666Y-135865333D01*
X215219666Y-135498666D02*
X215553000Y-135498666D01*
X215153000Y-135698666D02*
X215386333Y-134998666D01*
X215619666Y-135698666D01*
X216153000Y-134998666D02*
X216019666Y-134998666D01*
X215953000Y-135032000D01*
X215919666Y-135065333D01*
X215853000Y-135165333D01*
X215819666Y-135298666D01*
X215819666Y-135565333D01*
X215853000Y-135632000D01*
X215886333Y-135665333D01*
X215953000Y-135698666D01*
X216086333Y-135698666D01*
X216153000Y-135665333D01*
X216186333Y-135632000D01*
X216219666Y-135565333D01*
X216219666Y-135398666D01*
X216186333Y-135332000D01*
X216153000Y-135298666D01*
X216086333Y-135265333D01*
X215953000Y-135265333D01*
X215886333Y-135298666D01*
X215853000Y-135332000D01*
X215819666Y-135398666D01*
X209153000Y-136148666D02*
X209219666Y-136148666D01*
X209286333Y-136182000D01*
X209319666Y-136215333D01*
X209353000Y-136282000D01*
X209386333Y-136415333D01*
X209386333Y-136582000D01*
X209353000Y-136715333D01*
X209319666Y-136782000D01*
X209286333Y-136815333D01*
X209219666Y-136848666D01*
X209153000Y-136848666D01*
X209086333Y-136815333D01*
X209053000Y-136782000D01*
X209019666Y-136715333D01*
X208986333Y-136582000D01*
X208986333Y-136415333D01*
X209019666Y-136282000D01*
X209053000Y-136215333D01*
X209086333Y-136182000D01*
X209153000Y-136148666D01*
X210353000Y-136148666D02*
X210419666Y-136148666D01*
X210486333Y-136182000D01*
X210519666Y-136215333D01*
X210553000Y-136282000D01*
X210586333Y-136415333D01*
X210586333Y-136582000D01*
X210553000Y-136715333D01*
X210519666Y-136782000D01*
X210486333Y-136815333D01*
X210419666Y-136848666D01*
X210353000Y-136848666D01*
X210286333Y-136815333D01*
X210253000Y-136782000D01*
X210219666Y-136715333D01*
X210186333Y-136582000D01*
X210186333Y-136415333D01*
X210219666Y-136282000D01*
X210253000Y-136215333D01*
X210286333Y-136182000D01*
X210353000Y-136148666D01*
X211786333Y-136848666D02*
X211386333Y-136848666D01*
X211586333Y-136848666D02*
X211586333Y-136148666D01*
X211519666Y-136248666D01*
X211453000Y-136315333D01*
X211386333Y-136348666D01*
X213386333Y-136482000D02*
X213486333Y-136515333D01*
X213519666Y-136548666D01*
X213553000Y-136615333D01*
X213553000Y-136715333D01*
X213519666Y-136782000D01*
X213486333Y-136815333D01*
X213419666Y-136848666D01*
X213153000Y-136848666D01*
X213153000Y-136148666D01*
X213386333Y-136148666D01*
X213453000Y-136182000D01*
X213486333Y-136215333D01*
X213519666Y-136282000D01*
X213519666Y-136348666D01*
X213486333Y-136415333D01*
X213453000Y-136448666D01*
X213386333Y-136482000D01*
X213153000Y-136482000D01*
X213953000Y-136448666D02*
X213886333Y-136415333D01*
X213853000Y-136382000D01*
X213819666Y-136315333D01*
X213819666Y-136282000D01*
X213853000Y-136215333D01*
X213886333Y-136182000D01*
X213953000Y-136148666D01*
X214086333Y-136148666D01*
X214153000Y-136182000D01*
X214186333Y-136215333D01*
X214219666Y-136282000D01*
X214219666Y-136315333D01*
X214186333Y-136382000D01*
X214153000Y-136415333D01*
X214086333Y-136448666D01*
X213953000Y-136448666D01*
X213886333Y-136482000D01*
X213853000Y-136515333D01*
X213819666Y-136582000D01*
X213819666Y-136715333D01*
X213853000Y-136782000D01*
X213886333Y-136815333D01*
X213953000Y-136848666D01*
X214086333Y-136848666D01*
X214153000Y-136815333D01*
X214186333Y-136782000D01*
X214219666Y-136715333D01*
X214219666Y-136582000D01*
X214186333Y-136515333D01*
X214153000Y-136482000D01*
X214086333Y-136448666D01*
X215019666Y-136115333D02*
X214419666Y-137015333D01*
X215219666Y-136648666D02*
X215553000Y-136648666D01*
X215153000Y-136848666D02*
X215386333Y-136148666D01*
X215619666Y-136848666D01*
X215953000Y-136448666D02*
X215886333Y-136415333D01*
X215853000Y-136382000D01*
X215819666Y-136315333D01*
X215819666Y-136282000D01*
X215853000Y-136215333D01*
X215886333Y-136182000D01*
X215953000Y-136148666D01*
X216086333Y-136148666D01*
X216153000Y-136182000D01*
X216186333Y-136215333D01*
X216219666Y-136282000D01*
X216219666Y-136315333D01*
X216186333Y-136382000D01*
X216153000Y-136415333D01*
X216086333Y-136448666D01*
X215953000Y-136448666D01*
X215886333Y-136482000D01*
X215853000Y-136515333D01*
X215819666Y-136582000D01*
X215819666Y-136715333D01*
X215853000Y-136782000D01*
X215886333Y-136815333D01*
X215953000Y-136848666D01*
X216086333Y-136848666D01*
X216153000Y-136815333D01*
X216186333Y-136782000D01*
X216219666Y-136715333D01*
X216219666Y-136582000D01*
X216186333Y-136515333D01*
X216153000Y-136482000D01*
X216086333Y-136448666D01*
X209386333Y-137998666D02*
X208986333Y-137998666D01*
X209186333Y-137998666D02*
X209186333Y-137298666D01*
X209119666Y-137398666D01*
X209053000Y-137465333D01*
X208986333Y-137498666D01*
X210353000Y-137298666D02*
X210419666Y-137298666D01*
X210486333Y-137332000D01*
X210519666Y-137365333D01*
X210553000Y-137432000D01*
X210586333Y-137565333D01*
X210586333Y-137732000D01*
X210553000Y-137865333D01*
X210519666Y-137932000D01*
X210486333Y-137965333D01*
X210419666Y-137998666D01*
X210353000Y-137998666D01*
X210286333Y-137965333D01*
X210253000Y-137932000D01*
X210219666Y-137865333D01*
X210186333Y-137732000D01*
X210186333Y-137565333D01*
X210219666Y-137432000D01*
X210253000Y-137365333D01*
X210286333Y-137332000D01*
X210353000Y-137298666D01*
X211786333Y-137998666D02*
X211386333Y-137998666D01*
X211586333Y-137998666D02*
X211586333Y-137298666D01*
X211519666Y-137398666D01*
X211453000Y-137465333D01*
X211386333Y-137498666D01*
X213386333Y-137632000D02*
X213486333Y-137665333D01*
X213519666Y-137698666D01*
X213553000Y-137765333D01*
X213553000Y-137865333D01*
X213519666Y-137932000D01*
X213486333Y-137965333D01*
X213419666Y-137998666D01*
X213153000Y-137998666D01*
X213153000Y-137298666D01*
X213386333Y-137298666D01*
X213453000Y-137332000D01*
X213486333Y-137365333D01*
X213519666Y-137432000D01*
X213519666Y-137498666D01*
X213486333Y-137565333D01*
X213453000Y-137598666D01*
X213386333Y-137632000D01*
X213153000Y-137632000D01*
X213819666Y-137798666D02*
X214153000Y-137798666D01*
X213753000Y-137998666D02*
X213986333Y-137298666D01*
X214219666Y-137998666D01*
X214953000Y-137265333D02*
X214353000Y-138165333D01*
X215153000Y-137798666D02*
X215486333Y-137798666D01*
X215086333Y-137998666D02*
X215319666Y-137298666D01*
X215553000Y-137998666D01*
X215753000Y-137798666D02*
X216086333Y-137798666D01*
X215686333Y-137998666D02*
X215919666Y-137298666D01*
X216153000Y-137998666D01*
X209153000Y-138448666D02*
X209219666Y-138448666D01*
X209286333Y-138482000D01*
X209319666Y-138515333D01*
X209353000Y-138582000D01*
X209386333Y-138715333D01*
X209386333Y-138882000D01*
X209353000Y-139015333D01*
X209319666Y-139082000D01*
X209286333Y-139115333D01*
X209219666Y-139148666D01*
X209153000Y-139148666D01*
X209086333Y-139115333D01*
X209053000Y-139082000D01*
X209019666Y-139015333D01*
X208986333Y-138882000D01*
X208986333Y-138715333D01*
X209019666Y-138582000D01*
X209053000Y-138515333D01*
X209086333Y-138482000D01*
X209153000Y-138448666D01*
X210586333Y-139148666D02*
X210186333Y-139148666D01*
X210386333Y-139148666D02*
X210386333Y-138448666D01*
X210319666Y-138548666D01*
X210253000Y-138615333D01*
X210186333Y-138648666D01*
X211786333Y-139148666D02*
X211386333Y-139148666D01*
X211586333Y-139148666D02*
X211586333Y-138448666D01*
X211519666Y-138548666D01*
X211453000Y-138615333D01*
X211386333Y-138648666D01*
X213386333Y-138782000D02*
X213486333Y-138815333D01*
X213519666Y-138848666D01*
X213553000Y-138915333D01*
X213553000Y-139015333D01*
X213519666Y-139082000D01*
X213486333Y-139115333D01*
X213419666Y-139148666D01*
X213153000Y-139148666D01*
X213153000Y-138448666D01*
X213386333Y-138448666D01*
X213453000Y-138482000D01*
X213486333Y-138515333D01*
X213519666Y-138582000D01*
X213519666Y-138648666D01*
X213486333Y-138715333D01*
X213453000Y-138748666D01*
X213386333Y-138782000D01*
X213153000Y-138782000D01*
X214253000Y-139082000D02*
X214219666Y-139115333D01*
X214119666Y-139148666D01*
X214053000Y-139148666D01*
X213953000Y-139115333D01*
X213886333Y-139048666D01*
X213853000Y-138982000D01*
X213819666Y-138848666D01*
X213819666Y-138748666D01*
X213853000Y-138615333D01*
X213886333Y-138548666D01*
X213953000Y-138482000D01*
X214053000Y-138448666D01*
X214119666Y-138448666D01*
X214219666Y-138482000D01*
X214253000Y-138515333D01*
X215053000Y-138415333D02*
X214453000Y-139315333D01*
X215253000Y-138948666D02*
X215586333Y-138948666D01*
X215186333Y-139148666D02*
X215419666Y-138448666D01*
X215653000Y-139148666D01*
X216286333Y-139082000D02*
X216253000Y-139115333D01*
X216153000Y-139148666D01*
X216086333Y-139148666D01*
X215986333Y-139115333D01*
X215919666Y-139048666D01*
X215886333Y-138982000D01*
X215853000Y-138848666D01*
X215853000Y-138748666D01*
X215886333Y-138615333D01*
X215919666Y-138548666D01*
X215986333Y-138482000D01*
X216086333Y-138448666D01*
X216153000Y-138448666D01*
X216253000Y-138482000D01*
X216286333Y-138515333D01*
X209386333Y-140298666D02*
X208986333Y-140298666D01*
X209186333Y-140298666D02*
X209186333Y-139598666D01*
X209119666Y-139698666D01*
X209053000Y-139765333D01*
X208986333Y-139798666D01*
X210586333Y-140298666D02*
X210186333Y-140298666D01*
X210386333Y-140298666D02*
X210386333Y-139598666D01*
X210319666Y-139698666D01*
X210253000Y-139765333D01*
X210186333Y-139798666D01*
X211786333Y-140298666D02*
X211386333Y-140298666D01*
X211586333Y-140298666D02*
X211586333Y-139598666D01*
X211519666Y-139698666D01*
X211453000Y-139765333D01*
X211386333Y-139798666D01*
X213386333Y-139932000D02*
X213486333Y-139965333D01*
X213519666Y-139998666D01*
X213553000Y-140065333D01*
X213553000Y-140165333D01*
X213519666Y-140232000D01*
X213486333Y-140265333D01*
X213419666Y-140298666D01*
X213153000Y-140298666D01*
X213153000Y-139598666D01*
X213386333Y-139598666D01*
X213453000Y-139632000D01*
X213486333Y-139665333D01*
X213519666Y-139732000D01*
X213519666Y-139798666D01*
X213486333Y-139865333D01*
X213453000Y-139898666D01*
X213386333Y-139932000D01*
X213153000Y-139932000D01*
X213853000Y-139932000D02*
X214086333Y-139932000D01*
X214186333Y-140298666D02*
X213853000Y-140298666D01*
X213853000Y-139598666D01*
X214186333Y-139598666D01*
X214986333Y-139565333D02*
X214386333Y-140465333D01*
X215186333Y-140098666D02*
X215519666Y-140098666D01*
X215119666Y-140298666D02*
X215353000Y-139598666D01*
X215586333Y-140298666D01*
X215819666Y-139932000D02*
X216053000Y-139932000D01*
X216153000Y-140298666D02*
X215819666Y-140298666D01*
X215819666Y-139598666D01*
X216153000Y-139598666D01*
X104846333Y-130898666D02*
X105179666Y-130898666D01*
X104779666Y-131098666D02*
X105013000Y-130398666D01*
X105246333Y-131098666D01*
X106246333Y-130732000D02*
X106346333Y-130765333D01*
X106379666Y-130798666D01*
X106413000Y-130865333D01*
X106413000Y-130965333D01*
X106379666Y-131032000D01*
X106346333Y-131065333D01*
X106279666Y-131098666D01*
X106013000Y-131098666D01*
X106013000Y-130398666D01*
X106246333Y-130398666D01*
X106313000Y-130432000D01*
X106346333Y-130465333D01*
X106379666Y-130532000D01*
X106379666Y-130598666D01*
X106346333Y-130665333D01*
X106313000Y-130698666D01*
X106246333Y-130732000D01*
X106013000Y-130732000D01*
X107646333Y-131032000D02*
X107613000Y-131065333D01*
X107513000Y-131098666D01*
X107446333Y-131098666D01*
X107346333Y-131065333D01*
X107279666Y-130998666D01*
X107246333Y-130932000D01*
X107213000Y-130798666D01*
X107213000Y-130698666D01*
X107246333Y-130565333D01*
X107279666Y-130498666D01*
X107346333Y-130432000D01*
X107446333Y-130398666D01*
X107513000Y-130398666D01*
X107613000Y-130432000D01*
X107646333Y-130465333D01*
X109513000Y-130898666D02*
X109846333Y-130898666D01*
X109446333Y-131098666D02*
X109679666Y-130398666D01*
X109913000Y-131098666D01*
X110146333Y-131098666D02*
X110146333Y-130398666D01*
X110313000Y-130398666D01*
X110413000Y-130432000D01*
X110479666Y-130498666D01*
X110513000Y-130565333D01*
X110546333Y-130698666D01*
X110546333Y-130798666D01*
X110513000Y-130932000D01*
X110479666Y-130998666D01*
X110413000Y-131065333D01*
X110313000Y-131098666D01*
X110146333Y-131098666D01*
X110846333Y-131098666D02*
X110846333Y-130398666D01*
X111013000Y-130398666D01*
X111113000Y-130432000D01*
X111179666Y-130498666D01*
X111213000Y-130565333D01*
X111246333Y-130698666D01*
X111246333Y-130798666D01*
X111213000Y-130932000D01*
X111179666Y-130998666D01*
X111113000Y-131065333D01*
X111013000Y-131098666D01*
X110846333Y-131098666D01*
X111946333Y-131098666D02*
X111713000Y-130765333D01*
X111546333Y-131098666D02*
X111546333Y-130398666D01*
X111813000Y-130398666D01*
X111879666Y-130432000D01*
X111913000Y-130465333D01*
X111946333Y-130532000D01*
X111946333Y-130632000D01*
X111913000Y-130698666D01*
X111879666Y-130732000D01*
X111813000Y-130765333D01*
X111546333Y-130765333D01*
X105013000Y-131548666D02*
X105079666Y-131548666D01*
X105146333Y-131582000D01*
X105179666Y-131615333D01*
X105213000Y-131682000D01*
X105246333Y-131815333D01*
X105246333Y-131982000D01*
X105213000Y-132115333D01*
X105179666Y-132182000D01*
X105146333Y-132215333D01*
X105079666Y-132248666D01*
X105013000Y-132248666D01*
X104946333Y-132215333D01*
X104913000Y-132182000D01*
X104879666Y-132115333D01*
X104846333Y-131982000D01*
X104846333Y-131815333D01*
X104879666Y-131682000D01*
X104913000Y-131615333D01*
X104946333Y-131582000D01*
X105013000Y-131548666D01*
X106213000Y-131548666D02*
X106279666Y-131548666D01*
X106346333Y-131582000D01*
X106379666Y-131615333D01*
X106413000Y-131682000D01*
X106446333Y-131815333D01*
X106446333Y-131982000D01*
X106413000Y-132115333D01*
X106379666Y-132182000D01*
X106346333Y-132215333D01*
X106279666Y-132248666D01*
X106213000Y-132248666D01*
X106146333Y-132215333D01*
X106113000Y-132182000D01*
X106079666Y-132115333D01*
X106046333Y-131982000D01*
X106046333Y-131815333D01*
X106079666Y-131682000D01*
X106113000Y-131615333D01*
X106146333Y-131582000D01*
X106213000Y-131548666D01*
X107413000Y-131548666D02*
X107479666Y-131548666D01*
X107546333Y-131582000D01*
X107579666Y-131615333D01*
X107613000Y-131682000D01*
X107646333Y-131815333D01*
X107646333Y-131982000D01*
X107613000Y-132115333D01*
X107579666Y-132182000D01*
X107546333Y-132215333D01*
X107479666Y-132248666D01*
X107413000Y-132248666D01*
X107346333Y-132215333D01*
X107313000Y-132182000D01*
X107279666Y-132115333D01*
X107246333Y-131982000D01*
X107246333Y-131815333D01*
X107279666Y-131682000D01*
X107313000Y-131615333D01*
X107346333Y-131582000D01*
X107413000Y-131548666D01*
X109113000Y-131848666D02*
X109046333Y-131815333D01*
X109013000Y-131782000D01*
X108979666Y-131715333D01*
X108979666Y-131682000D01*
X109013000Y-131615333D01*
X109046333Y-131582000D01*
X109113000Y-131548666D01*
X109246333Y-131548666D01*
X109313000Y-131582000D01*
X109346333Y-131615333D01*
X109379666Y-131682000D01*
X109379666Y-131715333D01*
X109346333Y-131782000D01*
X109313000Y-131815333D01*
X109246333Y-131848666D01*
X109113000Y-131848666D01*
X109046333Y-131882000D01*
X109013000Y-131915333D01*
X108979666Y-131982000D01*
X108979666Y-132115333D01*
X109013000Y-132182000D01*
X109046333Y-132215333D01*
X109113000Y-132248666D01*
X109246333Y-132248666D01*
X109313000Y-132215333D01*
X109346333Y-132182000D01*
X109379666Y-132115333D01*
X109379666Y-131982000D01*
X109346333Y-131915333D01*
X109313000Y-131882000D01*
X109246333Y-131848666D01*
X109813000Y-131548666D02*
X109879666Y-131548666D01*
X109946333Y-131582000D01*
X109979666Y-131615333D01*
X110013000Y-131682000D01*
X110046333Y-131815333D01*
X110046333Y-131982000D01*
X110013000Y-132115333D01*
X109979666Y-132182000D01*
X109946333Y-132215333D01*
X109879666Y-132248666D01*
X109813000Y-132248666D01*
X109746333Y-132215333D01*
X109713000Y-132182000D01*
X109679666Y-132115333D01*
X109646333Y-131982000D01*
X109646333Y-131815333D01*
X109679666Y-131682000D01*
X109713000Y-131615333D01*
X109746333Y-131582000D01*
X109813000Y-131548666D01*
X110846333Y-131515333D02*
X110246333Y-132415333D01*
X111179666Y-131848666D02*
X111113000Y-131815333D01*
X111079666Y-131782000D01*
X111046333Y-131715333D01*
X111046333Y-131682000D01*
X111079666Y-131615333D01*
X111113000Y-131582000D01*
X111179666Y-131548666D01*
X111313000Y-131548666D01*
X111379666Y-131582000D01*
X111413000Y-131615333D01*
X111446333Y-131682000D01*
X111446333Y-131715333D01*
X111413000Y-131782000D01*
X111379666Y-131815333D01*
X111313000Y-131848666D01*
X111179666Y-131848666D01*
X111113000Y-131882000D01*
X111079666Y-131915333D01*
X111046333Y-131982000D01*
X111046333Y-132115333D01*
X111079666Y-132182000D01*
X111113000Y-132215333D01*
X111179666Y-132248666D01*
X111313000Y-132248666D01*
X111379666Y-132215333D01*
X111413000Y-132182000D01*
X111446333Y-132115333D01*
X111446333Y-131982000D01*
X111413000Y-131915333D01*
X111379666Y-131882000D01*
X111313000Y-131848666D01*
X111846333Y-131848666D02*
X111779666Y-131815333D01*
X111746333Y-131782000D01*
X111713000Y-131715333D01*
X111713000Y-131682000D01*
X111746333Y-131615333D01*
X111779666Y-131582000D01*
X111846333Y-131548666D01*
X111979666Y-131548666D01*
X112046333Y-131582000D01*
X112079666Y-131615333D01*
X112113000Y-131682000D01*
X112113000Y-131715333D01*
X112079666Y-131782000D01*
X112046333Y-131815333D01*
X111979666Y-131848666D01*
X111846333Y-131848666D01*
X111779666Y-131882000D01*
X111746333Y-131915333D01*
X111713000Y-131982000D01*
X111713000Y-132115333D01*
X111746333Y-132182000D01*
X111779666Y-132215333D01*
X111846333Y-132248666D01*
X111979666Y-132248666D01*
X112046333Y-132215333D01*
X112079666Y-132182000D01*
X112113000Y-132115333D01*
X112113000Y-131982000D01*
X112079666Y-131915333D01*
X112046333Y-131882000D01*
X111979666Y-131848666D01*
X105246333Y-133398666D02*
X104846333Y-133398666D01*
X105046333Y-133398666D02*
X105046333Y-132698666D01*
X104979666Y-132798666D01*
X104913000Y-132865333D01*
X104846333Y-132898666D01*
X106213000Y-132698666D02*
X106279666Y-132698666D01*
X106346333Y-132732000D01*
X106379666Y-132765333D01*
X106413000Y-132832000D01*
X106446333Y-132965333D01*
X106446333Y-133132000D01*
X106413000Y-133265333D01*
X106379666Y-133332000D01*
X106346333Y-133365333D01*
X106279666Y-133398666D01*
X106213000Y-133398666D01*
X106146333Y-133365333D01*
X106113000Y-133332000D01*
X106079666Y-133265333D01*
X106046333Y-133132000D01*
X106046333Y-132965333D01*
X106079666Y-132832000D01*
X106113000Y-132765333D01*
X106146333Y-132732000D01*
X106213000Y-132698666D01*
X107413000Y-132698666D02*
X107479666Y-132698666D01*
X107546333Y-132732000D01*
X107579666Y-132765333D01*
X107613000Y-132832000D01*
X107646333Y-132965333D01*
X107646333Y-133132000D01*
X107613000Y-133265333D01*
X107579666Y-133332000D01*
X107546333Y-133365333D01*
X107479666Y-133398666D01*
X107413000Y-133398666D01*
X107346333Y-133365333D01*
X107313000Y-133332000D01*
X107279666Y-133265333D01*
X107246333Y-133132000D01*
X107246333Y-132965333D01*
X107279666Y-132832000D01*
X107313000Y-132765333D01*
X107346333Y-132732000D01*
X107413000Y-132698666D01*
X109113000Y-132998666D02*
X109046333Y-132965333D01*
X109013000Y-132932000D01*
X108979666Y-132865333D01*
X108979666Y-132832000D01*
X109013000Y-132765333D01*
X109046333Y-132732000D01*
X109113000Y-132698666D01*
X109246333Y-132698666D01*
X109313000Y-132732000D01*
X109346333Y-132765333D01*
X109379666Y-132832000D01*
X109379666Y-132865333D01*
X109346333Y-132932000D01*
X109313000Y-132965333D01*
X109246333Y-132998666D01*
X109113000Y-132998666D01*
X109046333Y-133032000D01*
X109013000Y-133065333D01*
X108979666Y-133132000D01*
X108979666Y-133265333D01*
X109013000Y-133332000D01*
X109046333Y-133365333D01*
X109113000Y-133398666D01*
X109246333Y-133398666D01*
X109313000Y-133365333D01*
X109346333Y-133332000D01*
X109379666Y-133265333D01*
X109379666Y-133132000D01*
X109346333Y-133065333D01*
X109313000Y-133032000D01*
X109246333Y-132998666D01*
X110046333Y-133398666D02*
X109646333Y-133398666D01*
X109846333Y-133398666D02*
X109846333Y-132698666D01*
X109779666Y-132798666D01*
X109713000Y-132865333D01*
X109646333Y-132898666D01*
X110846333Y-132665333D02*
X110246333Y-133565333D01*
X111179666Y-132998666D02*
X111113000Y-132965333D01*
X111079666Y-132932000D01*
X111046333Y-132865333D01*
X111046333Y-132832000D01*
X111079666Y-132765333D01*
X111113000Y-132732000D01*
X111179666Y-132698666D01*
X111313000Y-132698666D01*
X111379666Y-132732000D01*
X111413000Y-132765333D01*
X111446333Y-132832000D01*
X111446333Y-132865333D01*
X111413000Y-132932000D01*
X111379666Y-132965333D01*
X111313000Y-132998666D01*
X111179666Y-132998666D01*
X111113000Y-133032000D01*
X111079666Y-133065333D01*
X111046333Y-133132000D01*
X111046333Y-133265333D01*
X111079666Y-133332000D01*
X111113000Y-133365333D01*
X111179666Y-133398666D01*
X111313000Y-133398666D01*
X111379666Y-133365333D01*
X111413000Y-133332000D01*
X111446333Y-133265333D01*
X111446333Y-133132000D01*
X111413000Y-133065333D01*
X111379666Y-133032000D01*
X111313000Y-132998666D01*
X111779666Y-133398666D02*
X111913000Y-133398666D01*
X111979666Y-133365333D01*
X112013000Y-133332000D01*
X112079666Y-133232000D01*
X112113000Y-133098666D01*
X112113000Y-132832000D01*
X112079666Y-132765333D01*
X112046333Y-132732000D01*
X111979666Y-132698666D01*
X111846333Y-132698666D01*
X111779666Y-132732000D01*
X111746333Y-132765333D01*
X111713000Y-132832000D01*
X111713000Y-132998666D01*
X111746333Y-133065333D01*
X111779666Y-133098666D01*
X111846333Y-133132000D01*
X111979666Y-133132000D01*
X112046333Y-133098666D01*
X112079666Y-133065333D01*
X112113000Y-132998666D01*
X105013000Y-133848666D02*
X105079666Y-133848666D01*
X105146333Y-133882000D01*
X105179666Y-133915333D01*
X105213000Y-133982000D01*
X105246333Y-134115333D01*
X105246333Y-134282000D01*
X105213000Y-134415333D01*
X105179666Y-134482000D01*
X105146333Y-134515333D01*
X105079666Y-134548666D01*
X105013000Y-134548666D01*
X104946333Y-134515333D01*
X104913000Y-134482000D01*
X104879666Y-134415333D01*
X104846333Y-134282000D01*
X104846333Y-134115333D01*
X104879666Y-133982000D01*
X104913000Y-133915333D01*
X104946333Y-133882000D01*
X105013000Y-133848666D01*
X106446333Y-134548666D02*
X106046333Y-134548666D01*
X106246333Y-134548666D02*
X106246333Y-133848666D01*
X106179666Y-133948666D01*
X106113000Y-134015333D01*
X106046333Y-134048666D01*
X107413000Y-133848666D02*
X107479666Y-133848666D01*
X107546333Y-133882000D01*
X107579666Y-133915333D01*
X107613000Y-133982000D01*
X107646333Y-134115333D01*
X107646333Y-134282000D01*
X107613000Y-134415333D01*
X107579666Y-134482000D01*
X107546333Y-134515333D01*
X107479666Y-134548666D01*
X107413000Y-134548666D01*
X107346333Y-134515333D01*
X107313000Y-134482000D01*
X107279666Y-134415333D01*
X107246333Y-134282000D01*
X107246333Y-134115333D01*
X107279666Y-133982000D01*
X107313000Y-133915333D01*
X107346333Y-133882000D01*
X107413000Y-133848666D01*
X109113000Y-134148666D02*
X109046333Y-134115333D01*
X109013000Y-134082000D01*
X108979666Y-134015333D01*
X108979666Y-133982000D01*
X109013000Y-133915333D01*
X109046333Y-133882000D01*
X109113000Y-133848666D01*
X109246333Y-133848666D01*
X109313000Y-133882000D01*
X109346333Y-133915333D01*
X109379666Y-133982000D01*
X109379666Y-134015333D01*
X109346333Y-134082000D01*
X109313000Y-134115333D01*
X109246333Y-134148666D01*
X109113000Y-134148666D01*
X109046333Y-134182000D01*
X109013000Y-134215333D01*
X108979666Y-134282000D01*
X108979666Y-134415333D01*
X109013000Y-134482000D01*
X109046333Y-134515333D01*
X109113000Y-134548666D01*
X109246333Y-134548666D01*
X109313000Y-134515333D01*
X109346333Y-134482000D01*
X109379666Y-134415333D01*
X109379666Y-134282000D01*
X109346333Y-134215333D01*
X109313000Y-134182000D01*
X109246333Y-134148666D01*
X109646333Y-133915333D02*
X109679666Y-133882000D01*
X109746333Y-133848666D01*
X109913000Y-133848666D01*
X109979666Y-133882000D01*
X110013000Y-133915333D01*
X110046333Y-133982000D01*
X110046333Y-134048666D01*
X110013000Y-134148666D01*
X109613000Y-134548666D01*
X110046333Y-134548666D01*
X110846333Y-133815333D02*
X110246333Y-134715333D01*
X111113000Y-134548666D02*
X111246333Y-134548666D01*
X111313000Y-134515333D01*
X111346333Y-134482000D01*
X111413000Y-134382000D01*
X111446333Y-134248666D01*
X111446333Y-133982000D01*
X111413000Y-133915333D01*
X111379666Y-133882000D01*
X111313000Y-133848666D01*
X111179666Y-133848666D01*
X111113000Y-133882000D01*
X111079666Y-133915333D01*
X111046333Y-133982000D01*
X111046333Y-134148666D01*
X111079666Y-134215333D01*
X111113000Y-134248666D01*
X111179666Y-134282000D01*
X111313000Y-134282000D01*
X111379666Y-134248666D01*
X111413000Y-134215333D01*
X111446333Y-134148666D01*
X111879666Y-133848666D02*
X111946333Y-133848666D01*
X112013000Y-133882000D01*
X112046333Y-133915333D01*
X112079666Y-133982000D01*
X112113000Y-134115333D01*
X112113000Y-134282000D01*
X112079666Y-134415333D01*
X112046333Y-134482000D01*
X112013000Y-134515333D01*
X111946333Y-134548666D01*
X111879666Y-134548666D01*
X111813000Y-134515333D01*
X111779666Y-134482000D01*
X111746333Y-134415333D01*
X111713000Y-134282000D01*
X111713000Y-134115333D01*
X111746333Y-133982000D01*
X111779666Y-133915333D01*
X111813000Y-133882000D01*
X111879666Y-133848666D01*
X105246333Y-135698666D02*
X104846333Y-135698666D01*
X105046333Y-135698666D02*
X105046333Y-134998666D01*
X104979666Y-135098666D01*
X104913000Y-135165333D01*
X104846333Y-135198666D01*
X106446333Y-135698666D02*
X106046333Y-135698666D01*
X106246333Y-135698666D02*
X106246333Y-134998666D01*
X106179666Y-135098666D01*
X106113000Y-135165333D01*
X106046333Y-135198666D01*
X107413000Y-134998666D02*
X107479666Y-134998666D01*
X107546333Y-135032000D01*
X107579666Y-135065333D01*
X107613000Y-135132000D01*
X107646333Y-135265333D01*
X107646333Y-135432000D01*
X107613000Y-135565333D01*
X107579666Y-135632000D01*
X107546333Y-135665333D01*
X107479666Y-135698666D01*
X107413000Y-135698666D01*
X107346333Y-135665333D01*
X107313000Y-135632000D01*
X107279666Y-135565333D01*
X107246333Y-135432000D01*
X107246333Y-135265333D01*
X107279666Y-135132000D01*
X107313000Y-135065333D01*
X107346333Y-135032000D01*
X107413000Y-134998666D01*
X109113000Y-135298666D02*
X109046333Y-135265333D01*
X109013000Y-135232000D01*
X108979666Y-135165333D01*
X108979666Y-135132000D01*
X109013000Y-135065333D01*
X109046333Y-135032000D01*
X109113000Y-134998666D01*
X109246333Y-134998666D01*
X109313000Y-135032000D01*
X109346333Y-135065333D01*
X109379666Y-135132000D01*
X109379666Y-135165333D01*
X109346333Y-135232000D01*
X109313000Y-135265333D01*
X109246333Y-135298666D01*
X109113000Y-135298666D01*
X109046333Y-135332000D01*
X109013000Y-135365333D01*
X108979666Y-135432000D01*
X108979666Y-135565333D01*
X109013000Y-135632000D01*
X109046333Y-135665333D01*
X109113000Y-135698666D01*
X109246333Y-135698666D01*
X109313000Y-135665333D01*
X109346333Y-135632000D01*
X109379666Y-135565333D01*
X109379666Y-135432000D01*
X109346333Y-135365333D01*
X109313000Y-135332000D01*
X109246333Y-135298666D01*
X109613000Y-134998666D02*
X110046333Y-134998666D01*
X109813000Y-135265333D01*
X109913000Y-135265333D01*
X109979666Y-135298666D01*
X110013000Y-135332000D01*
X110046333Y-135398666D01*
X110046333Y-135565333D01*
X110013000Y-135632000D01*
X109979666Y-135665333D01*
X109913000Y-135698666D01*
X109713000Y-135698666D01*
X109646333Y-135665333D01*
X109613000Y-135632000D01*
X110846333Y-134965333D02*
X110246333Y-135865333D01*
X111113000Y-135698666D02*
X111246333Y-135698666D01*
X111313000Y-135665333D01*
X111346333Y-135632000D01*
X111413000Y-135532000D01*
X111446333Y-135398666D01*
X111446333Y-135132000D01*
X111413000Y-135065333D01*
X111379666Y-135032000D01*
X111313000Y-134998666D01*
X111179666Y-134998666D01*
X111113000Y-135032000D01*
X111079666Y-135065333D01*
X111046333Y-135132000D01*
X111046333Y-135298666D01*
X111079666Y-135365333D01*
X111113000Y-135398666D01*
X111179666Y-135432000D01*
X111313000Y-135432000D01*
X111379666Y-135398666D01*
X111413000Y-135365333D01*
X111446333Y-135298666D01*
X112113000Y-135698666D02*
X111713000Y-135698666D01*
X111913000Y-135698666D02*
X111913000Y-134998666D01*
X111846333Y-135098666D01*
X111779666Y-135165333D01*
X111713000Y-135198666D01*
X105013000Y-136148666D02*
X105079666Y-136148666D01*
X105146333Y-136182000D01*
X105179666Y-136215333D01*
X105213000Y-136282000D01*
X105246333Y-136415333D01*
X105246333Y-136582000D01*
X105213000Y-136715333D01*
X105179666Y-136782000D01*
X105146333Y-136815333D01*
X105079666Y-136848666D01*
X105013000Y-136848666D01*
X104946333Y-136815333D01*
X104913000Y-136782000D01*
X104879666Y-136715333D01*
X104846333Y-136582000D01*
X104846333Y-136415333D01*
X104879666Y-136282000D01*
X104913000Y-136215333D01*
X104946333Y-136182000D01*
X105013000Y-136148666D01*
X106213000Y-136148666D02*
X106279666Y-136148666D01*
X106346333Y-136182000D01*
X106379666Y-136215333D01*
X106413000Y-136282000D01*
X106446333Y-136415333D01*
X106446333Y-136582000D01*
X106413000Y-136715333D01*
X106379666Y-136782000D01*
X106346333Y-136815333D01*
X106279666Y-136848666D01*
X106213000Y-136848666D01*
X106146333Y-136815333D01*
X106113000Y-136782000D01*
X106079666Y-136715333D01*
X106046333Y-136582000D01*
X106046333Y-136415333D01*
X106079666Y-136282000D01*
X106113000Y-136215333D01*
X106146333Y-136182000D01*
X106213000Y-136148666D01*
X107646333Y-136848666D02*
X107246333Y-136848666D01*
X107446333Y-136848666D02*
X107446333Y-136148666D01*
X107379666Y-136248666D01*
X107313000Y-136315333D01*
X107246333Y-136348666D01*
X109113000Y-136448666D02*
X109046333Y-136415333D01*
X109013000Y-136382000D01*
X108979666Y-136315333D01*
X108979666Y-136282000D01*
X109013000Y-136215333D01*
X109046333Y-136182000D01*
X109113000Y-136148666D01*
X109246333Y-136148666D01*
X109313000Y-136182000D01*
X109346333Y-136215333D01*
X109379666Y-136282000D01*
X109379666Y-136315333D01*
X109346333Y-136382000D01*
X109313000Y-136415333D01*
X109246333Y-136448666D01*
X109113000Y-136448666D01*
X109046333Y-136482000D01*
X109013000Y-136515333D01*
X108979666Y-136582000D01*
X108979666Y-136715333D01*
X109013000Y-136782000D01*
X109046333Y-136815333D01*
X109113000Y-136848666D01*
X109246333Y-136848666D01*
X109313000Y-136815333D01*
X109346333Y-136782000D01*
X109379666Y-136715333D01*
X109379666Y-136582000D01*
X109346333Y-136515333D01*
X109313000Y-136482000D01*
X109246333Y-136448666D01*
X109979666Y-136382000D02*
X109979666Y-136848666D01*
X109813000Y-136115333D02*
X109646333Y-136615333D01*
X110079666Y-136615333D01*
X110846333Y-136115333D02*
X110246333Y-137015333D01*
X111113000Y-136848666D02*
X111246333Y-136848666D01*
X111313000Y-136815333D01*
X111346333Y-136782000D01*
X111413000Y-136682000D01*
X111446333Y-136548666D01*
X111446333Y-136282000D01*
X111413000Y-136215333D01*
X111379666Y-136182000D01*
X111313000Y-136148666D01*
X111179666Y-136148666D01*
X111113000Y-136182000D01*
X111079666Y-136215333D01*
X111046333Y-136282000D01*
X111046333Y-136448666D01*
X111079666Y-136515333D01*
X111113000Y-136548666D01*
X111179666Y-136582000D01*
X111313000Y-136582000D01*
X111379666Y-136548666D01*
X111413000Y-136515333D01*
X111446333Y-136448666D01*
X111713000Y-136215333D02*
X111746333Y-136182000D01*
X111813000Y-136148666D01*
X111979666Y-136148666D01*
X112046333Y-136182000D01*
X112079666Y-136215333D01*
X112113000Y-136282000D01*
X112113000Y-136348666D01*
X112079666Y-136448666D01*
X111679666Y-136848666D01*
X112113000Y-136848666D01*
X105246333Y-137998666D02*
X104846333Y-137998666D01*
X105046333Y-137998666D02*
X105046333Y-137298666D01*
X104979666Y-137398666D01*
X104913000Y-137465333D01*
X104846333Y-137498666D01*
X106213000Y-137298666D02*
X106279666Y-137298666D01*
X106346333Y-137332000D01*
X106379666Y-137365333D01*
X106413000Y-137432000D01*
X106446333Y-137565333D01*
X106446333Y-137732000D01*
X106413000Y-137865333D01*
X106379666Y-137932000D01*
X106346333Y-137965333D01*
X106279666Y-137998666D01*
X106213000Y-137998666D01*
X106146333Y-137965333D01*
X106113000Y-137932000D01*
X106079666Y-137865333D01*
X106046333Y-137732000D01*
X106046333Y-137565333D01*
X106079666Y-137432000D01*
X106113000Y-137365333D01*
X106146333Y-137332000D01*
X106213000Y-137298666D01*
X107646333Y-137998666D02*
X107246333Y-137998666D01*
X107446333Y-137998666D02*
X107446333Y-137298666D01*
X107379666Y-137398666D01*
X107313000Y-137465333D01*
X107246333Y-137498666D01*
X109113000Y-137598666D02*
X109046333Y-137565333D01*
X109013000Y-137532000D01*
X108979666Y-137465333D01*
X108979666Y-137432000D01*
X109013000Y-137365333D01*
X109046333Y-137332000D01*
X109113000Y-137298666D01*
X109246333Y-137298666D01*
X109313000Y-137332000D01*
X109346333Y-137365333D01*
X109379666Y-137432000D01*
X109379666Y-137465333D01*
X109346333Y-137532000D01*
X109313000Y-137565333D01*
X109246333Y-137598666D01*
X109113000Y-137598666D01*
X109046333Y-137632000D01*
X109013000Y-137665333D01*
X108979666Y-137732000D01*
X108979666Y-137865333D01*
X109013000Y-137932000D01*
X109046333Y-137965333D01*
X109113000Y-137998666D01*
X109246333Y-137998666D01*
X109313000Y-137965333D01*
X109346333Y-137932000D01*
X109379666Y-137865333D01*
X109379666Y-137732000D01*
X109346333Y-137665333D01*
X109313000Y-137632000D01*
X109246333Y-137598666D01*
X110013000Y-137298666D02*
X109679666Y-137298666D01*
X109646333Y-137632000D01*
X109679666Y-137598666D01*
X109746333Y-137565333D01*
X109913000Y-137565333D01*
X109979666Y-137598666D01*
X110013000Y-137632000D01*
X110046333Y-137698666D01*
X110046333Y-137865333D01*
X110013000Y-137932000D01*
X109979666Y-137965333D01*
X109913000Y-137998666D01*
X109746333Y-137998666D01*
X109679666Y-137965333D01*
X109646333Y-137932000D01*
X110846333Y-137265333D02*
X110246333Y-138165333D01*
X111113000Y-137998666D02*
X111246333Y-137998666D01*
X111313000Y-137965333D01*
X111346333Y-137932000D01*
X111413000Y-137832000D01*
X111446333Y-137698666D01*
X111446333Y-137432000D01*
X111413000Y-137365333D01*
X111379666Y-137332000D01*
X111313000Y-137298666D01*
X111179666Y-137298666D01*
X111113000Y-137332000D01*
X111079666Y-137365333D01*
X111046333Y-137432000D01*
X111046333Y-137598666D01*
X111079666Y-137665333D01*
X111113000Y-137698666D01*
X111179666Y-137732000D01*
X111313000Y-137732000D01*
X111379666Y-137698666D01*
X111413000Y-137665333D01*
X111446333Y-137598666D01*
X111679666Y-137298666D02*
X112113000Y-137298666D01*
X111879666Y-137565333D01*
X111979666Y-137565333D01*
X112046333Y-137598666D01*
X112079666Y-137632000D01*
X112113000Y-137698666D01*
X112113000Y-137865333D01*
X112079666Y-137932000D01*
X112046333Y-137965333D01*
X111979666Y-137998666D01*
X111779666Y-137998666D01*
X111713000Y-137965333D01*
X111679666Y-137932000D01*
X105013000Y-138448666D02*
X105079666Y-138448666D01*
X105146333Y-138482000D01*
X105179666Y-138515333D01*
X105213000Y-138582000D01*
X105246333Y-138715333D01*
X105246333Y-138882000D01*
X105213000Y-139015333D01*
X105179666Y-139082000D01*
X105146333Y-139115333D01*
X105079666Y-139148666D01*
X105013000Y-139148666D01*
X104946333Y-139115333D01*
X104913000Y-139082000D01*
X104879666Y-139015333D01*
X104846333Y-138882000D01*
X104846333Y-138715333D01*
X104879666Y-138582000D01*
X104913000Y-138515333D01*
X104946333Y-138482000D01*
X105013000Y-138448666D01*
X106446333Y-139148666D02*
X106046333Y-139148666D01*
X106246333Y-139148666D02*
X106246333Y-138448666D01*
X106179666Y-138548666D01*
X106113000Y-138615333D01*
X106046333Y-138648666D01*
X107646333Y-139148666D02*
X107246333Y-139148666D01*
X107446333Y-139148666D02*
X107446333Y-138448666D01*
X107379666Y-138548666D01*
X107313000Y-138615333D01*
X107246333Y-138648666D01*
X109113000Y-138748666D02*
X109046333Y-138715333D01*
X109013000Y-138682000D01*
X108979666Y-138615333D01*
X108979666Y-138582000D01*
X109013000Y-138515333D01*
X109046333Y-138482000D01*
X109113000Y-138448666D01*
X109246333Y-138448666D01*
X109313000Y-138482000D01*
X109346333Y-138515333D01*
X109379666Y-138582000D01*
X109379666Y-138615333D01*
X109346333Y-138682000D01*
X109313000Y-138715333D01*
X109246333Y-138748666D01*
X109113000Y-138748666D01*
X109046333Y-138782000D01*
X109013000Y-138815333D01*
X108979666Y-138882000D01*
X108979666Y-139015333D01*
X109013000Y-139082000D01*
X109046333Y-139115333D01*
X109113000Y-139148666D01*
X109246333Y-139148666D01*
X109313000Y-139115333D01*
X109346333Y-139082000D01*
X109379666Y-139015333D01*
X109379666Y-138882000D01*
X109346333Y-138815333D01*
X109313000Y-138782000D01*
X109246333Y-138748666D01*
X109979666Y-138448666D02*
X109846333Y-138448666D01*
X109779666Y-138482000D01*
X109746333Y-138515333D01*
X109679666Y-138615333D01*
X109646333Y-138748666D01*
X109646333Y-139015333D01*
X109679666Y-139082000D01*
X109713000Y-139115333D01*
X109779666Y-139148666D01*
X109913000Y-139148666D01*
X109979666Y-139115333D01*
X110013000Y-139082000D01*
X110046333Y-139015333D01*
X110046333Y-138848666D01*
X110013000Y-138782000D01*
X109979666Y-138748666D01*
X109913000Y-138715333D01*
X109779666Y-138715333D01*
X109713000Y-138748666D01*
X109679666Y-138782000D01*
X109646333Y-138848666D01*
X110846333Y-138415333D02*
X110246333Y-139315333D01*
X111113000Y-139148666D02*
X111246333Y-139148666D01*
X111313000Y-139115333D01*
X111346333Y-139082000D01*
X111413000Y-138982000D01*
X111446333Y-138848666D01*
X111446333Y-138582000D01*
X111413000Y-138515333D01*
X111379666Y-138482000D01*
X111313000Y-138448666D01*
X111179666Y-138448666D01*
X111113000Y-138482000D01*
X111079666Y-138515333D01*
X111046333Y-138582000D01*
X111046333Y-138748666D01*
X111079666Y-138815333D01*
X111113000Y-138848666D01*
X111179666Y-138882000D01*
X111313000Y-138882000D01*
X111379666Y-138848666D01*
X111413000Y-138815333D01*
X111446333Y-138748666D01*
X112046333Y-138682000D02*
X112046333Y-139148666D01*
X111879666Y-138415333D02*
X111713000Y-138915333D01*
X112146333Y-138915333D01*
X105246333Y-140298666D02*
X104846333Y-140298666D01*
X105046333Y-140298666D02*
X105046333Y-139598666D01*
X104979666Y-139698666D01*
X104913000Y-139765333D01*
X104846333Y-139798666D01*
X106446333Y-140298666D02*
X106046333Y-140298666D01*
X106246333Y-140298666D02*
X106246333Y-139598666D01*
X106179666Y-139698666D01*
X106113000Y-139765333D01*
X106046333Y-139798666D01*
X107646333Y-140298666D02*
X107246333Y-140298666D01*
X107446333Y-140298666D02*
X107446333Y-139598666D01*
X107379666Y-139698666D01*
X107313000Y-139765333D01*
X107246333Y-139798666D01*
X109046333Y-140298666D02*
X109179666Y-140298666D01*
X109246333Y-140265333D01*
X109279666Y-140232000D01*
X109346333Y-140132000D01*
X109379666Y-139998666D01*
X109379666Y-139732000D01*
X109346333Y-139665333D01*
X109313000Y-139632000D01*
X109246333Y-139598666D01*
X109113000Y-139598666D01*
X109046333Y-139632000D01*
X109013000Y-139665333D01*
X108979666Y-139732000D01*
X108979666Y-139898666D01*
X109013000Y-139965333D01*
X109046333Y-139998666D01*
X109113000Y-140032000D01*
X109246333Y-140032000D01*
X109313000Y-139998666D01*
X109346333Y-139965333D01*
X109379666Y-139898666D01*
X109613000Y-139598666D02*
X110079666Y-139598666D01*
X109779666Y-140298666D01*
X110846333Y-139565333D02*
X110246333Y-140465333D01*
X111113000Y-140298666D02*
X111246333Y-140298666D01*
X111313000Y-140265333D01*
X111346333Y-140232000D01*
X111413000Y-140132000D01*
X111446333Y-139998666D01*
X111446333Y-139732000D01*
X111413000Y-139665333D01*
X111379666Y-139632000D01*
X111313000Y-139598666D01*
X111179666Y-139598666D01*
X111113000Y-139632000D01*
X111079666Y-139665333D01*
X111046333Y-139732000D01*
X111046333Y-139898666D01*
X111079666Y-139965333D01*
X111113000Y-139998666D01*
X111179666Y-140032000D01*
X111313000Y-140032000D01*
X111379666Y-139998666D01*
X111413000Y-139965333D01*
X111446333Y-139898666D01*
X112079666Y-139598666D02*
X111746333Y-139598666D01*
X111713000Y-139932000D01*
X111746333Y-139898666D01*
X111813000Y-139865333D01*
X111979666Y-139865333D01*
X112046333Y-139898666D01*
X112079666Y-139932000D01*
X112113000Y-139998666D01*
X112113000Y-140165333D01*
X112079666Y-140232000D01*
X112046333Y-140265333D01*
X111979666Y-140298666D01*
X111813000Y-140298666D01*
X111746333Y-140265333D01*
X111713000Y-140232000D01*
D11*
X209486500Y-121348500D02*
G75*
G03*
X209486500Y-121348500I-127000J0D01*
G01*
D12*
X103656333Y-112346666D02*
X104132523Y-112346666D01*
X103561095Y-112632380D02*
X103894428Y-111632380D01*
X104227761Y-112632380D01*
X104561095Y-112632380D02*
X104561095Y-111632380D01*
X104799190Y-111632380D01*
X104942047Y-111680000D01*
X105037285Y-111775238D01*
X105084904Y-111870476D01*
X105132523Y-112060952D01*
X105132523Y-112203809D01*
X105084904Y-112394285D01*
X105037285Y-112489523D01*
X104942047Y-112584761D01*
X104799190Y-112632380D01*
X104561095Y-112632380D01*
X105561095Y-112632380D02*
X105561095Y-111632380D01*
X105799190Y-111632380D01*
X105942047Y-111680000D01*
X106037285Y-111775238D01*
X106084904Y-111870476D01*
X106132523Y-112060952D01*
X106132523Y-112203809D01*
X106084904Y-112394285D01*
X106037285Y-112489523D01*
X105942047Y-112584761D01*
X105799190Y-112632380D01*
X105561095Y-112632380D01*
X107132523Y-112632380D02*
X106799190Y-112156190D01*
X106561095Y-112632380D02*
X106561095Y-111632380D01*
X106942047Y-111632380D01*
X107037285Y-111680000D01*
X107084904Y-111727619D01*
X107132523Y-111822857D01*
X107132523Y-111965714D01*
X107084904Y-112060952D01*
X107037285Y-112108571D01*
X106942047Y-112156190D01*
X106561095Y-112156190D01*
X108323000Y-112632380D02*
X108323000Y-111632380D01*
X108656333Y-112346666D01*
X108989666Y-111632380D01*
X108989666Y-112632380D01*
X109656333Y-111632380D02*
X109846809Y-111632380D01*
X109942047Y-111680000D01*
X110037285Y-111775238D01*
X110084904Y-111965714D01*
X110084904Y-112299047D01*
X110037285Y-112489523D01*
X109942047Y-112584761D01*
X109846809Y-112632380D01*
X109656333Y-112632380D01*
X109561095Y-112584761D01*
X109465857Y-112489523D01*
X109418238Y-112299047D01*
X109418238Y-111965714D01*
X109465857Y-111775238D01*
X109561095Y-111680000D01*
X109656333Y-111632380D01*
X110513476Y-112632380D02*
X110513476Y-111632380D01*
X110751571Y-111632380D01*
X110894428Y-111680000D01*
X110989666Y-111775238D01*
X111037285Y-111870476D01*
X111084904Y-112060952D01*
X111084904Y-112203809D01*
X111037285Y-112394285D01*
X110989666Y-112489523D01*
X110894428Y-112584761D01*
X110751571Y-112632380D01*
X110513476Y-112632380D01*
X111513476Y-112108571D02*
X111846809Y-112108571D01*
X111989666Y-112632380D02*
X111513476Y-112632380D01*
X111513476Y-111632380D01*
X111989666Y-111632380D01*
X100513476Y-114046666D02*
X100989666Y-114046666D01*
X100418238Y-114332380D02*
X100751571Y-113332380D01*
X101084904Y-114332380D01*
X101418238Y-114332380D02*
X101418238Y-113332380D01*
X101989666Y-114332380D01*
X101989666Y-113332380D01*
X102418238Y-114046666D02*
X102894428Y-114046666D01*
X102323000Y-114332380D02*
X102656333Y-113332380D01*
X102989666Y-114332380D01*
X103799190Y-114332380D02*
X103323000Y-114332380D01*
X103323000Y-113332380D01*
X104323000Y-113332380D02*
X104513476Y-113332380D01*
X104608714Y-113380000D01*
X104703952Y-113475238D01*
X104751571Y-113665714D01*
X104751571Y-113999047D01*
X104703952Y-114189523D01*
X104608714Y-114284761D01*
X104513476Y-114332380D01*
X104323000Y-114332380D01*
X104227761Y-114284761D01*
X104132523Y-114189523D01*
X104084904Y-113999047D01*
X104084904Y-113665714D01*
X104132523Y-113475238D01*
X104227761Y-113380000D01*
X104323000Y-113332380D01*
X105703952Y-113380000D02*
X105608714Y-113332380D01*
X105465857Y-113332380D01*
X105323000Y-113380000D01*
X105227761Y-113475238D01*
X105180142Y-113570476D01*
X105132523Y-113760952D01*
X105132523Y-113903809D01*
X105180142Y-114094285D01*
X105227761Y-114189523D01*
X105323000Y-114284761D01*
X105465857Y-114332380D01*
X105561095Y-114332380D01*
X105703952Y-114284761D01*
X105751571Y-114237142D01*
X105751571Y-113903809D01*
X105561095Y-113903809D01*
X106942047Y-113951428D02*
X107703952Y-113951428D01*
X108180142Y-113665714D02*
X108942047Y-113951428D01*
X108180142Y-114237142D01*
X110180142Y-114332380D02*
X110180142Y-113332380D01*
X110418238Y-113332380D01*
X110561095Y-113380000D01*
X110656333Y-113475238D01*
X110703952Y-113570476D01*
X110751571Y-113760952D01*
X110751571Y-113903809D01*
X110703952Y-114094285D01*
X110656333Y-114189523D01*
X110561095Y-114284761D01*
X110418238Y-114332380D01*
X110180142Y-114332380D01*
X111180142Y-114332380D02*
X111180142Y-113332380D01*
X112180142Y-113380000D02*
X112084904Y-113332380D01*
X111942047Y-113332380D01*
X111799190Y-113380000D01*
X111703952Y-113475238D01*
X111656333Y-113570476D01*
X111608714Y-113760952D01*
X111608714Y-113903809D01*
X111656333Y-114094285D01*
X111703952Y-114189523D01*
X111799190Y-114284761D01*
X111942047Y-114332380D01*
X112037285Y-114332380D01*
X112180142Y-114284761D01*
X112227761Y-114237142D01*
X112227761Y-113903809D01*
X112037285Y-113903809D01*
X112656333Y-114332380D02*
X112656333Y-113332380D01*
X112989666Y-113332380D02*
X113561095Y-113332380D01*
X113275380Y-114332380D02*
X113275380Y-113332380D01*
X113846809Y-114046666D02*
X114323000Y-114046666D01*
X113751571Y-114332380D02*
X114084904Y-113332380D01*
X114418238Y-114332380D01*
X115227761Y-114332380D02*
X114751571Y-114332380D01*
X114751571Y-113332380D01*
X103569095Y-95741380D02*
X103569095Y-94741380D01*
X103807190Y-94741380D01*
X103950047Y-94789000D01*
X104045285Y-94884238D01*
X104092904Y-94979476D01*
X104140523Y-95169952D01*
X104140523Y-95312809D01*
X104092904Y-95503285D01*
X104045285Y-95598523D01*
X103950047Y-95693761D01*
X103807190Y-95741380D01*
X103569095Y-95741380D01*
X104569095Y-95741380D02*
X104569095Y-94741380D01*
X105569095Y-94789000D02*
X105473857Y-94741380D01*
X105331000Y-94741380D01*
X105188142Y-94789000D01*
X105092904Y-94884238D01*
X105045285Y-94979476D01*
X104997666Y-95169952D01*
X104997666Y-95312809D01*
X105045285Y-95503285D01*
X105092904Y-95598523D01*
X105188142Y-95693761D01*
X105331000Y-95741380D01*
X105426238Y-95741380D01*
X105569095Y-95693761D01*
X105616714Y-95646142D01*
X105616714Y-95312809D01*
X105426238Y-95312809D01*
X106045285Y-95741380D02*
X106045285Y-94741380D01*
X106378619Y-94741380D02*
X106950047Y-94741380D01*
X106664333Y-95741380D02*
X106664333Y-94741380D01*
X107235761Y-95455666D02*
X107711952Y-95455666D01*
X107140523Y-95741380D02*
X107473857Y-94741380D01*
X107807190Y-95741380D01*
X108616714Y-95741380D02*
X108140523Y-95741380D01*
X108140523Y-94741380D01*
X109664333Y-95455666D02*
X110140523Y-95455666D01*
X109569095Y-95741380D02*
X109902428Y-94741380D01*
X110235761Y-95741380D01*
X110569095Y-95741380D02*
X110569095Y-94741380D01*
X110807190Y-94741380D01*
X110950047Y-94789000D01*
X111045285Y-94884238D01*
X111092904Y-94979476D01*
X111140523Y-95169952D01*
X111140523Y-95312809D01*
X111092904Y-95503285D01*
X111045285Y-95598523D01*
X110950047Y-95693761D01*
X110807190Y-95741380D01*
X110569095Y-95741380D01*
X111569095Y-95741380D02*
X111569095Y-94741380D01*
X111807190Y-94741380D01*
X111950047Y-94789000D01*
X112045285Y-94884238D01*
X112092904Y-94979476D01*
X112140523Y-95169952D01*
X112140523Y-95312809D01*
X112092904Y-95503285D01*
X112045285Y-95598523D01*
X111950047Y-95693761D01*
X111807190Y-95741380D01*
X111569095Y-95741380D01*
X113140523Y-95741380D02*
X112807190Y-95265190D01*
X112569095Y-95741380D02*
X112569095Y-94741380D01*
X112950047Y-94741380D01*
X113045285Y-94789000D01*
X113092904Y-94836619D01*
X113140523Y-94931857D01*
X113140523Y-95074714D01*
X113092904Y-95169952D01*
X113045285Y-95217571D01*
X112950047Y-95265190D01*
X112569095Y-95265190D01*
X104902428Y-97441380D02*
X104331000Y-97441380D01*
X104616714Y-97441380D02*
X104616714Y-96441380D01*
X104521476Y-96584238D01*
X104426238Y-96679476D01*
X104331000Y-96727095D01*
X106854809Y-96774714D02*
X106092904Y-97060428D01*
X106854809Y-97346142D01*
X107331000Y-97060428D02*
X108092904Y-97060428D01*
X108569095Y-97060428D02*
X109331000Y-97060428D01*
X109807190Y-96774714D02*
X110569095Y-97060428D01*
X109807190Y-97346142D01*
X111997666Y-96441380D02*
X112092904Y-96441380D01*
X112188142Y-96489000D01*
X112235761Y-96536619D01*
X112283380Y-96631857D01*
X112331000Y-96822333D01*
X112331000Y-97060428D01*
X112283380Y-97250904D01*
X112235761Y-97346142D01*
X112188142Y-97393761D01*
X112092904Y-97441380D01*
X111997666Y-97441380D01*
X111902428Y-97393761D01*
X111854809Y-97346142D01*
X111807190Y-97250904D01*
X111759571Y-97060428D01*
X111759571Y-96822333D01*
X111807190Y-96631857D01*
X111854809Y-96536619D01*
X111902428Y-96489000D01*
X111997666Y-96441380D01*
D10*
X101205500Y-105804500D02*
X101305500Y-105837833D01*
X101338833Y-105871166D01*
X101372166Y-105937833D01*
X101372166Y-106037833D01*
X101338833Y-106104500D01*
X101305500Y-106137833D01*
X101238833Y-106171166D01*
X100972166Y-106171166D01*
X100972166Y-105471166D01*
X101205500Y-105471166D01*
X101272166Y-105504500D01*
X101305500Y-105537833D01*
X101338833Y-105604500D01*
X101338833Y-105671166D01*
X101305500Y-105737833D01*
X101272166Y-105771166D01*
X101205500Y-105804500D01*
X100972166Y-105804500D01*
X101205500Y-103264500D02*
X101305500Y-103297833D01*
X101338833Y-103331166D01*
X101372166Y-103397833D01*
X101372166Y-103497833D01*
X101338833Y-103564500D01*
X101305500Y-103597833D01*
X101238833Y-103631166D01*
X100972166Y-103631166D01*
X100972166Y-102931166D01*
X101205500Y-102931166D01*
X101272166Y-102964500D01*
X101305500Y-102997833D01*
X101338833Y-103064500D01*
X101338833Y-103131166D01*
X101305500Y-103197833D01*
X101272166Y-103231166D01*
X101205500Y-103264500D01*
X100972166Y-103264500D01*
X100988833Y-100891166D02*
X101322166Y-100891166D01*
X100922166Y-101091166D02*
X101155500Y-100391166D01*
X101388833Y-101091166D01*
D13*
X156718595Y-142001761D02*
X155575738Y-142001761D01*
X156147166Y-142001761D02*
X156147166Y-140001761D01*
X155956690Y-140287476D01*
X155766214Y-140477952D01*
X155575738Y-140573190D01*
X157480500Y-140192238D02*
X157575738Y-140097000D01*
X157766214Y-140001761D01*
X158242404Y-140001761D01*
X158432880Y-140097000D01*
X158528119Y-140192238D01*
X158623357Y-140382714D01*
X158623357Y-140573190D01*
X158528119Y-140858904D01*
X157385261Y-142001761D01*
X158623357Y-142001761D01*
X159194785Y-140001761D02*
X159861452Y-142001761D01*
X160528119Y-140001761D01*
X163575738Y-140001761D02*
X163194785Y-140001761D01*
X163004309Y-140097000D01*
X162909071Y-140192238D01*
X162718595Y-140477952D01*
X162623357Y-140858904D01*
X162623357Y-141620809D01*
X162718595Y-141811285D01*
X162813833Y-141906523D01*
X163004309Y-142001761D01*
X163385261Y-142001761D01*
X163575738Y-141906523D01*
X163670976Y-141811285D01*
X163766214Y-141620809D01*
X163766214Y-141144619D01*
X163670976Y-140954142D01*
X163575738Y-140858904D01*
X163385261Y-140763666D01*
X163004309Y-140763666D01*
X162813833Y-140858904D01*
X162718595Y-140954142D01*
X162623357Y-141144619D01*
X165004309Y-140001761D02*
X165194785Y-140001761D01*
X165385261Y-140097000D01*
X165480500Y-140192238D01*
X165575738Y-140382714D01*
X165670976Y-140763666D01*
X165670976Y-141239857D01*
X165575738Y-141620809D01*
X165480500Y-141811285D01*
X165385261Y-141906523D01*
X165194785Y-142001761D01*
X165004309Y-142001761D01*
X164813833Y-141906523D01*
X164718595Y-141811285D01*
X164623357Y-141620809D01*
X164528119Y-141239857D01*
X164528119Y-140763666D01*
X164623357Y-140382714D01*
X164718595Y-140192238D01*
X164813833Y-140097000D01*
X165004309Y-140001761D01*
X166432880Y-141430333D02*
X167385261Y-141430333D01*
X166242404Y-142001761D02*
X166909071Y-140001761D01*
X167575738Y-142001761D01*
D10*
X206489523Y-73684857D02*
X206603809Y-73722952D01*
X206641904Y-73761047D01*
X206680000Y-73837238D01*
X206680000Y-73951523D01*
X206641904Y-74027714D01*
X206603809Y-74065809D01*
X206527619Y-74103904D01*
X206222857Y-74103904D01*
X206222857Y-73303904D01*
X206489523Y-73303904D01*
X206565714Y-73342000D01*
X206603809Y-73380095D01*
X206641904Y-73456285D01*
X206641904Y-73532476D01*
X206603809Y-73608666D01*
X206565714Y-73646761D01*
X206489523Y-73684857D01*
X206222857Y-73684857D01*
X207175238Y-73722952D02*
X207175238Y-74103904D01*
X206908571Y-73303904D02*
X207175238Y-73722952D01*
X207441904Y-73303904D01*
X207708571Y-74103904D02*
X207708571Y-73303904D01*
X208013333Y-73303904D01*
X208089523Y-73342000D01*
X208127619Y-73380095D01*
X208165714Y-73456285D01*
X208165714Y-73570571D01*
X208127619Y-73646761D01*
X208089523Y-73684857D01*
X208013333Y-73722952D01*
X207708571Y-73722952D01*
X208470476Y-73875333D02*
X208851428Y-73875333D01*
X208394285Y-74103904D02*
X208660952Y-73303904D01*
X208927619Y-74103904D01*
X209156190Y-74065809D02*
X209270476Y-74103904D01*
X209460952Y-74103904D01*
X209537142Y-74065809D01*
X209575238Y-74027714D01*
X209613333Y-73951523D01*
X209613333Y-73875333D01*
X209575238Y-73799142D01*
X209537142Y-73761047D01*
X209460952Y-73722952D01*
X209308571Y-73684857D01*
X209232380Y-73646761D01*
X209194285Y-73608666D01*
X209156190Y-73532476D01*
X209156190Y-73456285D01*
X209194285Y-73380095D01*
X209232380Y-73342000D01*
X209308571Y-73303904D01*
X209499047Y-73303904D01*
X209613333Y-73342000D01*
X209918095Y-74065809D02*
X210032380Y-74103904D01*
X210222857Y-74103904D01*
X210299047Y-74065809D01*
X210337142Y-74027714D01*
X210375238Y-73951523D01*
X210375238Y-73875333D01*
X210337142Y-73799142D01*
X210299047Y-73761047D01*
X210222857Y-73722952D01*
X210070476Y-73684857D01*
X209994285Y-73646761D01*
X209956190Y-73608666D01*
X209918095Y-73532476D01*
X209918095Y-73456285D01*
X209956190Y-73380095D01*
X209994285Y-73342000D01*
X210070476Y-73303904D01*
X210260952Y-73303904D01*
X210375238Y-73342000D01*
X206965714Y-75403904D02*
X206965714Y-74603904D01*
X207422857Y-75403904D01*
X207422857Y-74603904D01*
X208260952Y-75403904D02*
X207994285Y-75022952D01*
X207803809Y-75403904D02*
X207803809Y-74603904D01*
X208108571Y-74603904D01*
X208184761Y-74642000D01*
X208222857Y-74680095D01*
X208260952Y-74756285D01*
X208260952Y-74870571D01*
X208222857Y-74946761D01*
X208184761Y-74984857D01*
X208108571Y-75022952D01*
X207803809Y-75022952D01*
X208565714Y-75365809D02*
X208680000Y-75403904D01*
X208870476Y-75403904D01*
X208946666Y-75365809D01*
X208984761Y-75327714D01*
X209022857Y-75251523D01*
X209022857Y-75175333D01*
X208984761Y-75099142D01*
X208946666Y-75061047D01*
X208870476Y-75022952D01*
X208718095Y-74984857D01*
X208641904Y-74946761D01*
X208603809Y-74908666D01*
X208565714Y-74832476D01*
X208565714Y-74756285D01*
X208603809Y-74680095D01*
X208641904Y-74642000D01*
X208718095Y-74603904D01*
X208908571Y-74603904D01*
X209022857Y-74642000D01*
X209251428Y-74603904D02*
X209708571Y-74603904D01*
X209480000Y-75403904D02*
X209480000Y-74603904D01*
X206641904Y-75903904D02*
X207099047Y-75903904D01*
X206870476Y-76703904D02*
X206870476Y-75903904D01*
X207365714Y-76703904D02*
X207365714Y-75903904D01*
X207746666Y-76703904D02*
X207746666Y-75903904D01*
X208013333Y-76475333D01*
X208280000Y-75903904D01*
X208280000Y-76703904D01*
X208660952Y-76284857D02*
X208927619Y-76284857D01*
X209041904Y-76703904D02*
X208660952Y-76703904D01*
X208660952Y-75903904D01*
X209041904Y-75903904D01*
X209841904Y-76703904D02*
X209575238Y-76322952D01*
X209384761Y-76703904D02*
X209384761Y-75903904D01*
X209689523Y-75903904D01*
X209765714Y-75942000D01*
X209803809Y-75980095D01*
X209841904Y-76056285D01*
X209841904Y-76170571D01*
X209803809Y-76246761D01*
X209765714Y-76284857D01*
X209689523Y-76322952D01*
X209384761Y-76322952D01*
X206489523Y-77699142D02*
X207099047Y-77699142D01*
X207480000Y-77699142D02*
X208089523Y-77699142D01*
X208470476Y-77699142D02*
X209080000Y-77699142D01*
X209460952Y-77470571D02*
X210070476Y-77699142D01*
X209460952Y-77927714D01*
X101118166Y-73846500D02*
X101084833Y-73879833D01*
X100984833Y-73913166D01*
X100918166Y-73913166D01*
X100818166Y-73879833D01*
X100751500Y-73813166D01*
X100718166Y-73746500D01*
X100684833Y-73613166D01*
X100684833Y-73513166D01*
X100718166Y-73379833D01*
X100751500Y-73313166D01*
X100818166Y-73246500D01*
X100918166Y-73213166D01*
X100984833Y-73213166D01*
X101084833Y-73246500D01*
X101118166Y-73279833D01*
X100951500Y-71006500D02*
X101051500Y-71039833D01*
X101084833Y-71073166D01*
X101118166Y-71139833D01*
X101118166Y-71239833D01*
X101084833Y-71306500D01*
X101051500Y-71339833D01*
X100984833Y-71373166D01*
X100718166Y-71373166D01*
X100718166Y-70673166D01*
X100951500Y-70673166D01*
X101018166Y-70706500D01*
X101051500Y-70739833D01*
X101084833Y-70806500D01*
X101084833Y-70873166D01*
X101051500Y-70939833D01*
X101018166Y-70973166D01*
X100951500Y-71006500D01*
X100718166Y-71006500D01*
X100734833Y-68506166D02*
X101068166Y-68506166D01*
X100668166Y-68706166D02*
X100901500Y-68006166D01*
X101134833Y-68706166D01*
D12*
X103084928Y-63070666D02*
X103561119Y-63070666D01*
X102989690Y-63356380D02*
X103323023Y-62356380D01*
X103656357Y-63356380D01*
X103989690Y-63356380D02*
X103989690Y-62356380D01*
X104561119Y-63356380D01*
X104561119Y-62356380D01*
X104989690Y-63070666D02*
X105465880Y-63070666D01*
X104894452Y-63356380D02*
X105227785Y-62356380D01*
X105561119Y-63356380D01*
X106370642Y-63356380D02*
X105894452Y-63356380D01*
X105894452Y-62356380D01*
X106894452Y-62356380D02*
X107084928Y-62356380D01*
X107180166Y-62404000D01*
X107275404Y-62499238D01*
X107323023Y-62689714D01*
X107323023Y-63023047D01*
X107275404Y-63213523D01*
X107180166Y-63308761D01*
X107084928Y-63356380D01*
X106894452Y-63356380D01*
X106799214Y-63308761D01*
X106703976Y-63213523D01*
X106656357Y-63023047D01*
X106656357Y-62689714D01*
X106703976Y-62499238D01*
X106799214Y-62404000D01*
X106894452Y-62356380D01*
X108275404Y-62404000D02*
X108180166Y-62356380D01*
X108037309Y-62356380D01*
X107894452Y-62404000D01*
X107799214Y-62499238D01*
X107751595Y-62594476D01*
X107703976Y-62784952D01*
X107703976Y-62927809D01*
X107751595Y-63118285D01*
X107799214Y-63213523D01*
X107894452Y-63308761D01*
X108037309Y-63356380D01*
X108132547Y-63356380D01*
X108275404Y-63308761D01*
X108323023Y-63261142D01*
X108323023Y-62927809D01*
X108132547Y-62927809D01*
X109465880Y-63070666D02*
X109942071Y-63070666D01*
X109370642Y-63356380D02*
X109703976Y-62356380D01*
X110037309Y-63356380D01*
X110370642Y-63356380D02*
X110370642Y-62356380D01*
X110608738Y-62356380D01*
X110751595Y-62404000D01*
X110846833Y-62499238D01*
X110894452Y-62594476D01*
X110942071Y-62784952D01*
X110942071Y-62927809D01*
X110894452Y-63118285D01*
X110846833Y-63213523D01*
X110751595Y-63308761D01*
X110608738Y-63356380D01*
X110370642Y-63356380D01*
X111370642Y-63356380D02*
X111370642Y-62356380D01*
X111608738Y-62356380D01*
X111751595Y-62404000D01*
X111846833Y-62499238D01*
X111894452Y-62594476D01*
X111942071Y-62784952D01*
X111942071Y-62927809D01*
X111894452Y-63118285D01*
X111846833Y-63213523D01*
X111751595Y-63308761D01*
X111608738Y-63356380D01*
X111370642Y-63356380D01*
X112942071Y-63356380D02*
X112608738Y-62880190D01*
X112370642Y-63356380D02*
X112370642Y-62356380D01*
X112751595Y-62356380D01*
X112846833Y-62404000D01*
X112894452Y-62451619D01*
X112942071Y-62546857D01*
X112942071Y-62689714D01*
X112894452Y-62784952D01*
X112846833Y-62832571D01*
X112751595Y-62880190D01*
X112370642Y-62880190D01*
X104584928Y-65056380D02*
X104013500Y-65056380D01*
X104299214Y-65056380D02*
X104299214Y-64056380D01*
X104203976Y-64199238D01*
X104108738Y-64294476D01*
X104013500Y-64342095D01*
X106537309Y-64389714D02*
X105775404Y-64675428D01*
X106537309Y-64961142D01*
X107013500Y-64675428D02*
X107775404Y-64675428D01*
X108251595Y-64675428D02*
X109013500Y-64675428D01*
X109489690Y-64389714D02*
X110251595Y-64675428D01*
X109489690Y-64961142D01*
X111680166Y-64056380D02*
X111775404Y-64056380D01*
X111870642Y-64104000D01*
X111918261Y-64151619D01*
X111965880Y-64246857D01*
X112013500Y-64437333D01*
X112013500Y-64675428D01*
X111965880Y-64865904D01*
X111918261Y-64961142D01*
X111870642Y-65008761D01*
X111775404Y-65056380D01*
X111680166Y-65056380D01*
X111584928Y-65008761D01*
X111537309Y-64961142D01*
X111489690Y-64865904D01*
X111442071Y-64675428D01*
X111442071Y-64437333D01*
X111489690Y-64246857D01*
X111537309Y-64151619D01*
X111584928Y-64104000D01*
X111680166Y-64056380D01*
D10*
X128737666Y-116775666D02*
X128737666Y-116075666D01*
X129004333Y-116075666D01*
X129071000Y-116109000D01*
X129104333Y-116142333D01*
X129137666Y-116209000D01*
X129137666Y-116309000D01*
X129104333Y-116375666D01*
X129071000Y-116409000D01*
X129004333Y-116442333D01*
X128737666Y-116442333D01*
X129837666Y-116775666D02*
X129604333Y-116442333D01*
X129437666Y-116775666D02*
X129437666Y-116075666D01*
X129704333Y-116075666D01*
X129771000Y-116109000D01*
X129804333Y-116142333D01*
X129837666Y-116209000D01*
X129837666Y-116309000D01*
X129804333Y-116375666D01*
X129771000Y-116409000D01*
X129704333Y-116442333D01*
X129437666Y-116442333D01*
X130137666Y-116409000D02*
X130371000Y-116409000D01*
X130471000Y-116775666D02*
X130137666Y-116775666D01*
X130137666Y-116075666D01*
X130471000Y-116075666D01*
X130737666Y-116742333D02*
X130837666Y-116775666D01*
X131004333Y-116775666D01*
X131071000Y-116742333D01*
X131104333Y-116709000D01*
X131137666Y-116642333D01*
X131137666Y-116575666D01*
X131104333Y-116509000D01*
X131071000Y-116475666D01*
X131004333Y-116442333D01*
X130871000Y-116409000D01*
X130804333Y-116375666D01*
X130771000Y-116342333D01*
X130737666Y-116275666D01*
X130737666Y-116209000D01*
X130771000Y-116142333D01*
X130804333Y-116109000D01*
X130871000Y-116075666D01*
X131037666Y-116075666D01*
X131137666Y-116109000D01*
X121740666Y-116075666D02*
X121874000Y-116075666D01*
X121940666Y-116109000D01*
X122007333Y-116175666D01*
X122040666Y-116309000D01*
X122040666Y-116542333D01*
X122007333Y-116675666D01*
X121940666Y-116742333D01*
X121874000Y-116775666D01*
X121740666Y-116775666D01*
X121674000Y-116742333D01*
X121607333Y-116675666D01*
X121574000Y-116542333D01*
X121574000Y-116309000D01*
X121607333Y-116175666D01*
X121674000Y-116109000D01*
X121740666Y-116075666D01*
X122340666Y-116775666D02*
X122340666Y-116075666D01*
X122740666Y-116775666D01*
X122740666Y-116075666D01*
X123580666Y-116775666D02*
X123580666Y-116075666D01*
X123914000Y-116775666D02*
X123914000Y-116075666D01*
X124147333Y-116575666D01*
X124380666Y-116075666D01*
X124380666Y-116775666D01*
X124847333Y-116075666D02*
X124980666Y-116075666D01*
X125047333Y-116109000D01*
X125114000Y-116175666D01*
X125147333Y-116309000D01*
X125147333Y-116542333D01*
X125114000Y-116675666D01*
X125047333Y-116742333D01*
X124980666Y-116775666D01*
X124847333Y-116775666D01*
X124780666Y-116742333D01*
X124714000Y-116675666D01*
X124680666Y-116542333D01*
X124680666Y-116309000D01*
X124714000Y-116175666D01*
X124780666Y-116109000D01*
X124847333Y-116075666D01*
X125447333Y-116775666D02*
X125447333Y-116075666D01*
X125847333Y-116775666D01*
X125847333Y-116075666D01*
X126837333Y-116075666D02*
X126970666Y-116075666D01*
X127037333Y-116109000D01*
X127104000Y-116175666D01*
X127137333Y-116309000D01*
X127137333Y-116542333D01*
X127104000Y-116675666D01*
X127037333Y-116742333D01*
X126970666Y-116775666D01*
X126837333Y-116775666D01*
X126770666Y-116742333D01*
X126704000Y-116675666D01*
X126670666Y-116542333D01*
X126670666Y-116309000D01*
X126704000Y-116175666D01*
X126770666Y-116109000D01*
X126837333Y-116075666D01*
X127437333Y-116775666D02*
X127437333Y-116075666D01*
X127837333Y-116775666D02*
X127537333Y-116375666D01*
X127837333Y-116075666D02*
X127437333Y-116475666D01*
X134240666Y-116775666D02*
X134240666Y-116075666D01*
X134574000Y-116775666D02*
X134574000Y-116075666D01*
X134974000Y-116775666D01*
X134974000Y-116075666D01*
X135207333Y-116075666D02*
X135607333Y-116075666D01*
X135407333Y-116775666D02*
X135407333Y-116075666D01*
X126847666Y-117760000D02*
X126781000Y-117726666D01*
X126681000Y-117726666D01*
X126581000Y-117760000D01*
X126514333Y-117826666D01*
X126481000Y-117893333D01*
X126447666Y-118026666D01*
X126447666Y-118126666D01*
X126481000Y-118260000D01*
X126514333Y-118326666D01*
X126581000Y-118393333D01*
X126681000Y-118426666D01*
X126747666Y-118426666D01*
X126847666Y-118393333D01*
X126881000Y-118360000D01*
X126881000Y-118126666D01*
X126747666Y-118126666D01*
X127181000Y-118426666D02*
X127181000Y-117726666D01*
X127581000Y-118426666D01*
X127581000Y-117726666D01*
X127914333Y-118426666D02*
X127914333Y-117726666D01*
X128081000Y-117726666D01*
X128181000Y-117760000D01*
X128247666Y-117826666D01*
X128281000Y-117893333D01*
X128314333Y-118026666D01*
X128314333Y-118126666D01*
X128281000Y-118260000D01*
X128247666Y-118326666D01*
X128181000Y-118393333D01*
X128081000Y-118426666D01*
X127914333Y-118426666D01*
X121467666Y-118393333D02*
X121567666Y-118426666D01*
X121734333Y-118426666D01*
X121801000Y-118393333D01*
X121834333Y-118360000D01*
X121867666Y-118293333D01*
X121867666Y-118226666D01*
X121834333Y-118160000D01*
X121801000Y-118126666D01*
X121734333Y-118093333D01*
X121601000Y-118060000D01*
X121534333Y-118026666D01*
X121501000Y-117993333D01*
X121467666Y-117926666D01*
X121467666Y-117860000D01*
X121501000Y-117793333D01*
X121534333Y-117760000D01*
X121601000Y-117726666D01*
X121767666Y-117726666D01*
X121867666Y-117760000D01*
X122567666Y-118360000D02*
X122534333Y-118393333D01*
X122434333Y-118426666D01*
X122367666Y-118426666D01*
X122267666Y-118393333D01*
X122201000Y-118326666D01*
X122167666Y-118260000D01*
X122134333Y-118126666D01*
X122134333Y-118026666D01*
X122167666Y-117893333D01*
X122201000Y-117826666D01*
X122267666Y-117760000D01*
X122367666Y-117726666D01*
X122434333Y-117726666D01*
X122534333Y-117760000D01*
X122567666Y-117793333D01*
X123201000Y-118426666D02*
X122867666Y-118426666D01*
X122867666Y-117726666D01*
X123991000Y-118393333D02*
X124091000Y-118426666D01*
X124257666Y-118426666D01*
X124324333Y-118393333D01*
X124357666Y-118360000D01*
X124391000Y-118293333D01*
X124391000Y-118226666D01*
X124357666Y-118160000D01*
X124324333Y-118126666D01*
X124257666Y-118093333D01*
X124124333Y-118060000D01*
X124057666Y-118026666D01*
X124024333Y-117993333D01*
X123991000Y-117926666D01*
X123991000Y-117860000D01*
X124024333Y-117793333D01*
X124057666Y-117760000D01*
X124124333Y-117726666D01*
X124291000Y-117726666D01*
X124391000Y-117760000D01*
X124691000Y-118426666D02*
X124691000Y-117726666D01*
X124857666Y-117726666D01*
X124957666Y-117760000D01*
X125024333Y-117826666D01*
X125057666Y-117893333D01*
X125091000Y-118026666D01*
X125091000Y-118126666D01*
X125057666Y-118260000D01*
X125024333Y-118326666D01*
X124957666Y-118393333D01*
X124857666Y-118426666D01*
X124691000Y-118426666D01*
X125357666Y-118226666D02*
X125691000Y-118226666D01*
X125291000Y-118426666D02*
X125524333Y-117726666D01*
X125757666Y-118426666D01*
X129421000Y-118226666D02*
X129754333Y-118226666D01*
X129354333Y-118426666D02*
X129587666Y-117726666D01*
X129821000Y-118426666D01*
X130187666Y-117726666D02*
X130254333Y-117726666D01*
X130321000Y-117760000D01*
X130354333Y-117793333D01*
X130387666Y-117860000D01*
X130421000Y-117993333D01*
X130421000Y-118160000D01*
X130387666Y-118293333D01*
X130354333Y-118360000D01*
X130321000Y-118393333D01*
X130254333Y-118426666D01*
X130187666Y-118426666D01*
X130121000Y-118393333D01*
X130087666Y-118360000D01*
X130054333Y-118293333D01*
X130021000Y-118160000D01*
X130021000Y-117993333D01*
X130054333Y-117860000D01*
X130087666Y-117793333D01*
X130121000Y-117760000D01*
X130187666Y-117726666D01*
X131961000Y-118226666D02*
X132294333Y-118226666D01*
X131894333Y-118426666D02*
X132127666Y-117726666D01*
X132361000Y-118426666D01*
X132961000Y-118426666D02*
X132561000Y-118426666D01*
X132761000Y-118426666D02*
X132761000Y-117726666D01*
X132694333Y-117826666D01*
X132627666Y-117893333D01*
X132561000Y-117926666D01*
X134501000Y-118226666D02*
X134834333Y-118226666D01*
X134434333Y-118426666D02*
X134667666Y-117726666D01*
X134901000Y-118426666D01*
X135101000Y-117793333D02*
X135134333Y-117760000D01*
X135201000Y-117726666D01*
X135367666Y-117726666D01*
X135434333Y-117760000D01*
X135467666Y-117793333D01*
X135501000Y-117860000D01*
X135501000Y-117926666D01*
X135467666Y-118026666D01*
X135067666Y-118426666D01*
X135501000Y-118426666D01*
X214309500Y-99629166D02*
X214709500Y-99629166D01*
X214509500Y-100329166D02*
X214509500Y-99629166D01*
X215176166Y-99962500D02*
X214942833Y-99962500D01*
X214942833Y-100329166D02*
X214942833Y-99629166D01*
X215276166Y-99629166D01*
X215442833Y-99629166D02*
X215842833Y-99629166D01*
X215642833Y-100329166D02*
X215642833Y-99629166D01*
X216409500Y-99629166D02*
X216076166Y-99629166D01*
X216042833Y-99962500D01*
X216076166Y-99929166D01*
X216142833Y-99895833D01*
X216309500Y-99895833D01*
X216376166Y-99929166D01*
X216409500Y-99962500D01*
X216442833Y-100029166D01*
X216442833Y-100195833D01*
X216409500Y-100262500D01*
X216376166Y-100295833D01*
X216309500Y-100329166D01*
X216142833Y-100329166D01*
X216076166Y-100295833D01*
X216042833Y-100262500D01*
X216642833Y-99629166D02*
X216876166Y-100329166D01*
X217109500Y-99629166D01*
X218478166Y-99662500D02*
X218411500Y-99629166D01*
X218311500Y-99629166D01*
X218211500Y-99662500D01*
X218144833Y-99729166D01*
X218111500Y-99795833D01*
X218078166Y-99929166D01*
X218078166Y-100029166D01*
X218111500Y-100162500D01*
X218144833Y-100229166D01*
X218211500Y-100295833D01*
X218311500Y-100329166D01*
X218378166Y-100329166D01*
X218478166Y-100295833D01*
X218511500Y-100262500D01*
X218511500Y-100029166D01*
X218378166Y-100029166D01*
X218811500Y-100329166D02*
X218811500Y-99629166D01*
X219211500Y-100329166D01*
X219211500Y-99629166D01*
X219544833Y-100329166D02*
X219544833Y-99629166D01*
X219711500Y-99629166D01*
X219811500Y-99662500D01*
X219878166Y-99729166D01*
X219911500Y-99795833D01*
X219944833Y-99929166D01*
X219944833Y-100029166D01*
X219911500Y-100162500D01*
X219878166Y-100229166D01*
X219811500Y-100295833D01*
X219711500Y-100329166D01*
X219544833Y-100329166D01*
X207111666Y-63277000D02*
X207045000Y-63243666D01*
X206945000Y-63243666D01*
X206845000Y-63277000D01*
X206778333Y-63343666D01*
X206745000Y-63410333D01*
X206711666Y-63543666D01*
X206711666Y-63643666D01*
X206745000Y-63777000D01*
X206778333Y-63843666D01*
X206845000Y-63910333D01*
X206945000Y-63943666D01*
X207011666Y-63943666D01*
X207111666Y-63910333D01*
X207145000Y-63877000D01*
X207145000Y-63643666D01*
X207011666Y-63643666D01*
X207445000Y-63943666D02*
X207445000Y-63243666D01*
X207845000Y-63943666D01*
X207845000Y-63243666D01*
X208178333Y-63943666D02*
X208178333Y-63243666D01*
X208345000Y-63243666D01*
X208445000Y-63277000D01*
X208511666Y-63343666D01*
X208545000Y-63410333D01*
X208578333Y-63543666D01*
X208578333Y-63643666D01*
X208545000Y-63777000D01*
X208511666Y-63843666D01*
X208445000Y-63910333D01*
X208345000Y-63943666D01*
X208178333Y-63943666D01*
X207384666Y-70863666D02*
X207051333Y-70863666D01*
X207018000Y-71197000D01*
X207051333Y-71163666D01*
X207118000Y-71130333D01*
X207284666Y-71130333D01*
X207351333Y-71163666D01*
X207384666Y-71197000D01*
X207418000Y-71263666D01*
X207418000Y-71430333D01*
X207384666Y-71497000D01*
X207351333Y-71530333D01*
X207284666Y-71563666D01*
X207118000Y-71563666D01*
X207051333Y-71530333D01*
X207018000Y-71497000D01*
X207618000Y-70863666D02*
X207851333Y-71563666D01*
X208084666Y-70863666D01*
X136880666Y-112743500D02*
X136814000Y-112710166D01*
X136714000Y-112710166D01*
X136614000Y-112743500D01*
X136547333Y-112810166D01*
X136514000Y-112876833D01*
X136480666Y-113010166D01*
X136480666Y-113110166D01*
X136514000Y-113243500D01*
X136547333Y-113310166D01*
X136614000Y-113376833D01*
X136714000Y-113410166D01*
X136780666Y-113410166D01*
X136880666Y-113376833D01*
X136914000Y-113343500D01*
X136914000Y-113110166D01*
X136780666Y-113110166D01*
X137214000Y-113410166D02*
X137214000Y-112710166D01*
X137614000Y-113410166D01*
X137614000Y-112710166D01*
X137947333Y-113410166D02*
X137947333Y-112710166D01*
X138114000Y-112710166D01*
X138214000Y-112743500D01*
X138280666Y-112810166D01*
X138314000Y-112876833D01*
X138347333Y-113010166D01*
X138347333Y-113110166D01*
X138314000Y-113243500D01*
X138280666Y-113310166D01*
X138214000Y-113376833D01*
X138114000Y-113410166D01*
X137947333Y-113410166D01*
X132218166Y-116775666D02*
X131818166Y-116775666D01*
X132018166Y-116775666D02*
X132018166Y-116075666D01*
X131951500Y-116175666D01*
X131884833Y-116242333D01*
X131818166Y-116275666D01*
X132484833Y-116142333D02*
X132518166Y-116109000D01*
X132584833Y-116075666D01*
X132751500Y-116075666D01*
X132818166Y-116109000D01*
X132851500Y-116142333D01*
X132884833Y-116209000D01*
X132884833Y-116275666D01*
X132851500Y-116375666D01*
X132451500Y-116775666D01*
X132884833Y-116775666D01*
X133084833Y-116075666D02*
X133318166Y-116775666D01*
X133551500Y-116075666D01*
D14*
X156409071Y-134174571D02*
X156766214Y-135674571D01*
X157051928Y-134603142D01*
X157337642Y-135674571D01*
X157694785Y-134174571D01*
X158194785Y-135246000D02*
X158909071Y-135246000D01*
X158051928Y-135674571D02*
X158551928Y-134174571D01*
X159051928Y-135674571D01*
X160409071Y-135674571D02*
X159909071Y-134960285D01*
X159551928Y-135674571D02*
X159551928Y-134174571D01*
X160123357Y-134174571D01*
X160266214Y-134246000D01*
X160337642Y-134317428D01*
X160409071Y-134460285D01*
X160409071Y-134674571D01*
X160337642Y-134817428D01*
X160266214Y-134888857D01*
X160123357Y-134960285D01*
X159551928Y-134960285D01*
X161051928Y-135674571D02*
X161051928Y-134174571D01*
X161909071Y-135674571D01*
X161909071Y-134174571D01*
X162623357Y-135674571D02*
X162623357Y-134174571D01*
X163337642Y-135674571D02*
X163337642Y-134174571D01*
X164194785Y-135674571D01*
X164194785Y-134174571D01*
X165694785Y-134246000D02*
X165551928Y-134174571D01*
X165337642Y-134174571D01*
X165123357Y-134246000D01*
X164980500Y-134388857D01*
X164909071Y-134531714D01*
X164837642Y-134817428D01*
X164837642Y-135031714D01*
X164909071Y-135317428D01*
X164980500Y-135460285D01*
X165123357Y-135603142D01*
X165337642Y-135674571D01*
X165480500Y-135674571D01*
X165694785Y-135603142D01*
X165766214Y-135531714D01*
X165766214Y-135031714D01*
X165480500Y-135031714D01*
X166409071Y-135531714D02*
X166480500Y-135603142D01*
X166409071Y-135674571D01*
X166337642Y-135603142D01*
X166409071Y-135531714D01*
X166409071Y-135674571D01*
X166409071Y-135103142D02*
X166337642Y-134246000D01*
X166409071Y-134174571D01*
X166480500Y-134246000D01*
X166409071Y-135103142D01*
X166409071Y-134174571D01*
X153159071Y-138224571D02*
X153159071Y-136724571D01*
X153159071Y-137438857D02*
X154016214Y-137438857D01*
X154016214Y-138224571D02*
X154016214Y-136724571D01*
X154730500Y-138224571D02*
X154730500Y-136724571D01*
X156230500Y-136796000D02*
X156087642Y-136724571D01*
X155873357Y-136724571D01*
X155659071Y-136796000D01*
X155516214Y-136938857D01*
X155444785Y-137081714D01*
X155373357Y-137367428D01*
X155373357Y-137581714D01*
X155444785Y-137867428D01*
X155516214Y-138010285D01*
X155659071Y-138153142D01*
X155873357Y-138224571D01*
X156016214Y-138224571D01*
X156230500Y-138153142D01*
X156301928Y-138081714D01*
X156301928Y-137581714D01*
X156016214Y-137581714D01*
X156944785Y-138224571D02*
X156944785Y-136724571D01*
X156944785Y-137438857D02*
X157801928Y-137438857D01*
X157801928Y-138224571D02*
X157801928Y-136724571D01*
X160516214Y-138081714D02*
X160444785Y-138153142D01*
X160230500Y-138224571D01*
X160087642Y-138224571D01*
X159873357Y-138153142D01*
X159730500Y-138010285D01*
X159659071Y-137867428D01*
X159587642Y-137581714D01*
X159587642Y-137367428D01*
X159659071Y-137081714D01*
X159730500Y-136938857D01*
X159873357Y-136796000D01*
X160087642Y-136724571D01*
X160230500Y-136724571D01*
X160444785Y-136796000D01*
X160516214Y-136867428D01*
X161159071Y-136724571D02*
X161159071Y-137938857D01*
X161230500Y-138081714D01*
X161301928Y-138153142D01*
X161444785Y-138224571D01*
X161730500Y-138224571D01*
X161873357Y-138153142D01*
X161944785Y-138081714D01*
X162016214Y-137938857D01*
X162016214Y-136724571D01*
X163587642Y-138224571D02*
X163087642Y-137510285D01*
X162730500Y-138224571D02*
X162730500Y-136724571D01*
X163301928Y-136724571D01*
X163444785Y-136796000D01*
X163516214Y-136867428D01*
X163587642Y-137010285D01*
X163587642Y-137224571D01*
X163516214Y-137367428D01*
X163444785Y-137438857D01*
X163301928Y-137510285D01*
X162730500Y-137510285D01*
X165087642Y-138224571D02*
X164587642Y-137510285D01*
X164230500Y-138224571D02*
X164230500Y-136724571D01*
X164801928Y-136724571D01*
X164944785Y-136796000D01*
X165016214Y-136867428D01*
X165087642Y-137010285D01*
X165087642Y-137224571D01*
X165016214Y-137367428D01*
X164944785Y-137438857D01*
X164801928Y-137510285D01*
X164230500Y-137510285D01*
X165730500Y-137438857D02*
X166230500Y-137438857D01*
X166444785Y-138224571D02*
X165730500Y-138224571D01*
X165730500Y-136724571D01*
X166444785Y-136724571D01*
X167087642Y-138224571D02*
X167087642Y-136724571D01*
X167944785Y-138224571D01*
X167944785Y-136724571D01*
X168444785Y-136724571D02*
X169301928Y-136724571D01*
X168873357Y-138224571D02*
X168873357Y-136724571D01*
X169801928Y-138081714D02*
X169873357Y-138153142D01*
X169801928Y-138224571D01*
X169730500Y-138153142D01*
X169801928Y-138081714D01*
X169801928Y-138224571D01*
X169801928Y-137653142D02*
X169730500Y-136796000D01*
X169801928Y-136724571D01*
X169873357Y-136796000D01*
X169801928Y-137653142D01*
X169801928Y-136724571D01*
D15*
X143573500Y-139700000D02*
X148653500Y-139700000D01*
X177038000Y-141922500D02*
X177038000Y-137477500D01*
X174498000Y-139700000D02*
X179578000Y-139700000D01*
D16*
X104143500Y-116272000D02*
X104143500Y-118932000D01*
X109283500Y-116272000D02*
X104143500Y-116272000D01*
X109283500Y-118932000D02*
X104143500Y-118932000D01*
X109283500Y-116272000D02*
X109283500Y-118932000D01*
X110553500Y-116272000D02*
X111883500Y-116272000D01*
X111883500Y-116272000D02*
X111883500Y-117602000D01*
X104700000Y-122928748D02*
X104700000Y-123451252D01*
X106120000Y-122928748D02*
X106120000Y-123451252D01*
X109780000Y-122928748D02*
X109780000Y-123451252D01*
X111200000Y-122928748D02*
X111200000Y-123451252D01*
X161632900Y-91884500D02*
X173062900Y-103314500D01*
X201958900Y-104009500D02*
X204618900Y-104009500D01*
X162331400Y-111252000D02*
X164871400Y-111252000D01*
X150583900Y-99885500D02*
X158457900Y-107759500D01*
X149313900Y-100393500D02*
X156552900Y-107759500D01*
X200510500Y-64160405D02*
G75*
G03*
X200510500Y-64160405I-2200000J0D01*
G01*
X124183500Y-108140500D02*
G75*
G03*
X124183500Y-108140500I-2200000J0D01*
G01*
X154012900Y-91884500D02*
X171792900Y-109664500D01*
X154647900Y-107759500D02*
X148297900Y-101155500D01*
X159727900Y-91884500D02*
X173062900Y-105219500D01*
X118884700Y-61087000D02*
X118884700Y-63627000D01*
X152869900Y-98615500D02*
X162267900Y-107759500D01*
X124183500Y-64198500D02*
G75*
G03*
X124183500Y-64198500I-2200000J0D01*
G01*
X122707400Y-61087000D02*
X120167400Y-61087000D01*
X201958900Y-70929500D02*
X201958900Y-104009500D01*
X162331400Y-111252000D02*
X159791400Y-111252000D01*
X126276100Y-110451900D02*
X192290700Y-110451900D01*
X143827500Y-102171500D02*
X143827500Y-111188500D01*
X203288900Y-68329500D02*
X204618900Y-68329500D01*
X150837900Y-109664500D02*
X144487900Y-103314500D01*
X205384400Y-111252000D02*
X202844400Y-111252000D01*
X118884700Y-111252000D02*
X118884700Y-108712000D01*
X118884700Y-111252000D02*
X122707400Y-111252000D01*
X173901100Y-111137700D02*
X173901100Y-91122500D01*
X173901100Y-91122500D02*
X151853900Y-91122500D01*
X162712400Y-61087000D02*
X160172400Y-61087000D01*
X164172900Y-109664500D02*
X163537900Y-109029500D01*
X151853900Y-98234500D02*
X143827500Y-102171500D01*
X163537900Y-91884500D02*
X173062900Y-101409500D01*
X118897400Y-86169500D02*
X118897400Y-83629500D01*
X205384400Y-61087000D02*
X205384400Y-63627000D01*
X192265300Y-61810900D02*
X126276100Y-61810900D01*
X169252900Y-91884500D02*
X173062900Y-95694500D01*
X118897400Y-86169500D02*
X118897400Y-88709500D01*
X155917900Y-91884500D02*
X173062900Y-109029500D01*
X205384400Y-111252000D02*
X205384400Y-108712000D01*
X171157900Y-91884500D02*
X173062900Y-93789500D01*
X148932900Y-109664500D02*
X144487900Y-105219500D01*
X145122900Y-109664500D02*
X144487900Y-109029500D01*
X200434300Y-108140500D02*
G75*
G03*
X200434300Y-108140500I-2200000J0D01*
G01*
X118884700Y-61087000D02*
X122707400Y-61087000D01*
X157822900Y-91884500D02*
X173062900Y-107124500D01*
X147027900Y-109664500D02*
X144487900Y-107124500D01*
X192265300Y-61810900D02*
X192290700Y-110451900D01*
X152869900Y-94805500D02*
X167982900Y-109664500D01*
X204618900Y-70929500D02*
X204618900Y-104009500D01*
X126276100Y-61810900D02*
X126276100Y-110451900D01*
X204618900Y-68329500D02*
X204618900Y-69659500D01*
X205384400Y-61087000D02*
X202844400Y-61087000D01*
X152869900Y-92773500D02*
X169887900Y-109664500D01*
X152742900Y-109664500D02*
X145249900Y-102171500D01*
X201958900Y-70929500D02*
X204618900Y-70929500D01*
X165252400Y-61087000D02*
X162712400Y-61087000D01*
X167347900Y-91884500D02*
X173062900Y-97599500D01*
X151853900Y-91122500D02*
X151853900Y-98209100D01*
X151853900Y-99377500D02*
X160362900Y-107759500D01*
X165442900Y-91884500D02*
X173062900Y-99504500D01*
X154647900Y-109664500D02*
X146773900Y-101663500D01*
X152869900Y-96837500D02*
X166077900Y-109664500D01*
X117169000Y-69842748D02*
X117169000Y-70365252D01*
X115749000Y-69842748D02*
X115749000Y-70365252D01*
X121487000Y-69842748D02*
X121487000Y-70365252D01*
X120067000Y-69842748D02*
X120067000Y-70365252D01*
X125043000Y-69842748D02*
X125043000Y-70365252D01*
X123623000Y-69842748D02*
X123623000Y-70365252D01*
X107473667Y-105156000D02*
X107473667Y-106426000D01*
X106267000Y-106356000D02*
X107473667Y-106356000D01*
X106267000Y-106236000D02*
X107473667Y-106236000D01*
X106267000Y-106116000D02*
X107473667Y-106116000D01*
X106267000Y-105996000D02*
X107473667Y-105996000D01*
X106267000Y-105876000D02*
X107473667Y-105876000D01*
X106267000Y-105756000D02*
X107473667Y-105756000D01*
X106267000Y-105636000D02*
X107473667Y-105636000D01*
X106267000Y-105516000D02*
X107473667Y-105516000D01*
X106267000Y-105396000D02*
X107473667Y-105396000D01*
X106267000Y-105276000D02*
X107473667Y-105276000D01*
X109887000Y-105156000D02*
X106267000Y-105156000D01*
X109887000Y-106426000D02*
X109887000Y-105156000D01*
X106267000Y-106426000D02*
X109887000Y-106426000D01*
X106267000Y-105156000D02*
X106267000Y-106426000D01*
X107473667Y-102616000D02*
X107473667Y-103886000D01*
X106267000Y-103816000D02*
X107473667Y-103816000D01*
X106267000Y-103696000D02*
X107473667Y-103696000D01*
X106267000Y-103576000D02*
X107473667Y-103576000D01*
X106267000Y-103456000D02*
X107473667Y-103456000D01*
X106267000Y-103336000D02*
X107473667Y-103336000D01*
X106267000Y-103216000D02*
X107473667Y-103216000D01*
X106267000Y-103096000D02*
X107473667Y-103096000D01*
X106267000Y-102976000D02*
X107473667Y-102976000D01*
X106267000Y-102856000D02*
X107473667Y-102856000D01*
X106267000Y-102736000D02*
X107473667Y-102736000D01*
X109887000Y-102616000D02*
X106267000Y-102616000D01*
X109887000Y-103886000D02*
X109887000Y-102616000D01*
X106267000Y-103886000D02*
X109887000Y-103886000D01*
X106267000Y-102616000D02*
X106267000Y-103886000D01*
X107473667Y-100076000D02*
X107473667Y-101346000D01*
X106267000Y-101276000D02*
X107473667Y-101276000D01*
X106267000Y-101156000D02*
X107473667Y-101156000D01*
X106267000Y-101036000D02*
X107473667Y-101036000D01*
X106267000Y-100916000D02*
X107473667Y-100916000D01*
X106267000Y-100796000D02*
X107473667Y-100796000D01*
X106267000Y-100676000D02*
X107473667Y-100676000D01*
X106267000Y-100556000D02*
X107473667Y-100556000D01*
X106267000Y-100436000D02*
X107473667Y-100436000D01*
X106267000Y-100316000D02*
X107473667Y-100316000D01*
X106267000Y-100196000D02*
X107473667Y-100196000D01*
X109887000Y-100076000D02*
X106267000Y-100076000D01*
X109887000Y-101346000D02*
X109887000Y-100076000D01*
X106267000Y-101346000D02*
X109887000Y-101346000D01*
X106267000Y-100076000D02*
X106267000Y-101346000D01*
X104427000Y-98361000D02*
X104427000Y-99744000D01*
X104427000Y-98361000D02*
X105810000Y-98361000D01*
X111487000Y-101511000D02*
X111487000Y-102451000D01*
X111487000Y-98601000D02*
X111487000Y-99911000D01*
X111487000Y-104051000D02*
X111487000Y-104991000D01*
X111487000Y-106591000D02*
X111487000Y-107901000D01*
X104667000Y-106591000D02*
X104667000Y-107901000D01*
X104667000Y-104051000D02*
X104667000Y-104991000D01*
X104667000Y-101511000D02*
X104667000Y-102451000D01*
X104667000Y-98601000D02*
X104667000Y-99911000D01*
X104667000Y-107901000D02*
X111487000Y-107901000D01*
X104667000Y-98601000D02*
X111487000Y-98601000D01*
X107410167Y-72961500D02*
X107410167Y-74231500D01*
X106203500Y-74161500D02*
X107410167Y-74161500D01*
X106203500Y-74041500D02*
X107410167Y-74041500D01*
X106203500Y-73921500D02*
X107410167Y-73921500D01*
X106203500Y-73801500D02*
X107410167Y-73801500D01*
X106203500Y-73681500D02*
X107410167Y-73681500D01*
X106203500Y-73561500D02*
X107410167Y-73561500D01*
X106203500Y-73441500D02*
X107410167Y-73441500D01*
X106203500Y-73321500D02*
X107410167Y-73321500D01*
X106203500Y-73201500D02*
X107410167Y-73201500D01*
X106203500Y-73081500D02*
X107410167Y-73081500D01*
X109823500Y-72961500D02*
X106203500Y-72961500D01*
X109823500Y-74231500D02*
X109823500Y-72961500D01*
X106203500Y-74231500D02*
X109823500Y-74231500D01*
X106203500Y-72961500D02*
X106203500Y-74231500D01*
X107410167Y-70421500D02*
X107410167Y-71691500D01*
X106203500Y-71621500D02*
X107410167Y-71621500D01*
X106203500Y-71501500D02*
X107410167Y-71501500D01*
X106203500Y-71381500D02*
X107410167Y-71381500D01*
X106203500Y-71261500D02*
X107410167Y-71261500D01*
X106203500Y-71141500D02*
X107410167Y-71141500D01*
X106203500Y-71021500D02*
X107410167Y-71021500D01*
X106203500Y-70901500D02*
X107410167Y-70901500D01*
X106203500Y-70781500D02*
X107410167Y-70781500D01*
X106203500Y-70661500D02*
X107410167Y-70661500D01*
X106203500Y-70541500D02*
X107410167Y-70541500D01*
X109823500Y-70421500D02*
X106203500Y-70421500D01*
X109823500Y-71691500D02*
X109823500Y-70421500D01*
X106203500Y-71691500D02*
X109823500Y-71691500D01*
X106203500Y-70421500D02*
X106203500Y-71691500D01*
X107410167Y-67881500D02*
X107410167Y-69151500D01*
X106203500Y-69081500D02*
X107410167Y-69081500D01*
X106203500Y-68961500D02*
X107410167Y-68961500D01*
X106203500Y-68841500D02*
X107410167Y-68841500D01*
X106203500Y-68721500D02*
X107410167Y-68721500D01*
X106203500Y-68601500D02*
X107410167Y-68601500D01*
X106203500Y-68481500D02*
X107410167Y-68481500D01*
X106203500Y-68361500D02*
X107410167Y-68361500D01*
X106203500Y-68241500D02*
X107410167Y-68241500D01*
X106203500Y-68121500D02*
X107410167Y-68121500D01*
X106203500Y-68001500D02*
X107410167Y-68001500D01*
X109823500Y-67881500D02*
X106203500Y-67881500D01*
X109823500Y-69151500D02*
X109823500Y-67881500D01*
X106203500Y-69151500D02*
X109823500Y-69151500D01*
X106203500Y-67881500D02*
X106203500Y-69151500D01*
X104363500Y-66166500D02*
X104363500Y-67549500D01*
X104363500Y-66166500D02*
X105746500Y-66166500D01*
X111423500Y-69316500D02*
X111423500Y-70256500D01*
X111423500Y-66406500D02*
X111423500Y-67716500D01*
X111423500Y-71856500D02*
X111423500Y-72796500D01*
X111423500Y-74396500D02*
X111423500Y-75706500D01*
X104603500Y-74396500D02*
X104603500Y-75706500D01*
X104603500Y-71856500D02*
X104603500Y-72796500D01*
X104603500Y-69316500D02*
X104603500Y-70256500D01*
X104603500Y-66406500D02*
X104603500Y-67716500D01*
X104603500Y-75706500D02*
X111423500Y-75706500D01*
X104603500Y-66406500D02*
X111423500Y-66406500D01*
X128081000Y-121410500D02*
X128081000Y-122810500D01*
X126681000Y-121410500D02*
X128081000Y-121410500D01*
X126681000Y-122810500D02*
X126681000Y-121410500D01*
X128081000Y-122810500D02*
X126681000Y-122810500D01*
X123001000Y-121410500D02*
X123001000Y-122810500D01*
X121601000Y-121410500D02*
X123001000Y-121410500D01*
X121601000Y-122810500D02*
X121601000Y-121410500D01*
X123001000Y-122810500D02*
X121601000Y-122810500D01*
X125541000Y-121410500D02*
X125541000Y-122810500D01*
X124141000Y-121410500D02*
X125541000Y-121410500D01*
X124141000Y-122810500D02*
X124141000Y-121410500D01*
X125541000Y-122810500D02*
X124141000Y-122810500D01*
X130621000Y-121410500D02*
X130621000Y-122810500D01*
X129221000Y-121410500D02*
X130621000Y-121410500D01*
X129221000Y-122810500D02*
X129221000Y-121410500D01*
X130621000Y-122810500D02*
X129221000Y-122810500D01*
X133161000Y-121410500D02*
X133161000Y-122810500D01*
X131761000Y-121410500D02*
X133161000Y-121410500D01*
X131761000Y-122810500D02*
X131761000Y-121410500D01*
X133161000Y-122810500D02*
X131761000Y-122810500D01*
X135701000Y-121410500D02*
X135701000Y-122810500D01*
X134301000Y-121410500D02*
X135701000Y-121410500D01*
X134301000Y-122810500D02*
X134301000Y-121410500D01*
X135701000Y-122810500D02*
X134301000Y-122810500D01*
X208345000Y-65851000D02*
X206945000Y-65851000D01*
X208345000Y-64451000D02*
X208345000Y-65851000D01*
X206945000Y-64451000D02*
X208345000Y-64451000D01*
X206945000Y-65851000D02*
X206945000Y-64451000D01*
X208345000Y-70296000D02*
X206945000Y-70296000D01*
X208345000Y-68896000D02*
X208345000Y-70296000D01*
X206945000Y-68896000D02*
X208345000Y-68896000D01*
X206945000Y-70296000D02*
X206945000Y-68896000D01*
X218311500Y-102617500D02*
X218311500Y-101217500D01*
X219711500Y-102617500D02*
X218311500Y-102617500D01*
X219711500Y-101217500D02*
X219711500Y-102617500D01*
X218311500Y-101217500D02*
X219711500Y-101217500D01*
X215009500Y-102617500D02*
X215009500Y-101217500D01*
X216409500Y-102617500D02*
X215009500Y-102617500D01*
X216409500Y-101217500D02*
X216409500Y-102617500D01*
X215009500Y-101217500D02*
X216409500Y-101217500D01*
X138241000Y-116521000D02*
X138241000Y-117921000D01*
X136841000Y-116521000D02*
X138241000Y-116521000D01*
X136841000Y-117921000D02*
X136841000Y-116521000D01*
X138241000Y-117921000D02*
X136841000Y-117921000D01*
X131183748Y-112216000D02*
X131706252Y-112216000D01*
X131183748Y-110796000D02*
X131706252Y-110796000D01*
X212977300Y-120754500D02*
X210527300Y-120754500D01*
X211177300Y-123974500D02*
X212977300Y-123974500D01*
X211398752Y-101131300D02*
X210876248Y-101131300D01*
X211398752Y-102551300D02*
X210876248Y-102551300D01*
X210876248Y-105980300D02*
X211398752Y-105980300D01*
X210876248Y-104560300D02*
X211398752Y-104560300D01*
X219655500Y-113759300D02*
X219655500Y-111259300D01*
X211255500Y-111259300D02*
X211255500Y-113759300D01*
X214652500Y-118240300D02*
X218502500Y-118240300D01*
X214652500Y-120240300D02*
X218502500Y-120240300D01*
X214652500Y-118240300D02*
X214652500Y-120240300D01*
X216986752Y-104560300D02*
X216464248Y-104560300D01*
X216986752Y-105980300D02*
X216464248Y-105980300D01*
X212287752Y-118479500D02*
X211765248Y-118479500D01*
X212287752Y-119899500D02*
X211765248Y-119899500D01*
X216286448Y-124090500D02*
X216808952Y-124090500D01*
X216286448Y-122670500D02*
X216808952Y-122670500D01*
X214125000Y-76311000D02*
X211325000Y-76311000D01*
X211325000Y-76311000D02*
X211325000Y-74311000D01*
X211325000Y-74311000D02*
X214125000Y-74311000D01*
X214125000Y-74311000D02*
X214125000Y-76311000D01*
X148281500Y-84425500D02*
X148281500Y-85735500D01*
X148281500Y-85735500D02*
X145561500Y-85735500D01*
X144421500Y-81245500D02*
X145561500Y-81245500D01*
X148281500Y-81015500D02*
X148281500Y-82325500D01*
X145561500Y-81015500D02*
X148281500Y-81015500D01*
X145561500Y-81015500D02*
X145561500Y-81245500D01*
X145561500Y-85735500D02*
X145561500Y-85505500D01*
X214069500Y-69891000D02*
X212269500Y-69891000D01*
X212269500Y-73111000D02*
X214719500Y-73111000D01*
X219097500Y-67448000D02*
X219097500Y-65648000D01*
X215877500Y-65648000D02*
X215877500Y-68098000D01*
X212781248Y-61520000D02*
X213303752Y-61520000D01*
X212781248Y-62940000D02*
X213303752Y-62940000D01*
X220464748Y-74347000D02*
X220987252Y-74347000D01*
X220464748Y-75767000D02*
X220987252Y-75767000D01*
X216146748Y-74347000D02*
X216669252Y-74347000D01*
X216146748Y-75767000D02*
X216669252Y-75767000D01*
X213303752Y-68528000D02*
X212781248Y-68528000D01*
X213303752Y-67108000D02*
X212781248Y-67108000D01*
X143185248Y-78220500D02*
X143707752Y-78220500D01*
X143185248Y-79640500D02*
X143707752Y-79640500D01*
X143707752Y-88657500D02*
X143185248Y-88657500D01*
X143707752Y-87237500D02*
X143185248Y-87237500D01*
X212781248Y-64441000D02*
X213303752Y-64441000D01*
X212781248Y-65861000D02*
X213303752Y-65861000D01*
X174505252Y-76252000D02*
X173982748Y-76252000D01*
X174505252Y-77672000D02*
X173982748Y-77672000D01*
X155523000Y-69349252D02*
X155523000Y-68826748D01*
X154103000Y-69349252D02*
X154103000Y-68826748D01*
X146864000Y-67937748D02*
X146864000Y-68460252D01*
X148284000Y-67937748D02*
X148284000Y-68460252D01*
X149023000Y-67937748D02*
X149023000Y-68460252D01*
X150443000Y-67937748D02*
X150443000Y-68460252D01*
X163270000Y-63761252D02*
X163270000Y-63238748D01*
X161850000Y-63761252D02*
X161850000Y-63238748D01*
X159310000Y-63238748D02*
X159310000Y-63761252D01*
X160730000Y-63238748D02*
X160730000Y-63761252D01*
X161424252Y-82983000D02*
X160901748Y-82983000D01*
X161424252Y-84403000D02*
X160901748Y-84403000D01*
X172264000Y-70223748D02*
X172264000Y-70746252D01*
X173684000Y-70223748D02*
X173684000Y-70746252D01*
X165355200Y-63238748D02*
X165355200Y-63761252D01*
X166775200Y-63238748D02*
X166775200Y-63761252D01*
X154103000Y-64254748D02*
X154103000Y-64777252D01*
X155523000Y-64254748D02*
X155523000Y-64777252D01*
D17*
X101750761Y-118935333D02*
X101798380Y-118792476D01*
X101798380Y-118554380D01*
X101750761Y-118459142D01*
X101703142Y-118411523D01*
X101607904Y-118363904D01*
X101512666Y-118363904D01*
X101417428Y-118411523D01*
X101369809Y-118459142D01*
X101322190Y-118554380D01*
X101274571Y-118744857D01*
X101226952Y-118840095D01*
X101179333Y-118887714D01*
X101084095Y-118935333D01*
X100988857Y-118935333D01*
X100893619Y-118887714D01*
X100846000Y-118840095D01*
X100798380Y-118744857D01*
X100798380Y-118506761D01*
X100846000Y-118363904D01*
X100798380Y-118030571D02*
X101798380Y-117792476D01*
X101084095Y-117602000D01*
X101798380Y-117411523D01*
X100798380Y-117173428D01*
X100893619Y-116840095D02*
X100846000Y-116792476D01*
X100798380Y-116697238D01*
X100798380Y-116459142D01*
X100846000Y-116363904D01*
X100893619Y-116316285D01*
X100988857Y-116268666D01*
X101084095Y-116268666D01*
X101226952Y-116316285D01*
X101798380Y-116887714D01*
X101798380Y-116268666D01*
X101719142Y-123642380D02*
X101385809Y-123166190D01*
X101147714Y-123642380D02*
X101147714Y-122642380D01*
X101528666Y-122642380D01*
X101623904Y-122690000D01*
X101671523Y-122737619D01*
X101719142Y-122832857D01*
X101719142Y-122975714D01*
X101671523Y-123070952D01*
X101623904Y-123118571D01*
X101528666Y-123166190D01*
X101147714Y-123166190D01*
X102100095Y-122737619D02*
X102147714Y-122690000D01*
X102242952Y-122642380D01*
X102481047Y-122642380D01*
X102576285Y-122690000D01*
X102623904Y-122737619D01*
X102671523Y-122832857D01*
X102671523Y-122928095D01*
X102623904Y-123070952D01*
X102052476Y-123642380D01*
X102671523Y-123642380D01*
X103004857Y-122642380D02*
X103623904Y-122642380D01*
X103290571Y-123023333D01*
X103433428Y-123023333D01*
X103528666Y-123070952D01*
X103576285Y-123118571D01*
X103623904Y-123213809D01*
X103623904Y-123451904D01*
X103576285Y-123547142D01*
X103528666Y-123594761D01*
X103433428Y-123642380D01*
X103147714Y-123642380D01*
X103052476Y-123594761D01*
X103004857Y-123547142D01*
X112895142Y-123642380D02*
X112561809Y-123166190D01*
X112323714Y-123642380D02*
X112323714Y-122642380D01*
X112704666Y-122642380D01*
X112799904Y-122690000D01*
X112847523Y-122737619D01*
X112895142Y-122832857D01*
X112895142Y-122975714D01*
X112847523Y-123070952D01*
X112799904Y-123118571D01*
X112704666Y-123166190D01*
X112323714Y-123166190D01*
X113276095Y-122737619D02*
X113323714Y-122690000D01*
X113418952Y-122642380D01*
X113657047Y-122642380D01*
X113752285Y-122690000D01*
X113799904Y-122737619D01*
X113847523Y-122832857D01*
X113847523Y-122928095D01*
X113799904Y-123070952D01*
X113228476Y-123642380D01*
X113847523Y-123642380D01*
X114228476Y-122737619D02*
X114276095Y-122690000D01*
X114371333Y-122642380D01*
X114609428Y-122642380D01*
X114704666Y-122690000D01*
X114752285Y-122737619D01*
X114799904Y-122832857D01*
X114799904Y-122928095D01*
X114752285Y-123070952D01*
X114180857Y-123642380D01*
X114799904Y-123642380D01*
X203158766Y-66394080D02*
X203158766Y-67108366D01*
X203111147Y-67251223D01*
X203015909Y-67346461D01*
X202873052Y-67394080D01*
X202777814Y-67394080D01*
X203587338Y-66489319D02*
X203634957Y-66441700D01*
X203730195Y-66394080D01*
X203968290Y-66394080D01*
X204063528Y-66441700D01*
X204111147Y-66489319D01*
X204158766Y-66584557D01*
X204158766Y-66679795D01*
X204111147Y-66822652D01*
X203539719Y-67394080D01*
X204158766Y-67394080D01*
X156175414Y-109637461D02*
X156318271Y-109685080D01*
X156556366Y-109685080D01*
X156651604Y-109637461D01*
X156699223Y-109589842D01*
X156746842Y-109494604D01*
X156746842Y-109399366D01*
X156699223Y-109304128D01*
X156651604Y-109256509D01*
X156556366Y-109208890D01*
X156365890Y-109161271D01*
X156270652Y-109113652D01*
X156223033Y-109066033D01*
X156175414Y-108970795D01*
X156175414Y-108875557D01*
X156223033Y-108780319D01*
X156270652Y-108732700D01*
X156365890Y-108685080D01*
X156603985Y-108685080D01*
X156746842Y-108732700D01*
X157175414Y-109685080D02*
X157175414Y-108685080D01*
X157413509Y-108685080D01*
X157556366Y-108732700D01*
X157651604Y-108827938D01*
X157699223Y-108923176D01*
X157746842Y-109113652D01*
X157746842Y-109256509D01*
X157699223Y-109446985D01*
X157651604Y-109542223D01*
X157556366Y-109637461D01*
X157413509Y-109685080D01*
X157175414Y-109685080D01*
X158746842Y-109589842D02*
X158699223Y-109637461D01*
X158556366Y-109685080D01*
X158461128Y-109685080D01*
X158318271Y-109637461D01*
X158223033Y-109542223D01*
X158175414Y-109446985D01*
X158127795Y-109256509D01*
X158127795Y-109113652D01*
X158175414Y-108923176D01*
X158223033Y-108827938D01*
X158318271Y-108732700D01*
X158461128Y-108685080D01*
X158556366Y-108685080D01*
X158699223Y-108732700D01*
X158746842Y-108780319D01*
X159127795Y-109399366D02*
X159603985Y-109399366D01*
X159032557Y-109685080D02*
X159365890Y-108685080D01*
X159699223Y-109685080D01*
X160603985Y-109685080D02*
X160270652Y-109208890D01*
X160032557Y-109685080D02*
X160032557Y-108685080D01*
X160413509Y-108685080D01*
X160508747Y-108732700D01*
X160556366Y-108780319D01*
X160603985Y-108875557D01*
X160603985Y-109018414D01*
X160556366Y-109113652D01*
X160508747Y-109161271D01*
X160413509Y-109208890D01*
X160032557Y-109208890D01*
X161032557Y-109685080D02*
X161032557Y-108685080D01*
X161270652Y-108685080D01*
X161413509Y-108732700D01*
X161508747Y-108827938D01*
X161556366Y-108923176D01*
X161603985Y-109113652D01*
X161603985Y-109256509D01*
X161556366Y-109446985D01*
X161508747Y-109542223D01*
X161413509Y-109637461D01*
X161270652Y-109685080D01*
X161032557Y-109685080D01*
X115816142Y-73350380D02*
X115482809Y-72874190D01*
X115244714Y-73350380D02*
X115244714Y-72350380D01*
X115625666Y-72350380D01*
X115720904Y-72398000D01*
X115768523Y-72445619D01*
X115816142Y-72540857D01*
X115816142Y-72683714D01*
X115768523Y-72778952D01*
X115720904Y-72826571D01*
X115625666Y-72874190D01*
X115244714Y-72874190D01*
X116197095Y-72445619D02*
X116244714Y-72398000D01*
X116339952Y-72350380D01*
X116578047Y-72350380D01*
X116673285Y-72398000D01*
X116720904Y-72445619D01*
X116768523Y-72540857D01*
X116768523Y-72636095D01*
X116720904Y-72778952D01*
X116149476Y-73350380D01*
X116768523Y-73350380D01*
X117720904Y-73350380D02*
X117149476Y-73350380D01*
X117435190Y-73350380D02*
X117435190Y-72350380D01*
X117339952Y-72493238D01*
X117244714Y-72588476D01*
X117149476Y-72636095D01*
X120134142Y-73350380D02*
X119800809Y-72874190D01*
X119562714Y-73350380D02*
X119562714Y-72350380D01*
X119943666Y-72350380D01*
X120038904Y-72398000D01*
X120086523Y-72445619D01*
X120134142Y-72540857D01*
X120134142Y-72683714D01*
X120086523Y-72778952D01*
X120038904Y-72826571D01*
X119943666Y-72874190D01*
X119562714Y-72874190D01*
X120515095Y-72445619D02*
X120562714Y-72398000D01*
X120657952Y-72350380D01*
X120896047Y-72350380D01*
X120991285Y-72398000D01*
X121038904Y-72445619D01*
X121086523Y-72540857D01*
X121086523Y-72636095D01*
X121038904Y-72778952D01*
X120467476Y-73350380D01*
X121086523Y-73350380D01*
X121705571Y-72350380D02*
X121800809Y-72350380D01*
X121896047Y-72398000D01*
X121943666Y-72445619D01*
X121991285Y-72540857D01*
X122038904Y-72731333D01*
X122038904Y-72969428D01*
X121991285Y-73159904D01*
X121943666Y-73255142D01*
X121896047Y-73302761D01*
X121800809Y-73350380D01*
X121705571Y-73350380D01*
X121610333Y-73302761D01*
X121562714Y-73255142D01*
X121515095Y-73159904D01*
X121467476Y-72969428D01*
X121467476Y-72731333D01*
X121515095Y-72540857D01*
X121562714Y-72445619D01*
X121610333Y-72398000D01*
X121705571Y-72350380D01*
X123690142Y-73350380D02*
X123356809Y-72874190D01*
X123118714Y-73350380D02*
X123118714Y-72350380D01*
X123499666Y-72350380D01*
X123594904Y-72398000D01*
X123642523Y-72445619D01*
X123690142Y-72540857D01*
X123690142Y-72683714D01*
X123642523Y-72778952D01*
X123594904Y-72826571D01*
X123499666Y-72874190D01*
X123118714Y-72874190D01*
X124642523Y-73350380D02*
X124071095Y-73350380D01*
X124356809Y-73350380D02*
X124356809Y-72350380D01*
X124261571Y-72493238D01*
X124166333Y-72588476D01*
X124071095Y-72636095D01*
X125118714Y-73350380D02*
X125309190Y-73350380D01*
X125404428Y-73302761D01*
X125452047Y-73255142D01*
X125547285Y-73112285D01*
X125594904Y-72921809D01*
X125594904Y-72540857D01*
X125547285Y-72445619D01*
X125499666Y-72398000D01*
X125404428Y-72350380D01*
X125213952Y-72350380D01*
X125118714Y-72398000D01*
X125071095Y-72445619D01*
X125023476Y-72540857D01*
X125023476Y-72778952D01*
X125071095Y-72874190D01*
X125118714Y-72921809D01*
X125213952Y-72969428D01*
X125404428Y-72969428D01*
X125499666Y-72921809D01*
X125547285Y-72874190D01*
X125594904Y-72778952D01*
X145716666Y-122100380D02*
X145716666Y-122814666D01*
X145669047Y-122957523D01*
X145573809Y-123052761D01*
X145430952Y-123100380D01*
X145335714Y-123100380D01*
X146621428Y-122433714D02*
X146621428Y-123100380D01*
X146383333Y-122052761D02*
X146145238Y-122767047D01*
X146764285Y-122767047D01*
X176704666Y-122100380D02*
X176704666Y-122814666D01*
X176657047Y-122957523D01*
X176561809Y-123052761D01*
X176418952Y-123100380D01*
X176323714Y-123100380D01*
X177085619Y-122100380D02*
X177704666Y-122100380D01*
X177371333Y-122481333D01*
X177514190Y-122481333D01*
X177609428Y-122528952D01*
X177657047Y-122576571D01*
X177704666Y-122671809D01*
X177704666Y-122909904D01*
X177657047Y-123005142D01*
X177609428Y-123052761D01*
X177514190Y-123100380D01*
X177228476Y-123100380D01*
X177133238Y-123052761D01*
X177085619Y-123005142D01*
X106743666Y-109497761D02*
X106886523Y-109545380D01*
X107124619Y-109545380D01*
X107219857Y-109497761D01*
X107267476Y-109450142D01*
X107315095Y-109354904D01*
X107315095Y-109259666D01*
X107267476Y-109164428D01*
X107219857Y-109116809D01*
X107124619Y-109069190D01*
X106934142Y-109021571D01*
X106838904Y-108973952D01*
X106791285Y-108926333D01*
X106743666Y-108831095D01*
X106743666Y-108735857D01*
X106791285Y-108640619D01*
X106838904Y-108593000D01*
X106934142Y-108545380D01*
X107172238Y-108545380D01*
X107315095Y-108593000D01*
X107648428Y-108545380D02*
X107886523Y-109545380D01*
X108077000Y-108831095D01*
X108267476Y-109545380D01*
X108505571Y-108545380D01*
X109410333Y-109545380D02*
X108838904Y-109545380D01*
X109124619Y-109545380D02*
X109124619Y-108545380D01*
X109029380Y-108688238D01*
X108934142Y-108783476D01*
X108838904Y-108831095D01*
X106743666Y-77112761D02*
X106886523Y-77160380D01*
X107124619Y-77160380D01*
X107219857Y-77112761D01*
X107267476Y-77065142D01*
X107315095Y-76969904D01*
X107315095Y-76874666D01*
X107267476Y-76779428D01*
X107219857Y-76731809D01*
X107124619Y-76684190D01*
X106934142Y-76636571D01*
X106838904Y-76588952D01*
X106791285Y-76541333D01*
X106743666Y-76446095D01*
X106743666Y-76350857D01*
X106791285Y-76255619D01*
X106838904Y-76208000D01*
X106934142Y-76160380D01*
X107172238Y-76160380D01*
X107315095Y-76208000D01*
X107648428Y-76160380D02*
X107886523Y-77160380D01*
X108077000Y-76446095D01*
X108267476Y-77160380D01*
X108505571Y-76160380D01*
X108791285Y-76160380D02*
X109410333Y-76160380D01*
X109077000Y-76541333D01*
X109219857Y-76541333D01*
X109315095Y-76588952D01*
X109362714Y-76636571D01*
X109410333Y-76731809D01*
X109410333Y-76969904D01*
X109362714Y-77065142D01*
X109315095Y-77112761D01*
X109219857Y-77160380D01*
X108934142Y-77160380D01*
X108838904Y-77112761D01*
X108791285Y-77065142D01*
X128230333Y-111958380D02*
X127897000Y-111482190D01*
X127658904Y-111958380D02*
X127658904Y-110958380D01*
X128039857Y-110958380D01*
X128135095Y-111006000D01*
X128182714Y-111053619D01*
X128230333Y-111148857D01*
X128230333Y-111291714D01*
X128182714Y-111386952D01*
X128135095Y-111434571D01*
X128039857Y-111482190D01*
X127658904Y-111482190D01*
X128563666Y-110958380D02*
X129182714Y-110958380D01*
X128849380Y-111339333D01*
X128992238Y-111339333D01*
X129087476Y-111386952D01*
X129135095Y-111434571D01*
X129182714Y-111529809D01*
X129182714Y-111767904D01*
X129135095Y-111863142D01*
X129087476Y-111910761D01*
X128992238Y-111958380D01*
X128706523Y-111958380D01*
X128611285Y-111910761D01*
X128563666Y-111863142D01*
X211328095Y-124674380D02*
X211328095Y-125483904D01*
X211375714Y-125579142D01*
X211423333Y-125626761D01*
X211518571Y-125674380D01*
X211709047Y-125674380D01*
X211804285Y-125626761D01*
X211851904Y-125579142D01*
X211899523Y-125483904D01*
X211899523Y-124674380D01*
X212899523Y-125674380D02*
X212328095Y-125674380D01*
X212613809Y-125674380D02*
X212613809Y-124674380D01*
X212518571Y-124817238D01*
X212423333Y-124912476D01*
X212328095Y-124960095D01*
X210494642Y-100591880D02*
X210161309Y-100115690D01*
X209923214Y-100591880D02*
X209923214Y-99591880D01*
X210304166Y-99591880D01*
X210399404Y-99639500D01*
X210447023Y-99687119D01*
X210494642Y-99782357D01*
X210494642Y-99925214D01*
X210447023Y-100020452D01*
X210399404Y-100068071D01*
X210304166Y-100115690D01*
X209923214Y-100115690D01*
X211447023Y-100591880D02*
X210875595Y-100591880D01*
X211161309Y-100591880D02*
X211161309Y-99591880D01*
X211066071Y-99734738D01*
X210970833Y-99829976D01*
X210875595Y-99877595D01*
X212018452Y-100020452D02*
X211923214Y-99972833D01*
X211875595Y-99925214D01*
X211827976Y-99829976D01*
X211827976Y-99782357D01*
X211875595Y-99687119D01*
X211923214Y-99639500D01*
X212018452Y-99591880D01*
X212208928Y-99591880D01*
X212304166Y-99639500D01*
X212351785Y-99687119D01*
X212399404Y-99782357D01*
X212399404Y-99829976D01*
X212351785Y-99925214D01*
X212304166Y-99972833D01*
X212208928Y-100020452D01*
X212018452Y-100020452D01*
X211923214Y-100068071D01*
X211875595Y-100115690D01*
X211827976Y-100210928D01*
X211827976Y-100401404D01*
X211875595Y-100496642D01*
X211923214Y-100544261D01*
X212018452Y-100591880D01*
X212208928Y-100591880D01*
X212304166Y-100544261D01*
X212351785Y-100496642D01*
X212399404Y-100401404D01*
X212399404Y-100210928D01*
X212351785Y-100115690D01*
X212304166Y-100068071D01*
X212208928Y-100020452D01*
X210494642Y-107449880D02*
X210161309Y-106973690D01*
X209923214Y-107449880D02*
X209923214Y-106449880D01*
X210304166Y-106449880D01*
X210399404Y-106497500D01*
X210447023Y-106545119D01*
X210494642Y-106640357D01*
X210494642Y-106783214D01*
X210447023Y-106878452D01*
X210399404Y-106926071D01*
X210304166Y-106973690D01*
X209923214Y-106973690D01*
X211447023Y-107449880D02*
X210875595Y-107449880D01*
X211161309Y-107449880D02*
X211161309Y-106449880D01*
X211066071Y-106592738D01*
X210970833Y-106687976D01*
X210875595Y-106735595D01*
X211780357Y-106449880D02*
X212447023Y-106449880D01*
X212018452Y-107449880D01*
X220749833Y-112910880D02*
X220273642Y-112910880D01*
X220273642Y-111910880D01*
X221035547Y-112006119D02*
X221083166Y-111958500D01*
X221178404Y-111910880D01*
X221416500Y-111910880D01*
X221511738Y-111958500D01*
X221559357Y-112006119D01*
X221606976Y-112101357D01*
X221606976Y-112196595D01*
X221559357Y-112339452D01*
X220987928Y-112910880D01*
X221606976Y-112910880D01*
X219416404Y-119641880D02*
X219416404Y-118641880D01*
X219654500Y-118641880D01*
X219797357Y-118689500D01*
X219892595Y-118784738D01*
X219940214Y-118879976D01*
X219987833Y-119070452D01*
X219987833Y-119213309D01*
X219940214Y-119403785D01*
X219892595Y-119499023D01*
X219797357Y-119594261D01*
X219654500Y-119641880D01*
X219416404Y-119641880D01*
X220940214Y-119641880D02*
X220368785Y-119641880D01*
X220654500Y-119641880D02*
X220654500Y-118641880D01*
X220559261Y-118784738D01*
X220464023Y-118879976D01*
X220368785Y-118927595D01*
X216082642Y-107354642D02*
X216035023Y-107402261D01*
X215892166Y-107449880D01*
X215796928Y-107449880D01*
X215654071Y-107402261D01*
X215558833Y-107307023D01*
X215511214Y-107211785D01*
X215463595Y-107021309D01*
X215463595Y-106878452D01*
X215511214Y-106687976D01*
X215558833Y-106592738D01*
X215654071Y-106497500D01*
X215796928Y-106449880D01*
X215892166Y-106449880D01*
X216035023Y-106497500D01*
X216082642Y-106545119D01*
X217035023Y-107449880D02*
X216463595Y-107449880D01*
X216749309Y-107449880D02*
X216749309Y-106449880D01*
X216654071Y-106592738D01*
X216558833Y-106687976D01*
X216463595Y-106735595D01*
X217939785Y-106449880D02*
X217463595Y-106449880D01*
X217415976Y-106926071D01*
X217463595Y-106878452D01*
X217558833Y-106830833D01*
X217796928Y-106830833D01*
X217892166Y-106878452D01*
X217939785Y-106926071D01*
X217987404Y-107021309D01*
X217987404Y-107259404D01*
X217939785Y-107354642D01*
X217892166Y-107402261D01*
X217796928Y-107449880D01*
X217558833Y-107449880D01*
X217463595Y-107402261D01*
X217415976Y-107354642D01*
X207700642Y-119546642D02*
X207653023Y-119594261D01*
X207510166Y-119641880D01*
X207414928Y-119641880D01*
X207272071Y-119594261D01*
X207176833Y-119499023D01*
X207129214Y-119403785D01*
X207081595Y-119213309D01*
X207081595Y-119070452D01*
X207129214Y-118879976D01*
X207176833Y-118784738D01*
X207272071Y-118689500D01*
X207414928Y-118641880D01*
X207510166Y-118641880D01*
X207653023Y-118689500D01*
X207700642Y-118737119D01*
X208653023Y-119641880D02*
X208081595Y-119641880D01*
X208367309Y-119641880D02*
X208367309Y-118641880D01*
X208272071Y-118784738D01*
X208176833Y-118879976D01*
X208081595Y-118927595D01*
X209510166Y-118975214D02*
X209510166Y-119641880D01*
X209272071Y-118594261D02*
X209033976Y-119308547D01*
X209653023Y-119308547D01*
X215892142Y-125579142D02*
X215844523Y-125626761D01*
X215701666Y-125674380D01*
X215606428Y-125674380D01*
X215463571Y-125626761D01*
X215368333Y-125531523D01*
X215320714Y-125436285D01*
X215273095Y-125245809D01*
X215273095Y-125102952D01*
X215320714Y-124912476D01*
X215368333Y-124817238D01*
X215463571Y-124722000D01*
X215606428Y-124674380D01*
X215701666Y-124674380D01*
X215844523Y-124722000D01*
X215892142Y-124769619D01*
X216844523Y-125674380D02*
X216273095Y-125674380D01*
X216558809Y-125674380D02*
X216558809Y-124674380D01*
X216463571Y-124817238D01*
X216368333Y-124912476D01*
X216273095Y-124960095D01*
X217796904Y-125674380D02*
X217225476Y-125674380D01*
X217511190Y-125674380D02*
X217511190Y-124674380D01*
X217415952Y-124817238D01*
X217320714Y-124912476D01*
X217225476Y-124960095D01*
X214844380Y-76144333D02*
X215558666Y-76144333D01*
X215701523Y-76191952D01*
X215796761Y-76287190D01*
X215844380Y-76430047D01*
X215844380Y-76525285D01*
X215844380Y-75668142D02*
X214844380Y-75668142D01*
X214844380Y-75287190D01*
X214892000Y-75191952D01*
X214939619Y-75144333D01*
X215034857Y-75096714D01*
X215177714Y-75096714D01*
X215272952Y-75144333D01*
X215320571Y-75191952D01*
X215368190Y-75287190D01*
X215368190Y-75668142D01*
X215844380Y-74144333D02*
X215844380Y-74715761D01*
X215844380Y-74430047D02*
X214844380Y-74430047D01*
X214987238Y-74525285D01*
X215082476Y-74620523D01*
X215130095Y-74715761D01*
X139636595Y-82700880D02*
X139636595Y-83510404D01*
X139684214Y-83605642D01*
X139731833Y-83653261D01*
X139827071Y-83700880D01*
X140017547Y-83700880D01*
X140112785Y-83653261D01*
X140160404Y-83605642D01*
X140208023Y-83510404D01*
X140208023Y-82700880D01*
X140588976Y-82700880D02*
X141255642Y-82700880D01*
X140827071Y-83700880D01*
X215519095Y-71969380D02*
X215519095Y-72778904D01*
X215566714Y-72874142D01*
X215614333Y-72921761D01*
X215709571Y-72969380D01*
X215900047Y-72969380D01*
X215995285Y-72921761D01*
X216042904Y-72874142D01*
X216090523Y-72778904D01*
X216090523Y-71969380D01*
X216995285Y-71969380D02*
X216804809Y-71969380D01*
X216709571Y-72017000D01*
X216661952Y-72064619D01*
X216566714Y-72207476D01*
X216519095Y-72397952D01*
X216519095Y-72778904D01*
X216566714Y-72874142D01*
X216614333Y-72921761D01*
X216709571Y-72969380D01*
X216900047Y-72969380D01*
X216995285Y-72921761D01*
X217042904Y-72874142D01*
X217090523Y-72778904D01*
X217090523Y-72540809D01*
X217042904Y-72445571D01*
X216995285Y-72397952D01*
X216900047Y-72350333D01*
X216709571Y-72350333D01*
X216614333Y-72397952D01*
X216566714Y-72445571D01*
X216519095Y-72540809D01*
X219583095Y-66000380D02*
X219583095Y-66809904D01*
X219630714Y-66905142D01*
X219678333Y-66952761D01*
X219773571Y-67000380D01*
X219964047Y-67000380D01*
X220059285Y-66952761D01*
X220106904Y-66905142D01*
X220154523Y-66809904D01*
X220154523Y-66000380D01*
X221059285Y-66333714D02*
X221059285Y-67000380D01*
X220821190Y-65952761D02*
X220583095Y-66667047D01*
X221202142Y-66667047D01*
X209700833Y-62682380D02*
X209367500Y-62206190D01*
X209129404Y-62682380D02*
X209129404Y-61682380D01*
X209510357Y-61682380D01*
X209605595Y-61730000D01*
X209653214Y-61777619D01*
X209700833Y-61872857D01*
X209700833Y-62015714D01*
X209653214Y-62110952D01*
X209605595Y-62158571D01*
X209510357Y-62206190D01*
X209129404Y-62206190D01*
X210605595Y-61682380D02*
X210129404Y-61682380D01*
X210081785Y-62158571D01*
X210129404Y-62110952D01*
X210224642Y-62063333D01*
X210462738Y-62063333D01*
X210557976Y-62110952D01*
X210605595Y-62158571D01*
X210653214Y-62253809D01*
X210653214Y-62491904D01*
X210605595Y-62587142D01*
X210557976Y-62634761D01*
X210462738Y-62682380D01*
X210224642Y-62682380D01*
X210129404Y-62634761D01*
X210081785Y-62587142D01*
X220083142Y-77192142D02*
X220035523Y-77239761D01*
X219892666Y-77287380D01*
X219797428Y-77287380D01*
X219654571Y-77239761D01*
X219559333Y-77144523D01*
X219511714Y-77049285D01*
X219464095Y-76858809D01*
X219464095Y-76715952D01*
X219511714Y-76525476D01*
X219559333Y-76430238D01*
X219654571Y-76335000D01*
X219797428Y-76287380D01*
X219892666Y-76287380D01*
X220035523Y-76335000D01*
X220083142Y-76382619D01*
X221035523Y-77287380D02*
X220464095Y-77287380D01*
X220749809Y-77287380D02*
X220749809Y-76287380D01*
X220654571Y-76430238D01*
X220559333Y-76525476D01*
X220464095Y-76573095D01*
X221368857Y-76287380D02*
X221987904Y-76287380D01*
X221654571Y-76668333D01*
X221797428Y-76668333D01*
X221892666Y-76715952D01*
X221940285Y-76763571D01*
X221987904Y-76858809D01*
X221987904Y-77096904D01*
X221940285Y-77192142D01*
X221892666Y-77239761D01*
X221797428Y-77287380D01*
X221511714Y-77287380D01*
X221416476Y-77239761D01*
X221368857Y-77192142D01*
X216273142Y-77192142D02*
X216225523Y-77239761D01*
X216082666Y-77287380D01*
X215987428Y-77287380D01*
X215844571Y-77239761D01*
X215749333Y-77144523D01*
X215701714Y-77049285D01*
X215654095Y-76858809D01*
X215654095Y-76715952D01*
X215701714Y-76525476D01*
X215749333Y-76430238D01*
X215844571Y-76335000D01*
X215987428Y-76287380D01*
X216082666Y-76287380D01*
X216225523Y-76335000D01*
X216273142Y-76382619D01*
X217225523Y-77287380D02*
X216654095Y-77287380D01*
X216939809Y-77287380D02*
X216939809Y-76287380D01*
X216844571Y-76430238D01*
X216749333Y-76525476D01*
X216654095Y-76573095D01*
X217606476Y-76382619D02*
X217654095Y-76335000D01*
X217749333Y-76287380D01*
X217987428Y-76287380D01*
X218082666Y-76335000D01*
X218130285Y-76382619D01*
X218177904Y-76477857D01*
X218177904Y-76573095D01*
X218130285Y-76715952D01*
X217558857Y-77287380D01*
X218177904Y-77287380D01*
X209161142Y-68175142D02*
X209113523Y-68222761D01*
X208970666Y-68270380D01*
X208875428Y-68270380D01*
X208732571Y-68222761D01*
X208637333Y-68127523D01*
X208589714Y-68032285D01*
X208542095Y-67841809D01*
X208542095Y-67698952D01*
X208589714Y-67508476D01*
X208637333Y-67413238D01*
X208732571Y-67318000D01*
X208875428Y-67270380D01*
X208970666Y-67270380D01*
X209113523Y-67318000D01*
X209161142Y-67365619D01*
X210113523Y-68270380D02*
X209542095Y-68270380D01*
X209827809Y-68270380D02*
X209827809Y-67270380D01*
X209732571Y-67413238D01*
X209637333Y-67508476D01*
X209542095Y-67556095D01*
X210732571Y-67270380D02*
X210827809Y-67270380D01*
X210923047Y-67318000D01*
X210970666Y-67365619D01*
X211018285Y-67460857D01*
X211065904Y-67651333D01*
X211065904Y-67889428D01*
X211018285Y-68079904D01*
X210970666Y-68175142D01*
X210923047Y-68222761D01*
X210827809Y-68270380D01*
X210732571Y-68270380D01*
X210637333Y-68222761D01*
X210589714Y-68175142D01*
X210542095Y-68079904D01*
X210494476Y-67889428D01*
X210494476Y-67651333D01*
X210542095Y-67460857D01*
X210589714Y-67365619D01*
X210637333Y-67318000D01*
X210732571Y-67270380D01*
X140231833Y-79287642D02*
X140184214Y-79335261D01*
X140041357Y-79382880D01*
X139946119Y-79382880D01*
X139803261Y-79335261D01*
X139708023Y-79240023D01*
X139660404Y-79144785D01*
X139612785Y-78954309D01*
X139612785Y-78811452D01*
X139660404Y-78620976D01*
X139708023Y-78525738D01*
X139803261Y-78430500D01*
X139946119Y-78382880D01*
X140041357Y-78382880D01*
X140184214Y-78430500D01*
X140231833Y-78478119D01*
X140708023Y-79382880D02*
X140898500Y-79382880D01*
X140993738Y-79335261D01*
X141041357Y-79287642D01*
X141136595Y-79144785D01*
X141184214Y-78954309D01*
X141184214Y-78573357D01*
X141136595Y-78478119D01*
X141088976Y-78430500D01*
X140993738Y-78382880D01*
X140803261Y-78382880D01*
X140708023Y-78430500D01*
X140660404Y-78478119D01*
X140612785Y-78573357D01*
X140612785Y-78811452D01*
X140660404Y-78906690D01*
X140708023Y-78954309D01*
X140803261Y-79001928D01*
X140993738Y-79001928D01*
X141088976Y-78954309D01*
X141136595Y-78906690D01*
X141184214Y-78811452D01*
X140231833Y-88304642D02*
X140184214Y-88352261D01*
X140041357Y-88399880D01*
X139946119Y-88399880D01*
X139803261Y-88352261D01*
X139708023Y-88257023D01*
X139660404Y-88161785D01*
X139612785Y-87971309D01*
X139612785Y-87828452D01*
X139660404Y-87637976D01*
X139708023Y-87542738D01*
X139803261Y-87447500D01*
X139946119Y-87399880D01*
X140041357Y-87399880D01*
X140184214Y-87447500D01*
X140231833Y-87495119D01*
X140803261Y-87828452D02*
X140708023Y-87780833D01*
X140660404Y-87733214D01*
X140612785Y-87637976D01*
X140612785Y-87590357D01*
X140660404Y-87495119D01*
X140708023Y-87447500D01*
X140803261Y-87399880D01*
X140993738Y-87399880D01*
X141088976Y-87447500D01*
X141136595Y-87495119D01*
X141184214Y-87590357D01*
X141184214Y-87637976D01*
X141136595Y-87733214D01*
X141088976Y-87780833D01*
X140993738Y-87828452D01*
X140803261Y-87828452D01*
X140708023Y-87876071D01*
X140660404Y-87923690D01*
X140612785Y-88018928D01*
X140612785Y-88209404D01*
X140660404Y-88304642D01*
X140708023Y-88352261D01*
X140803261Y-88399880D01*
X140993738Y-88399880D01*
X141088976Y-88352261D01*
X141136595Y-88304642D01*
X141184214Y-88209404D01*
X141184214Y-88018928D01*
X141136595Y-87923690D01*
X141088976Y-87876071D01*
X140993738Y-87828452D01*
X209827833Y-65508142D02*
X209780214Y-65555761D01*
X209637357Y-65603380D01*
X209542119Y-65603380D01*
X209399261Y-65555761D01*
X209304023Y-65460523D01*
X209256404Y-65365285D01*
X209208785Y-65174809D01*
X209208785Y-65031952D01*
X209256404Y-64841476D01*
X209304023Y-64746238D01*
X209399261Y-64651000D01*
X209542119Y-64603380D01*
X209637357Y-64603380D01*
X209780214Y-64651000D01*
X209827833Y-64698619D01*
X210161166Y-64603380D02*
X210827833Y-64603380D01*
X210399261Y-65603380D01*
X174102733Y-79059042D02*
X174055114Y-79106661D01*
X173912257Y-79154280D01*
X173817019Y-79154280D01*
X173674161Y-79106661D01*
X173578923Y-79011423D01*
X173531304Y-78916185D01*
X173483685Y-78725709D01*
X173483685Y-78582852D01*
X173531304Y-78392376D01*
X173578923Y-78297138D01*
X173674161Y-78201900D01*
X173817019Y-78154280D01*
X173912257Y-78154280D01*
X174055114Y-78201900D01*
X174102733Y-78249519D01*
X174959876Y-78487614D02*
X174959876Y-79154280D01*
X174721780Y-78106661D02*
X174483685Y-78820947D01*
X175102733Y-78820947D01*
X156678333Y-69540380D02*
X156345000Y-69064190D01*
X156106904Y-69540380D02*
X156106904Y-68540380D01*
X156487857Y-68540380D01*
X156583095Y-68588000D01*
X156630714Y-68635619D01*
X156678333Y-68730857D01*
X156678333Y-68873714D01*
X156630714Y-68968952D01*
X156583095Y-69016571D01*
X156487857Y-69064190D01*
X156106904Y-69064190D01*
X157535476Y-68873714D02*
X157535476Y-69540380D01*
X157297380Y-68492761D02*
X157059285Y-69207047D01*
X157678333Y-69207047D01*
X147407333Y-71318380D02*
X147074000Y-70842190D01*
X146835904Y-71318380D02*
X146835904Y-70318380D01*
X147216857Y-70318380D01*
X147312095Y-70366000D01*
X147359714Y-70413619D01*
X147407333Y-70508857D01*
X147407333Y-70651714D01*
X147359714Y-70746952D01*
X147312095Y-70794571D01*
X147216857Y-70842190D01*
X146835904Y-70842190D01*
X147788285Y-70413619D02*
X147835904Y-70366000D01*
X147931142Y-70318380D01*
X148169238Y-70318380D01*
X148264476Y-70366000D01*
X148312095Y-70413619D01*
X148359714Y-70508857D01*
X148359714Y-70604095D01*
X148312095Y-70746952D01*
X147740666Y-71318380D01*
X148359714Y-71318380D01*
X149566333Y-71318380D02*
X149233000Y-70842190D01*
X148994904Y-71318380D02*
X148994904Y-70318380D01*
X149375857Y-70318380D01*
X149471095Y-70366000D01*
X149518714Y-70413619D01*
X149566333Y-70508857D01*
X149566333Y-70651714D01*
X149518714Y-70746952D01*
X149471095Y-70794571D01*
X149375857Y-70842190D01*
X148994904Y-70842190D01*
X150518714Y-71318380D02*
X149947285Y-71318380D01*
X150233000Y-71318380D02*
X150233000Y-70318380D01*
X150137761Y-70461238D01*
X150042523Y-70556476D01*
X149947285Y-70604095D01*
X162520333Y-66619380D02*
X162044142Y-66619380D01*
X162044142Y-65619380D01*
X163377476Y-66619380D02*
X162806047Y-66619380D01*
X163091761Y-66619380D02*
X163091761Y-65619380D01*
X162996523Y-65762238D01*
X162901285Y-65857476D01*
X162806047Y-65905095D01*
X159853333Y-66524142D02*
X159805714Y-66571761D01*
X159662857Y-66619380D01*
X159567619Y-66619380D01*
X159424761Y-66571761D01*
X159329523Y-66476523D01*
X159281904Y-66381285D01*
X159234285Y-66190809D01*
X159234285Y-66047952D01*
X159281904Y-65857476D01*
X159329523Y-65762238D01*
X159424761Y-65667000D01*
X159567619Y-65619380D01*
X159662857Y-65619380D01*
X159805714Y-65667000D01*
X159853333Y-65714619D01*
X160710476Y-65619380D02*
X160520000Y-65619380D01*
X160424761Y-65667000D01*
X160377142Y-65714619D01*
X160281904Y-65857476D01*
X160234285Y-66047952D01*
X160234285Y-66428904D01*
X160281904Y-66524142D01*
X160329523Y-66571761D01*
X160424761Y-66619380D01*
X160615238Y-66619380D01*
X160710476Y-66571761D01*
X160758095Y-66524142D01*
X160805714Y-66428904D01*
X160805714Y-66190809D01*
X160758095Y-66095571D01*
X160710476Y-66047952D01*
X160615238Y-66000333D01*
X160424761Y-66000333D01*
X160329523Y-66047952D01*
X160281904Y-66095571D01*
X160234285Y-66190809D01*
X161009033Y-85828142D02*
X160961414Y-85875761D01*
X160818557Y-85923380D01*
X160723319Y-85923380D01*
X160580461Y-85875761D01*
X160485223Y-85780523D01*
X160437604Y-85685285D01*
X160389985Y-85494809D01*
X160389985Y-85351952D01*
X160437604Y-85161476D01*
X160485223Y-85066238D01*
X160580461Y-84971000D01*
X160723319Y-84923380D01*
X160818557Y-84923380D01*
X160961414Y-84971000D01*
X161009033Y-85018619D01*
X161913795Y-84923380D02*
X161437604Y-84923380D01*
X161389985Y-85399571D01*
X161437604Y-85351952D01*
X161532842Y-85304333D01*
X161770938Y-85304333D01*
X161866176Y-85351952D01*
X161913795Y-85399571D01*
X161961414Y-85494809D01*
X161961414Y-85732904D01*
X161913795Y-85828142D01*
X161866176Y-85875761D01*
X161770938Y-85923380D01*
X161532842Y-85923380D01*
X161437604Y-85875761D01*
X161389985Y-85828142D01*
X175093333Y-70854842D02*
X175045714Y-70902461D01*
X174902857Y-70950080D01*
X174807619Y-70950080D01*
X174664761Y-70902461D01*
X174569523Y-70807223D01*
X174521904Y-70711985D01*
X174474285Y-70521509D01*
X174474285Y-70378652D01*
X174521904Y-70188176D01*
X174569523Y-70092938D01*
X174664761Y-69997700D01*
X174807619Y-69950080D01*
X174902857Y-69950080D01*
X175045714Y-69997700D01*
X175093333Y-70045319D01*
X175426666Y-69950080D02*
X176045714Y-69950080D01*
X175712380Y-70331033D01*
X175855238Y-70331033D01*
X175950476Y-70378652D01*
X175998095Y-70426271D01*
X176045714Y-70521509D01*
X176045714Y-70759604D01*
X175998095Y-70854842D01*
X175950476Y-70902461D01*
X175855238Y-70950080D01*
X175569523Y-70950080D01*
X175474285Y-70902461D01*
X175426666Y-70854842D01*
X165949333Y-66397142D02*
X165901714Y-66444761D01*
X165758857Y-66492380D01*
X165663619Y-66492380D01*
X165520761Y-66444761D01*
X165425523Y-66349523D01*
X165377904Y-66254285D01*
X165330285Y-66063809D01*
X165330285Y-65920952D01*
X165377904Y-65730476D01*
X165425523Y-65635238D01*
X165520761Y-65540000D01*
X165663619Y-65492380D01*
X165758857Y-65492380D01*
X165901714Y-65540000D01*
X165949333Y-65587619D01*
X166330285Y-65587619D02*
X166377904Y-65540000D01*
X166473142Y-65492380D01*
X166711238Y-65492380D01*
X166806476Y-65540000D01*
X166854095Y-65587619D01*
X166901714Y-65682857D01*
X166901714Y-65778095D01*
X166854095Y-65920952D01*
X166282666Y-66492380D01*
X166901714Y-66492380D01*
X154646333Y-62206142D02*
X154598714Y-62253761D01*
X154455857Y-62301380D01*
X154360619Y-62301380D01*
X154217761Y-62253761D01*
X154122523Y-62158523D01*
X154074904Y-62063285D01*
X154027285Y-61872809D01*
X154027285Y-61729952D01*
X154074904Y-61539476D01*
X154122523Y-61444238D01*
X154217761Y-61349000D01*
X154360619Y-61301380D01*
X154455857Y-61301380D01*
X154598714Y-61349000D01*
X154646333Y-61396619D01*
X155598714Y-62301380D02*
X155027285Y-62301380D01*
X155313000Y-62301380D02*
X155313000Y-61301380D01*
X155217761Y-61444238D01*
X155122523Y-61539476D01*
X155027285Y-61587095D01*
M02*
