M48
; DRILL file {KiCad 5.1.6-c6e7f7d~87~ubuntu18.04.1} date Sun Aug  9 22:57:10 2020
; FORMAT={-:-/ absolute / inch / decimal}
; #@! TF.CreationDate,2020-08-09T22:57:10+01:00
; #@! TF.GenerationSoftware,Kicad,Pcbnew,5.1.6-c6e7f7d~87~ubuntu18.04.1
; #@! TF.FileFunction,Plated,1,2,PTH
FMAT,2
INCH
T1C0.0118
T2C0.0236
T3C0.0394
T4C0.0402
T5C0.2520
%
G90
G05
T1
X4.0996Y-4.8904
X4.4Y-4.89
X4.4225Y-2.6475
X4.505Y-3.965
X4.505Y-4.065
X4.505Y-4.165
X4.57Y-3.86
X4.6Y-3.88
X4.6Y-4.715
X4.685Y-3.535
X4.745Y-3.1625
X4.745Y-3.2125
X4.745Y-3.2625
X4.75Y-3.395
X4.8Y-3.57
X4.8Y-3.77
X4.85Y-3.905
X4.9Y-3.92
X4.915Y-3.535
X4.945Y-2.9125
X4.945Y-3.0125
X4.95Y-3.705
X5.015Y-3.92
X5.05Y-3.835
X5.06Y-3.535
X5.0746Y-4.0654
X5.2675Y-4.44
X5.315Y-4.215
X5.315Y-4.2925
X5.3525Y-4.4375
X5.365Y-4.1525
X5.4175Y-4.335
X5.4175Y-4.385
X5.445Y-3.985
X5.6075Y-3.4125
X5.6875Y-3.1775
X5.715Y-2.54
X5.7375Y-3.1075
X5.825Y-3.2
X5.825Y-3.25
X5.825Y-3.325
X5.825Y-3.375
X5.875Y-3.2
X5.875Y-3.25
X5.875Y-3.325
X5.875Y-3.375
X5.925Y-3.2
X5.925Y-3.25
X5.925Y-3.325
X5.925Y-3.375
X5.975Y-3.2
X5.975Y-3.25
X5.975Y-3.325
X5.975Y-3.375
X6.0625Y-2.875
X6.0954Y-2.63
X6.15Y-2.8325
X6.155Y-2.92
X6.1555Y-2.9545
X6.21Y-2.545
X6.2294Y-2.6256
X6.25Y-2.46
X6.28Y-2.777
X6.295Y-2.915
X6.3024Y-3.2238
X6.44Y-3.295
X6.467Y-2.54
X6.525Y-2.8
X6.55Y-2.85
X6.575Y-3.35
X6.59Y-2.46
X6.625Y-3.35
X6.66Y-3.24
X6.66Y-3.28
X6.66Y-3.32
X6.749Y-2.8168
X6.749Y-3.071
X6.8625Y-2.7325
X6.875Y-2.825
X6.9Y-2.85
X6.925Y-2.875
X6.95Y-2.9
X6.96Y-3.015
X6.975Y-2.925
X6.9955Y-2.9545
X7.56Y-3.24
X7.56Y-3.28
X7.64Y-3.08
X7.64Y-3.14
X7.68Y-3.2
X7.72Y-3.64
X7.76Y-3.68
X7.88Y-3.24
X7.92Y-2.98
X8.2645Y-4.8175
X8.3475Y-2.7225
X8.3525Y-4.0625
X8.48Y-3.01
X8.4851Y-2.7776
X8.5625Y-2.7375
X8.5925Y-4.7425
X8.5999Y-2.7776
X8.6225Y-4.0675
X8.63Y-4.855
X8.73Y-2.9
T2
X5.561Y-5.12
X5.6164Y-4.9864
X5.6164Y-5.2536
X5.75Y-4.931
X5.75Y-5.309
X5.8836Y-4.9864
X5.8836Y-5.2536
X5.939Y-5.12
X6.781Y-5.12
X6.8364Y-4.9864
X6.8364Y-5.2536
X6.97Y-4.931
X6.97Y-5.309
X7.1036Y-4.9864
X7.1036Y-5.2536
X7.159Y-5.12
X4.0385Y-3.4075
X4.0939Y-3.2739
X4.0939Y-3.5411
X4.2275Y-3.2185
X4.2275Y-3.5965
X4.3611Y-3.2739
X4.3611Y-3.5411
X4.4165Y-3.4075
X4.8485Y-5.31
X4.9039Y-5.1764
X4.9039Y-5.4436
X5.0375Y-5.121
X5.0375Y-5.499
X5.1711Y-5.1764
X5.1711Y-5.4436
X5.2265Y-5.31
X7.4935Y-5.31
X7.5489Y-5.1764
X7.5489Y-5.4436
X7.6825Y-5.121
X7.6825Y-5.499
X7.8161Y-5.1764
X7.8161Y-5.4436
X7.8715Y-5.31
X8.2835Y-3.4075
X8.3389Y-3.2739
X8.3389Y-3.5411
X8.4725Y-3.2185
X8.4725Y-3.5965
X8.6061Y-3.2739
X8.6061Y-3.5411
X8.6615Y-3.4075
T3
X4.1525Y-4.63
X4.2525Y-4.63
X4.3525Y-4.63
X8.0035Y-2.7425
X8.0035Y-2.8425
X8.0035Y-2.9425
X8.0035Y-3.0425
X8.0035Y-3.1425
X8.0035Y-3.2425
X8.0035Y-3.3425
X8.0035Y-3.4425
X8.0035Y-3.5425
X8.0035Y-3.6425
X8.0035Y-3.7425
X8.0035Y-3.8425
X8.0035Y-3.9425
X8.0035Y-4.0425
X5.245Y-2.745
X5.345Y-2.745
X5.445Y-2.745
X5.545Y-2.745
X5.645Y-2.745
T4
X4.815Y-4.5175
X4.815Y-4.7175
X4.915Y-4.5175
X4.915Y-4.7175
X5.015Y-4.5175
X5.015Y-4.7175
X5.115Y-4.5175
X5.115Y-4.7175
X5.215Y-4.5175
X5.215Y-4.7175
X5.315Y-4.5175
X5.315Y-4.7175
X5.415Y-4.5175
X5.415Y-4.7175
X5.515Y-4.5175
X5.515Y-4.7175
X5.615Y-4.5175
X5.615Y-4.7175
X5.715Y-4.5175
X5.715Y-4.7175
X5.815Y-4.5175
X5.815Y-4.7175
X5.915Y-4.5175
X5.915Y-4.7175
X6.015Y-4.5175
X6.015Y-4.7175
X6.115Y-4.5175
X6.115Y-4.7175
X6.215Y-4.5175
X6.215Y-4.7175
X6.315Y-4.5175
X6.315Y-4.7175
X6.415Y-4.5175
X6.415Y-4.7175
X6.515Y-4.5175
X6.515Y-4.7175
X6.615Y-4.5175
X6.615Y-4.7175
X6.715Y-4.5175
X6.715Y-4.7175
X6.815Y-4.5175
X6.815Y-4.7175
X6.915Y-4.5175
X6.915Y-4.7175
X7.015Y-4.5175
X7.015Y-4.7175
X7.115Y-4.5175
X7.115Y-4.7175
X7.215Y-4.5175
X7.215Y-4.7175
X7.315Y-4.5175
X7.315Y-4.7175
X7.415Y-4.5175
X7.415Y-4.7175
X7.515Y-4.5175
X7.515Y-4.7175
X7.615Y-4.5175
X7.615Y-4.7175
X7.715Y-4.5175
X7.715Y-4.7175
X7.815Y-4.5175
X7.815Y-4.7175
X7.915Y-4.5175
X7.915Y-4.7175
T5
X4.2275Y-3.4075
X5.0375Y-5.31
X7.6825Y-5.31
X8.4725Y-3.4075
X5.75Y-5.12
X6.97Y-5.12
T0
M30
