G04 #@! TF.GenerationSoftware,KiCad,Pcbnew,5.1.6-c6e7f7d~87~ubuntu18.04.1*
G04 #@! TF.CreationDate,2020-08-09T22:57:09+01:00*
G04 #@! TF.ProjectId,ServerPSU_Breakout,53657276-6572-4505-9355-5f427265616b,B*
G04 #@! TF.SameCoordinates,Original*
G04 #@! TF.FileFunction,Copper,L1,Top*
G04 #@! TF.FilePolarity,Positive*
%FSLAX46Y46*%
G04 Gerber Fmt 4.6, Leading zero omitted, Abs format (unit mm)*
G04 Created by KiCad (PCBNEW 5.1.6-c6e7f7d~87~ubuntu18.04.1) date 2020-08-09 22:57:09*
%MOMM*%
%LPD*%
G01*
G04 APERTURE LIST*
G04 #@! TA.AperFunction,ComponentPad*
%ADD10O,1.700000X1.700000*%
G04 #@! TD*
G04 #@! TA.AperFunction,ComponentPad*
%ADD11R,1.700000X1.700000*%
G04 #@! TD*
G04 #@! TA.AperFunction,ComponentPad*
%ADD12C,0.900000*%
G04 #@! TD*
G04 #@! TA.AperFunction,ComponentPad*
%ADD13C,12.800000*%
G04 #@! TD*
G04 #@! TA.AperFunction,SMDPad,CuDef*
%ADD14R,2.440000X1.120000*%
G04 #@! TD*
G04 #@! TA.AperFunction,SMDPad,CuDef*
%ADD15R,1.000000X1.000000*%
G04 #@! TD*
G04 #@! TA.AperFunction,SMDPad,CuDef*
%ADD16R,1.060000X0.650000*%
G04 #@! TD*
G04 #@! TA.AperFunction,SMDPad,CuDef*
%ADD17R,8.200000X2.600000*%
G04 #@! TD*
G04 #@! TA.AperFunction,SMDPad,CuDef*
%ADD18R,1.100000X1.100000*%
G04 #@! TD*
G04 #@! TA.AperFunction,SMDPad,CuDef*
%ADD19R,1.000000X1.500000*%
G04 #@! TD*
G04 #@! TA.AperFunction,SMDPad,CuDef*
%ADD20C,0.100000*%
G04 #@! TD*
G04 #@! TA.AperFunction,SMDPad,CuDef*
%ADD21R,2.300000X0.900000*%
G04 #@! TD*
G04 #@! TA.AperFunction,SMDPad,CuDef*
%ADD22R,0.650000X1.560000*%
G04 #@! TD*
G04 #@! TA.AperFunction,ComponentPad*
%ADD23C,1.524000*%
G04 #@! TD*
G04 #@! TA.AperFunction,ViaPad*
%ADD24C,0.600000*%
G04 #@! TD*
G04 #@! TA.AperFunction,Conductor*
%ADD25C,0.300000*%
G04 #@! TD*
G04 #@! TA.AperFunction,Conductor*
%ADD26C,0.500000*%
G04 #@! TD*
G04 #@! TA.AperFunction,Conductor*
%ADD27C,0.254000*%
G04 #@! TD*
G04 APERTURE END LIST*
D10*
X105473500Y-117602000D03*
X108013500Y-117602000D03*
D11*
X110553500Y-117602000D03*
D10*
X133223000Y-69723000D03*
X135763000Y-69723000D03*
X138303000Y-69723000D03*
X140843000Y-69723000D03*
D11*
X143383000Y-69723000D03*
G04 #@! TA.AperFunction,SMDPad,CuDef*
G36*
G01*
X104959999Y-123640000D02*
X105860001Y-123640000D01*
G75*
G02*
X106110000Y-123889999I0J-249999D01*
G01*
X106110000Y-124540001D01*
G75*
G02*
X105860001Y-124790000I-249999J0D01*
G01*
X104959999Y-124790000D01*
G75*
G02*
X104710000Y-124540001I0J249999D01*
G01*
X104710000Y-123889999D01*
G75*
G02*
X104959999Y-123640000I249999J0D01*
G01*
G37*
G04 #@! TD.AperFunction*
G04 #@! TA.AperFunction,SMDPad,CuDef*
G36*
G01*
X104959999Y-121590000D02*
X105860001Y-121590000D01*
G75*
G02*
X106110000Y-121839999I0J-249999D01*
G01*
X106110000Y-122490001D01*
G75*
G02*
X105860001Y-122740000I-249999J0D01*
G01*
X104959999Y-122740000D01*
G75*
G02*
X104710000Y-122490001I0J249999D01*
G01*
X104710000Y-121839999D01*
G75*
G02*
X104959999Y-121590000I249999J0D01*
G01*
G37*
G04 #@! TD.AperFunction*
G04 #@! TA.AperFunction,SMDPad,CuDef*
G36*
G01*
X110039999Y-123640000D02*
X110940001Y-123640000D01*
G75*
G02*
X111190000Y-123889999I0J-249999D01*
G01*
X111190000Y-124540001D01*
G75*
G02*
X110940001Y-124790000I-249999J0D01*
G01*
X110039999Y-124790000D01*
G75*
G02*
X109790000Y-124540001I0J249999D01*
G01*
X109790000Y-123889999D01*
G75*
G02*
X110039999Y-123640000I249999J0D01*
G01*
G37*
G04 #@! TD.AperFunction*
G04 #@! TA.AperFunction,SMDPad,CuDef*
G36*
G01*
X110039999Y-121590000D02*
X110940001Y-121590000D01*
G75*
G02*
X111190000Y-121839999I0J-249999D01*
G01*
X111190000Y-122490001D01*
G75*
G02*
X110940001Y-122740000I-249999J0D01*
G01*
X110039999Y-122740000D01*
G75*
G02*
X109790000Y-122490001I0J249999D01*
G01*
X109790000Y-121839999D01*
G75*
G02*
X110039999Y-121590000I249999J0D01*
G01*
G37*
G04 #@! TD.AperFunction*
D10*
X203288900Y-84899500D03*
X203288900Y-102679500D03*
X203288900Y-82359500D03*
X203288900Y-74739500D03*
X203288900Y-97599500D03*
X203288900Y-92519500D03*
X203288900Y-87439500D03*
D11*
X203288900Y-69659500D03*
D10*
X203288900Y-100139500D03*
X203288900Y-72199500D03*
X203288900Y-79819500D03*
X203288900Y-89979500D03*
X203288900Y-95059500D03*
X203288900Y-77279500D03*
G04 #@! TA.AperFunction,SMDPad,CuDef*
G36*
G01*
X116008999Y-70554000D02*
X116909001Y-70554000D01*
G75*
G02*
X117159000Y-70803999I0J-249999D01*
G01*
X117159000Y-71454001D01*
G75*
G02*
X116909001Y-71704000I-249999J0D01*
G01*
X116008999Y-71704000D01*
G75*
G02*
X115759000Y-71454001I0J249999D01*
G01*
X115759000Y-70803999D01*
G75*
G02*
X116008999Y-70554000I249999J0D01*
G01*
G37*
G04 #@! TD.AperFunction*
G04 #@! TA.AperFunction,SMDPad,CuDef*
G36*
G01*
X116008999Y-68504000D02*
X116909001Y-68504000D01*
G75*
G02*
X117159000Y-68753999I0J-249999D01*
G01*
X117159000Y-69404001D01*
G75*
G02*
X116909001Y-69654000I-249999J0D01*
G01*
X116008999Y-69654000D01*
G75*
G02*
X115759000Y-69404001I0J249999D01*
G01*
X115759000Y-68753999D01*
G75*
G02*
X116008999Y-68504000I249999J0D01*
G01*
G37*
G04 #@! TD.AperFunction*
G04 #@! TA.AperFunction,SMDPad,CuDef*
G36*
G01*
X120326999Y-70554000D02*
X121227001Y-70554000D01*
G75*
G02*
X121477000Y-70803999I0J-249999D01*
G01*
X121477000Y-71454001D01*
G75*
G02*
X121227001Y-71704000I-249999J0D01*
G01*
X120326999Y-71704000D01*
G75*
G02*
X120077000Y-71454001I0J249999D01*
G01*
X120077000Y-70803999D01*
G75*
G02*
X120326999Y-70554000I249999J0D01*
G01*
G37*
G04 #@! TD.AperFunction*
G04 #@! TA.AperFunction,SMDPad,CuDef*
G36*
G01*
X120326999Y-68504000D02*
X121227001Y-68504000D01*
G75*
G02*
X121477000Y-68753999I0J-249999D01*
G01*
X121477000Y-69404001D01*
G75*
G02*
X121227001Y-69654000I-249999J0D01*
G01*
X120326999Y-69654000D01*
G75*
G02*
X120077000Y-69404001I0J249999D01*
G01*
X120077000Y-68753999D01*
G75*
G02*
X120326999Y-68504000I249999J0D01*
G01*
G37*
G04 #@! TD.AperFunction*
G04 #@! TA.AperFunction,SMDPad,CuDef*
G36*
G01*
X123882999Y-70554000D02*
X124783001Y-70554000D01*
G75*
G02*
X125033000Y-70803999I0J-249999D01*
G01*
X125033000Y-71454001D01*
G75*
G02*
X124783001Y-71704000I-249999J0D01*
G01*
X123882999Y-71704000D01*
G75*
G02*
X123633000Y-71454001I0J249999D01*
G01*
X123633000Y-70803999D01*
G75*
G02*
X123882999Y-70554000I249999J0D01*
G01*
G37*
G04 #@! TD.AperFunction*
G04 #@! TA.AperFunction,SMDPad,CuDef*
G36*
G01*
X123882999Y-68504000D02*
X124783001Y-68504000D01*
G75*
G02*
X125033000Y-68753999I0J-249999D01*
G01*
X125033000Y-69404001D01*
G75*
G02*
X124783001Y-69654000I-249999J0D01*
G01*
X123882999Y-69654000D01*
G75*
G02*
X123633000Y-69404001I0J249999D01*
G01*
X123633000Y-68753999D01*
G75*
G02*
X123882999Y-68504000I249999J0D01*
G01*
G37*
G04 #@! TD.AperFunction*
D12*
X149444113Y-126653887D03*
X146050000Y-125248000D03*
X142655887Y-126653887D03*
X141250000Y-130048000D03*
X142655887Y-133442113D03*
X146050000Y-134848000D03*
X149444113Y-133442113D03*
X150850000Y-130048000D03*
D13*
X146050000Y-130048000D03*
D12*
X180432113Y-126653887D03*
X177038000Y-125248000D03*
X173643887Y-126653887D03*
X172238000Y-130048000D03*
X173643887Y-133442113D03*
X177038000Y-134848000D03*
X180432113Y-133442113D03*
X181838000Y-130048000D03*
D13*
X177038000Y-130048000D03*
X215201500Y-86550500D03*
D12*
X220001500Y-86550500D03*
X218595613Y-89944613D03*
X215201500Y-91350500D03*
X211807387Y-89944613D03*
X210401500Y-86550500D03*
X211807387Y-83156387D03*
X215201500Y-81750500D03*
X218595613Y-83156387D03*
D13*
X107378500Y-86550500D03*
D12*
X112178500Y-86550500D03*
X110772613Y-89944613D03*
X107378500Y-91350500D03*
X103984387Y-89944613D03*
X102578500Y-86550500D03*
X103984387Y-83156387D03*
X107378500Y-81750500D03*
X110772613Y-83156387D03*
D13*
X127952500Y-134874000D03*
D12*
X132752500Y-134874000D03*
X131346613Y-138268113D03*
X127952500Y-139674000D03*
X124558387Y-138268113D03*
X123152500Y-134874000D03*
X124558387Y-131479887D03*
X127952500Y-130074000D03*
X131346613Y-131479887D03*
D13*
X195135500Y-134874000D03*
D12*
X199935500Y-134874000D03*
X198529613Y-138268113D03*
X195135500Y-139674000D03*
X191741387Y-138268113D03*
X190335500Y-134874000D03*
X191741387Y-131479887D03*
X195135500Y-130074000D03*
X198529613Y-131479887D03*
D14*
X112382000Y-100711000D03*
X103772000Y-105791000D03*
X112382000Y-103251000D03*
X103772000Y-103251000D03*
X112382000Y-105791000D03*
X103772000Y-100711000D03*
X112318500Y-68516500D03*
X103708500Y-73596500D03*
X112318500Y-71056500D03*
X103708500Y-71056500D03*
X112318500Y-73596500D03*
X103708500Y-68516500D03*
D15*
X127381000Y-122110500D03*
X122301000Y-122110500D03*
X124841000Y-122110500D03*
X129921000Y-122110500D03*
X132461000Y-122110500D03*
X135001000Y-122110500D03*
X207645000Y-65151000D03*
X207645000Y-69596000D03*
X219011500Y-101917500D03*
X215709500Y-101917500D03*
X137541000Y-117221000D03*
G04 #@! TA.AperFunction,SMDPad,CuDef*
G36*
G01*
X131895000Y-111956001D02*
X131895000Y-111055999D01*
G75*
G02*
X132144999Y-110806000I249999J0D01*
G01*
X132795001Y-110806000D01*
G75*
G02*
X133045000Y-111055999I0J-249999D01*
G01*
X133045000Y-111956001D01*
G75*
G02*
X132795001Y-112206000I-249999J0D01*
G01*
X132144999Y-112206000D01*
G75*
G02*
X131895000Y-111956001I0J249999D01*
G01*
G37*
G04 #@! TD.AperFunction*
G04 #@! TA.AperFunction,SMDPad,CuDef*
G36*
G01*
X129845000Y-111956001D02*
X129845000Y-111055999D01*
G75*
G02*
X130094999Y-110806000I249999J0D01*
G01*
X130745001Y-110806000D01*
G75*
G02*
X130995000Y-111055999I0J-249999D01*
G01*
X130995000Y-111956001D01*
G75*
G02*
X130745001Y-112206000I-249999J0D01*
G01*
X130094999Y-112206000D01*
G75*
G02*
X129845000Y-111956001I0J249999D01*
G01*
G37*
G04 #@! TD.AperFunction*
D16*
X213177300Y-122364500D03*
X213177300Y-121414500D03*
X213177300Y-123314500D03*
X210977300Y-123314500D03*
X210977300Y-122364500D03*
X210977300Y-121414500D03*
G04 #@! TA.AperFunction,SMDPad,CuDef*
G36*
G01*
X210687500Y-101391299D02*
X210687500Y-102291301D01*
G75*
G02*
X210437501Y-102541300I-249999J0D01*
G01*
X209787499Y-102541300D01*
G75*
G02*
X209537500Y-102291301I0J249999D01*
G01*
X209537500Y-101391299D01*
G75*
G02*
X209787499Y-101141300I249999J0D01*
G01*
X210437501Y-101141300D01*
G75*
G02*
X210687500Y-101391299I0J-249999D01*
G01*
G37*
G04 #@! TD.AperFunction*
G04 #@! TA.AperFunction,SMDPad,CuDef*
G36*
G01*
X212737500Y-101391299D02*
X212737500Y-102291301D01*
G75*
G02*
X212487501Y-102541300I-249999J0D01*
G01*
X211837499Y-102541300D01*
G75*
G02*
X211587500Y-102291301I0J249999D01*
G01*
X211587500Y-101391299D01*
G75*
G02*
X211837499Y-101141300I249999J0D01*
G01*
X212487501Y-101141300D01*
G75*
G02*
X212737500Y-101391299I0J-249999D01*
G01*
G37*
G04 #@! TD.AperFunction*
G04 #@! TA.AperFunction,SMDPad,CuDef*
G36*
G01*
X211587500Y-105720301D02*
X211587500Y-104820299D01*
G75*
G02*
X211837499Y-104570300I249999J0D01*
G01*
X212487501Y-104570300D01*
G75*
G02*
X212737500Y-104820299I0J-249999D01*
G01*
X212737500Y-105720301D01*
G75*
G02*
X212487501Y-105970300I-249999J0D01*
G01*
X211837499Y-105970300D01*
G75*
G02*
X211587500Y-105720301I0J249999D01*
G01*
G37*
G04 #@! TD.AperFunction*
G04 #@! TA.AperFunction,SMDPad,CuDef*
G36*
G01*
X209537500Y-105720301D02*
X209537500Y-104820299D01*
G75*
G02*
X209787499Y-104570300I249999J0D01*
G01*
X210437501Y-104570300D01*
G75*
G02*
X210687500Y-104820299I0J-249999D01*
G01*
X210687500Y-105720301D01*
G75*
G02*
X210437501Y-105970300I-249999J0D01*
G01*
X209787499Y-105970300D01*
G75*
G02*
X209537500Y-105720301I0J249999D01*
G01*
G37*
G04 #@! TD.AperFunction*
D17*
X215455500Y-109709300D03*
X215455500Y-115309300D03*
D18*
X218252500Y-119240300D03*
X215452500Y-119240300D03*
G04 #@! TA.AperFunction,SMDPad,CuDef*
G36*
G01*
X216275500Y-104820299D02*
X216275500Y-105720301D01*
G75*
G02*
X216025501Y-105970300I-249999J0D01*
G01*
X215375499Y-105970300D01*
G75*
G02*
X215125500Y-105720301I0J249999D01*
G01*
X215125500Y-104820299D01*
G75*
G02*
X215375499Y-104570300I249999J0D01*
G01*
X216025501Y-104570300D01*
G75*
G02*
X216275500Y-104820299I0J-249999D01*
G01*
G37*
G04 #@! TD.AperFunction*
G04 #@! TA.AperFunction,SMDPad,CuDef*
G36*
G01*
X218325500Y-104820299D02*
X218325500Y-105720301D01*
G75*
G02*
X218075501Y-105970300I-249999J0D01*
G01*
X217425499Y-105970300D01*
G75*
G02*
X217175500Y-105720301I0J249999D01*
G01*
X217175500Y-104820299D01*
G75*
G02*
X217425499Y-104570300I249999J0D01*
G01*
X218075501Y-104570300D01*
G75*
G02*
X218325500Y-104820299I0J-249999D01*
G01*
G37*
G04 #@! TD.AperFunction*
G04 #@! TA.AperFunction,SMDPad,CuDef*
G36*
G01*
X211576500Y-118739499D02*
X211576500Y-119639501D01*
G75*
G02*
X211326501Y-119889500I-249999J0D01*
G01*
X210676499Y-119889500D01*
G75*
G02*
X210426500Y-119639501I0J249999D01*
G01*
X210426500Y-118739499D01*
G75*
G02*
X210676499Y-118489500I249999J0D01*
G01*
X211326501Y-118489500D01*
G75*
G02*
X211576500Y-118739499I0J-249999D01*
G01*
G37*
G04 #@! TD.AperFunction*
G04 #@! TA.AperFunction,SMDPad,CuDef*
G36*
G01*
X213626500Y-118739499D02*
X213626500Y-119639501D01*
G75*
G02*
X213376501Y-119889500I-249999J0D01*
G01*
X212726499Y-119889500D01*
G75*
G02*
X212476500Y-119639501I0J249999D01*
G01*
X212476500Y-118739499D01*
G75*
G02*
X212726499Y-118489500I249999J0D01*
G01*
X213376501Y-118489500D01*
G75*
G02*
X213626500Y-118739499I0J-249999D01*
G01*
G37*
G04 #@! TD.AperFunction*
G04 #@! TA.AperFunction,SMDPad,CuDef*
G36*
G01*
X216997700Y-123830501D02*
X216997700Y-122930499D01*
G75*
G02*
X217247699Y-122680500I249999J0D01*
G01*
X217897701Y-122680500D01*
G75*
G02*
X218147700Y-122930499I0J-249999D01*
G01*
X218147700Y-123830501D01*
G75*
G02*
X217897701Y-124080500I-249999J0D01*
G01*
X217247699Y-124080500D01*
G75*
G02*
X216997700Y-123830501I0J249999D01*
G01*
G37*
G04 #@! TD.AperFunction*
G04 #@! TA.AperFunction,SMDPad,CuDef*
G36*
G01*
X214947700Y-123830501D02*
X214947700Y-122930499D01*
G75*
G02*
X215197699Y-122680500I249999J0D01*
G01*
X215847701Y-122680500D01*
G75*
G02*
X216097700Y-122930499I0J-249999D01*
G01*
X216097700Y-123830501D01*
G75*
G02*
X215847701Y-124080500I-249999J0D01*
G01*
X215197699Y-124080500D01*
G75*
G02*
X214947700Y-123830501I0J249999D01*
G01*
G37*
G04 #@! TD.AperFunction*
D19*
X213375000Y-75311000D03*
X212075000Y-75311000D03*
G04 #@! TA.AperFunction,SMDPad,CuDef*
D20*
G36*
X149921500Y-84242000D02*
G01*
X145796500Y-84242000D01*
X145796500Y-83825500D01*
X143321500Y-83825500D01*
X143321500Y-82925500D01*
X145796500Y-82925500D01*
X145796500Y-82509000D01*
X149921500Y-82509000D01*
X149921500Y-84242000D01*
G37*
G04 #@! TD.AperFunction*
D21*
X144471500Y-84875500D03*
X144471500Y-81875500D03*
D16*
X212069500Y-72451000D03*
X212069500Y-70551000D03*
X214269500Y-70551000D03*
X214269500Y-71501000D03*
X214269500Y-72451000D03*
D22*
X216537500Y-65198000D03*
X218437500Y-65198000D03*
X218437500Y-67898000D03*
X217487500Y-67898000D03*
X216537500Y-67898000D03*
G04 #@! TA.AperFunction,SMDPad,CuDef*
G36*
G01*
X213492500Y-62680001D02*
X213492500Y-61779999D01*
G75*
G02*
X213742499Y-61530000I249999J0D01*
G01*
X214392501Y-61530000D01*
G75*
G02*
X214642500Y-61779999I0J-249999D01*
G01*
X214642500Y-62680001D01*
G75*
G02*
X214392501Y-62930000I-249999J0D01*
G01*
X213742499Y-62930000D01*
G75*
G02*
X213492500Y-62680001I0J249999D01*
G01*
G37*
G04 #@! TD.AperFunction*
G04 #@! TA.AperFunction,SMDPad,CuDef*
G36*
G01*
X211442500Y-62680001D02*
X211442500Y-61779999D01*
G75*
G02*
X211692499Y-61530000I249999J0D01*
G01*
X212342501Y-61530000D01*
G75*
G02*
X212592500Y-61779999I0J-249999D01*
G01*
X212592500Y-62680001D01*
G75*
G02*
X212342501Y-62930000I-249999J0D01*
G01*
X211692499Y-62930000D01*
G75*
G02*
X211442500Y-62680001I0J249999D01*
G01*
G37*
G04 #@! TD.AperFunction*
G04 #@! TA.AperFunction,SMDPad,CuDef*
G36*
G01*
X221176000Y-75507001D02*
X221176000Y-74606999D01*
G75*
G02*
X221425999Y-74357000I249999J0D01*
G01*
X222076001Y-74357000D01*
G75*
G02*
X222326000Y-74606999I0J-249999D01*
G01*
X222326000Y-75507001D01*
G75*
G02*
X222076001Y-75757000I-249999J0D01*
G01*
X221425999Y-75757000D01*
G75*
G02*
X221176000Y-75507001I0J249999D01*
G01*
G37*
G04 #@! TD.AperFunction*
G04 #@! TA.AperFunction,SMDPad,CuDef*
G36*
G01*
X219126000Y-75507001D02*
X219126000Y-74606999D01*
G75*
G02*
X219375999Y-74357000I249999J0D01*
G01*
X220026001Y-74357000D01*
G75*
G02*
X220276000Y-74606999I0J-249999D01*
G01*
X220276000Y-75507001D01*
G75*
G02*
X220026001Y-75757000I-249999J0D01*
G01*
X219375999Y-75757000D01*
G75*
G02*
X219126000Y-75507001I0J249999D01*
G01*
G37*
G04 #@! TD.AperFunction*
G04 #@! TA.AperFunction,SMDPad,CuDef*
G36*
G01*
X216858000Y-75507001D02*
X216858000Y-74606999D01*
G75*
G02*
X217107999Y-74357000I249999J0D01*
G01*
X217758001Y-74357000D01*
G75*
G02*
X218008000Y-74606999I0J-249999D01*
G01*
X218008000Y-75507001D01*
G75*
G02*
X217758001Y-75757000I-249999J0D01*
G01*
X217107999Y-75757000D01*
G75*
G02*
X216858000Y-75507001I0J249999D01*
G01*
G37*
G04 #@! TD.AperFunction*
G04 #@! TA.AperFunction,SMDPad,CuDef*
G36*
G01*
X214808000Y-75507001D02*
X214808000Y-74606999D01*
G75*
G02*
X215057999Y-74357000I249999J0D01*
G01*
X215708001Y-74357000D01*
G75*
G02*
X215958000Y-74606999I0J-249999D01*
G01*
X215958000Y-75507001D01*
G75*
G02*
X215708001Y-75757000I-249999J0D01*
G01*
X215057999Y-75757000D01*
G75*
G02*
X214808000Y-75507001I0J249999D01*
G01*
G37*
G04 #@! TD.AperFunction*
G04 #@! TA.AperFunction,SMDPad,CuDef*
G36*
G01*
X212592500Y-67367999D02*
X212592500Y-68268001D01*
G75*
G02*
X212342501Y-68518000I-249999J0D01*
G01*
X211692499Y-68518000D01*
G75*
G02*
X211442500Y-68268001I0J249999D01*
G01*
X211442500Y-67367999D01*
G75*
G02*
X211692499Y-67118000I249999J0D01*
G01*
X212342501Y-67118000D01*
G75*
G02*
X212592500Y-67367999I0J-249999D01*
G01*
G37*
G04 #@! TD.AperFunction*
G04 #@! TA.AperFunction,SMDPad,CuDef*
G36*
G01*
X214642500Y-67367999D02*
X214642500Y-68268001D01*
G75*
G02*
X214392501Y-68518000I-249999J0D01*
G01*
X213742499Y-68518000D01*
G75*
G02*
X213492500Y-68268001I0J249999D01*
G01*
X213492500Y-67367999D01*
G75*
G02*
X213742499Y-67118000I249999J0D01*
G01*
X214392501Y-67118000D01*
G75*
G02*
X214642500Y-67367999I0J-249999D01*
G01*
G37*
G04 #@! TD.AperFunction*
G04 #@! TA.AperFunction,SMDPad,CuDef*
G36*
G01*
X143896500Y-79380501D02*
X143896500Y-78480499D01*
G75*
G02*
X144146499Y-78230500I249999J0D01*
G01*
X144796501Y-78230500D01*
G75*
G02*
X145046500Y-78480499I0J-249999D01*
G01*
X145046500Y-79380501D01*
G75*
G02*
X144796501Y-79630500I-249999J0D01*
G01*
X144146499Y-79630500D01*
G75*
G02*
X143896500Y-79380501I0J249999D01*
G01*
G37*
G04 #@! TD.AperFunction*
G04 #@! TA.AperFunction,SMDPad,CuDef*
G36*
G01*
X141846500Y-79380501D02*
X141846500Y-78480499D01*
G75*
G02*
X142096499Y-78230500I249999J0D01*
G01*
X142746501Y-78230500D01*
G75*
G02*
X142996500Y-78480499I0J-249999D01*
G01*
X142996500Y-79380501D01*
G75*
G02*
X142746501Y-79630500I-249999J0D01*
G01*
X142096499Y-79630500D01*
G75*
G02*
X141846500Y-79380501I0J249999D01*
G01*
G37*
G04 #@! TD.AperFunction*
G04 #@! TA.AperFunction,SMDPad,CuDef*
G36*
G01*
X142996500Y-87497499D02*
X142996500Y-88397501D01*
G75*
G02*
X142746501Y-88647500I-249999J0D01*
G01*
X142096499Y-88647500D01*
G75*
G02*
X141846500Y-88397501I0J249999D01*
G01*
X141846500Y-87497499D01*
G75*
G02*
X142096499Y-87247500I249999J0D01*
G01*
X142746501Y-87247500D01*
G75*
G02*
X142996500Y-87497499I0J-249999D01*
G01*
G37*
G04 #@! TD.AperFunction*
G04 #@! TA.AperFunction,SMDPad,CuDef*
G36*
G01*
X145046500Y-87497499D02*
X145046500Y-88397501D01*
G75*
G02*
X144796501Y-88647500I-249999J0D01*
G01*
X144146499Y-88647500D01*
G75*
G02*
X143896500Y-88397501I0J249999D01*
G01*
X143896500Y-87497499D01*
G75*
G02*
X144146499Y-87247500I249999J0D01*
G01*
X144796501Y-87247500D01*
G75*
G02*
X145046500Y-87497499I0J-249999D01*
G01*
G37*
G04 #@! TD.AperFunction*
G04 #@! TA.AperFunction,SMDPad,CuDef*
G36*
G01*
X213492500Y-65601001D02*
X213492500Y-64700999D01*
G75*
G02*
X213742499Y-64451000I249999J0D01*
G01*
X214392501Y-64451000D01*
G75*
G02*
X214642500Y-64700999I0J-249999D01*
G01*
X214642500Y-65601001D01*
G75*
G02*
X214392501Y-65851000I-249999J0D01*
G01*
X213742499Y-65851000D01*
G75*
G02*
X213492500Y-65601001I0J249999D01*
G01*
G37*
G04 #@! TD.AperFunction*
G04 #@! TA.AperFunction,SMDPad,CuDef*
G36*
G01*
X211442500Y-65601001D02*
X211442500Y-64700999D01*
G75*
G02*
X211692499Y-64451000I249999J0D01*
G01*
X212342501Y-64451000D01*
G75*
G02*
X212592500Y-64700999I0J-249999D01*
G01*
X212592500Y-65601001D01*
G75*
G02*
X212342501Y-65851000I-249999J0D01*
G01*
X211692499Y-65851000D01*
G75*
G02*
X211442500Y-65601001I0J249999D01*
G01*
G37*
G04 #@! TD.AperFunction*
G04 #@! TA.AperFunction,SMDPad,CuDef*
G36*
G01*
X173794000Y-76511999D02*
X173794000Y-77412001D01*
G75*
G02*
X173544001Y-77662000I-249999J0D01*
G01*
X172893999Y-77662000D01*
G75*
G02*
X172644000Y-77412001I0J249999D01*
G01*
X172644000Y-76511999D01*
G75*
G02*
X172893999Y-76262000I249999J0D01*
G01*
X173544001Y-76262000D01*
G75*
G02*
X173794000Y-76511999I0J-249999D01*
G01*
G37*
G04 #@! TD.AperFunction*
G04 #@! TA.AperFunction,SMDPad,CuDef*
G36*
G01*
X175844000Y-76511999D02*
X175844000Y-77412001D01*
G75*
G02*
X175594001Y-77662000I-249999J0D01*
G01*
X174943999Y-77662000D01*
G75*
G02*
X174694000Y-77412001I0J249999D01*
G01*
X174694000Y-76511999D01*
G75*
G02*
X174943999Y-76262000I249999J0D01*
G01*
X175594001Y-76262000D01*
G75*
G02*
X175844000Y-76511999I0J-249999D01*
G01*
G37*
G04 #@! TD.AperFunction*
G04 #@! TA.AperFunction,SMDPad,CuDef*
G36*
G01*
X155263001Y-68638000D02*
X154362999Y-68638000D01*
G75*
G02*
X154113000Y-68388001I0J249999D01*
G01*
X154113000Y-67737999D01*
G75*
G02*
X154362999Y-67488000I249999J0D01*
G01*
X155263001Y-67488000D01*
G75*
G02*
X155513000Y-67737999I0J-249999D01*
G01*
X155513000Y-68388001D01*
G75*
G02*
X155263001Y-68638000I-249999J0D01*
G01*
G37*
G04 #@! TD.AperFunction*
G04 #@! TA.AperFunction,SMDPad,CuDef*
G36*
G01*
X155263001Y-70688000D02*
X154362999Y-70688000D01*
G75*
G02*
X154113000Y-70438001I0J249999D01*
G01*
X154113000Y-69787999D01*
G75*
G02*
X154362999Y-69538000I249999J0D01*
G01*
X155263001Y-69538000D01*
G75*
G02*
X155513000Y-69787999I0J-249999D01*
G01*
X155513000Y-70438001D01*
G75*
G02*
X155263001Y-70688000I-249999J0D01*
G01*
G37*
G04 #@! TD.AperFunction*
G04 #@! TA.AperFunction,SMDPad,CuDef*
G36*
G01*
X147123999Y-68649000D02*
X148024001Y-68649000D01*
G75*
G02*
X148274000Y-68898999I0J-249999D01*
G01*
X148274000Y-69549001D01*
G75*
G02*
X148024001Y-69799000I-249999J0D01*
G01*
X147123999Y-69799000D01*
G75*
G02*
X146874000Y-69549001I0J249999D01*
G01*
X146874000Y-68898999D01*
G75*
G02*
X147123999Y-68649000I249999J0D01*
G01*
G37*
G04 #@! TD.AperFunction*
G04 #@! TA.AperFunction,SMDPad,CuDef*
G36*
G01*
X147123999Y-66599000D02*
X148024001Y-66599000D01*
G75*
G02*
X148274000Y-66848999I0J-249999D01*
G01*
X148274000Y-67499001D01*
G75*
G02*
X148024001Y-67749000I-249999J0D01*
G01*
X147123999Y-67749000D01*
G75*
G02*
X146874000Y-67499001I0J249999D01*
G01*
X146874000Y-66848999D01*
G75*
G02*
X147123999Y-66599000I249999J0D01*
G01*
G37*
G04 #@! TD.AperFunction*
G04 #@! TA.AperFunction,SMDPad,CuDef*
G36*
G01*
X149282999Y-68649000D02*
X150183001Y-68649000D01*
G75*
G02*
X150433000Y-68898999I0J-249999D01*
G01*
X150433000Y-69549001D01*
G75*
G02*
X150183001Y-69799000I-249999J0D01*
G01*
X149282999Y-69799000D01*
G75*
G02*
X149033000Y-69549001I0J249999D01*
G01*
X149033000Y-68898999D01*
G75*
G02*
X149282999Y-68649000I249999J0D01*
G01*
G37*
G04 #@! TD.AperFunction*
G04 #@! TA.AperFunction,SMDPad,CuDef*
G36*
G01*
X149282999Y-66599000D02*
X150183001Y-66599000D01*
G75*
G02*
X150433000Y-66848999I0J-249999D01*
G01*
X150433000Y-67499001D01*
G75*
G02*
X150183001Y-67749000I-249999J0D01*
G01*
X149282999Y-67749000D01*
G75*
G02*
X149033000Y-67499001I0J249999D01*
G01*
X149033000Y-66848999D01*
G75*
G02*
X149282999Y-66599000I249999J0D01*
G01*
G37*
G04 #@! TD.AperFunction*
G04 #@! TA.AperFunction,SMDPad,CuDef*
G36*
G01*
X163010001Y-63050000D02*
X162109999Y-63050000D01*
G75*
G02*
X161860000Y-62800001I0J249999D01*
G01*
X161860000Y-62149999D01*
G75*
G02*
X162109999Y-61900000I249999J0D01*
G01*
X163010001Y-61900000D01*
G75*
G02*
X163260000Y-62149999I0J-249999D01*
G01*
X163260000Y-62800001D01*
G75*
G02*
X163010001Y-63050000I-249999J0D01*
G01*
G37*
G04 #@! TD.AperFunction*
G04 #@! TA.AperFunction,SMDPad,CuDef*
G36*
G01*
X163010001Y-65100000D02*
X162109999Y-65100000D01*
G75*
G02*
X161860000Y-64850001I0J249999D01*
G01*
X161860000Y-64199999D01*
G75*
G02*
X162109999Y-63950000I249999J0D01*
G01*
X163010001Y-63950000D01*
G75*
G02*
X163260000Y-64199999I0J-249999D01*
G01*
X163260000Y-64850001D01*
G75*
G02*
X163010001Y-65100000I-249999J0D01*
G01*
G37*
G04 #@! TD.AperFunction*
D23*
X201041000Y-114744500D03*
X198501000Y-114744500D03*
X195961000Y-114744500D03*
X193421000Y-114744500D03*
X190881000Y-114744500D03*
X188341000Y-114744500D03*
X185801000Y-114744500D03*
X183261000Y-114744500D03*
X180721000Y-114744500D03*
X178181000Y-114744500D03*
X175641000Y-114744500D03*
X173101000Y-114744500D03*
X170561000Y-114744500D03*
X168021000Y-114744500D03*
X165481000Y-114744500D03*
X162941000Y-114744500D03*
X160401000Y-114744500D03*
X157861000Y-114744500D03*
X155321000Y-114744500D03*
X152781000Y-114744500D03*
X150241000Y-114744500D03*
X147701000Y-114744500D03*
X145161000Y-114744500D03*
X142621000Y-114744500D03*
X140081000Y-114744500D03*
X137541000Y-114744500D03*
X135001000Y-114744500D03*
X132461000Y-114744500D03*
X129921000Y-114744500D03*
X127381000Y-114744500D03*
X124841000Y-114744500D03*
X122301000Y-114744500D03*
X124841000Y-119824500D03*
X201041000Y-119824500D03*
X198501000Y-119824500D03*
X195961000Y-119824500D03*
X193421000Y-119824500D03*
X190881000Y-119824500D03*
X188341000Y-119824500D03*
X185801000Y-119824500D03*
X183261000Y-119824500D03*
X180721000Y-119824500D03*
X178181000Y-119824500D03*
X175641000Y-119824500D03*
X173101000Y-119824500D03*
X170561000Y-119824500D03*
X168021000Y-119824500D03*
X165481000Y-119824500D03*
X162941000Y-119824500D03*
X160401000Y-119824500D03*
X157861000Y-119824500D03*
X155321000Y-119824500D03*
X152781000Y-119824500D03*
X150241000Y-119824500D03*
X147701000Y-119824500D03*
X145161000Y-119824500D03*
X142621000Y-119824500D03*
X140081000Y-119824500D03*
X137541000Y-119824500D03*
X135001000Y-119824500D03*
X132461000Y-119824500D03*
X129921000Y-119824500D03*
X127381000Y-119824500D03*
X122301000Y-119824500D03*
G04 #@! TA.AperFunction,SMDPad,CuDef*
G36*
G01*
X159569999Y-63950000D02*
X160470001Y-63950000D01*
G75*
G02*
X160720000Y-64199999I0J-249999D01*
G01*
X160720000Y-64850001D01*
G75*
G02*
X160470001Y-65100000I-249999J0D01*
G01*
X159569999Y-65100000D01*
G75*
G02*
X159320000Y-64850001I0J249999D01*
G01*
X159320000Y-64199999D01*
G75*
G02*
X159569999Y-63950000I249999J0D01*
G01*
G37*
G04 #@! TD.AperFunction*
G04 #@! TA.AperFunction,SMDPad,CuDef*
G36*
G01*
X159569999Y-61900000D02*
X160470001Y-61900000D01*
G75*
G02*
X160720000Y-62149999I0J-249999D01*
G01*
X160720000Y-62800001D01*
G75*
G02*
X160470001Y-63050000I-249999J0D01*
G01*
X159569999Y-63050000D01*
G75*
G02*
X159320000Y-62800001I0J249999D01*
G01*
X159320000Y-62149999D01*
G75*
G02*
X159569999Y-61900000I249999J0D01*
G01*
G37*
G04 #@! TD.AperFunction*
G04 #@! TA.AperFunction,SMDPad,CuDef*
G36*
G01*
X160713000Y-83242999D02*
X160713000Y-84143001D01*
G75*
G02*
X160463001Y-84393000I-249999J0D01*
G01*
X159812999Y-84393000D01*
G75*
G02*
X159563000Y-84143001I0J249999D01*
G01*
X159563000Y-83242999D01*
G75*
G02*
X159812999Y-82993000I249999J0D01*
G01*
X160463001Y-82993000D01*
G75*
G02*
X160713000Y-83242999I0J-249999D01*
G01*
G37*
G04 #@! TD.AperFunction*
G04 #@! TA.AperFunction,SMDPad,CuDef*
G36*
G01*
X162763000Y-83242999D02*
X162763000Y-84143001D01*
G75*
G02*
X162513001Y-84393000I-249999J0D01*
G01*
X161862999Y-84393000D01*
G75*
G02*
X161613000Y-84143001I0J249999D01*
G01*
X161613000Y-83242999D01*
G75*
G02*
X161862999Y-82993000I249999J0D01*
G01*
X162513001Y-82993000D01*
G75*
G02*
X162763000Y-83242999I0J-249999D01*
G01*
G37*
G04 #@! TD.AperFunction*
G04 #@! TA.AperFunction,SMDPad,CuDef*
G36*
G01*
X172523999Y-70935000D02*
X173424001Y-70935000D01*
G75*
G02*
X173674000Y-71184999I0J-249999D01*
G01*
X173674000Y-71835001D01*
G75*
G02*
X173424001Y-72085000I-249999J0D01*
G01*
X172523999Y-72085000D01*
G75*
G02*
X172274000Y-71835001I0J249999D01*
G01*
X172274000Y-71184999D01*
G75*
G02*
X172523999Y-70935000I249999J0D01*
G01*
G37*
G04 #@! TD.AperFunction*
G04 #@! TA.AperFunction,SMDPad,CuDef*
G36*
G01*
X172523999Y-68885000D02*
X173424001Y-68885000D01*
G75*
G02*
X173674000Y-69134999I0J-249999D01*
G01*
X173674000Y-69785001D01*
G75*
G02*
X173424001Y-70035000I-249999J0D01*
G01*
X172523999Y-70035000D01*
G75*
G02*
X172274000Y-69785001I0J249999D01*
G01*
X172274000Y-69134999D01*
G75*
G02*
X172523999Y-68885000I249999J0D01*
G01*
G37*
G04 #@! TD.AperFunction*
G04 #@! TA.AperFunction,SMDPad,CuDef*
G36*
G01*
X165615199Y-63950000D02*
X166515201Y-63950000D01*
G75*
G02*
X166765200Y-64199999I0J-249999D01*
G01*
X166765200Y-64850001D01*
G75*
G02*
X166515201Y-65100000I-249999J0D01*
G01*
X165615199Y-65100000D01*
G75*
G02*
X165365200Y-64850001I0J249999D01*
G01*
X165365200Y-64199999D01*
G75*
G02*
X165615199Y-63950000I249999J0D01*
G01*
G37*
G04 #@! TD.AperFunction*
G04 #@! TA.AperFunction,SMDPad,CuDef*
G36*
G01*
X165615199Y-61900000D02*
X166515201Y-61900000D01*
G75*
G02*
X166765200Y-62149999I0J-249999D01*
G01*
X166765200Y-62800001D01*
G75*
G02*
X166515201Y-63050000I-249999J0D01*
G01*
X165615199Y-63050000D01*
G75*
G02*
X165365200Y-62800001I0J249999D01*
G01*
X165365200Y-62149999D01*
G75*
G02*
X165615199Y-61900000I249999J0D01*
G01*
G37*
G04 #@! TD.AperFunction*
G04 #@! TA.AperFunction,SMDPad,CuDef*
G36*
G01*
X154362999Y-64966000D02*
X155263001Y-64966000D01*
G75*
G02*
X155513000Y-65215999I0J-249999D01*
G01*
X155513000Y-65866001D01*
G75*
G02*
X155263001Y-66116000I-249999J0D01*
G01*
X154362999Y-66116000D01*
G75*
G02*
X154113000Y-65866001I0J249999D01*
G01*
X154113000Y-65215999D01*
G75*
G02*
X154362999Y-64966000I249999J0D01*
G01*
G37*
G04 #@! TD.AperFunction*
G04 #@! TA.AperFunction,SMDPad,CuDef*
G36*
G01*
X154362999Y-62916000D02*
X155263001Y-62916000D01*
G75*
G02*
X155513000Y-63165999I0J-249999D01*
G01*
X155513000Y-63816001D01*
G75*
G02*
X155263001Y-64066000I-249999J0D01*
G01*
X154362999Y-64066000D01*
G75*
G02*
X154113000Y-63816001I0J249999D01*
G01*
X154113000Y-63165999D01*
G75*
G02*
X154362999Y-62916000I249999J0D01*
G01*
G37*
G04 #@! TD.AperFunction*
D24*
X149225000Y-82550000D03*
X147955000Y-82550000D03*
X171424600Y-71546720D03*
X160080000Y-81883560D03*
X159511994Y-70535800D03*
X171424600Y-78003400D03*
X147955000Y-81280000D03*
X147955000Y-84455000D03*
X147955000Y-85725000D03*
X149225000Y-81280000D03*
X149225000Y-85725000D03*
X149225000Y-84455000D03*
X150495000Y-81280000D03*
X150495000Y-82550000D03*
X150495000Y-84455000D03*
X150495000Y-85725000D03*
X151765000Y-85725000D03*
X151765000Y-84455000D03*
X151765000Y-82550000D03*
X151765000Y-81280000D03*
X158226760Y-66690240D03*
X125603000Y-73977500D03*
X128896000Y-103260000D03*
X128524000Y-89789000D03*
X120650000Y-86233000D03*
X124841000Y-89789000D03*
X164261800Y-64516000D03*
X176784000Y-76581000D03*
X145732500Y-78930500D03*
X163576000Y-83693000D03*
X144462500Y-80708500D03*
X142430500Y-86677500D03*
X209918300Y-122364500D03*
X154822000Y-66802000D03*
X218249500Y-120459500D03*
X158750000Y-62484000D03*
X114427000Y-100711000D03*
X114427000Y-103251000D03*
X114427000Y-105791000D03*
X112331500Y-67246500D03*
X174307500Y-69405500D03*
X212153500Y-103187500D03*
X167386000Y-62484000D03*
X219011500Y-103314500D03*
X215392000Y-76454000D03*
X221742000Y-73660000D03*
X217487500Y-69532500D03*
X212026500Y-69151500D03*
X219202000Y-123317000D03*
X104131000Y-124215000D03*
X111760000Y-124206000D03*
X135001000Y-109029500D03*
X135001000Y-107061000D03*
X159893000Y-74041000D03*
X133794500Y-112776000D03*
X135953500Y-112712500D03*
X166370000Y-72390000D03*
X137604500Y-111379000D03*
X165735000Y-71120000D03*
X137604500Y-110109000D03*
X136271000Y-105473500D03*
X153987500Y-73025000D03*
X116078000Y-98044000D03*
X123190000Y-99187000D03*
X128270000Y-97409000D03*
X156337000Y-74168000D03*
X156210000Y-71945500D03*
X177685000Y-75045000D03*
X196088000Y-92456000D03*
X177165000Y-74295000D03*
X197104000Y-93472000D03*
X176530000Y-73660000D03*
X175895000Y-73025000D03*
X175260000Y-72390000D03*
X200152000Y-82296000D03*
X174625000Y-71755000D03*
X157734000Y-64643000D03*
X145161000Y-64516000D03*
X167005000Y-85090000D03*
X201168000Y-75692000D03*
X195072000Y-81280000D03*
X169164000Y-84328000D03*
X194056000Y-78232000D03*
X168275000Y-85090000D03*
X194056000Y-79756000D03*
X169164000Y-82296000D03*
X192024000Y-82296000D03*
X169164000Y-83312000D03*
X192024000Y-83312000D03*
X156349000Y-75045000D03*
X138303000Y-101219000D03*
X215521500Y-70551000D03*
X218437500Y-70551000D03*
X120523000Y-82867500D03*
X120523000Y-81597500D03*
X120523000Y-80327500D03*
X127381000Y-99568000D03*
X124460000Y-99568000D03*
X118999000Y-89789000D03*
X121920000Y-90678000D03*
X125603000Y-76517500D03*
X121920000Y-95758000D03*
X125730000Y-94107000D03*
X116840000Y-119761000D03*
X116840000Y-98552000D03*
D25*
X172756720Y-71546720D02*
X172965000Y-71755000D01*
X160080000Y-83370000D02*
X160020000Y-83430000D01*
X171424600Y-71546720D02*
X172756720Y-71546720D01*
X160080000Y-81883560D02*
X160080000Y-83370000D01*
X171424600Y-71970984D02*
X171424600Y-78003400D01*
X171424600Y-71546720D02*
X171424600Y-71970984D01*
D26*
X172974000Y-71383000D02*
X173092000Y-71501000D01*
X142421500Y-80699500D02*
X142421500Y-78930500D01*
X142430500Y-80708500D02*
X142421500Y-80699500D01*
X142430500Y-83375500D02*
X144559000Y-83375500D01*
X142421500Y-78930500D02*
X142430500Y-78939500D01*
X142430500Y-78939500D02*
X142430500Y-83375500D01*
D25*
X160020000Y-64525000D02*
X162560000Y-64525000D01*
X171424600Y-76555600D02*
X171424600Y-78003400D01*
X173219000Y-76581000D02*
X173193600Y-76555600D01*
X173193600Y-76555600D02*
X171424600Y-76555600D01*
X153416000Y-81883560D02*
X160080000Y-81883560D01*
X144559000Y-83375500D02*
X153416000Y-83375500D01*
X153416000Y-83375500D02*
X153416000Y-85693560D01*
X156455000Y-63491000D02*
X154813000Y-63491000D01*
X156591000Y-63627000D02*
X156455000Y-63491000D01*
X156591000Y-66548000D02*
X156591000Y-63627000D01*
X156733240Y-66690240D02*
X156591000Y-66548000D01*
X160080000Y-66691200D02*
X160079040Y-66690240D01*
X160079040Y-66690240D02*
X158226760Y-66690240D01*
X171424600Y-69697600D02*
X171424600Y-71546720D01*
X158226760Y-66690240D02*
X156733240Y-66690240D01*
X168417240Y-66690240D02*
X171424600Y-69697600D01*
X160020000Y-64897000D02*
X160020000Y-64525000D01*
X160004760Y-66690240D02*
X160004760Y-64540240D01*
X160004760Y-66690240D02*
X168417240Y-66690240D01*
X160004760Y-64540240D02*
X160020000Y-64525000D01*
X158226760Y-66690240D02*
X160004760Y-66690240D01*
X158226760Y-66690240D02*
X158226760Y-68437760D01*
X159511994Y-69722994D02*
X158226760Y-68437760D01*
X159511994Y-70535800D02*
X159511994Y-69722994D01*
X161848800Y-80114760D02*
X160080000Y-81883560D01*
X159511994Y-70535800D02*
X161848800Y-72872606D01*
X161848800Y-72872606D02*
X161848800Y-80114760D01*
X143383000Y-69723000D02*
X143383000Y-70929500D01*
X143383000Y-70929500D02*
X142684500Y-71628000D01*
X142684500Y-71628000D02*
X126936500Y-71628000D01*
X116459000Y-69079000D02*
X126610000Y-69079000D01*
X126936500Y-69405500D02*
X126936500Y-71628000D01*
X126610000Y-69079000D02*
X126936500Y-69405500D01*
X126936500Y-71628000D02*
X125603000Y-72961500D01*
X125603000Y-72961500D02*
X125603000Y-73977500D01*
X152273000Y-64262000D02*
X153035000Y-63500000D01*
X153035000Y-63500000D02*
X154423000Y-63500000D01*
X152273000Y-67183000D02*
X152273000Y-64262000D01*
X154423000Y-63500000D02*
X154813000Y-63110000D01*
X143383000Y-69723000D02*
X145923000Y-67183000D01*
X145923000Y-67183000D02*
X152273000Y-67183000D01*
X130302000Y-101854000D02*
X128896000Y-103260000D01*
X130302000Y-90551000D02*
X130302000Y-101854000D01*
X128524000Y-89789000D02*
X129540000Y-89789000D01*
X129540000Y-89789000D02*
X130302000Y-90551000D01*
X124841000Y-74739500D02*
X125603000Y-73977500D01*
X124841000Y-89789000D02*
X124841000Y-74739500D01*
X124841000Y-86233000D02*
X120650000Y-86233000D01*
X108013500Y-114363500D02*
X108013500Y-117602000D01*
X119507000Y-86233000D02*
X111506000Y-94234000D01*
X100203000Y-96266000D02*
X100203000Y-106553000D01*
X120650000Y-86233000D02*
X119507000Y-86233000D01*
X102235000Y-94234000D02*
X100203000Y-96266000D01*
X111506000Y-94234000D02*
X102235000Y-94234000D01*
X100203000Y-106553000D02*
X108013500Y-114363500D01*
X162560000Y-62475000D02*
X162569000Y-62484000D01*
X166065200Y-64525000D02*
X166065200Y-64516000D01*
X162560000Y-62475000D02*
X164278200Y-62475000D01*
X164278200Y-62475000D02*
X164261800Y-62491400D01*
X164261800Y-62491400D02*
X164261800Y-64516000D01*
X166056200Y-64516000D02*
X166065200Y-64525000D01*
X164261800Y-64516000D02*
X166056200Y-64516000D01*
X176784000Y-76581000D02*
X175269000Y-76581000D01*
D26*
X144471500Y-78930500D02*
X145732500Y-78930500D01*
X162188000Y-83693000D02*
X163576000Y-83693000D01*
X144471500Y-80717500D02*
X144462500Y-80708500D01*
X144471500Y-81875500D02*
X144471500Y-80717500D01*
X142421500Y-87956500D02*
X142430500Y-87947500D01*
X142421500Y-87947500D02*
X142421500Y-86686500D01*
X210977300Y-122364500D02*
X209918300Y-122364500D01*
D25*
X154822000Y-67564000D02*
X154822000Y-66366500D01*
X154822000Y-66366500D02*
X154822000Y-65169000D01*
D26*
X218252500Y-120456500D02*
X218249500Y-120459500D01*
X218252500Y-119240300D02*
X218252500Y-120456500D01*
D25*
X158759000Y-62475000D02*
X160020000Y-62475000D01*
X158750000Y-62484000D02*
X158759000Y-62475000D01*
X112382000Y-100711000D02*
X114427000Y-100711000D01*
X112382000Y-103251000D02*
X114427000Y-103251000D01*
X112382000Y-105791000D02*
X114427000Y-105791000D01*
X112318500Y-68516500D02*
X112318500Y-73596500D01*
X112318500Y-71056500D02*
X112318500Y-67259500D01*
X174253000Y-69460000D02*
X174307500Y-69405500D01*
X172974000Y-69460000D02*
X174253000Y-69460000D01*
X127381000Y-122110500D02*
X127381000Y-119824500D01*
D26*
X212153500Y-101850300D02*
X212162500Y-101841300D01*
X212153500Y-103187500D02*
X212153500Y-101850300D01*
X167377000Y-62475000D02*
X167386000Y-62484000D01*
X166065200Y-62475000D02*
X167377000Y-62475000D01*
D25*
X137541000Y-117221000D02*
X137541000Y-114744500D01*
X219011500Y-103314500D02*
X219011500Y-101917500D01*
D26*
X217750500Y-103813500D02*
X217750500Y-105270300D01*
X219011500Y-103314500D02*
X218249500Y-103314500D01*
X218249500Y-103314500D02*
X217750500Y-103813500D01*
X207645000Y-65151000D02*
X212017500Y-65151000D01*
X215383000Y-76445000D02*
X215392000Y-76454000D01*
X215383000Y-75057000D02*
X215383000Y-76445000D01*
X221751000Y-75057000D02*
X221751000Y-73669000D01*
D25*
X217487500Y-67898000D02*
X217487500Y-69532500D01*
X212017500Y-67818000D02*
X212017500Y-65151000D01*
X212017500Y-69142500D02*
X212017500Y-67818000D01*
X212026500Y-69151500D02*
X212017500Y-69142500D01*
X212026500Y-70508000D02*
X212069500Y-70551000D01*
X212026500Y-69151500D02*
X212026500Y-70508000D01*
D26*
X217687000Y-123317000D02*
X217572700Y-123202700D01*
X219202000Y-123317000D02*
X217687000Y-123317000D01*
D25*
X104131000Y-124215000D02*
X105410000Y-124215000D01*
X110317500Y-124215000D02*
X110236000Y-124133500D01*
X111760000Y-124206000D02*
X111751000Y-124215000D01*
X111751000Y-124215000D02*
X110317500Y-124215000D01*
X135001000Y-109029500D02*
X135001000Y-112649000D01*
X135001000Y-112649000D02*
X135001000Y-114744500D01*
X137223500Y-107061000D02*
X135001000Y-107061000D01*
X159893000Y-75692000D02*
X158432500Y-77152500D01*
X159893000Y-74041000D02*
X159893000Y-75692000D01*
X140589000Y-77787500D02*
X140589000Y-103695500D01*
X158432500Y-77152500D02*
X141224000Y-77152500D01*
X140589000Y-103695500D02*
X137223500Y-107061000D01*
X141224000Y-77152500D02*
X140589000Y-77787500D01*
D26*
X144470100Y-84874100D02*
X144471500Y-84875500D01*
X144471500Y-87947500D02*
X144471500Y-84875500D01*
X213177300Y-123314500D02*
X213177300Y-122491500D01*
X215522700Y-123380500D02*
X213243300Y-123380500D01*
X132461000Y-112649000D02*
X132461000Y-114744500D01*
X132588000Y-112776000D02*
X133794500Y-112776000D01*
X132461000Y-112649000D02*
X132588000Y-112776000D01*
X132461000Y-109728000D02*
X132461000Y-112649000D01*
X138239500Y-108013500D02*
X133985000Y-108013500D01*
X132461000Y-109537500D02*
X132461000Y-109728000D01*
X133985000Y-108013500D02*
X132461000Y-109537500D01*
X144471500Y-84875500D02*
X144471500Y-101781500D01*
X144471500Y-101781500D02*
X138239500Y-108013500D01*
X213177300Y-124388700D02*
X213177300Y-123314500D01*
X213177300Y-125150700D02*
X213177300Y-124388700D01*
X212598000Y-125730000D02*
X213177300Y-125150700D01*
X207391000Y-125730000D02*
X212598000Y-125730000D01*
X135953500Y-112712500D02*
X163195000Y-112712500D01*
X200660000Y-104775000D02*
X206629000Y-110744000D01*
X206629000Y-110744000D02*
X206629000Y-124968000D01*
X163195000Y-112712500D02*
X171132500Y-104775000D01*
X171132500Y-104775000D02*
X200660000Y-104775000D01*
X206629000Y-124968000D02*
X207391000Y-125730000D01*
D25*
X129921000Y-113284000D02*
X129921000Y-114744500D01*
X130420000Y-111760000D02*
X130420000Y-112785000D01*
X130420000Y-112785000D02*
X129921000Y-113284000D01*
X165100000Y-73660000D02*
X166370000Y-72390000D01*
X165100000Y-88900000D02*
X165100000Y-73660000D01*
X137604500Y-111379000D02*
X142621000Y-111379000D01*
X142621000Y-111379000D02*
X165100000Y-88900000D01*
X164465000Y-72390000D02*
X165735000Y-71120000D01*
X137604500Y-110109000D02*
X140843000Y-110109000D01*
X140843000Y-110109000D02*
X164465000Y-86487000D01*
X164465000Y-86487000D02*
X164465000Y-72390000D01*
X128333500Y-108839000D02*
X122428000Y-114744500D01*
X131445000Y-108839000D02*
X128333500Y-108839000D01*
X122428000Y-114744500D02*
X122301000Y-114744500D01*
X136271000Y-105473500D02*
X134810500Y-105473500D01*
X134810500Y-105473500D02*
X131445000Y-108839000D01*
X124841000Y-119824500D02*
X124841000Y-122110500D01*
X147574000Y-72961500D02*
X147574000Y-69224000D01*
X147637500Y-73025000D02*
X147574000Y-72961500D01*
X124841000Y-123444000D02*
X124841000Y-122110500D01*
X119380000Y-122110500D02*
X121094500Y-123825000D01*
X124460000Y-123825000D02*
X124841000Y-123444000D01*
X119380000Y-113284000D02*
X119380000Y-122110500D01*
X121094500Y-123825000D02*
X124460000Y-123825000D01*
X138176000Y-73025000D02*
X133985000Y-77216000D01*
X122555000Y-112077500D02*
X120586500Y-112077500D01*
X153987500Y-73025000D02*
X138176000Y-73025000D01*
X133985000Y-77216000D02*
X133985000Y-100647500D01*
X133985000Y-100647500D02*
X122555000Y-112077500D01*
X120586500Y-112077500D02*
X119380000Y-113284000D01*
X135001000Y-119824500D02*
X135001000Y-122110500D01*
X135001000Y-123634500D02*
X135001000Y-122110500D01*
X131635500Y-127000000D02*
X135001000Y-123634500D01*
X118110000Y-127000000D02*
X131635500Y-127000000D01*
X116078000Y-98044000D02*
X116078000Y-124968000D01*
X116078000Y-124968000D02*
X118110000Y-127000000D01*
X132461000Y-122110500D02*
X132461000Y-119824500D01*
X132461000Y-123444000D02*
X132461000Y-122110500D01*
X118745000Y-99187000D02*
X117602000Y-100330000D01*
X129921000Y-125984000D02*
X132461000Y-123444000D01*
X123190000Y-99187000D02*
X118745000Y-99187000D01*
X117602000Y-124587000D02*
X118999000Y-125984000D01*
X117602000Y-100330000D02*
X117602000Y-124587000D01*
X118999000Y-125984000D02*
X129921000Y-125984000D01*
X129032000Y-98171000D02*
X128270000Y-97409000D01*
X129032000Y-100965000D02*
X129032000Y-98171000D01*
X122682000Y-102235000D02*
X127762000Y-102235000D01*
X129921000Y-123571000D02*
X128524000Y-124968000D01*
X129921000Y-119824500D02*
X129921000Y-123571000D01*
X127762000Y-102235000D02*
X129032000Y-100965000D01*
X128524000Y-124968000D02*
X119951500Y-124968000D01*
X119951500Y-124968000D02*
X118491000Y-123507500D01*
X118491000Y-123507500D02*
X118491000Y-106426000D01*
X118491000Y-106426000D02*
X122682000Y-102235000D01*
X122301000Y-119824500D02*
X122301000Y-122110500D01*
X151266000Y-69224000D02*
X149733000Y-69224000D01*
X156337000Y-74168000D02*
X156210000Y-74168000D01*
X156210000Y-74168000D02*
X151266000Y-69224000D01*
X120205500Y-119824500D02*
X122301000Y-119824500D01*
X156337000Y-74168000D02*
X139319000Y-74168000D01*
X135763000Y-77724000D02*
X135763000Y-100139500D01*
X135763000Y-100139500D02*
X122872500Y-113030000D01*
X122872500Y-113030000D02*
X121412000Y-113030000D01*
X120205500Y-114236500D02*
X120205500Y-119824500D01*
X139319000Y-74168000D02*
X135763000Y-77724000D01*
X121412000Y-113030000D02*
X120205500Y-114236500D01*
X156210000Y-71945500D02*
X156210000Y-71065500D01*
X156210000Y-71065500D02*
X154813000Y-69668500D01*
X194425000Y-75045000D02*
X177685000Y-75045000D01*
X195072000Y-75692000D02*
X194425000Y-75045000D01*
X196088000Y-92456000D02*
X196088000Y-80518000D01*
X195072000Y-79502000D02*
X195072000Y-75692000D01*
X196088000Y-80518000D02*
X195072000Y-79502000D01*
X195199000Y-74295000D02*
X177165000Y-74295000D01*
X196088000Y-79248000D02*
X196088000Y-75184000D01*
X197104000Y-93472000D02*
X197104000Y-80264000D01*
X196088000Y-75184000D02*
X195199000Y-74295000D01*
X197104000Y-80264000D02*
X196088000Y-79248000D01*
X196088000Y-73660000D02*
X197104000Y-74676000D01*
X176530000Y-73660000D02*
X196088000Y-73660000D01*
X197104000Y-74676000D02*
X197104000Y-78613000D01*
X201726800Y-97586800D02*
X203276200Y-97586800D01*
X197104000Y-78613000D02*
X198120000Y-79629000D01*
X198120000Y-79629000D02*
X198120000Y-93980000D01*
X198120000Y-93980000D02*
X201726800Y-97586800D01*
X199821800Y-89966800D02*
X203276200Y-89966800D01*
X196977000Y-73025000D02*
X198120000Y-74168000D01*
X175895000Y-73025000D02*
X196977000Y-73025000D01*
X198120000Y-74168000D02*
X198120000Y-77724000D01*
X198120000Y-77724000D02*
X199136000Y-78740000D01*
X199136000Y-78740000D02*
X199136000Y-89281000D01*
X199136000Y-89281000D02*
X199821800Y-89966800D01*
X197866000Y-72390000D02*
X175260000Y-72390000D01*
X199136000Y-77216000D02*
X199136000Y-73660000D01*
X200152000Y-82296000D02*
X200152000Y-78232000D01*
X199136000Y-73660000D02*
X197866000Y-72390000D01*
X200152000Y-78232000D02*
X199136000Y-77216000D01*
X198755000Y-71755000D02*
X200152000Y-73152000D01*
X201726800Y-87426800D02*
X203276200Y-87426800D01*
X201168000Y-77724000D02*
X201168000Y-86868000D01*
X174625000Y-71755000D02*
X198755000Y-71755000D01*
X200152000Y-76708000D02*
X201168000Y-77724000D01*
X200152000Y-73152000D02*
X200152000Y-76708000D01*
X201168000Y-86868000D02*
X201726800Y-87426800D01*
X157734000Y-61341000D02*
X157734000Y-64643000D01*
X145161000Y-64516000D02*
X150622000Y-64516000D01*
X153797000Y-61341000D02*
X157734000Y-61341000D01*
X150622000Y-64516000D02*
X153797000Y-61341000D01*
X158623000Y-60452000D02*
X157734000Y-61341000D01*
X216598500Y-60452000D02*
X158623000Y-60452000D01*
X218437500Y-65198000D02*
X218437500Y-62291000D01*
X218437500Y-62291000D02*
X216598500Y-60452000D01*
X214147500Y-64563000D02*
X214067500Y-64643000D01*
X214114500Y-65198000D02*
X216537500Y-65198000D01*
X214067500Y-64643000D02*
X214067500Y-65151000D01*
X214067500Y-65151000D02*
X214114500Y-65198000D01*
X214067500Y-63627000D02*
X214067500Y-64643000D01*
X212017500Y-62230000D02*
X212017500Y-63627000D01*
X212017500Y-63627000D02*
X214067500Y-63627000D01*
D26*
X214147500Y-67898000D02*
X214067500Y-67818000D01*
X216537500Y-67898000D02*
X214147500Y-67898000D01*
D25*
X215470500Y-109724300D02*
X215455500Y-109709300D01*
X215709500Y-105270300D02*
X215709500Y-105261300D01*
X215582500Y-105388300D02*
X215700500Y-105270300D01*
D26*
X215709500Y-105261300D02*
X215700500Y-105270300D01*
X212162500Y-105270300D02*
X215573500Y-105270300D01*
X215582500Y-109718300D02*
X215582500Y-105388300D01*
X216537500Y-71501000D02*
X214269500Y-71501000D01*
X215700500Y-101908500D02*
X215700500Y-105270300D01*
X219701000Y-75057000D02*
X217433000Y-75057000D01*
X219646500Y-71501000D02*
X216537500Y-71501000D01*
X219661500Y-71516000D02*
X219646500Y-71501000D01*
D25*
X214269500Y-71501000D02*
X213169500Y-71501000D01*
X213169500Y-75105500D02*
X213375000Y-75311000D01*
X213169500Y-71501000D02*
X213169500Y-75105500D01*
D26*
X216537500Y-67898000D02*
X216537500Y-71501000D01*
X219661500Y-74422000D02*
X219661500Y-71516000D01*
X213360000Y-75326000D02*
X213375000Y-75311000D01*
X213360000Y-77089000D02*
X213360000Y-75326000D01*
X212979000Y-77470000D02*
X213360000Y-77089000D01*
X215709500Y-100012500D02*
X215646000Y-99949000D01*
X215709500Y-101917500D02*
X215709500Y-100012500D01*
X207010000Y-78295500D02*
X207835500Y-77470000D01*
X215646000Y-99949000D02*
X207010000Y-99949000D01*
X207010000Y-99949000D02*
X207010000Y-78295500D01*
X207835500Y-77470000D02*
X212979000Y-77470000D01*
D25*
X201498200Y-69646800D02*
X203276200Y-69646800D01*
X201168000Y-69977000D02*
X201498200Y-69646800D01*
X201168000Y-75692000D02*
X201168000Y-69977000D01*
X168021000Y-86106000D02*
X167005000Y-85090000D01*
X195072000Y-81280000D02*
X195072000Y-84836000D01*
X193802000Y-86106000D02*
X168021000Y-86106000D01*
X195072000Y-84836000D02*
X193802000Y-86106000D01*
X192532000Y-84328000D02*
X169164000Y-84328000D01*
X194056000Y-78232000D02*
X193040000Y-79248000D01*
X193040000Y-83820000D02*
X192532000Y-84328000D01*
X193040000Y-79248000D02*
X193040000Y-83820000D01*
X168529000Y-85344000D02*
X168275000Y-85090000D01*
X193040000Y-85344000D02*
X168529000Y-85344000D01*
X194056000Y-79756000D02*
X194056000Y-84328000D01*
X194056000Y-84328000D02*
X193040000Y-85344000D01*
X169164000Y-82296000D02*
X192024000Y-82296000D01*
X192024000Y-83312000D02*
X169164000Y-83312000D01*
D26*
X205536800Y-84886800D02*
X203276200Y-84886800D01*
X205613000Y-84810600D02*
X205689200Y-84886800D01*
X207645000Y-75438000D02*
X207645000Y-72832000D01*
X205740000Y-77343000D02*
X207645000Y-75438000D01*
X205740000Y-102463600D02*
X205740000Y-77343000D01*
X203276200Y-102666800D02*
X205536800Y-102666800D01*
X205536800Y-102666800D02*
X205740000Y-102463600D01*
D25*
X212069500Y-75305500D02*
X212075000Y-75311000D01*
X212069500Y-72451000D02*
X212069500Y-75305500D01*
D26*
X207645000Y-72517000D02*
X207645000Y-72832000D01*
X207708500Y-72453500D02*
X207645000Y-72517000D01*
X212069500Y-72451000D02*
X212067000Y-72453500D01*
X212067000Y-72453500D02*
X207708500Y-72453500D01*
X207645000Y-69596000D02*
X207645000Y-72832000D01*
D25*
X155523500Y-75045000D02*
X156349000Y-75045000D01*
X155511500Y-75057000D02*
X155523500Y-75045000D01*
X141859000Y-75057000D02*
X155511500Y-75057000D01*
X139573000Y-77343000D02*
X141859000Y-75057000D01*
X138303000Y-101219000D02*
X139573000Y-99949000D01*
X139573000Y-99949000D02*
X139573000Y-77343000D01*
D26*
X215521500Y-70551000D02*
X214269500Y-70551000D01*
D25*
X216090500Y-62230000D02*
X214067500Y-62230000D01*
X217487500Y-63627000D02*
X216090500Y-62230000D01*
X217487500Y-66548000D02*
X217487500Y-63627000D01*
X218437500Y-67898000D02*
X218437500Y-66548000D01*
X218437500Y-66548000D02*
X217487500Y-66548000D01*
D26*
X218437500Y-70551000D02*
X218437500Y-67898000D01*
X211001500Y-121390300D02*
X210977300Y-121414500D01*
X211001500Y-119189500D02*
X211001500Y-121390300D01*
D25*
X212358500Y-114371300D02*
X212401500Y-114414300D01*
X212410500Y-114405300D02*
X212401500Y-114414300D01*
X215464500Y-114411300D02*
X215455500Y-114420300D01*
X215455500Y-119237300D02*
X215452500Y-119240300D01*
D26*
X213177300Y-119190700D02*
X213177300Y-121414500D01*
X215401700Y-119189500D02*
X215452500Y-119240300D01*
X213051500Y-119189500D02*
X215401700Y-119189500D01*
X215455500Y-115309300D02*
X215455500Y-119237300D01*
D25*
X210078500Y-101875300D02*
X210112500Y-101841300D01*
D26*
X208978500Y-116903500D02*
X208978500Y-123380500D01*
X210112500Y-105270300D02*
X210112500Y-115769500D01*
X210112500Y-115769500D02*
X208978500Y-116903500D01*
X210911300Y-123380500D02*
X210977300Y-123314500D01*
X208978500Y-123380500D02*
X210911300Y-123380500D01*
X210112500Y-105270300D02*
X210112500Y-101841300D01*
D25*
X103822500Y-73710500D02*
X103708500Y-73596500D01*
X124333000Y-71129000D02*
X123063000Y-72399000D01*
X122491500Y-82867500D02*
X120523000Y-82867500D01*
X123063000Y-82296000D02*
X122491500Y-82867500D01*
X123063000Y-72399000D02*
X123063000Y-82296000D01*
X103708500Y-75762000D02*
X103708500Y-73596500D01*
X118999000Y-82867500D02*
X117856000Y-81724500D01*
X120523000Y-82867500D02*
X118999000Y-82867500D01*
X117856000Y-81724500D02*
X117856000Y-78930500D01*
X117094000Y-78168500D02*
X106115000Y-78168500D01*
X117856000Y-78930500D02*
X117094000Y-78168500D01*
X106115000Y-78168500D02*
X103708500Y-75762000D01*
X120523000Y-81597500D02*
X121475500Y-81597500D01*
X121475500Y-81597500D02*
X121793000Y-81280000D01*
X121793000Y-81280000D02*
X121793000Y-73660000D01*
X120777000Y-72644000D02*
X120777000Y-71129000D01*
X121793000Y-73660000D02*
X120777000Y-72644000D01*
X119570500Y-81597500D02*
X120523000Y-81597500D01*
X119126000Y-81153000D02*
X119570500Y-81597500D01*
X106489500Y-71056500D02*
X107061000Y-71628000D01*
X103708500Y-71056500D02*
X106489500Y-71056500D01*
X108140500Y-76962000D02*
X117665500Y-76962000D01*
X119126000Y-78422500D02*
X119126000Y-81153000D01*
X107061000Y-71628000D02*
X107061000Y-75882500D01*
X107061000Y-75882500D02*
X108140500Y-76962000D01*
X117665500Y-76962000D02*
X119126000Y-78422500D01*
X109664500Y-75755500D02*
X115951000Y-75755500D01*
X109347000Y-71120000D02*
X109347000Y-75438000D01*
X109347000Y-75438000D02*
X109664500Y-75755500D01*
X103708500Y-68516500D02*
X106743500Y-68516500D01*
X106743500Y-68516500D02*
X109347000Y-71120000D01*
X120523000Y-77978000D02*
X120523000Y-80327500D01*
X115951000Y-75755500D02*
X118300500Y-75755500D01*
X118300500Y-75755500D02*
X120523000Y-77978000D01*
X116459000Y-75628500D02*
X116586000Y-75755500D01*
X116459000Y-71129000D02*
X116459000Y-75628500D01*
X106426000Y-100711000D02*
X103772000Y-100711000D01*
X110617000Y-96520000D02*
X106426000Y-100711000D01*
X127381000Y-99568000D02*
X127381000Y-98806000D01*
X125095000Y-96520000D02*
X110617000Y-96520000D01*
X127381000Y-98806000D02*
X125095000Y-96520000D01*
X107696000Y-103251000D02*
X103772000Y-103251000D01*
X108445000Y-102502000D02*
X107696000Y-103251000D01*
X123698000Y-97282000D02*
X111760000Y-97282000D01*
X111760000Y-97282000D02*
X108445000Y-100597000D01*
X124460000Y-98044000D02*
X123698000Y-97282000D01*
X108445000Y-100597000D02*
X108445000Y-102502000D01*
X124460000Y-99568000D02*
X124460000Y-98044000D01*
X101092000Y-104902000D02*
X101981000Y-105791000D01*
X101981000Y-105791000D02*
X103772000Y-105791000D01*
X101092000Y-99695000D02*
X101092000Y-104902000D01*
X112141000Y-94996000D02*
X109347000Y-94996000D01*
X117348000Y-89789000D02*
X112141000Y-94996000D01*
X109347000Y-94996000D02*
X105664000Y-98679000D01*
X105664000Y-98679000D02*
X102108000Y-98679000D01*
X118999000Y-89789000D02*
X117348000Y-89789000D01*
X102108000Y-98679000D02*
X101092000Y-99695000D01*
X125603000Y-90678000D02*
X121920000Y-90678000D01*
X125603000Y-76517500D02*
X125603000Y-90678000D01*
X124841000Y-95758000D02*
X121920000Y-95758000D01*
X125730000Y-94869000D02*
X124841000Y-95758000D01*
X125730000Y-94107000D02*
X125730000Y-94869000D01*
X110490000Y-117665500D02*
X110553500Y-117602000D01*
X110490000Y-122165000D02*
X110490000Y-117665500D01*
X116840000Y-98552000D02*
X116840000Y-119761000D01*
X105410000Y-120510300D02*
X105410000Y-122165000D01*
X105473500Y-117602000D02*
X105410000Y-117665500D01*
X105410000Y-117665500D02*
X105410000Y-120510300D01*
D27*
G36*
X153543000Y-86868000D02*
G01*
X146177000Y-86868000D01*
X146177000Y-85633292D01*
X146211002Y-85569680D01*
X146247312Y-85449982D01*
X146259572Y-85325500D01*
X146259572Y-84425500D01*
X146247312Y-84301018D01*
X146211002Y-84181320D01*
X146177000Y-84117708D01*
X146177000Y-82633292D01*
X146211002Y-82569680D01*
X146247312Y-82449982D01*
X146259572Y-82325500D01*
X146259572Y-81425500D01*
X146247312Y-81301018D01*
X146211002Y-81181320D01*
X146177000Y-81117708D01*
X146177000Y-80137000D01*
X153543000Y-80137000D01*
X153543000Y-86868000D01*
G37*
X153543000Y-86868000D02*
X146177000Y-86868000D01*
X146177000Y-85633292D01*
X146211002Y-85569680D01*
X146247312Y-85449982D01*
X146259572Y-85325500D01*
X146259572Y-84425500D01*
X146247312Y-84301018D01*
X146211002Y-84181320D01*
X146177000Y-84117708D01*
X146177000Y-82633292D01*
X146211002Y-82569680D01*
X146247312Y-82449982D01*
X146259572Y-82325500D01*
X146259572Y-81425500D01*
X146247312Y-81301018D01*
X146211002Y-81181320D01*
X146177000Y-81117708D01*
X146177000Y-80137000D01*
X153543000Y-80137000D01*
X153543000Y-86868000D01*
G36*
X203073000Y-123063000D02*
G01*
X187198000Y-123063000D01*
X187173224Y-123065440D01*
X187149399Y-123072667D01*
X187127443Y-123084403D01*
X187108197Y-123100197D01*
X187092403Y-123119443D01*
X187080667Y-123141399D01*
X187073440Y-123165224D01*
X187071000Y-123190000D01*
X187071000Y-137922000D01*
X169418000Y-137922000D01*
X169418000Y-111887000D01*
X203073000Y-111887000D01*
X203073000Y-123063000D01*
G37*
X203073000Y-123063000D02*
X187198000Y-123063000D01*
X187173224Y-123065440D01*
X187149399Y-123072667D01*
X187127443Y-123084403D01*
X187108197Y-123100197D01*
X187092403Y-123119443D01*
X187080667Y-123141399D01*
X187073440Y-123165224D01*
X187071000Y-123190000D01*
X187071000Y-137922000D01*
X169418000Y-137922000D01*
X169418000Y-111887000D01*
X203073000Y-111887000D01*
X203073000Y-123063000D01*
M02*
